<svg width="32" height="32" viewBox="0 0 32 32" fill="none" xmlns="http://www.w3.org/2000/svg">
<path d="M17.6 0.0799999V3.312C23.92 4.096 28.8 9.472 28.8 16C28.8 21.136 25.728 25.6 21.248 27.648L17.6 24V32H25.6L23.648 30.048C28.656 27.312 32 22.016 32 16C32 7.712 25.68 0.88 17.6 0.0799999ZM14.4 0C11.28 0.32 8.32 1.536 5.888 3.536L8.16 5.808C9.97635 4.4083 12.1278 3.50909 14.4 3.2V0ZM3.52 5.888C1.536 8.32 0.32 11.28 0 14.4H3.2C3.504 12.128 4.4 9.968 5.808 8.16L3.52 5.888ZM6.4 9.6V12.8H11.2V14.4H9.6C7.84 14.4 6.4 15.84 6.4 17.6V22.4H14.4V19.2H9.6V17.6H11.2C12.976 17.6 14.4 16.176 14.4 14.4V12.8C14.4 11.9513 14.0629 11.1374 13.4627 10.5373C12.8626 9.93714 12.0487 9.6 11.2 9.6H6.4ZM16 9.6V17.6H20.8V22.4H24V17.6H25.6V14.4H24V9.6H20.8V14.4H19.2V9.6H16ZM0 17.6C0.32 20.72 1.552 23.68 3.552 26.112L5.824 23.84C4.41857 22.0253 3.51378 19.8737 3.2 17.6H0ZM8.176 26.192L5.888 28.464C8.31901 30.4488 11.2782 31.6781 14.4 32V28.8C12.1306 28.4985 9.9824 27.5984 8.176 26.192Z" fill="black"/>
</svg>
