<svg width="32" height="32" viewBox="0 0 32 32" fill="none" xmlns="http://www.w3.org/2000/svg">
<g clip-path="url(#clip0_3374_437)">
<path fill-rule="evenodd" clip-rule="evenodd" d="M22.1571 14.1541H17.4642L20.2617 7.62738C20.3019 7.53373 20.3181 7.43159 20.3091 7.3301C20.3 7.22862 20.2659 7.13098 20.2097 7.04595C20.1536 6.96091 20.0773 6.89114 19.9875 6.84289C19.8978 6.79465 19.7975 6.76944 19.6956 6.76953H13.5417C13.4212 6.76942 13.3033 6.80471 13.2027 6.871C13.102 6.9373 13.0231 7.03169 12.9756 7.14245L9.28327 15.7578C9.24313 15.8515 9.22686 15.9536 9.23594 16.0551C9.24501 16.1566 9.27914 16.2542 9.33526 16.3393C9.39139 16.4243 9.46774 16.4941 9.55748 16.5423C9.64722 16.5906 9.74754 16.6158 9.84943 16.6157H12.8943L9.27835 25.6175C9.03219 26.2292 9.79158 26.7474 10.2716 26.2945L16.455 20.4569L22.5571 15.2372C22.6527 15.1555 22.721 15.0464 22.7527 14.9246C22.7844 14.8029 22.778 14.6743 22.7344 14.5563C22.6909 14.4383 22.6122 14.3365 22.5089 14.2646C22.4057 14.1927 22.2829 14.1541 22.1571 14.1541ZM16.5313 15.3849H20.4907L15.6316 19.5425L11.4654 23.4748L14.3762 16.2292C14.4136 16.1359 14.4276 16.0347 14.4169 15.9347C14.4061 15.8347 14.3711 15.7388 14.3147 15.6555C14.2584 15.5722 14.1824 15.504 14.0936 15.4568C14.0048 15.4096 13.9057 15.3849 13.8051 15.3849H10.7823L13.9479 8.0003H18.7627L15.9651 14.5271C15.925 14.6207 15.9087 14.7229 15.9178 14.8243C15.9269 14.9258 15.961 15.0235 16.0171 15.1085C16.0732 15.1935 16.1496 15.2633 16.2393 15.3116C16.3291 15.3598 16.4294 15.385 16.5313 15.3849Z" fill="black"/>
<path d="M5.11091 6.00337C4.99226 5.88455 4.92567 5.72347 4.92578 5.55555C4.9259 5.38763 4.99271 5.22664 5.11153 5.10798C5.23035 4.98933 5.39143 4.92274 5.55935 4.92285C5.72727 4.92297 5.88826 4.98978 6.00691 5.1086L26.8943 25.996C27.013 26.1146 27.0796 26.2756 27.0796 26.4434C27.0796 26.6112 27.013 26.7721 26.8943 26.8908C26.7756 27.0094 26.6147 27.0761 26.4469 27.0761C26.2791 27.0761 26.1182 27.0094 25.9995 26.8908L5.11091 6.00337Z" fill="black"/>
<path fill-rule="evenodd" clip-rule="evenodd" d="M16.0018 30.1537C23.8184 30.1537 30.1556 23.8165 30.1556 15.9998C30.1556 8.18323 23.8184 1.846 16.0018 1.846C8.18519 1.846 1.84796 8.18323 1.84796 15.9998C1.84796 23.8165 8.18519 30.1537 16.0018 30.1537ZM16.0018 31.3845C24.499 31.3845 31.3864 24.4971 31.3864 15.9998C31.3864 7.50262 24.499 0.615234 16.0018 0.615234C7.50457 0.615234 0.617188 7.50262 0.617188 15.9998C0.617188 24.4971 7.50457 31.3845 16.0018 31.3845Z" fill="black"/>
</g>
<defs>
<clipPath id="clip0_3374_437">
<rect width="32" height="32" fill="white"/>
</clipPath>
</defs>
</svg>
