<svg width="32" height="32" viewBox="0 0 32 32" fill="none" xmlns="http://www.w3.org/2000/svg">
<path d="M8 0C6.24 0 4.8 1.44 4.8 3.2V6.4H3.2C1.44 6.4 0 7.84 0 9.6V28.8H3.2V30.4C3.2 31.28 3.92 32 4.8 32H6.4C7.28 32 8 31.28 8 30.4V28.8H24V30.4C24 31.28 24.72 32 25.6 32H27.2C28.08 32 28.8 31.28 28.8 30.4V28.8H32V9.6C32 8.75131 31.6629 7.93737 31.0627 7.33726C30.4626 6.73714 29.6487 6.4 28.8 6.4H27.2V3.2C27.2 2.35131 26.8629 1.53737 26.2627 0.937258C25.6626 0.337142 24.8487 0 24 0H8ZM19.2 12.8V9.6H28.8V12.8H19.2ZM19.2 19.2V16H28.8V19.2H19.2ZM8 3.2H24V6.4H8V3.2ZM8 9.6V16H11.2L6.4 25.6V19.2H3.2L8 9.6Z" fill="black"/>
</svg>
