<svg width="32" height="32" viewBox="0 0 32 32" fill="none" xmlns="http://www.w3.org/2000/svg">
<path d="M25.5856 32C26.7591 32.0025 27.9108 31.7627 28.9147 31.3068C29.9187 30.851 30.7362 30.1967 31.2779 29.4155C31.8195 28.6344 32.0643 27.7565 31.9856 26.8779C31.9068 25.9993 31.5076 25.1539 30.8314 24.4342C30.1553 23.7145 29.2284 23.1483 28.1521 22.7974C27.0758 22.4466 25.8917 22.3247 24.7293 22.4451C23.5669 22.5654 22.471 22.9234 21.5615 23.4799C20.6521 24.0363 19.9642 24.7698 19.573 25.6H8.82704L13.07 20.704C14.3009 20.8307 15.549 20.8307 16.7799 20.704L18.9547 23.2C19.8502 22.4 21.0015 21.696 22.3874 21.28L21.0868 19.792C23.6974 18.904 25.9121 17.4706 27.4661 15.6632C29.02 13.8559 29.8476 11.7509 29.8499 9.59999H0C0.00413794 11.7527 0.83489 13.8589 2.39281 15.6664C3.95073 17.474 6.1698 18.9063 8.7844 19.792L0.362463 29.52C0.103662 29.8735 0.032329 30.2873 0.162743 30.6786C0.293158 31.0699 0.615695 31.4098 1.0658 31.6302C1.5159 31.8507 2.06035 31.9355 2.59016 31.8675C3.11998 31.7996 3.59607 31.5841 3.92313 31.264L6.05527 28.8H19.573C20.0129 29.7337 20.8269 30.5424 21.9033 31.1153C22.9797 31.6882 24.266 31.9972 25.5856 32ZM25.5856 25.6C26.1511 25.6 26.6934 25.7686 27.0933 26.0686C27.4931 26.3687 27.7178 26.7756 27.7178 27.2C27.7178 28.08 26.7583 28.8 25.5856 28.8C24.413 28.8 23.4535 28.08 23.4535 27.2C23.4535 26.7756 23.6781 26.3687 24.078 26.0686C24.4778 25.7686 25.0202 25.6 25.5856 25.6ZM5.15977 12.8H24.6901C23.8589 14.2242 22.4926 15.4359 20.7583 16.2867C19.024 17.1375 16.9969 17.5906 14.925 17.5906C12.853 17.5906 10.8259 17.1375 9.09159 16.2867C7.35731 15.4359 5.99101 14.2242 5.15977 12.8ZM9.40272 8H11.5349C11.8547 6.16 12.0252 5.376 9.59461 3.264C8.74176 2.464 8.1874 2.032 8.65647 0H6.54566C6.29081 0.845196 6.33163 1.72549 6.66413 2.55535C6.99664 3.38521 7.60953 4.13642 8.44326 4.736C8.91233 5.12 10.1276 5.808 9.40272 8ZM14.6904 8H16.8226C17.1424 6.16 17.3129 5.376 14.925 3.264C14.0295 2.464 13.4751 2.016 13.9442 0H11.8334C11.5785 0.845196 11.6193 1.72549 11.9518 2.55535C12.2843 3.38521 12.8972 4.13642 13.731 4.736C14.2213 5.12 15.4367 5.808 14.6904 8ZM20.0634 8H22.1955C22.5154 6.16 22.6859 5.376 20.2553 3.264C19.4024 2.464 18.8481 2.032 19.3172 0H17.2063C16.9515 0.845196 16.9923 1.72549 17.3248 2.55535C17.6573 3.38521 18.2702 4.13642 19.1039 4.736C19.573 5.12 20.7883 5.808 20.0634 8Z" fill="black"/>
</svg>
