<svg width="34" height="33" viewBox="0 0 34 33" fill="none" xmlns="http://www.w3.org/2000/svg">
<path d="M21.7188 14.329V6.18262C21.7188 5.63033 22.1665 5.18262 22.7187 5.18262H30.5147C31.067 5.18262 31.5147 5.63033 31.5147 6.18262V14.329C31.5147 14.8812 31.067 15.329 30.5147 15.329H22.7188C22.1665 15.329 21.7188 14.8812 21.7188 14.329Z" stroke="black"/>
<path d="M21.7183 10.6465H19.106L6.69786 20.7928H5.39174M5.39174 20.7928V17.6709L0.820312 20.7928L5.39174 24.6953V20.7928Z" stroke="black"/>
<path d="M2.78125 12.4878V1C2.78125 0.723858 3.00511 0.5 3.28125 0.5H18.6078C18.8839 0.5 19.1078 0.723857 19.1078 1V3.26242C19.1078 3.42677 19.027 3.58062 18.8917 3.67396L5.5217 12.8993C5.43821 12.957 5.33917 12.9878 5.23773 12.9878H3.28125C3.00511 12.9878 2.78125 12.7639 2.78125 12.4878Z" stroke="black"/>
<path d="M27.0433 8.30469H25.6367V12.9876H26.4405V11.4266H27.0433C27.7084 11.4266 28.249 10.7268 28.249 9.86566C28.249 9.00452 27.7084 8.30469 27.0433 8.30469ZM27.0835 10.386H26.4405V9.34534H27.0835C27.3045 9.34534 27.4854 9.57948 27.4854 9.86566C27.4854 10.1518 27.3045 10.386 27.0835 10.386Z" fill="black"/>
<path d="M3.43359 31.9997V29.8778C3.43359 29.6016 3.65745 29.3778 3.93359 29.3778H7.81908C7.93903 29.3778 8.05498 29.3347 8.14578 29.2563L19.6194 19.3529C19.7102 19.2746 19.8261 19.2314 19.9461 19.2314H32.3213C32.5975 19.2314 32.8213 19.4553 32.8213 19.7314V31.9997C32.8213 32.2759 32.5975 32.4997 32.3213 32.4997H3.93359C3.65745 32.4997 3.43359 32.2759 3.43359 31.9997Z" stroke="black"/>
</svg>
