<svg width="32" height="32" viewBox="0 0 32 32" fill="none" xmlns="http://www.w3.org/2000/svg">
<path d="M18.4615 0.000222636H20.9231C21.6123 0.000222636 22.1538 0.670694 22.1538 1.52402V6.97922L23.9508 9.20397C27.0769 9.56968 29.5385 12.8001 29.5385 16.762C29.5385 20.9372 26.7569 24.381 23.3846 24.381C20.0123 24.381 17.2308 20.9372 17.2308 16.762C17.2308 13.6535 18.7569 10.9716 20.9231 9.78301L19.9385 8.5335L13.8585 12.8306C14.4246 13.9887 14.7692 15.3296 14.7692 16.762C14.7692 20.9372 11.9877 24.381 8.61538 24.381C5.24308 24.381 2.46154 20.9372 2.46154 16.762C2.46154 12.5868 5.24308 9.14302 8.61538 9.14302C9.10769 9.14302 9.6 9.23444 10.0677 9.38682L9.00923 6.09542H8.44308C6.76923 6.12589 6.76923 3.01734 8.44308 3.04782H13.4154C15.0892 3.01734 15.0892 6.12589 13.4154 6.09542H11.6677L12.9231 9.99634L19.6923 5.21161V3.04782H18.4615C16.7877 3.0783 16.7877 -0.0302533 18.4615 0.000222636ZM8.61538 12.1906C6.57231 12.1906 4.92308 14.2325 4.92308 16.762C4.92308 19.2915 6.57231 21.3334 8.61538 21.3334C10.6585 21.3334 12.3077 19.2915 12.3077 16.762C12.3077 14.2325 10.6585 12.1906 8.61538 12.1906ZM23.3846 12.1906C21.3415 12.1906 19.6923 14.2325 19.6923 16.762C19.6923 19.2915 21.3415 21.3334 23.3846 21.3334C25.4277 21.3334 27.0769 19.2915 27.0769 16.762C27.0769 14.2325 25.4277 12.1906 23.3846 12.1906ZM25.8462 28.9524L24.6154 25.9048H29.5385L32 32H0L2.46154 25.9048H7.38462L6.15385 28.9524H25.8462Z" fill="black"/>
</svg>
