<svg width="34" height="34" viewBox="0 0 34 34" fill="none" xmlns="http://www.w3.org/2000/svg">
<path d="M1.286 27.7021C1.736 30.3741 4.502 32.4684 7.87 32.5916C10.702 32.6956 13.58 32.75 16.75 32.75C19.92 32.75 22.798 32.6956 25.63 32.59C28.998 32.4684 31.764 30.3741 32.214 27.7021C32.508 25.9581 32.75 24.1709 32.75 22.3502C32.75 20.5294 32.508 18.7422 32.214 16.9982C31.764 14.3263 28.998 12.2319 25.63 12.1087C22.6719 12.0005 19.7111 11.9477 16.75 11.9503C13.58 11.9503 10.702 12.0047 7.87 12.1103C4.502 12.2319 1.736 14.3263 1.286 16.9982C0.99 18.7422 0.75 20.5294 0.75 22.3502C0.75 24.1709 0.992 25.9581 1.286 27.7021Z" stroke="black" stroke-width="1.5"/>
<path d="M7.75391 11.9499V7.94992C7.75391 6.04038 8.70212 4.20905 10.3899 2.85881C12.0778 1.50856 14.367 0.75 16.7539 0.75C19.1409 0.75 21.43 1.50856 23.1179 2.85881C24.8057 4.20905 25.7539 6.04038 25.7539 7.94992V11.9499" stroke="black" stroke-width="1.5" stroke-linecap="round" stroke-linejoin="round"/>
<path d="M8.75391 25.5499V23.1499C8.75391 21.4526 9.59676 19.8247 11.0971 18.6245C12.5973 17.4243 14.6322 16.75 16.7539 16.75C18.8756 16.75 20.9105 17.4243 22.4108 18.6245C23.9111 19.8247 24.7539 21.4526 24.7539 23.1499V25.5499" stroke="black" stroke-width="1.5" stroke-linecap="round"/>
<path d="M13.7539 27.9499V23.15C13.7539 22.5135 14.07 21.903 14.6326 21.4529C15.1952 21.0029 15.9583 20.75 16.7539 20.75C17.5496 20.75 18.3126 21.0029 18.8752 21.4529C19.4378 21.903 19.7539 22.5135 19.7539 23.15M19.7539 27.9499V26.3499" stroke="black" stroke-width="1.5" stroke-linecap="round"/>
</svg>
