<svg width="33" height="33" viewBox="0 0 33 33" fill="none" xmlns="http://www.w3.org/2000/svg">
<path d="M5.64286 32.5H1C0.723858 32.5 0.5 32.2761 0.5 32V1C0.5 0.723858 0.723858 0.5 1 0.5H32C32.2761 0.5 32.5 0.723858 32.5 1V32C32.5 32.2761 32.2761 32.5 32 32.5H29.0714" stroke="black"/>
<path d="M7.8125 29.9398L14.398 13.6128C14.4742 13.4237 14.6577 13.2998 14.8617 13.2998H18.1348C18.3387 13.2998 18.5222 13.4236 18.5985 13.6128L25.1839 29.9398" stroke="black"/>
<path d="M6.44241 28.0196H4.53385C4.31061 28.0196 4.11441 27.8717 4.05309 27.657L3.24241 24.8196L2.37167 20.553C2.3439 20.417 2.37398 20.2754 2.45471 20.1624L4.05784 17.9181C4.29253 17.5895 4.78329 17.6653 4.88798 18.0552C5.07136 18.7383 5.30539 19.7324 5.52813 20.9796C5.89384 23.0276 6.29003 23.5396 6.44241 23.5396H8.72813" stroke="black"/>
<path d="M26.5576 28.0196H28.4662C28.6894 28.0196 28.8856 27.8717 28.9469 27.657L29.7576 24.8196L30.6283 20.553C30.6561 20.417 30.626 20.2754 30.5453 20.1624L28.9422 17.9181C28.7075 17.5895 28.2167 17.6653 28.112 18.0552C27.9286 18.7383 27.6946 19.7324 27.4719 20.9796C27.1062 23.0276 26.71 23.5396 26.5576 23.5396H24.2719" stroke="black"/>
<path d="M8.92315 19.6995H7.66642C7.44376 19.6995 7.24793 19.5523 7.18609 19.3384L6.63744 17.4407L6.0289 14.494C6.00053 14.3566 6.03117 14.2136 6.11334 14.0999L7.06301 12.786C7.29829 12.4605 7.7821 12.5378 7.88164 12.9269C7.99971 13.3885 8.13769 13.9974 8.27009 14.7301C8.53131 16.1758 8.81431 16.5372 8.92315 16.5372H10.5558" stroke="black"/>
<path d="M24.0768 19.6995H25.3336C25.5562 19.6995 25.7521 19.5523 25.8139 19.3384L26.3626 17.4407L26.9711 14.494C26.9995 14.3566 26.9688 14.2136 26.8867 14.0999L25.937 12.786C25.7017 12.4605 25.2179 12.5378 25.1184 12.9269C25.0003 13.3885 24.8623 13.9974 24.7299 14.7301C24.4687 16.1758 24.1857 16.5372 24.0768 16.5372H22.4442" stroke="black"/>
<path d="M12.3219 13.2997H11.7288C11.5012 13.2997 11.3023 13.1459 11.2449 12.9256L10.9504 11.7938L10.5951 9.88206C10.5717 9.75592 10.5976 9.62559 10.6676 9.51805L10.9674 9.05718C11.1966 8.7048 11.7022 8.78421 11.7859 9.19617C11.8329 9.42736 11.8821 9.69203 11.93 9.98675C12.0868 10.9505 12.2566 11.1915 12.3219 11.1915H13.3015" stroke="black"/>
<path d="M20.6781 13.2997H21.2712C21.4988 13.2997 21.6977 13.1459 21.7551 12.9256L22.0496 11.7938L22.4049 9.88206C22.4283 9.75592 22.4024 9.62559 22.3324 9.51805L22.0326 9.05718C21.8034 8.7048 21.2978 8.78421 21.2141 9.19617C21.1671 9.42736 21.1179 9.69203 21.07 9.98675C20.9132 10.9505 20.7434 11.1915 20.6781 11.1915H19.6985" stroke="black"/>
<path d="M14.6719 11.38L15.493 10.2304C15.5536 10.1456 15.5862 10.044 15.5862 9.93981V8.04004C15.5862 7.7639 15.81 7.54004 16.0862 7.54004H16.9147C17.1909 7.54004 17.4147 7.7639 17.4147 8.04004V9.93981C17.4147 10.044 17.4473 10.1456 17.5079 10.2304L18.329 11.38" stroke="black"/>
<ellipse cx="2.78549" cy="15.2198" rx="1.37143" ry="1.92" fill="black"/>
<ellipse cx="5.52768" cy="10.0997" rx="1.37143" ry="1.92" fill="black"/>
<ellipse cx="9.18393" cy="6.25984" rx="1.37143" ry="1.92" fill="black"/>
<ellipse cx="16.5003" cy="3.70027" rx="1.37143" ry="1.92" fill="black"/>
<ellipse cx="23.8128" cy="6.25984" rx="1.37143" ry="1.92" fill="black"/>
<ellipse cx="27.473" cy="10.0997" rx="1.37143" ry="1.92" fill="black"/>
<ellipse cx="30.2152" cy="15.2198" rx="1.37143" ry="1.92" fill="black"/>
<path d="M5.52734 32.5H30.2131" stroke="black"/>
</svg>
