<svg width="32" height="32" viewBox="0 0 32 32" fill="none" xmlns="http://www.w3.org/2000/svg">
<path d="M13.166 27.9996C13.166 30.1996 14.4251 31.9995 15.9954 31.9995C17.5656 31.9995 18.8247 30.1996 18.8247 27.9996C18.8247 25.7996 17.5515 23.9996 15.9954 23.9996C14.4392 23.9996 13.166 25.7996 13.166 27.9996ZM24.0024 20.7796C21.8663 17.7596 19.0228 16.0996 15.9954 16.0996C12.9679 16.0996 10.1244 17.7596 7.98828 20.7796L9.98298 23.5996C11.5816 21.3396 13.7177 20.0796 15.9812 20.0796C18.2447 20.0796 20.3809 21.3196 21.9794 23.5996L23.9741 20.7796H24.0024Z" fill="black"/>
<path d="M28.0095 15.1406C24.7982 10.6006 20.54 8.10059 15.9989 8.10059C11.4578 8.10059 7.1996 10.6006 3.98828 15.1406L5.99712 17.9605C8.67086 14.1806 12.2217 12.1006 15.9989 12.1006C19.7761 12.1006 23.3269 14.1806 26.0007 17.9605L28.0095 15.1406Z" fill="black"/>
<path d="M0 9.37996L1.99469 12.1999C5.72944 6.91997 10.7091 3.99998 16 3.99998C21.2909 3.99998 26.2564 6.91997 30.0053 12.1999L32 9.37996C27.7277 3.33999 22.0407 0 16 0C9.95933 0 4.27233 3.31999 0 9.37996Z" fill="black"/>
</svg>
