<svg width="34" height="34" viewBox="0 0 34 34" fill="none" xmlns="http://www.w3.org/2000/svg">
<path d="M7.15 8.13462H13.55M7.15 16.75H26.35M7.15 21.6731H26.35M7.15 26.5962H13.55M3.95 32.75H29.55C30.3987 32.75 31.2126 32.4907 31.8127 32.029C32.4129 31.5674 32.75 30.9413 32.75 30.2885V3.21154C32.75 2.5587 32.4129 1.9326 31.8127 1.47097C31.2126 1.00934 30.3987 0.75 29.55 0.75H3.95C3.10131 0.75 2.28737 1.00934 1.68726 1.47097C1.08714 1.9326 0.75 2.5587 0.75 3.21154V30.2885C0.75 30.9413 1.08714 31.5674 1.68726 32.029C2.28737 32.4907 3.10131 32.75 3.95 32.75Z" stroke="black" stroke-width="1.5" stroke-linecap="round" stroke-linejoin="round"/>
<path d="M26.3469 8.7503C26.7887 8.7503 27.1469 8.47478 27.1469 8.13492C27.1469 7.79505 26.7887 7.51953 26.3469 7.51953C25.905 7.51953 25.5469 7.79505 25.5469 8.13492C25.5469 8.47478 25.905 8.7503 26.3469 8.7503Z" fill="black" stroke="black" stroke-width="1.5"/>
</svg>
