<svg width="33" height="31" viewBox="0 0 33 31" fill="none" xmlns="http://www.w3.org/2000/svg">
<path d="M2.29309 5.67466C1.80919 4.9724 0.866068 6.48388 0.559662 7.01757C0.49447 7.13112 0.48191 7.2653 0.51935 7.39077L7.15952 29.6434C7.22274 29.8553 7.41757 30.0005 7.63865 30.0005H19.3294C19.6055 30.0005 19.8294 29.7766 19.8294 29.5005V27.8565C19.8294 27.7671 19.8054 27.6793 19.7599 27.6023L16.8336 22.6445C16.7437 22.4921 16.58 22.3986 16.4031 22.3986H10.9304C10.9304 22.3986 10.6094 22.4387 10.4069 22.3986C9.81634 22.2817 9.34484 22.0463 9.09821 21.2584C8.05536 17.9267 5.5167 9.04373 4.52837 5.57241C4.39733 5.11216 3.71028 5.07142 3.42295 5.4541C3.07693 5.91495 2.65691 6.20266 2.29309 5.67466ZM2.29309 5.67466C2.29309 5.92805 2.29309 6.35882 2.29309 6.05475" stroke="black"/>
<path d="M9.03809 0.5C9.52254 0.50002 10.0172 0.787107 10.4121 1.36426C10.8052 1.93901 11.0645 2.76064 11.0645 3.69238C11.0644 4.62415 10.8052 5.44577 10.4121 6.02051C10.0172 6.59766 9.52254 6.88475 9.03809 6.88477C8.55362 6.88477 8.05897 6.59768 7.66406 6.02051C7.27093 5.44577 7.01173 4.62418 7.01172 3.69238C7.01172 2.76061 7.27096 1.93901 7.66406 1.36426C8.05897 0.787087 8.55362 0.5 9.03809 0.5Z" stroke="black"/>
<path d="M27.1182 17.6924C26.7285 17.6924 26.4057 18.1772 26.4057 18.7626V19.2977H25.3369V18.7626H24.6243V19.2977H23.9118C23.522 19.2977 23.1992 19.7826 23.1992 20.368V28.9298C23.1992 29.5153 23.522 30.0001 23.9118 30.0001H31.7498C32.1396 30.0001 32.4624 29.5153 32.4624 28.9298V20.368C32.4624 19.7826 32.1396 19.2977 31.7498 19.2977H31.0373V18.7626H30.3247V19.2977H29.2559V18.7626C29.2559 18.1772 28.9331 17.6924 28.5433 17.6924H27.1182ZM27.1182 18.7626H28.5433V19.2977H27.1182V18.7626ZM23.9118 20.368H31.7498V28.9298H31.0373V20.9031H30.3247V28.9298H25.3369V20.9031H24.6243V28.9298H23.9118V20.368Z" fill="black"/>
</svg>
