<svg width="32" height="32" viewBox="0 0 32 32" fill="none" xmlns="http://www.w3.org/2000/svg">
<path d="M0 30.5455C0 31.3309 0.654545 32 1.45455 32H20.3636C21.1782 32 21.8182 31.3309 21.8182 30.5455V29.0909H0V30.5455ZM10.9091 11.6364C5.45455 11.6364 0 14.5455 0 20.3636H21.8182C21.8182 14.5455 16.3636 11.6364 10.9091 11.6364ZM3.81091 17.4545C5.42545 15.2 8.85818 14.5455 10.9091 14.5455C12.96 14.5455 16.3927 15.2 18.0073 17.4545H3.81091ZM0 23.2727H21.8182V26.1818H0V23.2727ZM24.7273 5.81818V0H21.8182V5.81818H14.5455L14.88 8.72727H28.7855L26.7491 29.0909H24.7273V32H27.2291C28.4509 32 29.4545 31.0545 29.6 29.8618L32 5.81818H24.7273Z" fill="black"/>
</svg>
