<svg width="32" height="32" viewBox="0 0 32 32" fill="none" xmlns="http://www.w3.org/2000/svg">
<path d="M8.51074 22.9219L5.73926 27.2773L1.44824 17.9893L5.86426 17.1816L8.51074 22.9219ZM21.7998 21.9883L21.2822 21.7031C20.5937 21.3237 19.9857 20.584 19.6514 19.5977L19.2178 18.3193L18.1211 19.1064L15.1123 21.2666L15.1094 21.2695C14.6105 21.6304 14.0745 21.6879 13.5889 21.5254C13.0907 21.3585 12.5757 20.9321 12.2363 20.2002L9.83594 15C9.1188 13.4326 9.61884 11.5501 10.668 10.8184L10.6758 10.8125L10.6836 10.8076L23.6836 1.37109L23.6846 1.37207C24.2172 0.992806 24.8078 0.910594 25.3535 1.09473C25.9145 1.2841 26.4632 1.76924 26.8193 2.53418V2.53516L29.0273 7.33594L29.0303 7.34082C29.7779 8.94071 29.3201 10.9052 28.2227 11.8066L28.1143 11.8906L24.9629 14.1904L24.1924 14.7529L24.7178 15.5498C25.129 16.1732 25.4004 17.0386 25.4004 17.999C25.4003 19.7591 24.5532 21.129 23.5156 21.7041L23 21.9902V29H31V31H24C22.9891 31 21.7999 29.8676 21.7998 28V21.9883Z" stroke="black" stroke-width="2"/>
</svg>
