<svg width="32" height="32" viewBox="0 0 32 32" fill="none" xmlns="http://www.w3.org/2000/svg">
<path d="M29.7141 26.4976C28.4511 26.4976 28.2639 25.8544 27.4287 25.8544C26.5935 25.8544 26.4053 26.4976 25.1429 26.4976C23.8799 26.4976 23.6927 25.8544 22.8576 25.8544C22.0224 25.8544 21.8341 26.4976 20.5717 26.4976C20.4117 26.4976 20.2704 26.4869 20.1413 26.4688C19.5434 24.4624 19.84 22.2837 20.1402 20.1557C20.28 19.1643 20.4128 18.2235 20.4538 17.312L24.7018 14.5632C25.0115 14.368 25.2514 14.0797 25.3871 13.7397L26.6474 10.5424C28.6261 10.5216 30.4287 9.4576 31.3615 7.74827C31.6944 7.14506 31.9023 6.48101 31.973 5.7957C32.0436 5.1104 31.9755 4.41789 31.7727 3.75947C31.3573 2.39733 30.4207 1.2816 29.1359 0.614933C28.3568 0.211562 27.4923 0.000701505 26.6149 0C24.6133 0 22.7845 1.07253 21.8426 2.8C21.6642 3.12946 21.521 3.4768 21.4154 3.83627C20.5546 1.75733 18.5376 0.277333 16.2389 0.277333C14.0826 0.277333 11.7157 1.47627 10.7146 4.24427C10.1578 5.18133 10.0186 6.1824 9.94664 6.752L9.93384 6.8528C9.87251 6.9408 9.67945 7.1408 9.09598 7.57013C8.47198 8.0304 8.54291 8.57653 8.60158 8.7888C8.74345 9.296 9.24585 9.64213 9.70611 9.80533C9.68478 9.97973 9.68318 10.2272 9.85918 10.456C9.89189 10.4987 9.92709 10.5364 9.96478 10.5691C9.91571 10.6763 9.88638 10.7931 9.88371 10.9173C9.87838 11.1488 9.95838 11.4443 10.3018 11.7003C10.2533 12.0587 10.2682 12.5072 10.537 12.8976C10.8181 13.3051 11.2986 13.5435 11.9637 13.6048C12.4624 13.6512 13.0938 13.5925 13.8485 13.448C13.8224 13.8704 13.681 14.2773 13.553 14.5691L8.85865 15.8027C8.30078 15.9232 7.84372 16.2731 7.60905 16.7499L4.89759 21.7664C3.87946 21.6619 3.62453 22.3584 2.94773 24.1509C2.71093 24.7765 2.70346 25.3381 2.92639 25.8192C2.99626 25.9696 3.11253 26.1435 3.28159 26.3163C3.02986 26.4176 2.72479 26.4976 2.28533 26.4976C1.02346 26.4976 0 25.8544 0 25.8544V32H31.9999V25.8544C31.9999 25.8544 30.9765 26.4976 29.7141 26.4976ZM27.0239 9.72693C26.8799 9.73973 26.737 9.75573 26.5903 9.75573C25.9855 9.75364 25.3868 9.63465 24.8271 9.40533C27.0399 8.09013 27.0783 6.1232 27.0154 5.4384C27.2901 5.24362 27.5952 5.09583 27.9183 5.00107C27.9386 5.7824 27.8613 7.59947 27.0239 9.72693ZM29.6122 8.6496C29.1209 9.06551 28.5484 9.37464 27.9311 9.55733C28.6917 7.41013 28.7306 5.6192 28.6965 4.86827C29.024 4.86041 29.351 4.89901 29.6677 4.98293C29.7951 5.42613 30.0554 6.72853 29.6122 8.6496ZM30.6682 7.36907C30.6527 7.39733 30.6325 7.4224 30.6165 7.4496C30.7018 6.5424 30.6389 5.82027 30.5477 5.32373C30.7541 5.42827 30.9679 5.56267 31.1855 5.71307C31.1254 6.29408 30.9495 6.85715 30.6682 7.36907ZM31.0165 3.9888C31.097 4.2528 31.1498 4.52 31.1797 4.7888C28.8863 3.46347 27.1151 4.43147 26.5413 4.83307C26.2318 4.69397 25.9483 4.50315 25.7029 4.2688C26.3669 3.85173 28.0149 2.9904 30.3914 2.72053C30.6629 3.10347 30.8767 3.52907 31.0165 3.9888ZM27.9839 1.00373C28.2552 1.08431 28.5188 1.18872 28.7717 1.31573C29.1294 1.50257 29.4613 1.73529 29.7589 2.008C27.4282 2.36373 25.8405 3.24427 25.2005 3.66453C25.0318 3.38795 24.9035 3.08877 24.8191 2.776C25.137 2.44907 26.1237 1.58293 27.9839 1.00373ZM24.6949 1.2016C25.2065 0.975971 25.7543 0.843579 26.3125 0.810667C25.5733 1.16747 25.0351 1.5472 24.6751 1.8512C24.6685 1.63447 24.6751 1.41753 24.6949 1.2016ZM22.5365 3.17867C22.8682 2.57735 23.3321 2.05925 23.8933 1.66347C23.9237 4.23627 25.6218 5.2576 26.2517 5.54507C26.2844 5.89052 26.2577 6.23902 26.1727 6.57547C25.4794 6.26347 23.8634 5.36107 22.432 3.39413C22.4661 3.32213 22.4976 3.24907 22.5365 3.17867ZM22.1173 4.27787C23.5877 6.12587 25.1717 6.98987 25.8922 7.3024C25.7378 7.57997 25.5447 7.83423 25.3189 8.0576C24.8639 7.94347 23.5605 7.50027 22.0752 6.09973C21.9595 5.49636 21.9739 4.87525 22.1173 4.27787ZM24.5834 8.64533C24.4069 8.75893 24.2058 8.86507 23.9925 8.96747C23.4688 8.61969 23.0241 8.16558 22.6874 7.63467C23.4378 8.1664 24.1013 8.47413 24.5834 8.64533ZM21.7381 7.5504C22.0814 8.25963 22.5813 8.88166 23.1999 9.3696L22.272 11.7232L19.0042 13.1371L18.2352 13.3392L18.3653 11.936C19.3664 11.4581 21.2389 10.2283 21.7381 7.5504ZM17.3141 6.5808L17.369 6.57973C17.7734 6.5789 18.1623 6.73506 18.4538 7.01532C18.7453 7.29558 18.9166 7.67804 18.9317 8.08213C18.9445 8.49565 18.7928 8.89736 18.5099 9.19919C18.2269 9.50103 17.8358 9.67835 17.4224 9.69227L17.3653 9.69333C16.9611 9.6943 16.5723 9.53822 16.281 9.25802C15.9896 8.97782 15.8185 8.59541 15.8037 8.19147C15.7717 7.33227 16.4485 6.6112 17.3141 6.5808ZM12.0229 12.9701C10.6821 12.8459 10.8704 11.9291 11.0282 11.3659C9.89118 10.9419 10.9418 10.424 11.4858 10.208C11.36 10.2741 11.1909 10.3675 11.0266 10.4741C10.6469 10.7216 10.7413 10.952 11.3925 10.6981C11.7002 10.5792 12.4906 10.0096 12.4906 10.0096C12.4906 10.0096 11.2074 10.216 10.6261 10.1621C10.073 10.1104 10.5045 9.79787 10.3381 9.2752C10.2964 9.27898 10.2545 9.27898 10.2128 9.2752C9.68638 9.2256 8.73171 8.63147 9.47305 8.0848C9.83358 7.8192 10.5152 7.30987 10.5573 7.00107C10.6245 6.51413 10.72 5.5792 11.2032 4.7024C11.4042 4.71413 13.9034 4.90453 15.5728 7.06987C15.3663 7.41349 15.2635 7.80946 15.2768 8.21013C15.3088 9.15627 15.9146 9.90773 16.9418 10.1771C16.7178 10.7712 16.0704 12.2293 15.0096 12.5221C13.5861 12.9163 12.6416 13.0277 12.0229 12.9701ZM17.8154 10.3013L17.5781 13.512L15.2602 14.1211C15.9717 13.4901 17.1328 11.8267 17.8154 10.3013ZM3.68693 24.4309C4.26346 22.9045 4.42932 22.5483 4.73546 22.5483C4.81066 22.5483 4.90292 22.5611 5.01972 22.5888L5.31412 22.6587L8.31145 17.112C8.44531 16.84 8.70558 16.6448 9.04265 16.5712L19.2336 13.8944L22.8858 12.3179L23.873 9.8176C23.9391 9.85493 24.0021 9.89653 24.0703 9.93227C24.6165 10.2149 25.2122 10.3984 25.8202 10.4853L24.6527 13.4491C24.5797 13.632 24.4501 13.7867 24.2751 13.8987L19.6778 16.8736L19.672 17.0811C19.6437 18.0139 19.505 19.0011 19.3578 20.0469C19.0816 22.0064 18.7909 24.1355 19.2474 26.1664C18.9477 26.0091 18.6938 25.8555 18.2853 25.8555C17.4501 25.8555 17.2624 26.4987 16 26.4987C14.7376 26.4987 14.5488 25.8555 13.7136 25.8555C13.0042 25.856 12.7568 26.3163 11.9264 26.456C12.0992 24.7461 12.0736 23.0069 12.0373 21.3995C12.0106 20.2325 11.9856 19.1312 12.048 18.1909L12.088 17.5877L9.96158 18.3563L7.26132 23.2741L7.48958 23.4837C7.55906 23.5474 7.60803 23.6302 7.63026 23.7218C7.65248 23.8134 7.64696 23.9095 7.61438 23.9979L7.38185 24.6091C7.34796 24.6967 7.29062 24.7732 7.21612 24.8304C7.14162 24.8876 7.05283 24.9232 6.95945 24.9333L6.73492 24.9557L6.64052 25.16C6.37065 25.7408 6.05172 26.0848 5.65919 26.2277C5.30132 26.0517 5.03412 25.8555 4.57172 25.8555C4.37546 25.8555 4.21652 25.8928 4.06986 25.9472C3.83679 25.792 3.70559 25.624 3.64373 25.4891C3.51359 25.2059 3.52799 24.8507 3.68693 24.4309ZM8.23145 23.1461L10.5104 18.9973L11.2314 18.7365C11.2053 19.5611 11.2261 20.4677 11.248 21.416C11.2848 23.0304 11.3194 24.7813 11.1365 26.4784C10.1386 26.3861 9.90664 25.8539 9.14291 25.8539C8.30772 25.8539 8.11998 26.4971 6.85758 26.4971C6.78772 26.4971 6.73279 26.4885 6.66879 26.4848C6.91219 26.2496 7.11462 25.9755 7.26772 25.6736C7.46029 25.6168 7.63727 25.5166 7.78503 25.3807C7.93279 25.2448 8.04738 25.0768 8.11998 24.8896L8.35358 24.2741C8.42295 24.0897 8.44804 23.8915 8.42682 23.6956C8.40561 23.4997 8.33869 23.3115 8.23145 23.1461ZM17.817 28.4864C15.2176 29.4923 10.865 27.72 7.97278 27.8747C11.6933 26.5675 14.1893 28.8432 17.817 28.4864ZM1.76373 30.3083C5.50559 29.0421 7.97225 31.2832 11.6085 30.9205C9.01331 31.9136 4.64586 30.1733 1.76373 30.3083ZM14.1818 30.3083C17.9221 29.0368 20.392 31.2853 24.0266 30.9205C21.4474 31.9189 17.0533 30.1744 14.1818 30.3083ZM20.3904 27.8747C24.1151 26.5749 26.6063 28.8416 30.2362 28.4864C27.6271 29.4896 23.2917 27.72 20.3904 27.8747Z" fill="black"/>
</svg>
