<svg width="32" height="32" viewBox="0 0 32 32" fill="none" xmlns="http://www.w3.org/2000/svg">
<path d="M22.6667 28.6756C21.1911 28.6756 20 27.1824 20 25.3335C20 23.5024 21.1911 22.0092 22.6667 22.0092C24.1422 22.0092 25.3333 23.5024 25.3333 25.3335C25.3333 27.1824 24.1422 28.6756 22.6667 28.6756ZM16 14.6671C13.7956 14.6671 12 13.1738 12 11.3428C12 9.49393 13.7956 8.00064 16 8.00064C18.2045 8.00064 20 9.49393 20 11.3428C20 13.1738 18.2045 14.6671 16 14.6671ZM9.33335 28.6756C7.85779 28.6756 6.66669 27.1824 6.66669 25.3335C6.66669 23.5024 7.85779 22.0092 9.33335 22.0092C10.8089 22.0092 12 23.5024 12 25.3335C12 27.1824 10.8089 28.6756 9.33335 28.6756ZM16 9.33394C16.7289 9.33394 17.3333 9.93837 17.3333 10.6672C17.3333 11.3961 16.7289 12.0005 16 12.0005C15.2711 12.0005 14.6667 11.3961 14.6667 10.6672C14.6667 9.93837 15.2711 9.33394 16 9.33394ZM28 16.0004C27.4311 16.0004 26.88 16.1249 26.3822 16.356C25.5289 15.2716 24.3733 14.3471 22.9867 13.636C24 12.2139 24.6045 10.4895 24.6045 8.62285V8.51618C26.5422 8.1073 28 6.38291 28 4.30296C28 1.93858 26.0622 0.000854046 23.6978 0.000854046C22.4711 0.000854046 21.3333 0.516396 20.5867 1.33415C19.2156 0.462776 17.6246 0 16 0C14.3754 0 12.7845 0.462776 11.4133 1.33415C10.6667 0.516396 9.5289 0.000854046 8.30224 0.000854046C5.9378 0.000854046 4.00002 1.93858 4.00002 4.30296C4.00002 6.36513 5.4578 8.08953 7.3778 8.51618V8.62285C7.3778 10.4895 8.00002 12.2316 8.99557 13.636C7.62668 14.3471 6.47113 15.2716 5.6178 16.356C5.01027 16.0823 4.34378 15.9655 3.67938 16.0161C3.01499 16.0668 2.37393 16.2834 1.81493 16.646C1.25593 17.0086 0.796865 17.5057 0.479784 18.0918C0.162704 18.6778 -0.00225364 19.334 2.32548e-05 20.0003C2.32548e-05 22.2225 1.7778 24.0002 4.00002 24.0002H4.10669C4.03558 24.4269 4.00002 24.8891 4.00002 25.3335C4.00002 29.0134 6.38224 32 9.33335 32C11.1289 32 12.7111 30.88 13.6889 29.1734C14.4356 29.2801 15.2 29.3334 16 29.3334C16.8 29.3334 17.5645 29.2801 18.3111 29.1734C19.2889 30.88 20.8711 32 22.6667 32C25.6178 32 28 29.0134 28 25.3335C28 24.8891 27.9644 24.4269 27.8933 24.0002H28C30.2222 24.0002 32 22.2225 32 20.0003C32 17.7782 30.2222 16.0004 28 16.0004Z" fill="black"/>
</svg>
