<svg width="32" height="32" viewBox="0 0 32 32" fill="none" xmlns="http://www.w3.org/2000/svg">
<path d="M31.5312 8.33486L20.3312 0.334857C20.0312 0.120515 19.6243 6.47285e-05 19.2 0H3.2C2.35131 0 1.53737 0.240816 0.937258 0.66947C0.337142 1.09812 0 1.67951 0 2.28571V29.7143C0 30.3205 0.337142 30.9019 0.937258 31.3305C1.53737 31.7592 2.35131 32 3.2 32H16V29.7143H3.2V2.28571H16V9.14286C16 9.74907 16.3371 10.3304 16.9373 10.7591C17.5374 11.1878 18.3513 11.4286 19.2 11.4286H28.8V16H32V9.14286C31.9999 8.83978 31.8313 8.54914 31.5312 8.33486ZM19.2 2.75886L28.1376 9.14286H19.2V2.75886Z" fill="black"/>
<path d="M23.381 31.9991C20.908 31.4654 18.8538 30.3767 17.2185 28.7331C15.5833 27.0895 14.7656 25.2375 14.7656 23.177V18.3393L23.381 16L31.9964 18.3393V23.177C31.9964 25.2369 31.1788 27.0886 29.5435 28.7322C27.9082 30.3758 25.854 31.4642 23.381 31.9991ZM23.381 31.05C25.3708 30.6027 27.0323 29.7195 28.3656 28.4003C29.699 27.0811 30.4784 25.6084 30.7041 23.9821H23.381V16.9545L15.9964 18.9502V23.5626C15.9964 23.6783 16.0169 23.8181 16.0579 23.9821H23.381V31.05Z" fill="black"/>
</svg>
