<svg width="32" height="32" viewBox="0 0 32 32" fill="none" xmlns="http://www.w3.org/2000/svg">
<path d="M6 2V7H14V2C14 0.89375 13.1063 0 12 0H8C6.89375 0 6 0.89375 6 2ZM6 10C2.6875 10 0 12.6875 0 16V29C0 30.6562 1.34375 32 3 32H17C18.6562 32 20 30.6562 20 29V16C20 12.6875 17.3125 10 14 10H6ZM10 16C12.7625 16 15 18.2375 15 21C15 23.7625 12.7625 26 10 26C7.2375 26 5 23.7625 5 21C5 18.2375 7.2375 16 10 16ZM24 3C24 2.9125 23.9375 2.8125 23.8625 2.775L22 2L21.225 0.1375C21.1875 0.0624998 21.0875 0 21 0C20.9125 0 20.8125 0.0624998 20.775 0.1375L20 2L18.1375 2.775C18.0625 2.8125 18 2.9125 18 3C18 3.0875 18.0625 3.1875 18.1375 3.225L20 4L20.775 5.8625C20.8125 5.9375 20.9125 6 21 6C21.0875 6 21.1875 5.9375 21.225 5.8625L22 4L23.8625 3.225C23.9375 3.1875 24 3.0875 24 3ZM28.775 5.8625C28.8125 5.9375 28.9125 6 29 6C29.0875 6 29.1875 5.9375 29.225 5.8625L30 4L31.8625 3.225C31.9375 3.1875 32 3.0875 32 3C32 2.9125 31.9375 2.8125 31.8625 2.775L30 2L29.225 0.1375C29.1875 0.0624998 29.0875 0 29 0C28.9125 0 28.8125 0.0624998 28.775 0.1375L28 2L26.1375 2.775C26.0625 2.8125 26 2.9125 26 3C26 3.0875 26.0625 3.1875 26.1375 3.225L28 4L28.775 5.8625ZM29.225 12.1375C29.1875 12.0625 29.0875 12 29 12C28.9125 12 28.8125 12.0625 28.775 12.1375L28 14L26.1375 14.775C26.0625 14.8125 26 14.9125 26 15C26 15.0875 26.0625 15.1875 26.1375 15.225L28 16L28.775 17.8625C28.8125 17.9375 28.9125 18 29 18C29.0875 18 29.1875 17.9375 29.225 17.8625L30 16L31.8625 15.225C31.9375 15.1875 32 15.0875 32 15C32 14.9125 31.9375 14.8125 31.8625 14.775L30 14L29.225 12.1375ZM28 9C28 8.9125 27.9375 8.8125 27.8625 8.775L26 8L25.225 6.1375C25.1875 6.0625 25.0875 6 25 6C24.9125 6 24.8125 6.0625 24.775 6.1375L24 8L22.1375 8.775C22.0625 8.8125 22 8.9125 22 9C22 9.0875 22.0625 9.1875 22.1375 9.225L24 10L24.775 11.8625C24.8125 11.9375 24.9125 12 25 12C25.0875 12 25.1875 11.9375 25.225 11.8625L26 10L27.8625 9.225C27.9375 9.1875 28 9.0875 28 9Z" fill="black"/>
</svg>
