<svg width="32" height="32" viewBox="0 0 32 32" fill="none" xmlns="http://www.w3.org/2000/svg">
<path d="M0 2C0 1.46957 0.280951 0.960859 0.781048 0.585786C1.28115 0.210714 1.95942 0 2.66667 0L29.3333 0C30.0406 0 30.7189 0.210714 31.219 0.585786C31.719 0.960859 32 1.46957 32 2V16.512C30.7151 16.1723 29.3624 15.9991 28 16C26.1445 16.0001 24.3143 16.3228 22.6532 16.943C20.9921 17.5631 19.5453 18.4637 18.4267 19.574C18.5833 19.4057 18.6671 19.2053 18.6667 19V17C18.6667 16.7348 18.5262 16.4804 18.2761 16.2929C18.0261 16.1054 17.687 16 17.3333 16H14.6667C14.313 16 13.9739 16.1054 13.7239 16.2929C13.4738 16.4804 13.3333 16.7348 13.3333 17V19C13.3333 19.2652 13.4738 19.5196 13.7239 19.7071C13.9739 19.8946 14.313 20 14.6667 20H17.3333C17.533 20 17.73 19.9664 17.91 19.9017C18.09 19.837 18.2484 19.7428 18.3733 19.626C17.103 20.9053 16.3087 22.4148 16.072 24H12C11.6464 24 11.3072 24.1054 11.0572 24.2929C10.8071 24.4804 10.6667 24.7348 10.6667 25V32H2.66667C1.95942 32 1.28115 31.7893 0.781048 31.4142C0.280951 31.0391 0 30.5304 0 30V2ZM5.33333 5V7C5.33333 7.26522 5.47381 7.51957 5.72386 7.70711C5.97391 7.89464 6.31304 8 6.66667 8H9.33333C9.68696 8 10.0261 7.89464 10.2761 7.70711C10.5262 7.51957 10.6667 7.26522 10.6667 7V5C10.6667 4.73478 10.5262 4.48043 10.2761 4.29289C10.0261 4.10536 9.68696 4 9.33333 4H6.66667C6.31304 4 5.97391 4.10536 5.72386 4.29289C5.47381 4.48043 5.33333 4.73478 5.33333 5ZM13.3333 5V7C13.3333 7.26522 13.4738 7.51957 13.7239 7.70711C13.9739 7.89464 14.313 8 14.6667 8H17.3333C17.687 8 18.0261 7.89464 18.2761 7.70711C18.5262 7.51957 18.6667 7.26522 18.6667 7V5C18.6667 4.73478 18.5262 4.48043 18.2761 4.29289C18.0261 4.10536 17.687 4 17.3333 4H14.6667C14.313 4 13.9739 4.10536 13.7239 4.29289C13.4738 4.48043 13.3333 4.73478 13.3333 5ZM22.6667 4C22.313 4 21.9739 4.10536 21.7239 4.29289C21.4738 4.48043 21.3333 4.73478 21.3333 5V7C21.3333 7.26522 21.4738 7.51957 21.7239 7.70711C21.9739 7.89464 22.313 8 22.6667 8H25.3333C25.687 8 26.0261 7.89464 26.2761 7.70711C26.5262 7.51957 26.6667 7.26522 26.6667 7V5C26.6667 4.73478 26.5262 4.48043 26.2761 4.29289C26.0261 4.10536 25.687 4 25.3333 4H22.6667ZM5.33333 11V13C5.33333 13.2652 5.47381 13.5196 5.72386 13.7071C5.97391 13.8946 6.31304 14 6.66667 14H9.33333C9.68696 14 10.0261 13.8946 10.2761 13.7071C10.5262 13.5196 10.6667 13.2652 10.6667 13V11C10.6667 10.7348 10.5262 10.4804 10.2761 10.2929C10.0261 10.1054 9.68696 10 9.33333 10H6.66667C6.31304 10 5.97391 10.1054 5.72386 10.2929C5.47381 10.4804 5.33333 10.7348 5.33333 11ZM14.6667 10C14.313 10 13.9739 10.1054 13.7239 10.2929C13.4738 10.4804 13.3333 10.7348 13.3333 11V13C13.3333 13.2652 13.4738 13.5196 13.7239 13.7071C13.9739 13.8946 14.313 14 14.6667 14H17.3333C17.687 14 18.0261 13.8946 18.2761 13.7071C18.5262 13.5196 18.6667 13.2652 18.6667 13V11C18.6667 10.7348 18.5262 10.4804 18.2761 10.2929C18.0261 10.1054 17.687 10 17.3333 10H14.6667ZM21.3333 11V13C21.3333 13.2652 21.4738 13.5196 21.7239 13.7071C21.9739 13.8946 22.313 14 22.6667 14H25.3333C25.687 14 26.0261 13.8946 26.2761 13.7071C26.5262 13.5196 26.6667 13.2652 26.6667 13V11C26.6667 10.7348 26.5262 10.4804 26.2761 10.2929C26.0261 10.1054 25.687 10 25.3333 10H22.6667C22.313 10 21.9739 10.1054 21.7239 10.2929C21.4738 10.4804 21.3333 10.7348 21.3333 11ZM6.66667 16C6.31304 16 5.97391 16.1054 5.72386 16.2929C5.47381 16.4804 5.33333 16.7348 5.33333 17V19C5.33333 19.2652 5.47381 19.5196 5.72386 19.7071C5.97391 19.8946 6.31304 20 6.66667 20H9.33333C9.68696 20 10.0261 19.8946 10.2761 19.7071C10.5262 19.5196 10.6667 19.2652 10.6667 19V17C10.6667 16.7348 10.5262 16.4804 10.2761 16.2929C10.0261 16.1054 9.68696 16 9.33333 16H6.66667Z" fill="black"/>
<path d="M24.0281 18C26.9796 18 29.3776 19.4745 29.3776 21.289C29.3776 22.2469 28.7322 23.0848 27.5122 23.7652C27.287 23.8912 27.2359 23.9606 27.2359 24.1496L27.2564 29.8075C27.2564 31.1242 25.9547 32 24.0281 32C22.0909 32 20.7892 31.1242 20.7892 29.8075L20.7997 24.1496C20.7997 23.9606 20.7485 23.8912 20.5329 23.7652C19.3033 23.0848 18.668 22.2469 18.668 21.2893C18.668 19.4748 21.0555 18 24.0281 18ZM24.0281 18.9143C21.8963 18.9143 20.1643 19.9853 20.1643 21.2893C20.1643 22.077 20.7691 22.7888 21.8552 23.2361C22.1731 23.3687 22.296 23.4883 22.296 23.7466V29.7696C22.296 30.5634 23.0031 31.0739 24.0276 31.0739C25.0425 31.0739 25.7395 30.5634 25.7395 29.7696V23.7463C25.7395 23.488 25.8624 23.3684 26.1803 23.2361C27.2665 22.7885 27.8712 22.0767 27.8712 21.289C27.8712 19.985 26.1493 18.9137 24.0276 18.9137M29.1621 29.6873H31.3965C31.4756 29.6862 31.5542 29.6948 31.6278 29.7127C31.7013 29.7306 31.7682 29.7574 31.8246 29.7915C31.881 29.8256 31.9256 29.8663 31.9559 29.9112C31.9862 29.9561 32.0014 30.0043 32.0008 30.0529C32.0014 30.1016 31.9861 30.1498 31.9558 30.1947C31.9255 30.2396 31.8809 30.2804 31.8244 30.3145C31.768 30.3486 31.701 30.3754 31.6275 30.3932C31.5539 30.4111 31.4752 30.4197 31.3961 30.4185H29.1616C29.0826 30.4197 29.0039 30.411 28.9304 30.3932C28.8569 30.3753 28.7899 30.3485 28.7336 30.3144C28.6772 30.2803 28.6326 30.2396 28.6023 30.1946C28.572 30.1497 28.5567 30.1015 28.5573 30.0529C28.5573 29.8575 28.8035 29.6873 29.1621 29.6873ZM29.1621 27.9171H31.3965C31.4756 27.916 31.5541 27.9246 31.6277 27.9425C31.7012 27.9603 31.7681 27.9871 31.8244 28.0212C31.8808 28.0552 31.9255 28.0959 31.9558 28.1408C31.9861 28.1857 32.0014 28.2339 32.0008 28.2825C32.0014 28.3311 31.9861 28.3793 31.9558 28.4242C31.9255 28.4692 31.8809 28.5099 31.8244 28.544C31.768 28.5781 31.701 28.6049 31.6275 28.6228C31.5539 28.6406 31.4752 28.6492 31.3961 28.6481H29.1616C29.0826 28.6492 29.0039 28.6406 28.9304 28.6227C28.8569 28.6048 28.7899 28.578 28.7336 28.5439C28.6772 28.5098 28.6326 28.4691 28.6023 28.4242C28.572 28.3793 28.5567 28.3311 28.5573 28.2825C28.5573 28.087 28.8035 27.9171 29.1621 27.9171ZM24.0176 19.764C24.3442 19.7638 24.6677 19.8034 24.9695 19.8803C25.2712 19.9573 25.5452 20.0702 25.7757 20.2125C26.0062 20.3548 26.1887 20.5237 26.3126 20.7095C26.4365 20.8954 26.4994 21.0944 26.4978 21.2952C26.4978 21.8874 25.9547 22.3727 25.1654 22.6372C24.8374 22.7442 24.7246 22.82 24.7246 23.1286V26.4744C24.7246 26.8023 24.4172 26.9975 24.0176 26.9975C23.6284 26.9975 23.3105 26.8021 23.3105 26.4744V23.1291C23.3105 22.8205 23.1977 22.7447 22.8697 22.6377C22.0809 22.3732 21.5373 21.8877 21.5373 21.2958C21.5357 21.0949 21.5986 20.8959 21.7225 20.7101C21.8465 20.5243 22.0289 20.3553 22.2594 20.213C22.4899 20.0707 22.7639 19.9578 23.0656 19.8809C23.3674 19.8039 23.6909 19.7644 24.0176 19.7646M29.1625 26.1472H31.397C31.476 26.146 31.5546 26.1547 31.6281 26.1725C31.7016 26.1904 31.7685 26.2172 31.8249 26.2512C31.8812 26.2853 31.9259 26.326 31.9562 26.3709C31.9865 26.4158 32.0018 26.4639 32.0013 26.5125C32.002 26.5615 31.9869 26.61 31.9568 26.6554C31.9267 26.7007 31.8821 26.7418 31.8258 26.7765C31.7695 26.8111 31.7026 26.8384 31.6288 26.857C31.5551 26.8755 31.4762 26.8848 31.3965 26.8843H29.1621C29.0825 26.8847 29.0035 26.8754 28.9299 26.8569C28.8562 26.8383 28.7893 26.811 28.733 26.7764C28.6768 26.7417 28.6323 26.7006 28.6022 26.6553C28.5721 26.61 28.557 26.5615 28.5578 26.5125C28.5578 26.3171 28.8039 26.1472 29.1625 26.1472ZM29.1625 24.3765H31.397C31.4766 24.376 31.5555 24.3854 31.6292 24.4039C31.7028 24.4224 31.7697 24.4498 31.826 24.4844C31.8823 24.519 31.9267 24.5602 31.9568 24.6055C31.9869 24.6508 32.002 24.6993 32.0013 24.7482C32.0018 24.7969 31.9865 24.8451 31.9562 24.89C31.9258 24.9349 31.8811 24.9756 31.8247 25.0096C31.7683 25.0437 31.7013 25.0705 31.6278 25.0883C31.5542 25.1062 31.4756 25.1148 31.3965 25.1136H29.1621C29.083 25.1147 29.0044 25.1061 28.9308 25.0882C28.8573 25.0703 28.7904 25.0435 28.734 25.0094C28.6776 24.9753 28.633 24.9346 28.6027 24.8897C28.5724 24.8448 28.5571 24.7966 28.5578 24.748C28.5571 24.699 28.5722 24.6505 28.6024 24.6052C28.6325 24.56 28.677 24.5188 28.7333 24.4842C28.7896 24.4496 28.8566 24.4223 28.9303 24.4038C29.004 24.3853 29.0829 24.376 29.1625 24.3765Z" fill="black"/>
</svg>
