<svg width="33" height="33" viewBox="0 0 33 33" fill="none" xmlns="http://www.w3.org/2000/svg">
<path d="M1.8913 12.3857V32.5H31.1087V12.3857M13.0217 12.3857V32.5M32.5 12.3857H0.5L16.5 0.5L32.5 12.3857Z" stroke="black" stroke-miterlimit="10" stroke-linecap="round" stroke-linejoin="round"/>
<path d="M22.7605 25.1854H28.3257V32.4997H22.7605M22.7605 25.1854V32.4997M22.7605 25.1854H17.1953V32.4997H22.7605M25.5431 17.8711H19.9779V25.1854H25.5431V17.8711Z" stroke="black" stroke-miterlimit="10" stroke-linecap="round" stroke-linejoin="round"/>
<path d="M10.5923 15.0628H13.0215V16.7606H10.5923V15.0628ZM10.5923 18.4584H13.0215V20.1562H10.5923V18.4584ZM10.5923 21.854H13.0215V23.5518H11.0477L10.5923 22.7877V21.854ZM13.0215 25.2496V26.9474H11.8069C11.8069 26.3616 11.7462 25.7844 11.6308 25.2496H13.0215ZM4.51911 15.0628V16.7606H2.08984V15.0628H4.51911ZM4.51911 18.4584V20.1562H2.08984V18.4584H4.51911ZM4.51911 21.854V22.7877L4.06362 23.5518H2.08984V21.854H4.51911ZM2.08984 25.2496H3.4806C3.36521 25.7844 3.30447 26.3616 3.30447 26.9474H2.08984V25.2496ZM9.37763 23.5518V16.7606C9.37763 15.3514 8.56383 14.2139 7.55568 14.2139C6.54754 14.2139 5.73374 15.3514 5.73374 16.7606V23.5518C4.39157 24.9609 4.11828 27.618 5.12642 29.494C6.13456 31.3701 8.03546 31.7521 9.37763 30.3429C10.7198 28.9338 10.9931 26.2767 9.98494 24.4007C9.81429 24.0765 9.60954 23.7903 9.37763 23.5518ZM7.55568 15.9117C7.88971 15.9117 8.163 16.2937 8.163 16.7606V19.3073H6.94837V16.7606C6.94837 16.2937 7.22166 15.9117 7.55568 15.9117Z" fill="black"/>
</svg>
