<svg width="33" height="33" viewBox="0 0 33 33" fill="none" xmlns="http://www.w3.org/2000/svg">
<path d="M13.328 17.2501L13.1041 16.1302L12.0498 16.4906L10.9958 16.1302L10.7718 17.2501L9.94153 18.0097L10.772 18.7695L10.9958 19.8894L12.05 19.5291L13.1041 19.8896L13.328 18.7697L14.1583 18.0099L13.328 17.2501ZM13.328 17.2501L8.49436 20.1231M13.328 17.2501L15.6055 15.8967M12.05 22.2363V16.4904V13.7835M13.2574 21.322L12.0498 20.7268L10.8424 21.322M10.8424 14.6976L12.05 15.2928L13.2574 14.6976M9.86725 20.7423L9.7644 19.3683L8.65968 18.5894M14.2328 15.2771L14.3356 16.6512M15.44 17.43L14.3356 16.6514M8.49436 15.8965L10.772 17.2501L15.6053 20.1231M8.65968 17.43L9.76402 16.6512M9.86725 15.2771L9.7644 16.6512M15.44 18.5894L14.3356 19.3683L14.2328 20.7423" stroke="black" stroke-width="0.5" stroke-linecap="round" stroke-linejoin="round"/>
<path d="M1.977 5.33019H1.00155C0.631483 5.33019 0.389653 4.94213 0.552687 4.60991L2.43232 0.779724C2.51634 0.608504 2.69046 0.5 2.88118 0.5H29.5173C29.708 0.5 29.8821 0.608505 29.9661 0.779724L31.8458 4.60991C32.0088 4.94213 31.767 5.33019 31.3969 5.33019H30.4214M1.977 5.33019V30.7925C1.977 31.0686 2.20085 31.2925 2.477 31.2925H3.84737C4.12351 31.2925 4.34737 31.0686 4.34737 30.7925V11.2642C4.34737 10.988 4.57122 10.7642 4.84737 10.7642H26.9585C27.2346 10.7642 27.4585 10.988 27.4585 11.2642V12.5755M1.977 5.33019H30.4214M27.4585 12.5755H20.2548C19.9786 12.5755 19.7548 12.7993 19.7548 13.0755V32C19.7548 32.2761 19.9786 32.5 20.2548 32.5H30.514C30.7902 32.5 31.014 32.2761 31.014 32V13.0755C31.014 12.7993 30.7902 12.5755 30.514 12.5755H30.4214M27.4585 12.5755H30.4214M30.4214 12.5755V5.33019" stroke="black"/>
<path d="M25.9685 26.4795V23.4124C25.9685 23.3391 25.9382 23.2688 25.8845 23.217C25.8307 23.1652 25.7578 23.1361 25.6817 23.1361C25.6057 23.1361 25.5327 23.1652 25.479 23.217C25.4252 23.2688 25.395 23.3391 25.395 23.4124V26.4795C25.0469 26.548 24.7375 26.7386 24.527 27.0143C24.3164 27.2901 24.2196 27.6314 24.2553 27.972C24.291 28.3127 24.4567 28.6284 24.7202 28.858C24.9838 29.0876 25.3264 29.2147 25.6817 29.2147C26.037 29.2147 26.3796 29.0876 26.6432 28.858C26.9067 28.6284 27.0724 28.3127 27.1081 27.972C27.1439 27.6314 27.047 27.2901 26.8365 27.0143C26.6259 26.7386 26.3166 26.548 25.9685 26.4795ZM25.6817 28.6624C25.5116 28.6624 25.3453 28.6138 25.2038 28.5227C25.0623 28.4316 24.9521 28.3021 24.887 28.1507C24.8219 27.9992 24.8048 27.8325 24.838 27.6717C24.8712 27.5109 24.9531 27.3632 25.0734 27.2473C25.1938 27.1314 25.347 27.0524 25.5139 27.0204C25.6808 26.9884 25.8537 27.0049 26.0109 27.0676C26.1681 27.1303 26.3024 27.2366 26.397 27.3729C26.4915 27.5092 26.5419 27.6695 26.5419 27.8335C26.5419 28.0533 26.4513 28.2641 26.29 28.4196C26.1287 28.5751 25.9099 28.6624 25.6817 28.6624ZM27.4977 25.5769V21.5703C27.4977 21.1062 27.3064 20.6611 26.9658 20.3329C26.6253 20.0047 26.1633 19.8203 25.6817 19.8203C25.2001 19.8203 24.7382 20.0047 24.3976 20.3329C24.057 20.6611 23.8657 21.1062 23.8657 21.5703V25.5769C23.3776 25.9417 23.02 26.4445 22.843 27.0149C22.666 27.5852 22.6784 28.1946 22.8785 28.7578C23.0786 29.3211 23.4564 29.8099 23.959 30.156C24.4616 30.5022 25.0639 30.6882 25.6817 30.6882C26.2995 30.6882 26.9018 30.5022 27.4044 30.156C27.907 29.8099 28.2848 29.3211 28.4849 28.7578C28.685 28.1946 28.6975 27.5852 28.5204 27.0149C28.3434 26.4445 27.9859 25.9417 27.4977 25.5769ZM25.6817 30.1361C25.1734 30.1356 24.6786 29.979 24.269 29.6889C23.8594 29.3988 23.5565 28.9905 23.4042 28.5232C23.252 28.0559 23.2583 27.5539 23.4224 27.0904C23.5864 26.6268 23.8996 26.2256 24.3164 25.9453C24.3548 25.9195 24.3861 25.885 24.4075 25.8449C24.4289 25.8047 24.4398 25.7602 24.4392 25.715V21.5703C24.4392 21.2527 24.5701 20.9482 24.8031 20.7236C25.0361 20.4991 25.3522 20.3729 25.6817 20.3729C26.0113 20.3729 26.3273 20.4991 26.5603 20.7236C26.7933 20.9482 26.9242 21.2527 26.9242 21.5703V25.715C26.9243 25.7595 26.9354 25.8034 26.9568 25.8428C26.9782 25.8823 27.0092 25.9162 27.0471 25.9416C27.4655 26.2214 27.7803 26.6227 27.9454 27.087C28.1105 27.5513 28.1173 28.0543 27.9649 28.5226C27.8124 28.9909 27.5087 29.4001 27.098 29.6903C26.6872 29.9805 26.191 30.1367 25.6817 30.1361Z" fill="black"/>
<path d="M4.34766 11.972V9.45313C4.34766 9.17698 4.57151 8.95312 4.84766 8.95312H26.9588C27.2349 8.95312 27.4588 9.17698 27.4588 9.45313V11.972" stroke="black"/>
<path d="M10.2743 25.2549H6.71875V30.0851H17.3854V25.2549H10.2743ZM10.2743 25.2549V26.4624H12.6447H14.4225" stroke="black"/>
</svg>
