<svg width="34" height="34" viewBox="0 0 34 34" fill="none" xmlns="http://www.w3.org/2000/svg">
<path d="M33 17C33 8.1632 25.8368 1 17 1C8.1632 1 1 8.1632 1 17C1 24.088 5.608 30.0976 11.9904 32.2M12.2 20.2L17 17V8.4672" stroke="black" stroke-width="2" stroke-linecap="round" stroke-linejoin="round"/>
<path d="M18.6016 23.4004H21.8016C22.2259 23.4004 22.6329 23.569 22.9329 23.869C23.233 24.1691 23.4016 24.576 23.4016 25.0004V26.6004C23.4016 27.0247 23.233 27.4317 22.9329 27.7318C22.6329 28.0318 22.2259 28.2004 21.8016 28.2004H20.2016C19.7772 28.2004 19.3703 28.369 19.0702 28.669C18.7701 28.9691 18.6016 29.376 18.6016 29.8004V31.4004C18.6016 31.8247 18.7701 32.2317 19.0702 32.5318C19.3703 32.8318 19.7772 33.0004 20.2016 33.0004H23.4016M33.0016 23.4004V28.2004M33.0016 28.2004H29.8016C29.3772 28.2004 28.9702 28.0318 28.6702 27.7318C28.3701 27.4317 28.2016 27.0247 28.2016 26.6004V23.4004M33.0016 28.2004V33.0004" stroke="black" stroke-width="2" stroke-linecap="round" stroke-linejoin="round"/>
</svg>
