<svg width="34" height="34" viewBox="0 0 34 34" fill="none" xmlns="http://www.w3.org/2000/svg">
<path d="M17.4436 4.62988V20.1444M13.2697 4.62988V20.1444M9.09579 4.62988V20.1444M4.92188 4.62988V20.1444" stroke="black" stroke-width="1.5" stroke-miterlimit="10" stroke-linecap="round" stroke-linejoin="round"/>
<path d="M6.3125 30.8102L8.39946 32.7495L10.4864 30.8102V27.9012L8.39946 25.9619L6.3125 27.9012V30.8102ZM24.3995 30.8102L26.4864 32.7495L28.5734 30.8102V27.9012L26.4864 25.9619L24.3995 27.9012V30.8102Z" stroke="black" stroke-width="1.5" stroke-miterlimit="10" stroke-linejoin="round"/>
<path d="M21.6196 24.0218H0.75V0.75H21.6196V24.0218ZM21.6196 24.0218H32.75M32.75 24.0218V20.1432L29.2717 7.5376L21.6196 5.59829M32.75 24.0218V27.9004H31.3587M13.2717 27.9004H21.6196" stroke="black" stroke-width="1.5" stroke-miterlimit="10" stroke-linecap="round" stroke-linejoin="round"/>
<path d="M30.0745 10.4463H24.4022V16.2642L32.2269 18.2482M0.75 24.0215V27.9001H3.53261" stroke="black" stroke-width="1.5" stroke-miterlimit="10" stroke-linecap="round" stroke-linejoin="round"/>
</svg>
