<svg width="34" height="33" viewBox="0 0 34 33" fill="none" xmlns="http://www.w3.org/2000/svg">
<path d="M24.5054 14.3773C25.7239 14.3773 26.7208 15.4108 26.7208 16.6739V23.5639H24.5054V25.8605C24.5054 27.1237 23.5085 28.1572 22.29 28.1572C21.0716 28.1572 20.0746 27.1237 20.0746 25.8605V23.5639H13.4285V25.8605C13.4285 27.1237 12.4316 28.1572 11.2131 28.1572C9.99464 28.1572 8.99772 27.1237 8.99772 25.8605V23.5639H6.78233V16.6739C6.78233 15.4108 7.77925 14.3773 8.99772 14.3773L10.9694 8.26817C11.1245 7.80884 11.5454 7.4873 12.0106 7.4873H21.4925C21.9577 7.4873 22.3786 7.80884 22.5337 8.26817L24.5054 14.3773ZM11.2131 21.2672C12.4316 21.2672 13.4285 20.2337 13.4285 18.9706C13.4285 17.7074 12.4316 16.6739 11.2131 16.6739C9.99464 16.6739 8.99772 17.7074 8.99772 18.9706C8.99772 20.2337 9.99464 21.2672 11.2131 21.2672ZM11.2131 14.3773H22.29L20.9165 9.78396H12.5866L11.2131 14.3773ZM22.29 21.2672C23.5085 21.2672 24.5054 20.2337 24.5054 18.9706C24.5054 17.7074 23.5085 16.6739 22.29 16.6739C21.0716 16.6739 20.0746 17.7074 20.0746 18.9706C20.0746 20.2337 21.0716 21.2672 22.29 21.2672ZM25.6131 30.4538L24.5054 28.1572H28.9362L31.1516 32.7505H2.35156L4.56695 28.1572H8.99772L7.89002 30.4538H25.6131Z" fill="black"/>
<path d="M32.75 31.0658V11.8826C32.75 9.6561 32.75 8.54116 32.1996 7.67884C31.6492 6.81653 30.6748 6.40221 28.7276 5.57358L19.1276 1.49779C17.9532 0.999263 17.3676 0.75 16.75 0.75C16.1324 0.75 15.5468 0.999263 14.3724 1.49779L4.7724 5.57358C2.8252 6.40221 1.8508 6.81653 1.3004 7.67884C0.75 8.54116 0.75 9.6561 0.75 11.8826V31.0658M23.15 27.6974V31.0658M10.35 27.6974V31.0658" stroke="black" stroke-width="1.5" stroke-linecap="round" stroke-linejoin="round"/>
</svg>
