<svg width="34" height="33" viewBox="0 0 34 33" fill="none" xmlns="http://www.w3.org/2000/svg">
<path d="M4.83203 20.9307V22.322" stroke="black"/>
<path d="M8.38672 20.9307V22.322" stroke="black"/>
<path d="M2.46137 28.583H0.683594L2.46137 23.0177H20.8317M23.2021 23.0177V28.583H17.2762M23.2021 23.0177H20.8317M23.2021 23.0177V17.4525H20.8317V23.0177M23.2021 23.0177V14.6699H29.7206L32.6836 20.2351V28.583H31.4984" stroke="black" stroke-linecap="square"/>
<path d="M23.2031 28.583H26.1661" stroke="black"/>
<path d="M4.83008 26.3008C6.11815 26.3008 7.29297 27.5563 7.29297 29.2793C7.29285 31.0022 6.11809 32.2568 4.83008 32.2568C3.5421 32.2568 2.3673 31.0022 2.36719 29.2793C2.36719 27.5563 3.54203 26.3008 4.83008 26.3008Z" stroke="black"/>
<path d="M14.3145 26.3008C15.6025 26.3008 16.7773 27.5563 16.7773 29.2793C16.7772 31.0022 15.6025 32.2568 14.3145 32.2568C13.0265 32.2568 11.8517 31.0022 11.8516 29.2793C11.8516 27.5563 13.0264 26.3008 14.3145 26.3008Z" stroke="black"/>
<path d="M28.5371 26.3008C29.8252 26.3008 31 27.5563 31 29.2793C30.9999 31.0022 29.8251 32.2568 28.5371 32.2568C27.2491 32.2568 26.0743 31.0022 26.0742 29.2793C26.0742 27.5563 27.2491 26.3008 28.5371 26.3008Z" stroke="black"/>
<path d="M7.20312 28.583H11.9439" stroke="black"/>
<path d="M25.5742 23.0174V17.4521H28.5372L30.315 20.2348V23.0174H25.5742Z" stroke="black"/>
<path d="M24.9805 25.1045H26.1657" stroke="black" stroke-linecap="round"/>
<path d="M9.57205 20.2348H2.46094V17.4521H9.57205V20.2348Z" stroke="black"/>
<path d="M3.64844 16.7573V11.8877H6.6114L8.38918 17.4529" stroke="black"/>
<path d="M6.60938 11.8868L14.9057 5.62598L16.6834 9.10424L7.79456 15.3651" stroke="black"/>
<path d="M15.5 5.6264L22.6111 0.756836L23.7963 3.53944L16.6852 8.40901" stroke="black"/>
<path d="M23.2031 2.14844V7.71365V9.10496" stroke="black"/>
<path d="M23.2841 9.10449C23.0041 9.10449 22.7787 9.36209 22.7787 9.68202C22.7787 10.002 23.0041 10.2595 23.2841 10.2595C23.564 10.2595 23.7894 10.002 23.7894 9.68202C23.7894 9.36209 23.564 9.10449 23.2841 9.10449ZM23.2841 9.37951C23.4293 9.37951 23.5488 9.51591 23.5488 9.68202C23.5488 9.84794 23.4293 9.98453 23.2841 9.98453C23.1389 9.98453 23.0194 9.84794 23.0194 9.68202C23.0194 9.51591 23.1389 9.37951 23.2841 9.37951ZM23.2841 9.54451C23.2167 9.54451 23.1638 9.60511 23.1638 9.68202C23.1638 9.75893 23.2167 9.81953 23.2841 9.81953C23.3515 9.81953 23.4044 9.75893 23.4044 9.68202C23.4044 9.60511 23.3515 9.54451 23.2841 9.54451ZM22.9207 10.2971C22.891 10.3806 22.8445 10.4576 22.7892 10.5318C22.6953 10.6565 22.5758 10.7766 22.4587 10.9122C22.2261 11.1818 22.0063 11.5008 22.0159 12.0123C22.0207 12.3139 22.186 12.632 22.425 12.8731C22.664 13.1142 22.9737 13.2746 23.2416 13.2783C23.4734 13.2819 23.7389 13.2104 23.9402 13.0482C24.1423 12.8859 24.2827 12.6402 24.2819 12.2635C24.2819 12.1095 24.1977 11.8656 24.1608 11.6456C24.1423 11.5356 24.1343 11.4265 24.1696 11.3266C24.2001 11.2377 24.2715 11.1689 24.371 11.1368C24.395 11.0699 24.387 11.0351 24.3693 11.0094C24.3493 10.981 24.3004 10.9553 24.2386 10.9562C24.1776 10.9572 24.1095 10.9828 24.0597 11.0305C24.0108 11.0791 23.9763 11.1478 23.9763 11.256C23.9771 11.5118 23.9474 11.7575 23.872 11.9619C23.7958 12.1663 23.6683 12.3313 23.4822 12.4019C23.3322 12.4578 23.1614 12.4156 23.0162 12.3267C22.871 12.2369 22.7467 12.0966 22.7041 11.9225C22.6568 11.7254 22.7009 11.5264 22.7852 11.3413C22.8694 11.1561 22.9945 10.9801 23.1245 10.816C23.2456 10.6629 23.3699 10.519 23.4686 10.3934C23.41 10.4136 23.3483 10.4246 23.2841 10.4246C23.1493 10.4246 23.0242 10.3778 22.9207 10.2971Z" fill="black"/>
</svg>
