<svg width="32" height="32" viewBox="0 0 32 32" fill="none" xmlns="http://www.w3.org/2000/svg">
<path d="M31.7067 15.3864L26.4838 10.3087C26.3824 10.2122 26.2671 10.1603 26.1494 10.1583C26.0318 10.1563 25.9159 10.2043 25.8133 10.2974C25.7106 10.3905 25.6249 10.5256 25.5646 10.6891C25.5043 10.8525 25.4715 11.0388 25.4695 11.2291V14.8188H9.95241L13.289 6.22819C13.4151 5.89017 13.5931 5.61078 13.8057 5.41721C14.0184 5.22365 14.2584 5.12252 14.5023 5.12368H16.0569C16.2126 5.84 16.5009 6.46133 16.8825 6.90321C17.264 7.3451 17.7205 7.58611 18.1896 7.59348C18.7861 7.53209 19.3457 7.10538 19.7546 6.4001C20.1636 5.69482 20.3912 4.76393 20.3912 3.79674C20.3912 2.82955 20.1636 1.89866 19.7546 1.19338C19.3457 0.488105 18.7861 0.0613859 18.1896 0C17.768 0.00308459 17.3554 0.197307 16.9985 0.560641C16.6417 0.923974 16.3549 1.44188 16.1706 2.05561H14.5023C13.933 2.04816 13.3721 2.27865 12.8739 2.72476C12.3758 3.17087 11.9572 3.8175 11.6586 4.60211L7.71537 14.8188H6.37884C6.12135 13.6157 5.6052 12.6024 4.92453 11.9639C4.24386 11.3253 3.44404 11.104 2.67096 11.3404C1.89787 11.5767 1.20304 12.2549 0.713207 13.2513C0.223373 14.2477 -0.0288227 15.4958 0.00262246 16.768C0.0340676 18.0403 0.347058 19.2518 0.884502 20.1817C1.42195 21.1116 2.14803 21.6978 2.93031 21.8335C3.71259 21.9691 4.49893 21.6451 5.14591 20.9207C5.79289 20.1962 6.25738 19.1194 6.45467 17.8869H11.8008L15.7346 28.0422C16.0331 28.8268 16.4517 29.4734 16.9499 29.9195C17.4481 30.3656 18.009 30.5961 18.5783 30.5887H21.0333V32H25.2041V25.2502H21.0333V27.5206H18.5878C18.3442 27.5188 18.1049 27.4164 17.8926 27.2232C17.6802 27.0299 17.5019 26.7521 17.3745 26.4161L14.0663 17.8869H25.4411V21.3845C25.4414 21.5755 25.4732 21.7629 25.5332 21.9274C25.5931 22.0918 25.6792 22.2275 25.7823 22.3202C25.8807 22.4099 25.9917 22.4574 26.1046 22.4583C26.2252 22.4623 26.3438 22.409 26.4458 22.3049L31.6782 17.2272C31.7764 17.1318 31.8576 16.9968 31.914 16.8356C31.9704 16.6743 32 16.4921 32 16.3068C32 16.1215 31.9704 15.9393 31.914 15.7781C31.8576 15.6168 31.7764 15.4818 31.6782 15.3864H31.7067Z" fill="black"/>
</svg>
