<svg width="32" height="32" viewBox="0 0 32 32" fill="none" xmlns="http://www.w3.org/2000/svg">
<path d="M30.7956 19.3156C30.4242 18.9406 29.9916 18.6831 29.5318 18.5635C29.072 18.4438 28.5973 18.4652 28.1448 18.6258L27.559 18.8036C30.5081 15.209 31.9996 11.6463 31.9996 8.1779C31.9996 3.66947 29.2349 0.000158917 25.8356 0.000158917C24.877 -0.00771863 23.9301 0.277373 23.0701 0.832826C22.2101 1.38828 21.4606 2.19881 20.8811 3.20014C20.3016 2.19881 19.5521 1.38828 18.6921 0.832826C17.8321 0.277373 16.8853 -0.00771863 15.9266 0.000158917C12.5273 0.000158917 9.7626 3.66947 9.7626 8.1779C9.7626 10.201 10.2548 12.1761 11.2934 14.2863C10.4421 14.4585 9.65514 14.9837 9.04803 15.785L5.90095 19.9112H1.89828C1.39483 19.9112 0.911991 20.1734 0.555994 20.6401C0.199997 21.1069 0 21.74 0 22.4V29.5111C0 30.1712 0.199997 30.8043 0.555994 31.271C0.911991 31.7378 1.39483 32 1.89828 32H15.9998C16.0665 32 16.133 31.9893 16.1978 31.968L24.8756 29.1236C24.9167 29.1094 24.957 29.0915 24.9963 29.0702L30.26 26.1334L30.3047 26.1067C30.7701 25.802 31.1687 25.3469 31.4629 24.7844C31.7571 24.2219 31.9372 23.5705 31.9863 22.8915C32.0354 22.2125 31.9519 21.5282 31.7436 20.9033C31.5352 20.2783 31.209 19.7331 30.7956 19.3192V19.3156ZM15.9266 2.13348C16.8213 2.11783 17.6992 2.45255 18.448 3.09482C19.1968 3.73709 19.7825 4.65768 20.1299 5.7388C20.1912 5.93443 20.2955 6.10176 20.4295 6.21953C20.5635 6.33729 20.7212 6.40016 20.8825 6.40016C21.0438 6.40016 21.2014 6.33729 21.3354 6.21953C21.4694 6.10176 21.5737 5.93443 21.635 5.7388C21.9825 4.65768 22.5681 3.73709 23.3169 3.09482C24.0657 2.45255 24.9436 2.11783 25.8383 2.13348C28.2953 2.13348 30.3725 4.90147 30.3725 8.1779C30.3725 11.7761 28.1786 15.8223 24.0268 19.8667L22.0106 20.4747C22.2117 19.7752 22.2804 19.0222 22.2108 18.2803C22.1412 17.5384 21.9354 16.8296 21.611 16.2149C21.2866 15.6001 20.8534 15.0977 20.3484 14.7506C19.8434 14.4036 19.2818 14.2223 18.7116 14.2223H13.2432C11.9809 12.0303 11.3897 10.0997 11.3897 8.1779C11.3897 4.90147 13.467 2.13348 15.9266 2.13348ZM1.6271 29.5111V22.4C1.6271 22.3057 1.65567 22.2153 1.70653 22.1486C1.75738 22.082 1.82636 22.0445 1.89828 22.0445H5.42366V29.8667H1.89828C1.82636 29.8667 1.75738 29.8292 1.70653 29.7625C1.65567 29.6959 1.6271 29.6054 1.6271 29.5111ZM29.5969 24.1778L24.4173 27.0702L15.8995 29.8667H7.05076V21.4205L10.1978 17.2925C10.424 16.9944 10.693 16.7582 10.9893 16.5973C11.2856 16.4365 11.6033 16.3544 11.9239 16.3556H18.7116C19.2151 16.3556 19.6979 16.6179 20.0539 17.0846C20.4099 17.5514 20.6099 18.1844 20.6099 18.8445C20.6099 19.5046 20.4099 20.1377 20.0539 20.6044C19.6979 21.0712 19.2151 21.3334 18.7116 21.3334H14.9151C14.6993 21.3334 14.4924 21.4458 14.3398 21.6458C14.1872 21.8458 14.1015 22.1172 14.1015 22.4C14.1015 22.6829 14.1872 22.9543 14.3398 23.1543C14.4924 23.3543 14.6993 23.4667 14.9151 23.4667H19.254C19.3151 23.4668 19.3761 23.4579 19.4357 23.44L28.5203 20.7005L28.5529 20.6898C28.8948 20.5676 29.2591 20.6153 29.5758 20.8238C29.8926 21.0323 30.1394 21.3869 30.2688 21.8195C30.3983 22.252 30.4013 22.732 30.2773 23.1673C30.1533 23.6026 29.911 23.9625 29.5969 24.1778Z" fill="black"/>
</svg>
