<svg width="32" height="32" viewBox="0 0 32 32" fill="none" xmlns="http://www.w3.org/2000/svg">
<path d="M12.8007 0.813559V4.0678H18.1344C19.2011 4.0678 19.2011 5.15254 19.2011 5.15254V26.8475C19.2011 26.8475 19.2011 27.9322 18.1344 27.9322H12.8007V31.1864C12.8007 32.2712 6.40037 32.2712 6.40037 31.1864V27.9322H1.06673C0 27.9322 0 26.8475 0 26.8475V5.15254C0 5.15254 0 4.0678 1.06673 4.0678H6.40037V0.813559C6.40037 -0.271186 12.8007 -0.271186 12.8007 0.813559ZM9.60056 8.40678C5.33364 8.40678 2.13346 11.661 2.13346 16C2.13346 20.339 5.33364 23.5932 9.60056 23.5932C13.8675 23.5932 17.0677 20.339 17.0677 16C17.0677 11.661 13.8675 8.40678 9.60056 8.40678Z" fill="black"/>
<path d="M6.39824 19.2538H12.7986C13.8653 19.2538 13.8653 21.4233 12.7986 21.4233H6.39824C5.33151 21.4233 5.33151 19.2538 6.39824 19.2538ZM5.33151 11.6606C4.79815 12.203 7.67831 15.1318 7.67831 15.1318C7.67831 15.1318 7.46497 15.5657 7.46497 15.9996C7.46497 17.0843 8.27568 18.1691 9.59843 18.1691C10.9425 18.1691 11.7319 17.0843 11.7319 15.9996C11.7319 14.9148 10.9425 13.8301 9.59843 13.8301C8.95839 13.8301 8.74504 14.047 8.74504 14.047C8.74504 14.047 5.86487 11.1182 5.33151 11.6606ZM24.5326 4.06738L21.3324 17.0843H25.5994L23.4659 27.9318L31.9997 12.7453H27.7328L30.933 4.06738H24.5326Z" fill="black"/>
</svg>
