<svg width="32" height="32" viewBox="0 0 32 32" fill="none" xmlns="http://www.w3.org/2000/svg">
<path d="M24.7273 29C25.9345 29 26.9091 27.66 26.9091 26C26.9091 24.34 25.9345 23 24.7273 23C23.52 23 22.5455 24.34 22.5455 26C22.5455 27.66 23.52 29 24.7273 29ZM26.9091 11H23.2727V16H29.76L26.9091 11ZM7.27273 29C8.48 29 9.45455 27.66 9.45455 26C9.45455 24.34 8.48 23 7.27273 23C6.06545 23 5.09091 24.34 5.09091 26C5.09091 27.66 6.06545 29 7.27273 29ZM27.6364 8L32 16V26H29.0909C29.0909 29.32 27.1418 32 24.7273 32C22.3127 32 20.3636 29.32 20.3636 26H11.6364C11.6364 29.32 9.68727 32 7.27273 32C4.85818 32 2.90909 29.32 2.90909 26H0V4C0 1.78 1.29455 0 2.90909 0H23.2727V8H27.6364ZM2.90909 4V22H4.01455C4.81455 20.78 5.97818 20 7.27273 20C8.56727 20 9.73091 20.78 10.5309 22H20.3636V4H2.90909ZM5.81818 13L8 10L10.1818 13L15.2727 6L17.4545 9L10.1818 19L5.81818 13Z" fill="black"/>
</svg>
