<svg width="34" height="34" viewBox="0 0 34 34" fill="none" xmlns="http://www.w3.org/2000/svg">
<path d="M24.9465 16.3498V0.75H27.8724C29.166 0.75 30.4066 1.26356 31.3214 2.1777C32.2361 3.09184 32.75 4.33169 32.75 5.62448C32.75 6.91727 32.2361 8.15712 31.3214 9.07126C30.4066 9.9854 29.166 10.499 27.8724 10.499H24.9465M15.8701 29.6172C15.1582 30.4896 14.2802 31.2123 13.287 31.7434C12.2938 32.2744 11.205 32.6033 10.0837 32.711C8.96236 32.8186 7.83083 32.703 6.75457 32.3706C5.67832 32.0383 4.67873 31.4959 3.81367 30.7748C2.94888 30.0538 2.23563 29.1688 1.71511 28.1707C1.1946 27.1727 0.877136 26.0814 0.78107 24.9601C0.685004 23.8387 0.812239 22.7094 1.15542 21.6375C1.49861 20.5656 2.05094 19.5722 2.7805 18.7148M6.13045 4.47608C6.11668 4.97387 6.2029 5.46937 6.38402 5.93329C6.56513 6.39721 6.83746 6.82015 7.18491 7.1771C7.53236 7.53406 7.94788 7.81779 8.40692 8.01153C8.86597 8.20528 9.35921 8.3051 9.85752 8.3051C10.3558 8.3051 10.8491 8.20528 11.3081 8.01153C11.7671 7.81779 12.1827 7.53406 12.5301 7.1771C12.8776 6.82015 13.1499 6.39721 13.331 5.93329C13.5121 5.46937 13.5983 4.97387 13.5846 4.47608C13.5578 3.50606 13.1533 2.58476 12.4573 1.90814C11.7612 1.23151 10.8285 0.852938 9.85752 0.852938C8.8865 0.852938 7.95378 1.23151 7.25775 1.90814C6.56171 2.58476 6.15728 3.50606 6.13045 4.47608Z" stroke="black" stroke-width="1.5" stroke-linecap="round" stroke-linejoin="round"/>
<path d="M18.5491 24.9337L22.5963 29.7862C22.9671 30.1897 23.479 30.4351 24.0259 30.4718C24.5728 30.5084 25.1129 30.3333 25.5342 29.9828C25.9555 29.6324 26.2258 29.1334 26.289 28.5892C26.3522 28.0451 26.2035 27.4975 25.8737 27.0599L21.8264 22.2075C21.2282 21.4863 20.4778 20.9062 19.6291 20.5087C18.7803 20.1111 17.8541 19.9059 16.9168 19.9078H11.4521V15.6498H14.7295C15.0138 15.6572 15.2967 15.6076 15.5615 15.5039C15.8263 15.4003 16.0677 15.2447 16.2714 15.0463C16.475 14.848 16.6369 14.6109 16.7474 14.349C16.858 14.0871 16.9149 13.8058 16.9149 13.5216C16.9149 13.2374 16.858 12.956 16.7474 12.6941C16.6369 12.4323 16.475 12.1952 16.2714 11.9968C16.0677 11.7985 15.8263 11.6429 15.5615 11.5392C15.2967 11.4356 15.0138 11.3859 14.7295 11.3933H9.32177C8.75676 11.3933 8.2149 11.6176 7.81537 12.0169C7.41585 12.4161 7.19141 12.9576 7.19141 13.5223V22.0368C7.19141 22.6014 7.41585 23.143 7.81537 23.5422C8.2149 23.9415 8.75676 24.1658 9.32177 24.1658H16.9168C17.2286 24.166 17.5366 24.2349 17.8187 24.3676C18.1009 24.5004 18.3502 24.6937 18.5491 24.9337Z" stroke="black" stroke-width="1.5" stroke-linecap="round" stroke-linejoin="round"/>
</svg>
