<svg width="33" height="33" viewBox="0 0 33 33" fill="none" xmlns="http://www.w3.org/2000/svg">
<path d="M9.48278 32.1328H6.52087C5.96859 32.1328 5.52087 31.6851 5.52087 31.1328V18.1579C5.52087 17.3601 4.55268 16.9645 3.99396 17.534C3.65629 17.8783 3.10605 17.8914 2.75238 17.5636L0.820576 15.7733C0.395766 15.3796 0.39321 14.7085 0.81501 14.3116L15.204 0.771567C15.5863 0.411761 16.1819 0.408932 16.5676 0.765089L31.198 14.2725C31.6417 14.6821 31.6239 15.3885 31.1602 15.7752L29.2907 17.3345C28.9405 17.6266 28.43 17.6207 28.0867 17.3207C27.4871 16.7968 26.5494 17.2226 26.5494 18.0189V31.1328C26.5494 31.6851 26.1017 32.1328 25.5494 32.1328H22.5875" stroke="black" stroke-linecap="round"/>
<path d="M12.0477 11.8662C11.5623 11.8662 11.0925 12.1507 11.0925 12.953V14.0185H12.0477V14.7856H11.0925V15.3823H11.3832V16.1495H11.0925V16.7461H12.0477V17.5133H11.0925V18.1099H11.3832V18.8771H11.0925V19.4738H12.0477V20.2409H11.0925V20.8376H11.3832V21.6047H11.0925V22.2014H12.0477V22.9685H11.0925V23.5652H11.3832V24.3324H11.0925V24.929H11.6739V23.9488H12.4215V27.4143C12.697 27.4972 12.939 27.6694 13.1112 27.9051C13.2834 28.1409 13.3766 28.4275 13.3768 28.7221C13.3768 29.0839 13.2367 29.4307 12.9875 29.6865C12.7383 29.9423 12.4002 30.086 12.0477 30.086C11.6952 30.086 11.3572 29.9423 11.1079 29.6865C10.8587 29.4307 10.7187 29.0839 10.7187 28.7221C10.7188 28.4275 10.812 28.1409 10.9842 27.9051C11.1564 27.6693 11.3984 27.4971 11.6739 27.4142V25.6962H11.0925V26.5912H11.0929C10.3068 26.9608 9.7634 27.7734 9.7634 28.7221C9.7634 30.0213 10.7817 31.0662 12.0477 31.0662C13.3137 31.0662 14.332 30.0213 14.332 28.7221C14.332 27.7734 13.7886 26.9608 13.0026 26.5912H13.003V12.953C13.003 12.1507 12.5331 11.8662 12.0477 11.8662ZM15.6611 12.5598V15.4037L13.7506 14.4235V15.2812L15.6611 16.2614V18.4029L15.0987 19.5572L13.8433 19.4799L13.7506 19.4249V20.581L14.1625 21.2211L13.7506 21.8613V23.0174L13.8433 22.9624L15.0987 22.8851L15.6611 24.0394V26.1809L14.4354 26.8097C14.5902 27.0123 14.7199 27.2339 14.8214 27.4694L15.6611 27.0386V29.8826H16.4087V27.0386L19.244 28.4933L19.5783 27.8072L16.4087 26.1809V24.0395L16.971 22.8852L18.2265 22.9625L20.0337 24.0332L19.8215 27.6632L20.5678 27.7091L20.7576 24.4621L23.1578 25.8841L23.5316 25.2197L21.1314 23.7977L23.7768 22.0055L23.3649 21.3653L20.4076 23.3689L18.6003 22.2981L17.9073 21.2212L18.6002 20.1442L20.4075 19.0734L23.3649 21.0771L23.7768 20.4368L21.1315 18.6446L23.5317 17.2226L23.1579 16.5582L20.7577 17.9802L20.5679 14.7332L19.8215 14.7791L20.0338 18.4091L18.2266 19.4798L16.9712 19.5571L16.4087 18.4029V16.2614L19.5783 14.6351L19.244 13.949L16.4087 15.4036V12.5596H15.6611V12.5598ZM8.91198 16.5583L8.53818 17.2226L10.3449 18.293V17.4072L8.91198 16.5583V16.5583ZM10.3449 19.0467L8.29297 20.4368L8.70489 21.077L10.3449 19.966V19.0467ZM8.70489 21.3652L8.29297 22.0054L10.3449 23.3957V22.4764L8.70489 21.3653V21.3652ZM10.3449 24.1494L8.53818 25.2197L8.91198 25.884L10.3449 25.0351V24.1493V24.1494ZM12.1354 27.7269C11.0893 27.7269 11.0893 28.8639 11.0893 28.8639C11.0893 28.8639 11.3821 28.4207 11.559 28.2287C11.7333 28.0397 12.1354 27.7269 12.1354 27.7269Z" fill="black"/>
</svg>
