<svg width="32" height="32" viewBox="0 0 32 32" fill="none" xmlns="http://www.w3.org/2000/svg">
<path d="M22.1538 28.7773L18.9666 25.8173L17.2315 27.4287L22.1538 32.0001L31.9985 22.8574L30.2634 21.246L22.1538 28.7773ZM6.15625 17.1432H14.7703V19.4289H6.15625V17.1432ZM6.15625 11.429H20.9233V13.7147H6.15625V11.429ZM6.15625 5.71484H20.9233V8.00052H6.15625V5.71484Z" fill="black"/>
<path d="M14.767 31.9994H2.46117C1.10383 31.9994 0 30.9743 0 29.7138V2.28567C0 1.02512 1.10383 0 2.46117 0H24.6117C25.969 0 27.0729 1.02512 27.0729 2.28567V19.4282H24.6117V2.28567H2.46117V29.7138H14.767V31.9994Z" fill="black"/>
</svg>
