<svg width="34" height="34" viewBox="0 0 34 34" fill="none" xmlns="http://www.w3.org/2000/svg">
<path d="M26.6082 17.0185C25.9631 17.7764 24.7724 17.7831 24.0195 17.0303L16.4675 9.47997C15.7147 8.72713 15.7197 7.53471 16.4793 6.88966L18.5526 5.12629C20.0596 3.85272 21.8827 3.0101 23.8292 2.68755L25.0503 2.48208C26.204 2.28671 27.4166 2.68923 28.2823 3.55492L29.9429 5.21723C30.8086 6.08124 31.2111 7.29387 31.0157 8.44755L30.8103 9.6686C30.4877 11.6151 29.6451 13.4383 28.3715 14.9452L26.6082 17.0185Z" stroke="black" stroke-width="1.5"/>
<path d="M29.3816 4.11842L32.75 0.75M0.75 32.75L4.11842 29.3816" stroke="black" stroke-width="1.5" stroke-linecap="round" stroke-linejoin="round"/>
<path d="M6.88966 16.4797C7.53471 15.7218 8.72545 15.715 9.47997 16.4679L17.0303 24.0199C17.7831 24.771 17.7781 25.9635 17.0185 26.6085L14.9452 28.3719C13.4383 29.6454 11.6151 30.4881 9.6686 30.8106L8.44755 31.0161C7.29387 31.2115 6.08123 30.8089 5.21723 29.9432L3.55492 28.2826C2.68923 27.4169 2.28671 26.2043 2.48208 25.0506L2.68755 23.8296C3.0101 21.8831 3.85272 20.0599 5.12629 18.5529L6.88966 16.4797Z" stroke="black" stroke-width="1.5"/>
<path d="M10.8555 17.5921L14.2239 14.2236M15.9081 22.6447L19.2765 19.2763" stroke="black" stroke-width="1.5" stroke-linecap="round" stroke-linejoin="round"/>
</svg>
