<svg width="32" height="32" viewBox="0 0 32 32" fill="none" xmlns="http://www.w3.org/2000/svg">
<path d="M17.5812 10.4291C15.8306 10.4291 14.4 9.30909 14.4 7.95636C14.4 7.30441 14.7352 6.67917 15.3317 6.21817C15.9283 5.75717 16.7375 5.49818 17.5812 5.49818C19.3506 5.49818 20.7812 6.60364 20.7812 7.95636C20.7812 9.30909 19.3506 10.4291 17.5812 10.4291ZM11.8588 27.5345L0.69647 25.8182L1.33647 23.3455L9.14824 24.5818L11.6894 14.6036L8.82824 15.4764V19.6364H5.64706V13.8764L13.9294 11.1564L15.1906 11.04C16.32 11.04 17.2612 11.5345 17.8824 12.2764L19.5012 14.24C20.7812 16 23.3224 17.1927 26.3529 17.1927V19.6364C22.8518 19.6364 19.6518 18.4291 17.5812 16.5818L16.64 20.2764L19.9718 22.7345V32H16.7906V24.5818L13.44 22.1236L11.8588 27.5345ZM32 32H28.2353V2.90909H3.76471V21.9782L0 21.3673V0H32V32ZM3.76471 32H0V27.3164L3.76471 27.9273V32Z" fill="black"/>
</svg>
