<svg width="32" height="32" viewBox="0 0 32 32" fill="none" xmlns="http://www.w3.org/2000/svg">
<path d="M15.9989 5.16118C10.0178 5.16118 5.16016 10.0187 5.16016 15.9998C5.1602 21.9809 10.0178 26.8386 15.9989 26.8386C21.9799 26.8386 26.8376 21.981 26.8376 15.9998C26.8376 10.0187 21.9799 5.16118 15.9989 5.16118ZM6.67939 5.5775C6.40298 5.5775 6.1379 5.6873 5.94246 5.88274C5.74701 6.07819 5.63721 6.34327 5.63721 6.61967C5.6372 6.75654 5.66414 6.89207 5.71651 7.01853C5.76888 7.14498 5.84565 7.25988 5.94242 7.35667C6.0392 7.45345 6.15409 7.53023 6.28054 7.58261C6.40699 7.63499 6.54252 7.66195 6.67939 7.66195C6.81626 7.66196 6.95179 7.63501 7.07824 7.58264C7.20469 7.53027 7.31959 7.45351 7.41638 7.35673C7.51316 7.25996 7.58994 7.14506 7.64232 7.01861C7.6947 6.89216 7.72166 6.75664 7.72166 6.61977C7.72167 6.4829 7.69472 6.34737 7.64236 6.22091C7.58999 6.09446 7.51322 5.97956 7.41645 5.88278C7.31967 5.78599 7.20478 5.70922 7.07833 5.65684C6.95188 5.60446 6.81635 5.5775 6.67948 5.5775H6.67939ZM25.3789 5.5775C25.1025 5.5775 24.8375 5.6873 24.642 5.88274C24.4466 6.07819 24.3368 6.34327 24.3368 6.61967C24.3367 6.75654 24.3637 6.89207 24.4161 7.01853C24.4684 7.14498 24.5452 7.25988 24.642 7.35667C24.7388 7.45345 24.8536 7.53023 24.9801 7.58261C25.1065 7.63499 25.2421 7.66195 25.3789 7.66195C25.5158 7.66196 25.6513 7.63502 25.7778 7.58266C25.9043 7.53029 26.0192 7.45353 26.116 7.35675C26.2128 7.25997 26.2895 7.14508 26.3419 7.01862C26.3943 6.89217 26.4213 6.75664 26.4213 6.61977C26.4213 6.48289 26.3943 6.34735 26.3419 6.22089C26.2896 6.09443 26.2128 5.97953 26.116 5.88274C26.0192 5.78596 25.9043 5.70918 25.7779 5.65681C25.6514 5.60443 25.5159 5.57748 25.379 5.5775H25.3789ZM15.9989 5.99381C21.53 5.99381 26.0049 10.4688 26.0049 15.9998C26.0049 21.5309 21.53 26.0059 15.9989 26.0059C10.4677 26.0059 5.99279 21.5309 5.99279 15.9998C5.99279 10.4688 10.4678 5.99381 15.9989 5.99381ZM18.0196 7.0315C17.9972 7.03107 17.9754 7.03112 17.9544 7.03164C17.6746 7.03858 17.5181 7.13507 17.5591 7.34333C18.0436 9.29516 18.1026 11.3117 17.3238 13.0938C17.9109 13.3634 18.4033 13.8034 18.7372 14.3565C20.0776 13.2453 21.4254 11.7976 22.2814 10.6658C23.4905 9.06692 19.432 7.06185 18.0195 7.03164L18.0196 7.0315ZM13.4735 7.23467C11.6218 7.20932 8.35025 10.0009 9.28118 10.3193C11.2147 10.8758 12.9915 11.8336 14.1453 13.4005C14.6548 13.0358 15.2748 12.817 15.9439 12.8056C15.6518 11.0892 15.0718 9.19797 14.5196 7.89074C14.3253 7.43061 13.9455 7.2411 13.4735 7.23467ZM24.4279 12.9574C24.3772 12.9583 24.3262 12.9797 24.2753 13.0241C22.8278 14.4192 21.1115 15.4783 19.1796 15.6954C19.1894 15.7966 19.1943 15.8982 19.1945 15.9998C19.1949 16.5429 19.0558 17.077 18.7906 17.5509C20.4232 18.1561 22.351 18.5995 23.7594 18.7749C26.0661 19.0622 25.3041 12.9418 24.4279 12.9574H24.4279ZM8.06961 13.2155C5.84194 13.2389 6.81118 19.7689 7.71972 18.976C9.1679 17.5802 10.8851 16.5207 12.8181 16.3044C12.7556 15.6612 12.8911 15.0142 13.2064 14.4501C11.5733 13.8445 9.64449 13.4007 8.23563 13.2252C8.18055 13.2182 8.12507 13.215 8.06956 13.2155L8.06961 13.2155ZM15.9989 13.6369C15.4713 13.6369 14.9855 13.8078 14.5932 14.0975C14.6862 14.2645 14.7718 14.4354 14.85 14.6098C15.1628 14.3504 15.5636 14.1939 15.9989 14.1939C16.0379 14.1939 16.0766 14.1955 16.115 14.1981C16.1028 14.0163 16.0857 13.8295 16.0637 13.6384C16.0421 13.6379 16.0206 13.6368 15.9989 13.6368V13.6369ZM16.9434 13.8321C16.8457 13.9954 16.741 14.1544 16.6296 14.3086C17.0597 14.4705 17.4131 14.7925 17.6165 15.2009C17.7733 15.0957 17.9276 14.9867 18.0791 14.8741C17.828 14.4093 17.4281 14.0424 16.9435 13.832L16.9434 13.8321ZM13.9839 14.7613C13.7632 15.121 13.6359 15.5448 13.6359 15.9998C13.6359 16.0896 13.6412 16.1779 13.6508 16.2649C13.8382 16.268 14.0274 16.2789 14.2183 16.2985C14.2016 16.1998 14.1931 16.0999 14.1929 15.9998C14.1929 15.6304 14.3058 15.2858 14.4985 14.9987C14.3289 14.9155 14.1573 14.8363 13.9839 14.7613ZM15.9989 15.0266C15.4564 15.0266 15.0256 15.4573 15.0256 15.9998C15.0256 16.5423 15.4564 16.9731 15.9989 16.9731C16.5414 16.9731 16.9721 16.5423 16.9721 15.9998C16.9721 15.4573 16.5414 15.0266 15.9989 15.0266ZM17.7795 15.7019C17.7958 15.799 17.8048 15.8984 17.8048 15.9998C17.8048 16.3699 17.6917 16.715 17.4984 17.0023C17.668 17.0855 17.8396 17.1647 18.013 17.2398C18.2343 16.8798 18.362 16.4555 18.362 15.9998C18.362 15.9103 18.3567 15.8222 18.3471 15.7353C18.1597 15.7324 17.9705 15.7215 17.7796 15.7019H17.7795ZM14.3806 16.7976C14.2238 16.9028 14.0696 17.0118 13.918 17.1244C14.1688 17.589 14.5682 17.956 15.0523 18.1668C15.15 18.0035 15.2547 17.8445 15.3662 17.6903C14.9366 17.528 14.5836 17.2059 14.3806 16.7976V16.7976ZM17.1455 17.3918C16.8329 17.6501 16.433 17.8058 15.9988 17.8058C15.9588 17.8058 15.9193 17.804 15.8798 17.8013C15.8921 17.9831 15.9091 18.1699 15.9311 18.3611C15.9536 18.3617 15.9761 18.3629 15.9988 18.3629C16.5255 18.3629 17.0103 18.1924 17.4022 17.9038C17.3092 17.737 17.2235 17.5661 17.1454 17.3918H17.1455ZM13.2597 17.642C11.9186 18.7535 10.5698 20.2022 9.71341 21.3346C8.23017 23.2959 14.6738 25.8685 14.4358 24.6568C13.9511 22.7046 13.8923 20.6875 14.6717 18.905C14.0851 18.635 13.5932 18.195 13.2597 17.642H13.2597ZM17.8504 18.6008C17.3406 18.965 16.7203 19.1833 16.0509 19.1941C16.343 20.9108 16.923 22.8021 17.4753 24.1095C18.4321 26.3747 23.8819 22.0806 22.7135 21.6809C20.7804 21.1246 19.0043 20.1669 17.8504 18.6008ZM6.5995 24.3377C6.46263 24.3377 6.3271 24.3647 6.20065 24.417C6.07419 24.4694 5.95929 24.5462 5.86251 24.643C5.76572 24.7397 5.68895 24.8546 5.63657 24.9811C5.58419 25.1075 5.55723 25.243 5.55723 25.3799C5.55721 25.5168 5.58416 25.6523 5.63653 25.7788C5.68891 25.9053 5.76569 26.0202 5.86248 26.117C5.95927 26.2138 6.07418 26.2906 6.20065 26.3429C6.32712 26.3953 6.46266 26.4223 6.59955 26.4222C6.73642 26.4222 6.87194 26.3953 6.99839 26.3429C7.12484 26.2905 7.23974 26.2137 7.33651 26.117C7.43329 26.0202 7.51005 25.9053 7.56242 25.7788C7.61479 25.6524 7.64174 25.5168 7.64173 25.38C7.64173 25.1036 7.53193 24.8385 7.33648 24.643C7.14103 24.4476 6.87595 24.3378 6.59955 24.3378L6.5995 24.3377ZM25.3872 24.3377C25.2504 24.3377 25.1148 24.3647 24.9884 24.417C24.8619 24.4694 24.747 24.5462 24.6502 24.643C24.5534 24.7397 24.4767 24.8546 24.4243 24.9811C24.3719 25.1075 24.3449 25.243 24.3449 25.3799C24.3449 25.5168 24.3719 25.6523 24.4242 25.7788C24.4766 25.9052 24.5534 26.0201 24.6501 26.1169C24.7469 26.2137 24.8618 26.2905 24.9883 26.3429C25.1147 26.3953 25.2503 26.4222 25.3871 26.4222C25.524 26.4222 25.6595 26.3953 25.786 26.3429C25.9125 26.2905 26.0274 26.2138 26.1242 26.117C26.2209 26.0202 26.2977 25.9053 26.3501 25.7788C26.4025 25.6524 26.4294 25.5168 26.4294 25.38C26.4294 25.1036 26.3196 24.8385 26.1242 24.643C25.9287 24.4476 25.6636 24.3378 25.3872 24.3378V24.3377Z" fill="black"/>
<rect x="3.59766" y="3.59668" width="24.8065" height="24.8065" rx="1.5" stroke="black"/>
<rect x="0.5" y="0.5" width="31" height="31" rx="1.5" stroke="black"/>
</svg>
