<svg width="32" height="32" viewBox="0 0 32 32" fill="none" xmlns="http://www.w3.org/2000/svg">
<path d="M12.126 4.86961C13.6475 4.86961 14.8809 3.77951 14.8809 2.4348C14.8809 1.0901 13.6475 0 12.126 0C10.6045 0 9.37109 1.0901 9.37109 2.4348C9.37109 3.77951 10.6045 4.86961 12.126 4.86961Z" fill="black"/>
<path d="M31.3724 23.4634L27.4977 24.3194L25.9479 17.9273C25.8532 17.5445 25.6137 17.2017 25.2689 16.9554C24.9242 16.709 24.4947 16.5739 24.0514 16.5723H16.8825L16.3602 12.5723H25.2206V10.2867H16.0618L15.7277 7.72773C15.6985 7.50409 15.6198 7.28773 15.496 7.09099C15.3722 6.89425 15.2057 6.72099 15.0062 6.5811C14.8066 6.44121 14.5778 6.33743 14.3329 6.27569C14.0879 6.21395 13.8316 6.19546 13.5786 6.22126L10.3672 6.54875L11.9746 18.8579H23.529L25.5299 27.1104L31.9999 25.6808L31.3724 23.4634Z" fill="black"/>
<path d="M12.2843 29.7147C10.0358 29.7144 7.85724 29.0236 6.12139 27.7605C4.38555 26.4974 3.20025 24.7404 2.76827 22.7902C2.3363 20.84 2.68448 18.8177 3.75327 17.0693C4.82206 15.3209 6.54503 13.9551 8.62743 13.2054L8.32202 10.8662C3.48671 12.3264 0 16.3817 0 21.1435C0 27.13 5.5107 32.0004 12.2843 32.0004C14.3982 31.9995 16.4761 31.5166 18.3172 30.5985C20.1583 29.6803 21.7002 28.358 22.7941 26.7592L21.9824 23.4292C20.6893 26.8577 17.0202 29.7147 12.2843 29.7147Z" fill="black"/>
</svg>
