<svg width="34" height="33" viewBox="0 0 34 33" fill="none" xmlns="http://www.w3.org/2000/svg">
<path d="M31.6087 7.61928V13.7145H26.0435M31.6087 13.7145L21.8696 3.04785M33 32.0002H1M28.8261 32.0002V24.3812H21.8696V18.2859H16.3043V12.1907H10.7391V6.09547H1" stroke="black" stroke-width="2" stroke-miterlimit="10" stroke-linecap="round" stroke-linejoin="round"/>
<path d="M19.0854 5.16571C19.0854 5.71429 19.0122 6.21714 18.8291 6.72C18.6461 7.22286 18.3898 7.63429 18.0603 8.04572C17.7307 8.41143 17.3646 8.73143 16.9252 8.91429C16.7422 9.00571 16.5225 9.09714 16.3028 9.14286L16.4127 9.09714C16.4127 9.09714 17.2182 8.50286 17.4012 7.22286C17.4744 6.08 16.7056 5.57714 16.7056 5.57714C16.7056 5.57714 16.3028 6.21714 15.7536 6.21714C14.8749 6.21714 15.0214 4.38857 15.0214 4.38857C15.0214 4.38857 13.7033 5.25714 13.7033 7.08571C13.7033 8.22857 14.6552 9.09714 14.6552 9.09714C14.5454 9.05143 14.3989 9.00572 14.2891 8.96C13.8497 8.77714 13.4836 8.45714 13.1541 8.09143C12.8246 7.72571 12.5683 7.26857 12.3852 6.76571C12.2021 6.26286 12.1289 5.76 12.1289 5.21143C12.1289 3.42857 13.8131 1.69143 13.8131 1.69143C13.8131 1.69143 13.9596 3.06286 14.8017 3.06286C16.3394 3.06286 15.7902 0 15.7902 0C15.7902 0 17.1815 1.00571 17.5843 3.74857C18.3532 3.61143 18.2799 2.37714 18.2799 2.37714C18.2799 2.37714 19.0854 3.70286 19.0854 5.16571Z" fill="black"/>
</svg>
