<svg width="32" height="32" viewBox="0 0 32 32" fill="none" xmlns="http://www.w3.org/2000/svg">
<path d="M21.476 15.4471H14.1451C13.7006 15.4442 13.276 15.3323 12.9635 15.1358C12.6511 14.9393 12.4761 14.6741 12.4766 14.3977V12.0816C12.4761 11.8053 12.6511 11.54 12.9635 11.3435C13.276 11.147 13.7006 11.0351 14.1451 11.0322H21.4582C22.3741 11.0322 23.1268 11.5067 23.1268 12.0816V14.3966C23.1305 14.5331 23.0907 14.6688 23.0095 14.7956C22.9283 14.9225 22.8075 15.038 22.6539 15.1357C22.5004 15.2333 22.3172 15.311 22.115 15.3642C21.9128 15.4175 21.6956 15.4453 21.476 15.446" fill="black"/>
<path d="M30.2267 2.20691H21.3498V2.37905L29.6925 4.52967C29.797 4.55335 29.8926 4.59027 29.973 4.6381C30.0534 4.68592 30.117 4.74361 30.1597 4.8075C30.2025 4.8714 30.2234 4.94011 30.2211 5.00929C30.2189 5.07847 30.1936 5.1466 30.1469 5.20939C30.038 5.3397 29.8529 5.43911 29.6297 5.48714C29.4065 5.53517 29.1621 5.52818 28.9469 5.4676L21.3498 3.50898V5.5647C27.3494 5.98622 32 9.1476 32 12.9909V28.7106C32.0009 29.1427 31.8648 29.5706 31.5993 29.9698C31.3338 30.3691 30.9442 30.7319 30.4529 31.0375C29.9616 31.343 29.3781 31.5853 28.7359 31.7505C28.0937 31.9156 27.4054 32.0004 26.7104 32H0.936936C0.173672 32 -0.128083 31.5476 0.0494198 31.0841L3.59948 23.1724V9.93104C3.59948 4.4767 10.7564 1.38123e-05 19.5748 1.38123e-05H30.209C30.6798 -0.00144945 31.1322 0.113403 31.4667 0.319305C31.8013 0.525207 31.9905 0.805292 31.9929 1.09794C31.9953 1.3906 31.8105 1.67184 31.4793 1.87982C31.1481 2.08779 30.6975 2.20545 30.2267 2.20691ZM28.4499 12.9909C28.4513 12.2993 28.2333 11.6143 27.8084 10.9751C27.3834 10.336 26.7599 9.75517 25.9735 9.26597C25.187 8.77678 24.2531 8.3888 23.2252 8.12423C22.1973 7.85967 21.0956 7.72371 19.983 7.72415H15.6165C14.5039 7.72371 13.4022 7.85967 12.3742 8.12423C11.3463 8.3888 10.4124 8.77678 9.626 9.26597C8.83957 9.75517 8.21604 10.336 7.7911 10.9751C7.36616 11.6143 7.14815 12.2993 7.14955 12.9909V20.9655H28.4499V12.9909ZM7.14955 23.1724C7.14955 23.1724 9.11451 27.5388 10.1227 29.7931H26.7104C27.676 29.7931 28.4499 29.3087 28.4499 28.7117V22.069H7.14955V23.1724ZM12.4995 3.60167C10.4289 4.5019 8.84134 5.76828 7.94299 7.23642C9.6284 6.36542 11.6663 5.79897 13.8343 5.59891C13.3548 5.3652 12.9801 5.0587 12.7464 4.7089C12.5126 4.35911 12.4276 3.9778 12.4995 3.60167ZM16.0141 4.85518C16.3742 4.85589 16.7263 4.78881 17.024 4.66276C17.3216 4.53671 17.551 4.3576 17.6818 4.14899C17.8126 3.94038 17.8388 3.71204 17.7568 3.49401C17.6749 3.27598 17.4888 3.07847 17.2229 2.92746L16.0336 3.76277V2.64829C15.7997 2.64756 15.568 2.67557 15.3516 2.73069C15.1352 2.78582 14.9385 2.86699 14.7727 2.96952C14.6069 3.07206 14.4754 3.19395 14.3856 3.32819C14.2959 3.46242 14.2497 3.60636 14.2497 3.75174C14.2497 4.36525 15.0236 4.85518 16.0141 4.85518Z" fill="black"/>
</svg>
