<svg width="34" height="34" viewBox="0 0 34 34" fill="none" xmlns="http://www.w3.org/2000/svg">
<path d="M30.5154 16.2765C29.9692 18.8874 28.8198 21.3414 27.1551 23.451C25.4905 25.5605 23.3547 27.2696 20.9111 28.4477V33H5.26667V28.1304H18.0667M13.0889 14.913C12.5231 14.913 11.9805 14.6932 11.5804 14.3018C11.1803 13.9104 10.9556 13.3796 10.9556 12.8261C10.9556 12.2726 11.1803 11.7418 11.5804 11.3504C11.9805 10.959 12.5231 10.7391 13.0889 10.7391C13.6547 10.7391 14.1973 10.959 14.5974 11.3504C14.9975 11.7418 15.2222 12.2726 15.2222 12.8261C15.2222 13.3796 14.9975 13.9104 14.5974 14.3018C14.1973 14.6932 13.6547 14.913 13.0889 14.913ZM30.8667 16.3043C30.3009 16.3043 29.7583 16.0845 29.3582 15.6931C28.9581 15.3017 28.7333 14.7709 28.7333 14.2174C28.7333 13.6639 28.9581 13.1331 29.3582 12.7417C29.7583 12.3503 30.3009 12.1304 30.8667 12.1304C31.4325 12.1304 31.9751 12.3503 32.3752 12.7417C32.7752 13.1331 33 13.6639 33 14.2174C33 14.7709 32.7752 15.3017 32.3752 15.6931C31.9751 16.0845 31.4325 16.3043 30.8667 16.3043ZM13.0889 24.6522C11.5014 24.6522 9.92936 24.3463 8.46267 23.752C6.99598 23.1577 5.66331 22.2865 4.54075 21.1884C3.4182 20.0902 2.52774 18.7865 1.92021 17.3517C1.31269 15.9169 1 14.3791 1 12.8261C1 11.2731 1.31269 9.73525 1.92021 8.30044C2.52774 6.86563 3.4182 5.56193 4.54075 4.46378C5.66331 3.36563 6.99598 2.49452 8.46267 1.90021C9.92936 1.30589 11.5014 1 13.0889 1C16.2951 1 19.3699 2.24596 21.637 4.46378C23.9041 6.6816 25.1778 9.68961 25.1778 12.8261C25.1778 15.9626 23.9041 18.9706 21.637 21.1884C19.3699 23.4062 16.2951 24.6522 13.0889 24.6522Z" stroke="black" stroke-width="2"/>
</svg>
