<svg width="32" height="32" viewBox="0 0 32 32" fill="none" xmlns="http://www.w3.org/2000/svg">
<path d="M3.55556 29.0909V32H7.11111V29.0909H3.55556ZM14.2222 29.0909H10.6667V32H14.2222V29.0909ZM7.11111 24.7273V27.6364H10.6667V24.7273H7.11111ZM14.2222 20.3636V23.2727H10.6667V20.3636H14.2222ZM21.3333 29.0909H17.7778V32H21.3333V29.0909ZM14.2222 24.7273V27.6364H17.7778V24.7273H14.2222ZM21.3333 20.3636V23.2727H17.7778V20.3636H21.3333ZM28.4444 29.0909H24.8889V32H28.4444V29.0909ZM21.3333 24.7273V27.6364H24.8889V24.7273H21.3333ZM23.1111 14.5455V17.4545H8.88889V14.5455H14.2222V5.81818H17.7778V14.5455H23.1111ZM32 0V2.90909H26.6667V7.27273L19.5556 13.0909V9.01818L23.1111 6.10909V2.90909H8.88889V6.10909L12.4444 9.01818V13.0909L5.33333 7.27273V2.90909H0V0H32Z" fill="black"/>
</svg>
