<svg width="32" height="32" viewBox="0 0 32 32" fill="none" xmlns="http://www.w3.org/2000/svg">
<path d="M16 0C11.645 0 9.63373 0.923517 8.70836 2.08533C7.90268 3.09681 7.78549 4.46972 7.76706 6.02899H9.87526C9.98843 4.94972 10.3815 3.98531 11.2216 3.36093C12.2392 2.60483 13.7318 2.31884 16 2.31884C18.2686 2.31884 19.7618 2.60785 20.7789 3.36541C21.6181 3.99026 22.011 4.95351 22.1245 6.02899H24.2329C24.2145 4.46972 24.0973 3.09681 23.2916 2.08533C22.3663 0.923517 20.355 0 16 0ZM6.64935 7.2657V8.50242H10.9437V7.2657H6.64935ZM21.0563 7.2657V8.50242H25.3506V7.2657H21.0563ZM3.91134 9.89372C2.95093 9.89372 1.95588 10.4222 1.21212 11.2396C0.468364 12.057 0 13.1401 0 14.1449V28.9855C0 30.1063 0.241385 30.8216 0.649004 31.276C1.05648 31.7302 1.69905 32 2.70566 32H29.3299C30.3171 32 30.9494 31.7323 31.3537 31.2779C31.7581 30.8236 32 30.1063 32 28.9855V14.1449C32 13.1401 31.5306 12.0541 30.7974 11.2358C30.0641 10.4175 29.0909 9.89372 28.1905 9.89372H3.91134ZM13.7835 14.1449H18.2165V19.0918H22.6494V24.0386H18.2165V28.9855H13.7835V24.0386H9.35065V19.0918H13.7835V14.1449Z" fill="black"/>
</svg>
