<svg width="32" height="32" viewBox="0 0 32 32" fill="none" xmlns="http://www.w3.org/2000/svg">
<path d="M22.8571 0V32H0V0H22.8571ZM20.5714 2.13333H2.28571V29.8667H20.5714V2.13333ZM5.71429 8.53333H17.1429C18.2857 8.53333 18.2857 10.6667 17.1429 10.6667H5.71429C4.57143 10.6667 4.57143 8.53333 5.71429 8.53333ZM5.71429 12.8H17.1429C18.2857 12.8 18.2857 14.9333 17.1429 14.9333H5.71429C4.57143 14.9333 4.57143 12.8 5.71429 12.8ZM5.71429 17.0667H17.1429C18.2857 17.0667 18.2857 19.2 17.1429 19.2H5.71429C4.57143 19.2 4.57143 17.0667 5.71429 17.0667ZM5.71429 21.3333H17.1429C18.2857 21.3333 18.2857 23.4667 17.1429 23.4667H5.71429C4.57143 23.4667 4.57143 21.3333 5.71429 21.3333ZM25.1429 27.7333C26.2857 28.8 30.8571 28.8 32 27.7333C32 27.7333 29.7143 32 28.5714 32C27.4286 32 25.1429 27.7333 25.1429 27.7333ZM25.1429 6.4C25.1429 7.46667 32 7.46667 32 6.4V25.6C32 26.6667 25.1429 26.6667 25.1429 25.6V6.4ZM28.5714 0C25.1429 0 25.1429 1.06667 25.1429 2.13333V4.26667C25.1429 5.33333 32 5.33333 32 4.26667V2.13333C32 1.06667 32 0 28.5714 0Z" fill="black"/>
</svg>
