<svg width="32" height="32" viewBox="0 0 32 32" fill="none" xmlns="http://www.w3.org/2000/svg">
<path d="M23.1088 0V16.5211H24.072V0H23.1088ZM3.30126 9.52549V18.9024H4.40195V10.7165H13.1774L15.9562 20.2379L10.0901 23.0684L10.6417 23.6652H13.4303L14.5307 22.4745H18.0122L14.3299 9.52549H3.30126ZM25.3097 14.2882V16.5211H26.2728V14.2882H25.3097ZM6.70905 15.82C6.15472 15.8312 5.57101 16 5.57101 16V18.9024H6.24L9.65446 22.597C9.52014 21.14 9.02165 17.1893 7.49675 16C7.33402 15.8731 7.08492 15.8255 6.8193 15.82C6.78256 15.8193 6.7458 15.8193 6.70905 15.82ZM23.1088 17.8603V18.9024H26.2728V17.8603H23.1088ZM0 20.2417V24.3436C0.921602 23.2001 2.27587 22.4745 3.78283 22.4745C6.54832 22.4745 8.80336 24.9145 8.80336 27.9069C8.80314 28.0809 8.7952 28.2547 8.77956 28.4279H14.2177C14.5163 26.409 16.1411 24.8559 18.0883 24.8559C19.8918 24.8559 21.4183 26.1885 21.8711 27.9892V25.8028L20.0328 23.8137H15.0434L13.9429 25.0044H10.129L5.72734 20.2417H0ZM23.1088 20.2417V30.8093H24.072V20.2417H23.1088ZM25.3097 20.2417V24.8559H32L31.0369 23.8137H26.2728V20.2417H25.3097ZM3.78283 23.8137C1.68632 23.8137 0 25.6384 0 27.9069C0 30.1753 1.68639 32 3.78283 32C5.87927 32 7.56566 30.1753 7.56566 27.9069C7.56566 25.6384 5.87927 23.8137 3.78283 23.8137ZM3.78283 26.0466C4.72506 26.0466 5.5021 26.8873 5.5021 27.9069C5.5021 28.9264 4.72506 29.7671 3.78283 29.7671C2.8406 29.7671 2.06356 28.9264 2.06356 27.9069C2.06356 26.8873 2.8406 26.0466 3.78283 26.0466ZM18.0883 26.1951C17.7357 26.1938 17.3863 26.2679 17.0603 26.4133C16.7343 26.5587 16.4381 26.7725 16.1888 27.0422C15.9395 27.312 15.7419 27.6325 15.6076 27.9852C15.4732 28.338 15.4046 28.716 15.4059 29.0975C15.4046 29.4791 15.4732 29.8571 15.6076 30.2098C15.7419 30.5626 15.9395 30.8831 16.1888 31.1528C16.4381 31.4226 16.7343 31.6364 17.0603 31.7818C17.3863 31.9271 17.7357 32.0013 18.0883 32C18.4409 32.0013 18.7903 31.9271 19.1163 31.7818C19.4423 31.6364 19.7384 31.4226 19.9878 31.1528C20.2371 30.8831 20.4346 30.5626 20.569 30.2098C20.7034 29.8571 20.7719 29.4791 20.7707 29.0975C20.7719 28.716 20.7034 28.338 20.569 27.9852C20.4346 27.6325 20.2371 27.312 19.9878 27.0422C19.7384 26.7725 19.4423 26.5587 19.1163 26.4133C18.7903 26.2679 18.4409 26.1938 18.0883 26.1951ZM18.0883 27.9069C18.3801 27.9069 18.66 28.0323 18.8664 28.2556C19.0728 28.4789 19.1887 28.7817 19.1887 29.0975C19.1887 29.4133 19.0728 29.7162 18.8664 29.9395C18.66 30.1628 18.3801 30.2882 18.0883 30.2882C17.7964 30.2882 17.5165 30.1628 17.3102 29.9395C17.1038 29.7162 16.9879 29.4133 16.9879 29.0975C16.9879 28.7817 17.1038 28.4789 17.3102 28.2556C17.5165 28.0323 17.7964 27.9069 18.0883 27.9069Z" fill="black"/>
</svg>
