<svg width="34" height="33" viewBox="0 0 34 33" fill="none" xmlns="http://www.w3.org/2000/svg">
<path d="M29.5823 12.2259V7.92241L22.284 0.75H3.30859V29.4397H16.4454" stroke="black" stroke-width="1.5"/>
<path d="M16.2193 32.6982H16.7193V31.6982H16.2193V32.1982V32.6982ZM0.5 0.198242H0V31.6982H0.5H1V0.198242H0.5ZM1 32.1982V32.6982H16.2193V32.1982V31.6982H1V32.1982ZM0.5 31.6982H0C0 32.2505 0.447715 32.6982 1 32.6982V32.1982V31.6982V31.6982H0.5Z" fill="black"/>
<path d="M32.5005 19.9989V28.1521C32.5005 28.8631 31.9141 29.4395 31.1906 29.4395H18.0912C17.3677 29.4395 16.7812 28.8631 16.7812 28.1521V15.2786C16.7812 14.5676 17.3677 13.9912 18.0912 13.9912H27.2608" stroke="black" stroke-width="2" stroke-linecap="round" stroke-linejoin="round"/>
<path d="M21.1484 19.9985L25.5149 23.4314L32.0646 14.4199" stroke="black" stroke-width="2" stroke-linecap="round" stroke-linejoin="round"/>
</svg>
