<svg width="33" height="34" viewBox="0 0 33 34" fill="none" xmlns="http://www.w3.org/2000/svg">
<path d="M3.40909 32.5928H0.5V10.7746L16.5 0.592773L32.5 10.7746V32.5928H29.5909M3.40909 32.5928V13.6837M3.40909 32.5928H29.5909M3.40909 13.6837H1.95455V11.5019H31.0455V13.6837H29.5909M3.40909 13.6837H29.5909M29.5909 13.6837V32.5928" stroke="black"/>
<path d="M13.5898 9.32022V6.41113H19.408V9.32022H13.5898Z" stroke="black"/>
<path d="M22.3338 29.6832C23.9438 29.6832 25.2518 28.4577 25.2518 26.9495C25.2518 26.1534 24.8998 25.4569 24.2343 24.8914C24.1115 24.7866 24.0836 24.729 24.0836 24.5719L24.0948 19.8692C24.0948 18.7748 23.3847 18.0469 22.3338 18.0469C21.2772 18.0469 20.5672 18.7748 20.5672 19.8692L20.5729 24.5719C20.5729 24.729 20.545 24.7866 20.4274 24.8914C19.7567 25.4569 19.4102 26.1534 19.4102 26.9493C19.4102 28.4575 20.7124 29.6832 22.3338 29.6832ZM22.3338 28.9233C21.1711 28.9233 20.2263 28.0332 20.2263 26.9493C20.2263 26.2946 20.5562 25.7029 21.1487 25.3311C21.3221 25.221 21.3891 25.1216 21.3891 24.9068V19.9007C21.3891 19.2409 21.7748 18.8166 22.3336 18.8166C22.8872 18.8166 23.2674 19.2409 23.2674 19.9007V24.9071C23.2674 25.1218 23.3344 25.2212 23.5078 25.3311C24.1003 25.7032 24.4301 26.2948 24.4301 26.9495C24.4301 28.0334 23.4909 28.9238 22.3336 28.9238M25.1342 19.9691H26.353C26.3961 19.9701 26.439 19.9629 26.4791 19.948C26.5192 19.9332 26.5558 19.9109 26.5865 19.8825C26.6172 19.8542 26.6416 19.8204 26.6581 19.783C26.6746 19.7457 26.683 19.7056 26.6826 19.6652C26.683 19.6248 26.6746 19.5847 26.6581 19.5474C26.6416 19.51 26.6172 19.4762 26.5864 19.4478C26.5556 19.4195 26.5191 19.3972 26.479 19.3824C26.4388 19.3675 26.3959 19.3604 26.3528 19.3614H25.134C25.0908 19.3604 25.048 19.3676 25.0078 19.3824C24.9677 19.3973 24.9312 19.4196 24.9005 19.4479C24.8697 19.4763 24.8454 19.5101 24.8289 19.5474C24.8124 19.5848 24.804 19.6248 24.8043 19.6652C24.8043 19.8277 24.9386 19.9691 25.1342 19.9691ZM25.1342 21.4404H26.353C26.3961 21.4414 26.439 21.4342 26.4791 21.4194C26.5192 21.4045 26.5557 21.3823 26.5864 21.354C26.6172 21.3256 26.6415 21.2918 26.658 21.2545C26.6746 21.2172 26.6829 21.1772 26.6826 21.1368C26.683 21.0964 26.6746 21.0563 26.6581 21.0189C26.6416 20.9816 26.6172 20.9477 26.5864 20.9194C26.5556 20.891 26.5191 20.8688 26.479 20.8539C26.4388 20.8391 26.3959 20.8319 26.3528 20.8329H25.134C25.0908 20.8319 25.048 20.8391 25.0078 20.854C24.9677 20.8689 24.9312 20.8911 24.9005 20.9195C24.8697 20.9478 24.8454 20.9817 24.8289 21.019C24.8124 21.0563 24.804 21.0964 24.8043 21.1368C24.8043 21.2992 24.9386 21.4404 25.1342 21.4404ZM22.3281 28.217C22.5063 28.2172 22.6828 28.1843 22.8473 28.1204C23.0119 28.0564 23.1614 27.9626 23.2871 27.8443C23.4128 27.726 23.5124 27.5856 23.5799 27.4312C23.6475 27.2767 23.6819 27.1113 23.681 26.9444C23.681 26.4521 23.3847 26.0488 22.9542 25.829C22.7753 25.74 22.7138 25.677 22.7138 25.4205V22.6396C22.7138 22.367 22.5461 22.2048 22.3281 22.2048C22.1158 22.2048 21.9424 22.3672 21.9424 22.6396V25.4201C21.9424 25.6766 21.8809 25.7396 21.702 25.8285C21.2717 26.0484 20.9753 26.4519 20.9753 26.9439C20.9744 27.1108 21.0087 27.2763 21.0763 27.4307C21.1439 27.5852 21.2434 27.7256 21.3691 27.8438C21.4949 27.9621 21.6443 28.0559 21.8089 28.1199C21.9735 28.1839 22.1499 28.2167 22.3281 28.2166M25.1344 22.9115H26.3532C26.3963 22.9125 26.4392 22.9053 26.4793 22.8905C26.5194 22.8756 26.5559 22.8534 26.5866 22.8251C26.6174 22.7967 26.6417 22.7629 26.6583 22.7256C26.6748 22.6883 26.6832 22.6483 26.6829 22.6079C26.6833 22.5672 26.675 22.5268 26.6586 22.4892C26.6422 22.4515 26.6179 22.4173 26.5872 22.3885C26.5565 22.3597 26.5199 22.337 26.4797 22.3216C26.4395 22.3062 26.3964 22.2985 26.353 22.2989H25.1342C25.0908 22.2985 25.0477 22.3063 25.0076 22.3217C24.9674 22.3371 24.9309 22.3598 24.9002 22.3886C24.8695 22.4174 24.8452 22.4516 24.8288 22.4892C24.8124 22.5269 24.8042 22.5672 24.8046 22.6079C24.8046 22.7703 24.9389 22.9115 25.1344 22.9115ZM25.1344 24.3833H26.3532C26.3967 24.3837 26.4397 24.3759 26.4799 24.3605C26.5201 24.3451 26.5566 24.3224 26.5873 24.2936C26.6179 24.2648 26.6422 24.2306 26.6586 24.193C26.675 24.1553 26.6833 24.115 26.6829 24.0743C26.6832 24.0339 26.6748 23.9938 26.6583 23.9565C26.6417 23.9192 26.6173 23.8854 26.5866 23.8571C26.5558 23.8287 26.5193 23.8065 26.4791 23.7916C26.439 23.7768 26.3961 23.7697 26.353 23.7707H25.1342C25.0911 23.7697 25.0482 23.7769 25.0081 23.7917C24.968 23.8066 24.9315 23.8289 24.9007 23.8572C24.87 23.8856 24.8456 23.9194 24.8291 23.9567C24.8126 23.9941 24.8043 24.0341 24.8046 24.0745C24.8042 24.1152 24.8125 24.1555 24.8289 24.1932C24.8454 24.2308 24.8697 24.265 24.9004 24.2938C24.9311 24.3225 24.9676 24.3452 25.0078 24.3606C25.048 24.376 25.091 24.3837 25.1344 24.3833Z" fill="black"/>
<path d="M9.11142 24.65L9.38632 25.8063L10.6802 25.4343L11.9738 25.8063L12.2487 24.65L13.2676 23.8658L12.2484 23.0814L11.9738 21.9251L10.6799 22.2971L9.38632 21.9249L9.11142 23.0811L8.09248 23.8656L9.11142 24.65ZM9.11142 24.65L15.0437 21.6838M9.11142 24.65L6.31641 26.0474M10.6799 19.502V25.4345V28.2292M9.19815 20.4459L10.6802 21.0605L12.1619 20.4459M12.1619 27.2855L10.6799 26.6709L9.19815 27.2855M13.3588 21.0444L13.485 22.4631L14.8408 23.2673M8.00108 26.6871L7.87486 25.2684M6.51954 24.4643L7.87486 25.2682M15.0437 26.0476L12.2484 24.65L6.31664 21.6838M14.8408 24.4643L13.4855 25.2684M13.3588 26.6871L13.485 25.2684M6.51954 23.2673L7.87486 22.4631L8.00108 21.0444" stroke="black" stroke-width="0.5" stroke-linecap="round" stroke-linejoin="round"/>
</svg>
