<svg width="32" height="32" viewBox="0 0 32 32" fill="none" xmlns="http://www.w3.org/2000/svg">
<rect x="3.69922" y="3.7002" width="24.6" height="24.6" rx="1.5" stroke="black"/>
<path d="M23.232 23.232C25.2053 21.2573 26.192 18.8467 26.192 16C26.192 13.1533 25.2053 10.7427 23.232 8.768C21.2587 6.79333 18.848 5.80667 16 5.808C13.152 5.80933 10.7413 6.796 8.768 8.768C6.79467 10.744 5.808 13.1547 5.808 16C5.808 18.8453 6.79467 21.256 8.768 23.232C10.7427 25.2053 13.1533 26.192 16 26.192C18.8467 26.192 21.2573 25.2053 23.232 23.232ZM12.834 23.572C11.8447 23.132 10.9447 22.5313 10.134 21.77H21.866C21.0553 22.53 20.1553 23.13 19.166 23.57C18.1767 24.01 17.1213 24.23 16 24.23C14.8787 24.23 13.8233 24.01 12.834 23.57M8.946 20.23C8.65267 19.6873 8.41 19.1273 8.218 18.55C8.026 17.9727 7.89667 17.3793 7.83 16.77H24.17C24.1033 17.3793 23.9733 17.9727 23.78 18.55C23.588 19.1273 23.3333 19.6873 23.016 20.23H8.946ZM7.83 15.23C7.89667 14.6207 8.026 14.0273 8.218 13.45C8.41 12.8727 8.66533 12.3127 8.984 11.77H23.054C23.3473 12.3127 23.5893 12.8727 23.78 13.45C23.972 14.0273 24.1013 14.6207 24.168 15.23H7.83ZM10.134 10.23C10.9447 9.47 11.8447 8.87 12.834 8.43C13.8233 7.99 14.8787 7.77 16 7.77C17.1213 7.77 18.1767 7.99 19.166 8.43C20.1553 8.87 21.0553 9.47 21.866 10.23H10.134ZM3.232 32C2.336 32 1.57333 31.6853 0.944 31.056C0.314667 30.4267 0 29.6647 0 28.77V3.23C0 2.33667 0.314667 1.57467 0.944 0.944C1.57333 0.314667 2.336 0 3.232 0H28.77C29.6633 0 30.4253 0.314667 31.056 0.944C31.6853 1.57333 32 2.336 32 3.232V28.77C32 29.6633 31.6853 30.4253 31.056 31.056C30.4267 31.6853 29.6647 32 28.77 32H3.232ZM3.232 30H28.77C29.1287 30 29.4233 29.8847 29.654 29.654C29.8847 29.4233 30 29.1287 30 28.77V3.23C30 2.87133 29.8847 2.57667 29.654 2.346C29.4233 2.11533 29.1287 2 28.77 2H3.23C2.87133 2 2.57667 2.11533 2.346 2.346C2.11533 2.57667 2 2.872 2 3.232V28.77C2 29.1287 2.11533 29.4233 2.346 29.654C2.57667 29.8847 2.872 30 3.232 30Z" fill="black"/>
</svg>
