<svg width="32" height="32" viewBox="0 0 32 32" fill="none" xmlns="http://www.w3.org/2000/svg">
<path d="M31.4944 0.149765C31.6489 0.239354 31.7765 0.364456 31.8649 0.513211C31.9534 0.661966 31.9999 0.829444 32 0.999765V30.9998C32 31.265 31.8876 31.5193 31.6876 31.7069C31.4875 31.8944 31.2162 31.9998 30.9333 31.9998H24.5333C24.2504 31.9998 23.9791 31.8944 23.7791 31.7069C23.579 31.5193 23.4667 31.265 23.4667 30.9998V27.9998H21.3333V30.9998C21.3333 31.265 21.221 31.5193 21.0209 31.7069C20.8209 31.8944 20.5496 31.9998 20.2667 31.9998H1.06667C0.783769 31.9998 0.512458 31.8944 0.312419 31.7069C0.112381 31.5193 0 31.265 0 30.9998V19.9998C0.000169913 19.79 0.0707159 19.5855 0.201653 19.4154C0.33259 19.2453 0.517287 19.1181 0.7296 19.0518L12.8 15.2798V8.99976C12.8 8.81421 12.8551 8.63231 12.9591 8.47443C13.0631 8.31654 13.2118 8.18889 13.3888 8.10576L30.4555 0.105765C30.6183 0.0293765 30.7992 -0.00668281 30.981 0.00101896C31.1629 0.00872073 31.3396 0.0599273 31.4944 0.149765ZM12.8 17.3878L2.13333 20.7198V29.9998H12.8V17.3878ZM14.9333 29.9998H19.2V26.9998C19.2 26.7345 19.3124 26.4802 19.5124 26.2927C19.7125 26.1051 19.9838 25.9998 20.2667 25.9998H24.5333C24.8162 25.9998 25.0875 26.1051 25.2876 26.2927C25.4876 26.4802 25.6 26.7345 25.6 26.9998V29.9998H29.8667V2.61776L14.9333 9.61776V29.9998Z" fill="black"/>
<path d="M4.26562 22H6.39896V24H4.26562V22ZM8.53229 22H10.6656V24H8.53229V22ZM4.26562 26H6.39896V28H4.26562V26ZM8.53229 26H10.6656V28H8.53229V26ZM17.0656 18H19.199V20H17.0656V18ZM21.3323 18H23.4656V20H21.3323V18ZM17.0656 22H19.199V24H17.0656V22ZM21.3323 22H23.4656V24H21.3323V22ZM25.599 18H27.7323V20H25.599V18ZM25.599 22H27.7323V24H25.599V22ZM17.0656 14H19.199V16H17.0656V14ZM21.3323 14H23.4656V16H21.3323V14ZM25.599 14H27.7323V16H25.599V14ZM17.0656 10H19.199V12H17.0656V10ZM21.3323 10H23.4656V12H21.3323V10ZM25.599 10H27.7323V12H25.599V10ZM25.599 6H27.7323V8H25.599V6Z" fill="black"/>
</svg>
