<svg width="32" height="32" viewBox="0 0 32 32" fill="none" xmlns="http://www.w3.org/2000/svg">
<path d="M20.6973 14.1911H22.1861V11.0042H25.6842C26.1883 11.0042 26.6167 10.8072 26.9693 10.4132C27.3218 10.0191 27.4981 9.5404 27.4981 8.97694V6.66353C27.4981 6.09883 27.3218 5.62008 26.9693 5.2273C26.6167 4.83326 26.1883 4.63624 25.6842 4.63624H20.6956L20.6973 14.1911ZM22.1861 9.34024V6.29836H26.0093V9.34024H22.1861ZM17.8796 18.8235C17.1037 18.8235 16.4564 18.5336 15.9377 17.9539C15.4189 17.3741 15.159 16.6463 15.1579 15.7704V3.05318C15.1579 2.17851 15.4178 1.45067 15.9377 0.869651C16.4575 0.288631 17.1082 -0.00125084 17.8897 4.0568e-06H29.2682C30.0508 4.0568e-06 30.702 0.290514 31.2219 0.871533C31.7418 1.45255 32.0011 2.17977 32 3.05318V15.7704C32 16.645 31.7406 17.3729 31.2219 17.9539C30.7032 18.5349 30.0559 18.8248 29.28 18.8235H24.421V32H22.7368V18.8235H17.8796ZM17.8796 16.9412H29.28C29.582 16.9412 29.8302 16.8326 30.0244 16.6155C30.2187 16.3984 30.3158 16.1211 30.3158 15.7835V3.04C30.3158 2.70243 30.2187 2.4251 30.0244 2.208C29.8302 1.99091 29.582 1.88236 29.28 1.88236H17.8779C17.5759 1.88236 17.3277 1.99091 17.1335 2.208C16.9392 2.4251 16.8421 2.70306 16.8421 3.04189V15.7835C16.8421 16.1211 16.9392 16.3984 17.1335 16.6155C17.3277 16.8326 17.5764 16.9412 17.8796 16.9412ZM11.0451 32C10.8059 32 10.606 31.9096 10.4455 31.7289C10.2849 31.5482 10.2041 31.3249 10.2029 31.0588V28.2353H0V26.3529H10.592V17.2311H0V15.3487H9.89137L7.41053 7.52942H0V5.64706H7.80632C8.06119 5.64706 8.29249 5.73365 8.50021 5.90683C8.70793 6.08 8.85221 6.30714 8.93305 6.58824L12.2762 17.2311V31.0588C12.2762 31.3261 12.1954 31.5495 12.0337 31.7289C11.872 31.9084 11.6721 31.9987 11.4341 32H11.0451ZM6.51789 23.8908C7.04224 23.8908 7.48519 23.6863 7.84674 23.2772C8.20828 22.8668 8.38905 22.3693 8.38905 21.7845C8.38905 21.1984 8.20547 20.7027 7.83831 20.2974C7.47228 19.8946 7.02709 19.6932 6.50274 19.6932C5.97839 19.6932 5.53544 19.8977 5.17389 20.3068C4.81235 20.7159 4.63158 21.2135 4.63158 21.7995C4.63158 22.3856 4.81516 22.8813 5.18232 23.2866C5.54835 23.6894 5.99354 23.8908 6.51789 23.8908Z" fill="black"/>
</svg>
