<svg width="32" height="32" viewBox="0 0 32 32" fill="none" xmlns="http://www.w3.org/2000/svg">
<path d="M12.7166 5.16923V10.3385C12.7166 11.2 10.7219 11.2 10.7219 10.3385H3.74018C1.74542 10.3385 0.748036 9.47692 0.748036 7.75385V1.72308C-0.249345 1.72308 -0.249345 0 0.748036 0H6.73233C7.72971 0 7.72971 1.72308 6.73233 1.72308V4.30769C6.73233 4.30769 6.73233 5.16923 7.72971 5.16923H10.7219C10.7219 4.30769 12.7166 4.30769 12.7166 5.16923ZM26.68 17.2308C27.6774 17.2308 27.6774 15.5077 26.68 15.5077V7.75385C26.68 6.03077 25.6826 5.16923 23.6878 5.16923H16.7061C16.7061 4.30769 14.7114 4.30769 14.7114 5.16923V10.3385C14.7114 11.2 16.7061 11.2 16.7061 10.3385H19.6983C20.6957 10.3385 20.6957 11.2 20.6957 11.2V15.5077C19.6983 15.5077 19.6983 17.2308 20.6957 17.2308H26.68Z" fill="black"/>
<path d="M25.9037 31.9997C29.2702 31.9997 31.9988 30.1535 31.9988 26.9228C31.9988 25.5382 31.4909 23.2305 29.4592 21.3843C29.7132 22.7689 28.1894 23.2305 28.1894 23.2305C28.9513 20.9228 26.9196 17.692 23.872 17.2305C24.2347 19.0766 24.3799 20.9228 21.8403 22.7689C20.5705 23.692 19.8086 25.288 19.8086 26.9228C19.8086 30.1535 22.5372 31.9997 25.9037 31.9997ZM25.9037 31.0766C24.2204 31.0766 22.8562 30.1535 22.8562 28.5382C22.8562 27.8459 23.1101 26.692 24.126 25.7689C23.999 26.4612 24.8879 26.9228 24.8879 26.9228C24.5069 25.7689 25.3958 23.9228 26.9196 23.692C26.7377 24.6151 26.6656 25.5382 27.9354 26.4612C28.5703 26.9228 28.9513 27.7203 28.9513 28.5382C28.9513 30.1535 27.587 31.0766 25.9037 31.0766Z" fill="black"/>
</svg>
