<svg width="32" height="32" viewBox="0 0 32 32" fill="none" xmlns="http://www.w3.org/2000/svg">
<path d="M3.2 0H0V25.9048C0 26.713 0.337142 27.4882 0.937258 28.0598C1.53737 28.6313 2.35131 28.9524 3.2 28.9524H16.16C16.048 28.4648 16 27.9467 16 27.4286C16 26.9105 16.048 26.3924 16.16 25.9048H3.2V0ZM17.6 22.8571C19.056 21.0133 21.376 19.8095 24 19.8095C26.624 19.8095 28.944 21.0133 30.4 22.8571H32V6.09524C32 4.40381 30.576 3.04762 28.8 3.04762H9.6C8.75131 3.04762 7.93737 3.36871 7.33726 3.94025C6.73714 4.51179 6.4 5.28696 6.4 6.09524V22.8571H17.6ZM28.8 6.09524V9.14286H19.2V6.09524H28.8ZM19.2 12.1905H28.8V15.2381H19.2V12.1905ZM8 13.7143L12.8 4.57143V10.6667H16L11.2 19.8095V13.7143H8ZM19.472 25.9048C19.2912 26.3943 19.1992 26.9096 19.2 27.4286C19.2 28.641 19.7057 29.8038 20.6059 30.6611C21.5061 31.5184 22.727 32 24 32C26.656 32 28.8 29.9581 28.8 27.4286C28.8 24.899 26.656 22.8571 24 22.8571C21.904 22.8571 20.128 24.1371 19.472 25.9048Z" fill="black"/>
</svg>
