<svg width="32" height="34" viewBox="0 0 32 34" fill="none" xmlns="http://www.w3.org/2000/svg">
<path d="M4.36364 32.6152V20.7891M27.6364 32.6152H0H32H27.6364ZM27.6364 32.6152V20.7891M27.6364 20.7891H4.36364M27.6364 20.7891V11.7457M4.36364 20.7891V11.7457M4.36364 11.7457V0.615234L27.6364 5.4848V11.7457M4.36364 11.7457H27.6364" stroke="black"/>
<path d="M15.9989 26.8412C15.7234 26.8412 15.4591 26.7313 15.2643 26.5356C15.0694 26.3399 14.96 26.0745 14.96 25.7977C14.96 25.521 15.0694 25.2556 15.2643 25.0599C15.4591 24.8642 15.7234 24.7542 15.9989 24.7542C16.2745 24.7542 16.5387 24.8642 16.7336 25.0599C16.9284 25.2556 17.0379 25.521 17.0379 25.7977C17.0379 25.9347 17.011 26.0704 16.9588 26.197C16.9066 26.3236 16.8301 26.4387 16.7336 26.5356C16.6371 26.6325 16.5226 26.7093 16.3965 26.7618C16.2705 26.8142 16.1354 26.8412 15.9989 26.8412ZM15.9989 22.876C15.2274 22.876 14.4875 23.1838 13.9419 23.7317C13.3963 24.2797 13.0898 25.0228 13.0898 25.7977C13.0898 27.989 15.9989 31.2238 15.9989 31.2238C15.9989 31.2238 18.908 27.989 18.908 25.7977C18.908 25.0228 18.6015 24.2797 18.056 23.7317C17.5104 23.1838 16.7705 22.876 15.9989 22.876Z" fill="black"/>
</svg>
