<svg width="32" height="32" viewBox="0 0 32 32" fill="none" xmlns="http://www.w3.org/2000/svg">
<path fill-rule="evenodd" clip-rule="evenodd" d="M16.0002 1.6C14.9393 1.6 13.9219 1.93714 13.1718 2.53726C12.4217 3.13737 12.0002 3.95131 12.0002 4.8C12.0002 5.64869 12.4217 6.46263 13.1718 7.06274C13.9219 7.66286 14.9393 8 16.0002 8C17.061 8 18.0784 7.66286 18.8286 7.06274C19.5787 6.46263 20.0001 5.64869 20.0001 4.8C20.0001 3.95131 19.5787 3.13737 18.8286 2.53726C18.0784 1.93714 17.061 1.6 16.0002 1.6ZM10.0003 4.8C10.0003 3.52696 10.6324 2.30606 11.7576 1.40589C12.8828 0.505713 14.4089 0 16.0002 0C17.5915 0 19.1176 0.505713 20.2428 1.40589C21.368 2.30606 22.0001 3.52696 22.0001 4.8C22.0001 6.07304 21.368 7.29394 20.2428 8.19411C19.1176 9.09429 17.5915 9.6 16.0002 9.6C14.4089 9.6 12.8828 9.09429 11.7576 8.19411C10.6324 7.29394 10.0003 6.07304 10.0003 4.8ZM7.30828 12.3696C7.61192 11.7864 8.12454 11.2882 8.78155 10.9377C9.43856 10.5872 10.2106 10.4001 11.0002 10.4H21.0001C21.7898 10.4001 22.5618 10.5872 23.2188 10.9377C23.8758 11.2882 24.3885 11.7864 24.6921 12.3696L27.1921 17.1696C28.2251 19.1512 26.5741 21.324 24.0001 21.576V22.3136C24.0001 22.4493 24.0432 22.5827 24.1255 22.7014C24.2077 22.8201 24.3263 22.9201 24.4701 22.992L30.018 25.7656C30.7945 26.1538 31.3919 26.7337 31.72 27.4176C32.0481 28.1015 32.089 28.8523 31.8366 29.5564C31.5842 30.2606 31.0521 30.8799 30.3208 31.3207C29.5895 31.7616 28.6987 32 27.7831 32H4.21332C3.29746 32.0001 2.40651 31.7614 1.67542 31.32C0.944329 30.8787 0.412911 30.2588 0.161648 29.5543C-0.0896152 28.8497 -0.0470358 28.0988 0.282938 27.4153C0.612911 26.7318 1.2123 26.1529 1.99034 25.7664L7.57828 22.9904C7.72276 22.9185 7.84194 22.8184 7.92453 22.6994C8.00712 22.5804 8.0504 22.4465 8.05027 22.3104V21.58C5.4473 21.352 3.76932 19.164 4.80831 17.1688L7.30828 12.3696ZM10.0503 21.6V22.3104C10.0502 22.7185 9.92004 23.1199 9.6721 23.4766C9.42416 23.8332 9.06661 24.1334 8.63327 24.3488L3.04633 27.1248C2.63721 27.3277 2.32192 27.6317 2.14825 27.9908C1.97459 28.35 1.95202 28.7446 2.08396 29.1149C2.21591 29.4852 2.49518 29.811 2.87944 30.0429C3.2637 30.2748 3.73199 30.4002 4.21332 30.4H22.0001C22.2653 30.4 22.5197 30.3157 22.7072 30.1657C22.8948 30.0157 23.0001 29.8122 23.0001 29.6V29.496C22.9999 29.2932 22.9035 29.098 22.7303 28.95C22.5571 28.8019 22.32 28.712 22.0671 28.6984L8.98326 27.9984C8.71858 27.9842 8.4718 27.8864 8.2972 27.7267C8.12261 27.5669 8.03451 27.3581 8.05228 27.1464C8.07004 26.9347 8.19223 26.7372 8.39195 26.5975C8.59168 26.4579 8.85258 26.3874 9.11726 26.4016L22.2001 27.1016C22.9596 27.1422 23.6713 27.4122 24.1912 27.8569C24.7111 28.3017 25.0003 28.8879 25.0001 29.4968V29.6C25.0001 29.88 24.9401 30.1496 24.8301 30.4H27.7831C28.2645 30.4 28.7328 30.2746 29.1172 30.0429C29.5017 29.8111 29.7814 29.4855 29.9141 29.1154C30.0468 28.7452 30.0253 28.3505 29.8528 27.9909C29.6803 27.6314 29.3663 27.3265 28.958 27.1224L23.4101 24.348C22.9786 24.1323 22.6228 23.8323 22.3762 23.4762C22.1295 23.1202 22.0001 22.7199 22.0001 22.3128V21.6H19.2432C18.7177 21.6 18.1975 21.5172 17.7121 21.3563C17.2267 21.1955 16.7856 20.9597 16.4142 20.6624L16.0002 20.3312L15.5862 20.6624C15.2147 20.9597 14.7737 21.1955 14.2883 21.3563C13.8029 21.5172 13.2826 21.6 12.7572 21.6H10.0503ZM17.0002 18.8688L17.8282 19.5312C18.014 19.6799 18.2346 19.7978 18.4773 19.8782C18.7201 19.9587 18.9804 20.0001 19.2432 20H23.5001C23.8294 20 24.1537 19.935 24.4441 19.8106C24.7344 19.6863 24.9819 19.5065 25.1645 19.2873C25.3472 19.0681 25.4593 18.8161 25.491 18.5539C25.5227 18.2916 25.4729 18.0272 25.3461 17.784L22.8461 12.984C22.6941 12.6926 22.4378 12.4436 22.1093 12.2685C21.7808 12.0934 21.3949 12 21.0001 12H11.0002C10.6055 12 10.2196 12.0934 9.8911 12.2685C9.56261 12.4436 9.30623 12.6926 9.15426 12.984L6.65429 17.784C6.5275 18.0272 6.47772 18.2916 6.50939 18.5539C6.54106 18.8161 6.6532 19.0681 6.83584 19.2873C7.01847 19.5065 7.26596 19.6863 7.55632 19.8106C7.84669 19.935 8.17093 20 8.50027 20H12.7572C13.02 20.0001 13.2802 19.9587 13.523 19.8782C13.7658 19.7978 13.9864 19.6799 14.1722 19.5312L15.0002 18.8688V17.0128C14.7742 17.1168 14.5702 17.2592 14.4002 17.44L13.8002 18.08C13.7071 18.1794 13.5863 18.26 13.4474 18.3155C13.3086 18.3711 13.1555 18.4 13.0002 18.4H10.0003C9.82986 18.3999 9.66232 18.365 9.51353 18.2986C9.36474 18.2322 9.23963 18.1365 9.15007 18.0205C9.06051 17.9045 9.00948 17.7722 9.00181 17.636C8.99415 17.4998 9.0301 17.3643 9.10626 17.2424L10.1063 15.6424C10.1624 15.5451 10.2424 15.4579 10.3415 15.3858C10.4406 15.3138 10.5568 15.2584 10.6832 15.2229C10.8096 15.1875 10.9436 15.1727 11.0772 15.1795C11.2109 15.1863 11.3415 15.2144 11.4613 15.2623C11.5811 15.3103 11.6876 15.3769 11.7745 15.4584C11.8615 15.5399 11.9271 15.6345 11.9675 15.7367C12.0079 15.8388 12.0222 15.9464 12.0096 16.0531C11.997 16.1597 11.9578 16.2633 11.8942 16.3576L11.6182 16.8H12.5002L12.8002 16.48C14.4002 14.7736 17.6002 14.7736 19.2002 16.48L19.5002 16.8H20.3821L20.1061 16.3576C20.0426 16.2633 20.0033 16.1597 19.9908 16.0531C19.9782 15.9464 19.9925 15.8388 20.0329 15.7367C20.0732 15.6345 20.1389 15.5399 20.2258 15.4584C20.3128 15.3769 20.4193 15.3103 20.5391 15.2623C20.6589 15.2144 20.7895 15.1863 20.9231 15.1795C21.0568 15.1727 21.1908 15.1875 21.3172 15.2229C21.4435 15.2584 21.5597 15.3138 21.6588 15.3858C21.758 15.4579 21.838 15.5451 21.8941 15.6424L22.8941 17.2424C22.9703 17.3643 23.0062 17.4998 22.9986 17.636C22.9909 17.7722 22.9399 17.9045 22.8503 18.0205C22.7608 18.1365 22.6356 18.2322 22.4868 18.2986C22.3381 18.365 22.1705 18.3999 22.0001 18.4H19.0002C18.8449 18.4 18.6918 18.3711 18.5529 18.3155C18.4141 18.26 18.2933 18.1794 18.2002 18.08L17.6002 17.44C17.4383 17.2666 17.2342 17.1213 17.0002 17.0128V18.8688Z" fill="black"/>
</svg>
