<svg width="34" height="33" viewBox="0 0 34 33" fill="none" xmlns="http://www.w3.org/2000/svg">
<path d="M16.7422 32.0002L0.742188 17.7024L16.7422 2.72363L32.7422 17.7024L16.7422 32.0002Z" stroke="black"/>
<path d="M9.27734 10.2129L24.744 24.5108" stroke="black"/>
<path d="M9.27734 25.1916L24.2107 10.2129" stroke="black"/>
<path d="M16.7435 0C17.3093 0 17.8519 0.31881 18.252 0.886296C18.6521 1.45378 18.8768 2.22346 18.8768 3.026C18.8768 3.57825 18.7755 4.09267 18.5888 4.53901H19.9435C20.4502 4.53901 20.8768 5.04586 20.9835 5.71915C22.0555 11.7787 22.0768 11.9376 22.0768 12.104C22.0768 12.5053 21.9644 12.8901 21.7644 13.1739C21.5644 13.4576 21.2931 13.617 21.0102 13.617H12.4768C12.1939 13.617 11.9226 13.4576 11.7226 13.1739C11.5225 12.8901 11.4102 12.5053 11.4102 12.104C11.4102 11.9376 11.4315 11.7787 12.5035 5.71915C12.6102 5.04586 13.0368 4.53901 13.5435 4.53901H14.8982C14.7078 4.08072 14.6082 3.55794 14.6102 3.026C14.6102 2.22346 14.8349 1.45378 15.235 0.886296C15.6351 0.31881 16.1777 0 16.7435 0ZM16.7435 1.513C16.4606 1.513 16.1893 1.67241 15.9892 1.95615C15.7892 2.23989 15.6768 2.62473 15.6768 3.026C15.6768 3.42728 15.7892 3.81212 15.9892 4.09586C16.1893 4.3796 16.4606 4.53901 16.7435 4.53901C17.0264 4.53901 17.2977 4.3796 17.4977 4.09586C17.6978 3.81212 17.8102 3.42728 17.8102 3.026C17.8102 2.62473 17.6978 2.23989 17.4977 1.95615C17.2977 1.67241 17.0264 1.513 16.7435 1.513ZM13.5435 6.05201V12.104H14.6102V10.2128L15.1435 10.9693V12.104H16.2102V10.591L15.1435 9.07801L16.2102 7.56501V6.05201H15.1435V7.18676L14.6102 7.94326V6.05201H13.5435ZM18.3435 6.05201C17.7515 6.05201 17.2768 6.7253 17.2768 7.56501V10.591C17.2768 11.4307 17.7515 12.104 18.3435 12.104H19.9435V8.32151H18.8768V10.591H18.3435V7.56501H19.9435V6.05201H18.3435Z" fill="black"/>
</svg>
