<svg width="32" height="32" viewBox="0 0 32 32" fill="none" xmlns="http://www.w3.org/2000/svg">
<path d="M31.3311 25.0802L19.4928 2.27961C19.1321 1.58639 18.6138 1.01085 17.9899 0.610739C17.366 0.210623 16.6585 0 15.9383 0C15.2181 0 14.5105 0.210623 13.8866 0.610739C13.2627 1.01085 12.7444 1.58639 12.3837 2.27961L0.545442 25.0975C0.188012 25.7929 0 26.5801 0 27.3811C0 28.1821 0.188012 28.9692 0.545442 29.6646C0.910288 30.39 1.44875 30.9888 2.10106 31.3945C2.72642 31.7924 3.43422 32 4.15447 32H27.8309C28.5512 32 29.259 31.7924 29.8844 31.3945C30.5367 30.9888 31.0751 30.39 31.44 29.6646C31.8066 28.9727 32 28.1842 32 27.3811C32 26.5779 31.8066 25.7895 31.44 25.0975L31.3311 25.0802ZM20.6284 19.579L14.826 26.0144C14.7206 26.139 14.5926 26.2374 14.4504 26.303C14.3083 26.3686 14.1553 26.3999 14.0015 26.395C13.8482 26.3958 13.6963 26.3625 13.5548 26.2972C13.4132 26.2318 13.2848 26.1357 13.177 26.0144C12.9586 25.7711 12.8358 25.4414 12.8358 25.0975C12.8358 24.7537 12.9586 24.4239 13.177 24.1807L16.9883 19.9596H12.0726C11.8413 19.9576 11.6158 19.8793 11.4247 19.7345C11.2336 19.5897 11.0855 19.3851 10.9992 19.1465C10.9108 18.9119 10.8872 18.6533 10.9316 18.4037C10.9759 18.1541 11.0861 17.9249 11.2481 17.7453L17.0505 11.2926C17.2717 11.0634 17.5642 10.9387 17.8665 10.9446C18.1687 10.9505 18.4571 11.0867 18.6709 11.3244C18.8847 11.5621 19.0071 11.8828 19.0124 12.2189C19.0178 12.5551 18.9056 12.8804 18.6995 13.1263L14.8882 17.3647H19.804C20.0339 17.363 20.259 17.4378 20.4503 17.5797C20.6416 17.7215 20.7904 17.9238 20.8773 18.1605C20.965 18.3981 20.9881 18.6591 20.9439 18.9112C20.8997 19.1633 20.79 19.3955 20.6284 19.579Z" fill="black"/>
</svg>
