<svg width="32" height="34" viewBox="0 0 32 34" fill="none" xmlns="http://www.w3.org/2000/svg">
<path d="M31.6606 15.2578L26.674 10.1112V2.30144C26.674 1.99625 26.5616 1.70356 26.3615 1.48776C26.1615 1.27196 25.8902 1.15072 25.6073 1.15072H22.4073C22.1244 1.15072 21.8531 1.27196 21.6531 1.48776C21.453 1.70356 21.3406 1.99625 21.3406 2.30144V4.60288L17.4793 0.61995C17.118 0.225829 16.5807 0 16 0C15.4213 0 14.8853 0.225829 14.524 0.620669L0.344024 15.2564C-0.0706412 15.6879 -0.122641 16.3978 0.254691 16.8652C0.349445 16.9832 0.465465 17.0792 0.595689 17.1473C0.725914 17.2154 0.86762 17.2542 1.01218 17.2613C1.15675 17.2684 1.30114 17.2438 1.43658 17.1888C1.57203 17.1338 1.69568 17.0496 1.80002 16.9415L15.6333 2.68118C15.7326 2.57875 15.8646 2.52158 16.002 2.52158C16.1393 2.52158 16.2714 2.57875 16.3707 2.68118L30.2053 16.9415C30.4091 17.1523 30.682 17.2674 30.9643 17.2614C31.2466 17.2555 31.5153 17.1291 31.7113 16.9098C32.1206 16.4524 32.0866 15.6973 31.6606 15.2578Z" fill="black"/>
<path d="M16.1992 31.0322L18.8486 28.0059H16.8027V16.4053H18.8477L16.1992 13.3789L13.5508 16.4053H15.5967V28.0059H13.5508L16.1992 31.0322Z" fill="white" stroke="black" stroke-width="0.5"/>
<path d="M14.0863 7.47021L3.55833 18.4193C3.20009 18.7919 3 19.2887 3 19.8056V31.5C3 32.6046 3.89543 33.5 5 33.5H26.5C27.6046 33.5 28.5 32.6046 28.5 31.5V19.8284C28.5 19.298 28.2893 18.7893 27.9142 18.4142L16.9422 7.44222C16.1503 6.65032 14.8626 6.66294 14.0863 7.47021Z" stroke="black"/>
</svg>
