<svg width="32" height="32" viewBox="0 0 32 32" fill="none" xmlns="http://www.w3.org/2000/svg">
<path fill-rule="evenodd" clip-rule="evenodd" d="M9.39916 21.9541C9.60066 21.919 9.81248 21.9186 10.0143 21.9529C10.2161 21.9872 10.4011 22.0551 10.5515 22.15L14.5009 24.6419C14.6616 24.7435 14.7768 24.8722 14.8338 25.0139C14.8908 25.1557 14.8875 25.305 14.8243 25.4456L13.9624 27.36C13.7475 27.838 13.3116 28.2601 12.7152 28.5676L7.07134 31.4753C6.6949 31.6731 6.26259 31.8199 5.7994 31.9072C5.33621 31.9945 4.85132 32.0206 4.37274 31.9839C3.89417 31.9471 3.4314 31.8484 3.01117 31.6933C2.59094 31.5383 2.22159 31.3299 1.92445 31.0804C1.62732 30.8309 1.40829 30.5451 1.28003 30.2396C1.15176 29.934 1.11681 29.6148 1.17718 29.3003C1.23755 28.9858 1.39205 28.6823 1.63175 28.4074C1.87145 28.1324 2.19161 27.8914 2.57371 27.6983L7.30108 25.2624L8.54461 22.4995C8.60399 22.368 8.71378 22.2488 8.86344 22.1532C9.01309 22.0577 9.19758 21.9892 9.39916 21.9541ZM10.3096 24.2124L9.52072 25.9614C9.44899 26.1206 9.30369 26.2612 9.10499 26.3636L4.07251 28.9578C3.82734 29.0905 3.67074 29.2809 3.63618 29.4885C3.60163 29.6961 3.69187 29.9043 3.88761 30.0687C4.08335 30.2331 4.36907 30.3406 4.68369 30.3682C4.99831 30.3958 5.31689 30.3414 5.57132 30.2166L11.2152 27.3081C11.4144 27.2058 11.5601 27.0652 11.6322 26.9058L12.2837 25.4584L10.3096 24.2124ZM20.8572 6.39758C21.8243 6.39758 22.7519 6.14482 23.4358 5.6949C24.1197 5.24498 24.5039 4.63477 24.5039 3.99849C24.5039 3.36221 24.1197 2.75199 23.4358 2.30207C22.7519 1.85216 21.8243 1.59939 20.8572 1.59939C19.89 1.59939 18.9624 1.85216 18.2785 2.30207C17.5946 2.75199 17.2104 3.36221 17.2104 3.99849C17.2104 4.63477 17.5946 5.24498 18.2785 5.6949C18.9624 6.14482 19.89 6.39758 20.8572 6.39758ZM20.8572 7.99697C22.4691 7.99697 24.015 7.57571 25.1549 6.82584C26.2947 6.07598 26.935 5.05895 26.935 3.99849C26.935 2.93802 26.2947 1.92099 25.1549 1.17113C24.015 0.421268 22.4691 0 20.8572 0C19.2452 0 17.6993 0.421268 16.5595 1.17113C15.4196 1.92099 14.7793 2.93802 14.7793 3.99849C14.7793 5.05895 15.4196 6.07598 16.5595 6.82584C17.6993 7.57571 19.2452 7.99697 20.8572 7.99697Z" fill="black"/>
<path fill-rule="evenodd" clip-rule="evenodd" d="M13.244 8.28823C14.9798 7.8644 16.8445 7.88839 18.5184 8.45857C20.1108 8.99996 21.189 9.91642 21.8673 10.8745C22.1209 11.2327 22.3572 11.5683 22.576 11.8813C23.1108 12.6442 23.5484 13.2703 23.9678 13.8165C24.5586 14.5898 24.9913 15.0433 25.373 15.336C25.7012 15.5863 25.982 15.7134 26.3442 15.8062C26.7697 15.9165 27.4662 16.0165 28.7049 16.0413C29.6053 16.059 30.4582 16.3113 31.0759 16.7427C31.6935 17.1741 32.0254 17.7493 31.9985 18.3416C31.9716 18.934 31.588 19.4951 30.9323 19.9014C30.2766 20.3078 29.4023 20.5261 28.5019 20.5084C26.8524 20.4756 25.3001 20.3365 23.8718 19.9694C22.379 19.5856 21.2011 18.9994 20.219 18.2461C20.1021 18.1567 19.9886 18.0656 19.8786 17.9726L19.3887 19.6551L24.6971 23.101C25.0363 23.3201 25.3001 23.584 25.4739 23.8751L28.4934 28.9372C28.6563 29.2104 28.7358 29.502 28.7274 29.7953C28.719 30.0887 28.6229 30.3781 28.4445 30.647C28.2661 30.916 28.0089 31.1591 27.6877 31.3627C27.3664 31.5662 26.9874 31.7262 26.5722 31.8333C26.157 31.9405 25.7137 31.9928 25.2678 31.9873C24.8219 31.9818 24.3819 31.9185 23.9732 31.8012C23.5644 31.6838 23.1947 31.5146 22.8853 31.3033C22.576 31.0919 22.3329 30.8426 22.17 30.5694L19.413 25.9496L9.85984 19.7479C9.49414 19.51 9.21512 19.2208 9.04374 18.9018C8.87237 18.5828 8.81309 18.2424 8.87036 17.9062L9.26543 15.6111C8.18113 16.5331 7.26945 17.6423 6.63249 18.9538C6.35862 19.5184 5.75505 19.9883 4.95455 20.2601C4.15406 20.5319 3.22221 20.5834 2.364 20.4032C1.5058 20.2231 0.791543 19.826 0.378358 19.2994C-0.0348275 18.7727 -0.113093 18.1597 0.160777 17.5951C2.30991 13.1664 7.17099 9.83085 13.2039 8.29863L13.2112 8.29623L13.244 8.28823ZM14.0949 9.78687L14.0755 9.79167C8.74881 11.1456 4.40678 14.1028 2.47766 18.0813C2.43911 18.1608 2.42472 18.2444 2.43532 18.3275C2.44592 18.4106 2.48129 18.4916 2.53942 18.5657C2.59755 18.6398 2.6773 18.7056 2.77412 18.7595C2.87094 18.8133 2.98292 18.8541 3.10368 18.8794C3.22444 18.9048 3.35161 18.9143 3.47794 18.9073C3.60426 18.9003 3.72726 18.877 3.83991 18.8388C3.95256 18.8006 4.05266 18.7481 4.13448 18.6844C4.21631 18.6207 4.27827 18.547 4.31682 18.4676C5.5251 15.9781 7.62926 14.0948 10.103 12.7657C10.2901 12.6653 10.5184 12.6038 10.7589 12.5891C10.9993 12.5744 11.241 12.6071 11.4531 12.6831C11.6651 12.7592 11.838 12.875 11.9495 13.0159C12.0611 13.1568 12.1063 13.3164 12.0795 13.4743L11.2869 18.0861C11.2711 18.1816 11.2881 18.2782 11.3367 18.3687C11.3853 18.4592 11.4643 18.5414 11.5677 18.6091L21.3045 24.9299C21.4268 25.0094 21.5196 25.1016 21.5828 25.2066L24.4334 29.9856C24.478 30.0647 24.5461 30.1372 24.6338 30.1987C24.7215 30.2603 24.827 30.3098 24.944 30.3442C25.0611 30.3787 25.1874 30.3974 25.3156 30.3994C25.4438 30.4014 25.5714 30.3865 25.6908 30.3557C25.8101 30.3249 25.919 30.2787 26.0109 30.2199C26.1029 30.1611 26.1761 30.0908 26.2263 30.0132C26.2765 29.9355 26.3027 29.8521 26.3033 29.7677C26.304 29.6834 26.279 29.5998 26.23 29.5218L23.2105 24.4597C23.1613 24.3769 23.0863 24.3017 22.9905 24.239L17.2189 20.4932C17.0766 20.4009 16.9711 20.2869 16.9118 20.1614C16.8524 20.0358 16.841 19.9026 16.8786 19.7735L18.071 15.675C18.1183 15.512 18.2414 15.3627 18.4234 15.2478C18.6054 15.1329 18.8373 15.0581 19.0868 15.0338C19.3363 15.0094 19.5912 15.0367 19.816 15.112C20.0409 15.1872 20.2246 15.3065 20.3417 15.4535C20.8887 16.1389 21.4358 16.725 22.063 17.2049C22.8118 17.7782 23.6688 18.1997 24.7567 18.4796C25.8264 18.7547 27.0724 18.8794 28.5736 18.909C28.7017 18.9131 28.8298 18.9004 28.9503 18.8716C29.0709 18.8428 29.1815 18.7984 29.2757 18.7412C29.3699 18.6839 29.4458 18.6149 29.499 18.5381C29.5522 18.4613 29.5816 18.3783 29.5854 18.294C29.5893 18.2097 29.5676 18.1257 29.5216 18.0469C29.4755 17.9682 29.4061 17.8962 29.3173 17.8353C29.2286 17.7744 29.1222 17.7258 29.0045 17.6922C28.8869 17.6587 28.7602 17.6409 28.6319 17.6399C27.2462 17.6127 26.2446 17.4983 25.4593 17.296C24.6935 17.0993 24.0906 16.8082 23.529 16.3772C22.9504 15.9349 22.4131 15.3424 21.7968 14.5363C21.3063 13.883 20.8321 13.2245 20.3746 12.561L20.3685 12.5514C20.1505 12.2385 19.9155 11.9045 19.6634 11.5494C19.1407 10.8121 18.3871 10.2139 17.4025 9.87883C16.396 9.53656 15.2521 9.50457 14.0949 9.78687Z" fill="black"/>
</svg>
