<svg width="32" height="32" viewBox="0 0 32 32" fill="none" xmlns="http://www.w3.org/2000/svg">
<path d="M16 0L0 16.9412H4.8V32H27.2V16.9412H32L16 0ZM16 8.84706C19.36 8.84706 22.08 12.0471 22.08 16C22.08 21.6471 16 28.2353 16 28.2353C16 28.2353 9.92 21.6471 9.92 16C9.92 12.0471 12.64 8.84706 16 8.84706ZM16 13.1765C15.3635 13.1765 14.753 13.4739 14.3029 14.0035C13.8529 14.533 13.6 15.2512 13.6 16C13.6 16.7488 13.8529 17.467 14.3029 17.9965C14.753 18.5261 15.3635 18.8235 16 18.8235C16.6365 18.8235 17.247 18.5261 17.6971 17.9965C18.1471 17.467 18.4 16.7488 18.4 16C18.4 15.2512 18.1471 14.533 17.6971 14.0035C17.247 13.4739 16.6365 13.1765 16 13.1765Z" fill="black"/>
</svg>
