<svg width="33" height="33" viewBox="0 0 33 33" fill="none" xmlns="http://www.w3.org/2000/svg">
<path d="M17.1035 12.6155C17.1035 13.8275 16.852 14.9305 16.4415 15.7539C16.2675 15.6083 16.0694 15.5024 15.8587 15.4422C15.648 15.382 15.4287 15.3687 15.2133 15.4032C14.9816 14.4967 14.4602 13.5201 13.6922 12.6625C13.5621 12.5166 13.4265 12.3768 13.2859 12.2435C13.9602 11.8802 14.6995 11.6918 15.4484 11.6924C16.0202 11.6924 16.5697 11.8004 17.0812 11.9988C17.0961 12.2013 17.1035 12.4068 17.1035 12.6155ZM17.1035 17.2308C17.1035 17.2985 17.1002 17.3653 17.0936 17.4312C17.9361 17.4136 18.9143 17.1053 19.8503 16.5025C20.0117 16.3989 20.1691 16.2877 20.322 16.1693C20.0704 14.7303 19.3174 13.4612 18.2282 12.6404C18.1947 12.8389 18.1547 13.0359 18.1082 13.2312C17.8269 14.4025 17.327 15.3967 16.7377 16.0733C16.967 16.3899 17.1035 16.7933 17.1035 17.2308ZM16.9902 17.9028C16.9106 18.1303 16.7914 18.3379 16.6394 18.5136C16.4873 18.6894 16.3056 18.8297 16.1046 18.9265C16.5391 19.7296 17.2674 20.5188 18.2026 21.1207C18.3681 21.2278 18.535 21.3253 18.7033 21.4133C19.1961 20.9363 19.5999 20.3557 19.8914 19.7045C20.1829 19.0534 20.3565 18.3446 20.4023 17.6185C20.2307 17.6862 20.0539 17.7475 19.8718 17.8022C18.8257 18.1152 17.8086 18.1308 16.9902 17.9038V17.9028ZM15.4484 19.077C15.076 19.077 14.7317 18.9395 14.4553 18.7078C14.0464 19.5293 13.7965 20.6296 13.7965 21.8379C13.7965 22.0508 13.804 22.2595 13.8189 22.4638C14.3429 22.6664 14.8937 22.7697 15.4484 22.7693C16.2263 22.7693 16.9629 22.5699 17.6191 22.2136C17.4767 22.0792 17.3395 21.9382 17.2078 21.7908C16.4423 20.9361 15.9209 19.9622 15.6884 19.0585C15.6106 19.0708 15.5306 19.077 15.4484 19.077ZM13.7932 17.2308C13.7932 17.157 13.7971 17.0835 13.8048 17.0102C12.9606 17.0259 11.98 17.3342 11.0406 17.9398C10.8799 18.0428 10.723 18.1534 10.5706 18.2712C10.6931 18.986 10.9407 19.6669 11.2992 20.275C11.6578 20.883 12.1203 21.4063 12.6602 21.8148C12.6935 21.6121 12.7344 21.411 12.7827 21.2121C13.0641 20.0425 13.5606 19.0502 14.1482 18.3736C13.9182 18.048 13.7931 17.6454 13.7932 17.2308ZM11.0233 16.6475C12.0718 16.3336 13.0906 16.3198 13.9099 16.5487C14.0721 16.0927 14.3924 15.7272 14.7954 15.5333C14.3617 14.7265 13.6318 13.9336 12.6925 13.329C12.5323 13.2254 12.3683 13.1293 12.2009 13.041C11.7075 13.5169 11.3029 14.0966 11.0104 14.7469C10.7179 15.3972 10.5431 16.1055 10.4961 16.8312C10.6666 16.7635 10.8423 16.7022 11.0233 16.6475ZM15.4484 18.1539C15.6679 18.1539 15.8784 18.0567 16.0336 17.8836C16.1888 17.7104 16.276 17.4757 16.276 17.2308C16.276 16.986 16.1888 16.7512 16.0336 16.5781C15.8784 16.405 15.6679 16.3078 15.4484 16.3078C15.2289 16.3078 15.0184 16.405 14.8632 16.5781C14.708 16.7512 14.6208 16.986 14.6208 17.2308C14.6208 17.4757 14.708 17.7104 14.8632 17.8836C15.0184 18.0567 15.2289 18.1539 15.4484 18.1539Z" fill="black"/>
<path d="M15.4488 23.6919C13.9124 23.6919 12.4389 23.0111 11.3525 21.7993C10.2661 20.5875 9.65571 18.944 9.65571 17.2303C9.65571 15.5166 10.2661 13.8731 11.3525 12.6613C12.4389 11.4495 13.9124 10.7688 15.4488 10.7688C16.9852 10.7688 18.4587 11.4495 19.5452 12.6613C20.6316 13.8731 21.2419 15.5166 21.2419 17.2303C21.2419 18.944 20.6316 20.5875 19.5452 21.7993C18.4587 23.0111 16.9852 23.6919 15.4488 23.6919ZM15.4488 24.6149C17.2047 24.6149 18.8887 23.8369 20.1303 22.452C21.372 21.0671 22.0695 19.1888 22.0695 17.2303C22.0695 15.2718 21.372 13.3935 20.1303 12.0086C18.8887 10.6237 17.2047 9.8457 15.4488 9.8457C13.6929 9.8457 12.0089 10.6237 10.7673 12.0086C9.52566 13.3935 8.82813 15.2718 8.82812 17.2303C8.82813 19.1888 9.52566 21.0671 10.7673 22.452C12.0089 23.8369 13.6929 24.6149 15.4488 24.6149Z" fill="black"/>
<path d="M5.99169 4.4856C5.88295 4.32149 5.75056 4.17926 5.62762 4.03704C5.31083 3.70882 4.95149 3.4736 4.64889 3.12898C3.94438 2.33032 3.78835 1.01199 4.23753 0C3.78835 0.125816 3.39591 0.410268 3.06021 0.722072C1.83561 1.85988 1.35333 3.86746 1.93017 5.59059C1.94908 5.64529 1.968 5.69999 1.968 5.77111C1.968 5.89145 1.89707 6.00086 1.80251 6.04462C1.69376 6.09932 1.58029 6.0665 1.49045 5.97897C1.46361 5.95297 1.44117 5.92144 1.42425 5.88598C0.889968 5.10374 0.804861 3.98234 1.1642 3.08522C0.374595 3.82917 -0.0556713 5.08733 0.00579523 6.27437C0.0341644 6.54788 0.0625336 6.82139 0.142913 7.0949C0.209108 7.42312 0.336769 7.75133 0.478615 8.04126C0.98926 8.98761 1.87343 9.66592 2.8238 9.80267C3.83564 9.95037 4.91839 9.73703 5.69382 8.92744C6.55908 8.01937 6.86168 6.56429 6.41723 5.31708L6.35577 5.17485C6.25647 4.92322 5.99169 4.4856 5.99169 4.4856ZM4.49758 7.93185C4.36519 8.06314 4.1477 8.20536 3.97748 8.26007C3.44792 8.47888 2.91837 8.17254 2.6063 7.81151C3.16896 7.65834 3.50466 7.17696 3.60395 6.69011C3.68433 6.25249 3.53303 5.89145 3.47156 5.47024C3.41483 5.06544 3.42428 4.72082 3.55194 4.34337C3.64178 4.55124 3.73634 4.75911 3.84982 4.92322C4.21389 5.47024 4.786 5.71093 4.90894 6.45489C4.92785 6.53147 4.93731 6.60805 4.93731 6.69011C4.95149 7.13867 4.78128 7.63099 4.49758 7.93185Z" fill="black"/>
<path d="M26.7511 27.9624L26.9944 29.2669L28.1395 28.8472L29.2844 29.2669L29.5277 27.9624L30.4296 27.0776L29.5275 26.1926L29.2844 24.8881L28.1393 25.3078L26.9944 24.8879L26.7511 26.1924L25.8493 27.0774L26.7511 27.9624ZM26.7511 27.9624L32.0015 24.6158M26.7511 27.9624L24.2773 29.5389M28.1393 22.1543V28.8474V32.0005M26.8279 23.2193L28.1395 23.9126L29.451 23.2193M29.451 30.9357L28.1393 30.2423L26.8279 30.9357M30.5102 23.8945L30.622 25.4951L31.8219 26.4023M25.7684 30.2607L25.6567 28.6601M24.4571 27.7529L25.6567 28.6599M32.0015 29.5391L29.5275 27.9624L24.2776 24.6158M31.8219 27.7529L30.6224 28.6601M30.5102 30.2607L30.622 28.6601M24.4571 26.4023L25.6567 25.4951L25.7684 23.8945" stroke="black" stroke-width="0.5" stroke-linecap="round" stroke-linejoin="round"/>
<path d="M7.72266 4.92285H26.5847C27.137 4.92285 27.5847 5.37057 27.5847 5.92285V20.9229" stroke="black"/>
<path d="M23.1719 28.3076H4.30981C3.75752 28.3076 3.30981 27.8599 3.30981 27.3076V12.3076" stroke="black"/>
</svg>
