<svg width="32" height="32" viewBox="0 0 32 32" fill="none" xmlns="http://www.w3.org/2000/svg">
<path d="M15.9986 2.55963C8.58205 2.55963 2.55859 8.58291 2.55859 15.9996C2.55865 23.4161 8.58205 29.4396 15.9986 29.4396C23.4151 29.4396 29.4386 23.4162 29.4386 15.9996C29.4386 8.58297 23.4151 2.55963 15.9986 2.55963ZM4.44244 3.07586C4.0997 3.07586 3.771 3.21201 3.52865 3.45437C3.28629 3.69672 3.15014 4.02542 3.15014 4.36816C3.15012 4.53788 3.18354 4.70594 3.24848 4.86274C3.31341 5.01954 3.4086 5.16202 3.5286 5.28203C3.64861 5.40205 3.79108 5.49725 3.94787 5.5622C4.10467 5.62715 4.27272 5.66058 4.44244 5.66058C4.61216 5.66059 4.78022 5.62718 4.93702 5.56224C5.09382 5.4973 5.2363 5.40212 5.35631 5.28211C5.47632 5.16211 5.57153 5.01964 5.63648 4.86285C5.70143 4.70605 5.73486 4.53799 5.73486 4.36828C5.73487 4.19856 5.70146 4.0305 5.63652 3.8737C5.57158 3.7169 5.47639 3.57442 5.35639 3.45441C5.23639 3.33439 5.09392 3.23919 4.93712 3.17424C4.78033 3.10929 4.61227 3.07586 4.44256 3.07586H4.44244ZM27.6299 3.07586C27.2871 3.07586 26.9584 3.21201 26.7161 3.45437C26.4737 3.69672 26.3376 4.02542 26.3376 4.36816C26.3376 4.53788 26.371 4.70594 26.4359 4.86274C26.5009 5.01954 26.596 5.16202 26.7161 5.28203C26.8361 5.40205 26.9785 5.49725 27.1353 5.5622C27.2921 5.62715 27.4602 5.66058 27.6299 5.66058C27.7996 5.6606 27.9677 5.62719 28.1245 5.56226C28.2813 5.49732 28.4238 5.40214 28.5438 5.28213C28.6638 5.16213 28.759 5.01966 28.824 4.86286C28.8889 4.70606 28.9224 4.538 28.9224 4.36828C28.9224 4.19855 28.889 4.03048 28.824 3.87367C28.7591 3.71686 28.6639 3.57438 28.5439 3.45437C28.4238 3.33435 28.2814 3.23915 28.1245 3.17421C27.9677 3.10926 27.7997 3.07585 27.6299 3.07586H27.6299ZM15.9986 3.59209C22.8572 3.59209 28.4061 9.14102 28.4061 15.9996C28.4061 22.8581 22.8572 28.4071 15.9986 28.4071C9.13999 28.4071 3.59106 22.8581 3.59106 15.9996C3.59106 9.14102 9.14004 3.59209 15.9986 3.59209ZM18.5043 4.87883C18.4765 4.8783 18.4495 4.87835 18.4234 4.879C18.0765 4.88761 17.8825 5.00726 17.9333 5.26549C18.5341 7.68576 18.6072 10.1863 17.6415 12.396C18.3695 12.7304 18.9801 13.2759 19.3941 13.9618C21.0562 12.5839 22.7275 10.7888 23.7889 9.38531C25.2883 7.40275 20.2557 4.91646 18.5042 4.879L18.5043 4.87883ZM12.8671 5.13075C10.571 5.09932 6.51431 8.56083 7.66867 8.95575C10.0663 9.64578 12.2694 10.8335 13.7002 12.7763C14.332 12.3242 15.1007 12.0529 15.9305 12.0387C15.5682 9.91032 14.8491 7.56525 14.1644 5.94428C13.9233 5.37373 13.4524 5.13873 12.8671 5.13075ZM26.4506 12.2269C26.3878 12.228 26.3245 12.2546 26.2614 12.3097C24.4665 14.0396 22.3383 15.3528 19.9427 15.622C19.9548 15.7475 19.961 15.8735 19.9612 15.9996C19.9616 16.673 19.7892 17.3352 19.4603 17.9228C21.4848 18.6733 23.8753 19.2232 25.6216 19.4407C28.482 19.7969 27.537 12.2076 26.4506 12.2269H26.4506ZM6.16631 12.547C3.40401 12.576 4.60586 20.6733 5.73245 19.6901C7.52819 17.9592 9.65754 16.6454 12.0545 16.3772C11.977 15.5796 12.145 14.7774 12.536 14.0779C10.5109 13.3269 8.11916 12.7766 6.37218 12.5591C6.30389 12.5504 6.23509 12.5464 6.16626 12.547L6.16631 12.547ZM15.9986 13.0695C15.3444 13.0695 14.742 13.2815 14.2556 13.6407C14.3709 13.8477 14.4771 14.0596 14.574 14.2759C14.9619 13.9542 15.4588 13.7602 15.9986 13.7602C16.047 13.7602 16.095 13.7622 16.1426 13.7654C16.1274 13.54 16.1063 13.3084 16.079 13.0713C16.0522 13.0708 16.0256 13.0694 15.9986 13.0694V13.0695ZM17.1699 13.3115C17.0487 13.514 16.9189 13.7112 16.7807 13.9025C17.314 14.1032 17.7522 14.5024 18.0045 15.0089C18.1989 14.8784 18.3902 14.7433 18.5781 14.6036C18.2667 14.0273 17.7708 13.5723 17.1699 13.3115L17.1699 13.3115ZM13.5 14.4638C13.2264 14.9097 13.0685 15.4353 13.0685 15.9996C13.0685 16.1108 13.0751 16.2204 13.087 16.3282C13.3193 16.332 13.5539 16.3456 13.7907 16.3699C13.77 16.2476 13.7594 16.1237 13.7592 15.9996C13.7592 15.5414 13.8991 15.1142 14.1381 14.7581C13.9278 14.655 13.715 14.5568 13.5 14.4638ZM15.9986 14.7927C15.3259 14.7927 14.7918 15.3269 14.7918 15.9996C14.7918 16.6723 15.3259 17.2064 15.9986 17.2064C16.6713 17.2064 17.2054 16.6723 17.2054 15.9996C17.2054 15.3269 16.6713 14.7927 15.9986 14.7927ZM18.2066 15.6302C18.2268 15.7505 18.238 15.8738 18.238 15.9996C18.238 16.4584 18.0977 16.8863 17.858 17.2427C18.0684 17.3458 18.2811 17.444 18.4961 17.5371C18.7706 17.0907 18.9288 16.5646 18.9288 15.9996C18.9288 15.8886 18.9222 15.7793 18.9104 15.6715C18.6781 15.6679 18.4435 15.6544 18.2067 15.6302H18.2066ZM13.9919 16.9888C13.7976 17.1193 13.6063 17.2544 13.4183 17.394C13.7293 17.9701 14.2246 18.4252 14.8248 18.6866C14.946 18.4841 15.0759 18.287 15.214 18.0958C14.6813 17.8944 14.2436 17.4951 13.9919 16.9888V16.9888ZM17.4205 17.7256C17.0328 18.0459 16.537 18.239 15.9985 18.239C15.9489 18.239 15.8999 18.2367 15.851 18.2334C15.8662 18.4588 15.8873 18.6905 15.9145 18.9276C15.9425 18.9283 15.9704 18.9297 15.9985 18.9297C16.6516 18.9297 17.2528 18.7184 17.7387 18.3605C17.6234 18.1536 17.5172 17.9418 17.4204 17.7256H17.4205ZM12.602 18.0358C10.9391 19.414 9.26658 21.2105 8.20463 22.6147C6.36541 25.0467 14.3555 28.2367 14.0604 26.7342C13.4593 24.3134 13.3865 21.8122 14.353 19.602C13.6256 19.2672 13.0156 18.7215 12.6021 18.0358H12.602ZM18.2945 19.2247C17.6624 19.6764 16.8932 19.9471 16.0631 19.9605C16.4253 22.0891 17.1445 24.4344 17.8293 26.0555C19.0159 28.8644 25.7736 23.5397 24.3248 23.0441C21.9278 22.3543 19.7253 21.1668 18.2945 19.2247ZM4.34338 26.3386C4.17366 26.3385 4.00561 26.372 3.8488 26.4369C3.692 26.5018 3.54953 26.597 3.42951 26.717C3.3095 26.837 3.2143 26.9795 3.14935 27.1363C3.0844 27.2931 3.05096 27.4611 3.05096 27.6309C3.05094 27.8006 3.08436 27.9687 3.1493 28.1255C3.21425 28.2823 3.30945 28.4248 3.42947 28.5448C3.54949 28.6649 3.69198 28.7601 3.8488 28.825C4.00562 28.8899 4.1737 28.9234 4.34344 28.9233C4.51316 28.9233 4.68121 28.8899 4.83801 28.825C4.99481 28.76 5.13727 28.6648 5.25728 28.5448C5.37728 28.4248 5.47247 28.2823 5.5374 28.1255C5.60234 27.9687 5.63576 27.8006 5.63574 27.6309C5.63574 27.2882 5.49959 26.9595 5.25723 26.7171C5.01488 26.4748 4.68618 26.3386 4.34344 26.3386L4.34338 26.3386ZM27.6402 26.3386C27.4704 26.3385 27.3024 26.372 27.1456 26.4369C26.9888 26.5018 26.8463 26.597 26.7263 26.717C26.6063 26.837 26.5111 26.9795 26.4461 27.1363C26.3812 27.2931 26.3477 27.4611 26.3477 27.6309C26.3477 27.8006 26.3811 27.9686 26.4461 28.1255C26.511 28.2823 26.6062 28.4247 26.7262 28.5448C26.8462 28.6648 26.9887 28.76 27.1455 28.825C27.3023 28.8899 27.4703 28.9233 27.64 28.9233C27.8098 28.9234 27.9778 28.8899 28.1346 28.825C28.2915 28.76 28.4339 28.6648 28.5539 28.5448C28.674 28.4248 28.7692 28.2823 28.8341 28.1255C28.8991 27.9687 28.9325 27.8006 28.9325 27.6309C28.9325 27.2882 28.7963 26.9595 28.5539 26.7171C28.3116 26.4748 27.9829 26.3386 27.6402 26.3386V26.3386Z" fill="black"/>
<rect x="0.5" y="0.5" width="31" height="31" rx="1.5" stroke="black"/>
</svg>
