<svg width="35" height="34" viewBox="0 0 35 34" fill="none" xmlns="http://www.w3.org/2000/svg">
<path d="M7.00339 21.4585L1.13672 24.7238L17.1367 32.5605L33.1367 24.7238L26.7367 21.4585M32.6034 13.6218L17.1367 20.8054L1.67005 13.8612L1.13672 13.6218V18.8463L7.00339 21.4585L17.1367 26.0299L26.7367 21.4585L32.6034 18.8463V13.6218L27.2701 11.0095M27.2701 11.0095L17.1367 16.234L6.47005 11.0095M27.2701 11.0095L32.0701 8.39728L17.1367 0.560547L1.13672 8.39728L6.47005 11.0095M6.47005 11.0095L1.67005 13.8612" stroke="black"/>
<path d="M17.1367 20.8057V26.0302" stroke="black"/>
<path d="M11.8047 18.1934V23.4178" stroke="black"/>
<path d="M7.53516 16.8867V21.4581" stroke="black"/>
<path d="M3.80469 14.9277V19.4992" stroke="black"/>
<path d="M20.8711 19.499V24.0705" stroke="black"/>
<path d="M25.1367 17.54V22.1115" stroke="black"/>
<path d="M29.4023 15.5811V20.1525" stroke="black"/>
</svg>
