<svg width="34" height="34" viewBox="0 0 34 34" fill="none" xmlns="http://www.w3.org/2000/svg">
<path d="M32.3796 16.75C32.3796 7.9132 25.2993 0.75 16.5648 0.75C7.83029 0.75 0.75 7.9132 0.75 16.75C0.75 25.5868 7.83029 32.75 16.5648 32.75" stroke="black" stroke-width="1.5" stroke-linecap="round" stroke-linejoin="round"/>
<path d="M18.1422 0.829102C18.1422 0.829102 22.8866 7.1491 22.8866 16.7491M14.9792 32.6691C14.9792 32.6691 10.2347 26.3491 10.2347 16.7491C10.2347 7.1491 14.9792 0.829102 14.9792 0.829102M1.74219 22.3491H16.5607M1.74219 11.1491H31.3792" stroke="black" stroke-width="1.5" stroke-linecap="round" stroke-linejoin="round"/>
<path d="M32.1894 26.2168C32.9706 26.7032 32.9216 27.8856 32.1182 27.9784L28.0586 28.444L26.2383 32.1432C25.8777 32.8776 24.7628 32.5176 24.5777 31.6088L22.593 21.8232C22.4364 21.0552 23.1196 20.572 23.7791 20.9832L32.1894 26.2168Z" stroke="black" stroke-width="1.5"/>
</svg>
