<svg width="34" height="34" viewBox="0 0 34 34" fill="none" xmlns="http://www.w3.org/2000/svg">
<path d="M10.3484 9.28292C10.3484 10.0373 10.6481 10.7608 11.1816 11.2942C11.715 11.8277 12.4385 12.1274 13.1929 12.1274C13.9473 12.1274 14.6708 11.8277 15.2042 11.2942C15.7376 10.7608 16.0373 10.0373 16.0373 9.28292M10.3484 9.28292C10.3484 8.52853 10.6481 7.80503 11.1816 7.27159C11.715 6.73816 12.4385 6.43848 13.1929 6.43848C13.9473 6.43848 14.6708 6.73816 15.2042 7.27159C15.7376 7.80503 16.0373 8.52853 16.0373 9.28292M10.3484 9.28292H7.14844M16.0373 9.28292H26.3484M17.4595 17.8163C17.4595 18.5706 17.7592 19.2941 18.2927 19.8276C18.8261 20.361 19.5496 20.6607 20.304 20.6607C21.0584 20.6607 21.7819 20.361 22.3153 19.8276C22.8488 19.2941 23.1484 18.5706 23.1484 17.8163M17.4595 17.8163C17.4595 17.0619 17.7592 16.3384 18.2927 15.8049C18.8261 15.2715 19.5496 14.9718 20.304 14.9718C21.0584 14.9718 21.7819 15.2715 22.3153 15.8049C22.8488 16.3384 23.1484 17.0619 23.1484 17.8163M17.4595 17.8163H7.14844M23.1484 17.8163H26.3484M18.8818 26.3496C19.0029 28.6362 19.74 30.8476 21.0151 32.7496H12.4818C13.7568 30.8476 14.4939 28.6362 14.6151 26.3496M9.28177 32.7496H24.2151" stroke="black" stroke-width="1.5" stroke-linecap="round" stroke-linejoin="round"/>
<path d="M2.88333 0.75H30.6167C30.6167 0.75 32.75 0.75 32.75 2.88333V24.2167C32.75 24.2167 32.75 26.35 30.6167 26.35H2.88333C2.88333 26.35 0.75 26.35 0.75 24.2167V2.88333C0.75 2.88333 0.75 0.75 2.88333 0.75Z" stroke="black" stroke-width="1.5" stroke-linecap="round" stroke-linejoin="round"/>
</svg>
