<svg width="33" height="33" viewBox="0 0 33 33" fill="none" xmlns="http://www.w3.org/2000/svg">
<path d="M13.3062 1.38613C13.4375 1.40893 13.1111 2.33403 13.2928 3.38991C13.4512 4.29621 15.4253 7.80383 15.3441 9.00609C15.2803 9.76241 13.6596 11.533 13.4879 11.4162C13.3025 11.3598 13.9804 10.156 13.7293 9.15208C13.4378 7.98341 11.6974 4.96094 11.6992 3.62548C11.6992 2.64839 13.1886 1.32174 13.3062 1.38613ZM17.0226 0.00268173C17.1888 0.0338783 16.7716 1.21495 17.0052 2.5588C17.2062 3.71507 19.7248 8.18738 19.6224 9.72042C19.5393 10.6847 17.4725 12.9429 17.2544 12.7929C17.0167 12.7221 17.8823 11.1891 17.5615 9.90999C17.1888 8.41856 14.9714 4.56258 14.9732 2.86077C14.9732 1.6149 16.8721 -0.0765096 17.0226 0.00268173ZM20.857 1.38613C20.9902 1.40893 20.6619 2.33403 20.8455 3.38991C21.002 4.29621 22.978 7.80383 22.8968 9.00609C22.8348 9.76241 21.2105 11.533 21.0406 11.4162C20.8533 11.3598 21.5331 10.158 21.282 9.15208C20.9883 7.98341 19.2482 4.96094 19.2519 3.62748C19.2519 2.65039 20.7413 1.32374 20.857 1.38613Z" fill="black"/>
<path d="M0.5 32H2.9M32.5 32H30.1M30.1 32V20.8M30.1 32H26.1M30.1 20.8H32.5V16H14.9M30.1 20.8H26.1V32M2.9 20.8H0.5V16H6.9M2.9 20.8V32M2.9 20.8H6.9M2.9 32H6.9M6.9 32V25.6M6.9 32H10.9M6.9 16H14.9M6.9 16V20.8M14.9 16V20.8V25.6M14.9 32H18.9M14.9 32V26.4V25.6M14.9 32H10.9M18.9 32V20.8H22.1V32M18.9 32H22.1M22.1 32H26.1M14.9 25.6H10.9M6.9 25.6V20.8M6.9 25.6H10.9M10.9 32V25.6" stroke="black"/>
</svg>
