<svg width="32" height="32" viewBox="0 0 32 32" fill="none" xmlns="http://www.w3.org/2000/svg">
<path d="M7.46667 23.7798C9.10933 23.7798 10.4533 25.6294 10.4533 27.8899C10.4533 30.1505 9.10933 32 7.46667 32C5.824 32 4.48 30.1505 4.48 27.8899C4.48 25.6294 5.824 23.7798 7.46667 23.7798ZM24.5333 23.7798C26.176 23.7798 27.52 25.6294 27.52 27.8899C27.52 30.1505 26.176 32 24.5333 32C22.8907 32 21.5467 30.1505 21.5467 27.8899C21.5467 25.6294 22.8907 23.7798 24.5333 23.7798ZM22.8907 5.87156C23.2533 5.87156 23.5947 6.10642 23.7867 6.51743L27.7333 14.6789L29.632 16C30.3429 16.4861 30.9411 17.2355 31.3594 18.1638C31.7777 19.0922 31.9996 20.1627 32 21.255V26.422C32 27.244 31.5307 27.8899 30.9333 27.8899H29.2267C29.2267 24.3083 27.136 21.4312 24.5333 21.4312C21.9307 21.4312 19.84 24.3083 19.84 27.8899H12.16C12.16 24.3083 10.0693 21.4312 7.46667 21.4312C4.864 21.4312 2.77333 24.3083 2.77333 27.8899H0V17.6147H17.0667V8.80734C17.0667 7.19266 18.0267 5.87156 19.2 5.87156H22.8907ZM8.53333 8.80734V16.1468H2.13333V8.80734H8.53333ZM16 8.80734V16.1468H9.6V8.80734H16ZM22.4 8.80734H19.2V14.6789H25.0667L22.4 8.80734ZM12.2667 0V7.33945H5.86667V0H12.2667Z" fill="black"/>
</svg>
