<svg width="32" height="32" viewBox="0 0 32 32" fill="none" xmlns="http://www.w3.org/2000/svg">
<path d="M32.002 0V25C32.002 28.8688 29.7016 32 26.8594 32C24.0585 32 21.7856 28.9563 21.7167 25.1688L4.83791 31.4312C4.05274 31.7187 3.24921 31.0937 3.0334 30.025C2.81759 28.9562 3.28135 27.8625 4.06652 27.5688L18.7781 22.1125V4C18.7781 1.79375 20.0959 0 21.7167 0H32.002ZM29.0634 25C29.0634 24.2044 28.8312 23.4413 28.4178 22.8787C28.0045 22.3161 27.4439 22 26.8594 22C26.2748 22 25.7143 22.3161 25.3009 22.8787C24.8876 23.4413 24.6554 24.2044 24.6554 25C24.6554 25.7956 24.8876 26.5587 25.3009 27.1213C25.7143 27.6839 26.2748 28 26.8594 28C27.4439 28 28.0045 27.6839 28.4178 27.1213C28.8312 26.5587 29.0634 25.7956 29.0634 25Z" fill="black"/>
<path d="M7.76713 9.12874C8.7315 9.31949 9.61684 8.42233 9.75666 7.11264C9.82348 6.48678 9.70449 5.85035 9.42587 5.34334C9.14726 4.83634 8.73183 4.50029 8.27099 4.40914C7.29794 4.21666 6.42002 5.12735 6.28146 6.42523C6.14164 7.73492 6.79407 8.93626 7.76713 9.12874ZM19.0014 23.8087L15.4475 25.1057C15.6109 25.4031 15.7494 25.7678 15.8307 26.1695C15.9108 26.5829 15.9188 27.0062 15.9132 27.3906L19.4473 26.1138L19.0014 23.8087ZM9.6237 12.8454L10.0386 15.1081C9.84144 14.9607 9.66542 14.7813 9.52415 14.6088C9.052 14.0455 8.73145 13.3918 8.55256 12.6576L8.10741 10.678C7.98643 10.2324 7.81935 9.88605 7.56401 9.61868C7.33347 9.36826 7.07548 9.20879 6.79746 9.1538C6.51945 9.09881 6.24873 9.14164 5.97914 9.25699C4.62426 10.3143 4.06321 12.6611 4.06321 12.6611L3.57005 14.4552C3.42636 15.0532 3.31742 15.6582 3.25066 16.2835L2.62587 22.1358L0.142567 25.5362L1.30343 27.1273L4.18238 23.1787L4.73946 19.3732L5.90428 22.4229L5.31729 27.9212L6.92457 28.2391L7.68792 21.0889L6.40941 17.6915L6.49128 16.9245C6.54671 16.4054 6.60087 15.898 6.74935 15.4214L7.20458 14.0656C7.46545 14.7799 7.80463 15.4253 8.23083 16.0036C8.57896 16.4821 9.59807 17.4065 10.5954 17.9532L11.8237 24.148C12.0425 23.9262 12.311 23.7383 12.6153 23.6299C12.911 23.5197 13.2226 23.509 13.5057 23.5168L11.3205 12.2412L9.6237 12.8454ZM13.7207 17.6798L14.8442 23.4442L20.0391 21.5682L18.9231 15.8173" fill="black"/>
</svg>
