<svg width="33" height="33" viewBox="0 0 33 33" fill="none" xmlns="http://www.w3.org/2000/svg">
<path d="M8.27734 29.7656H10.8637" stroke="black"/>
<path d="M16.0339 29.7656H13.9648" stroke="black"/>
<path d="M19.6562 25.1941V22.3369H23.7944V25.1941" stroke="black"/>
<path d="M9.82812 26.3369H10.8627H11.3799" stroke="black"/>
<path d="M0 14.3369H8.27627V15.4798M0 29.7655H8.27627V25.1941M8.27627 25.1941H0M8.27627 25.1941V24.0512M8.27627 24.0512H16.0353M8.27627 24.0512V20.0512M27.4152 17.7655V29.7655H16.0353V24.0512L12.4144 20.0512H8.27627M8.27627 20.0512V17.7655M8.27627 15.4798H27.4152V17.7655M8.27627 15.4798V17.7655M8.27627 17.7655H27.4152" stroke="black"/>
<path d="M4.65438 27.4805H1.55078" stroke="black"/>
<path d="M18.1055 29.1942V25.7656H19.9159H21.7263M21.7263 25.7656H25.3472V29.1942H21.7263V26.3371M21.7263 25.7656V26.3371" stroke="black"/>
<path d="M12.4131 28.5518C13.2339 28.5519 13.9814 29.3038 13.9814 30.3379C13.9812 31.3718 13.2338 32.1229 12.4131 32.123C11.5923 32.123 10.844 31.3719 10.8438 30.3379C10.8438 29.3037 11.5922 28.5518 12.4131 28.5518Z" stroke="black"/>
<path d="M31.5531 10.0608L19.1387 0.623047L6.20703 10.0608V14.1899M6.20703 10.0608H31.5531M31.5531 10.0608V12.4203M31.5531 10.0608H31.9998M31.5531 18.9088V12.4203M31.5531 12.4203H15.0006" stroke="black"/>
<path d="M6.72266 12.0518H11.3781H12.4126" stroke="black"/>
<path d="M27.4141 29.7659H31.5522V20.623" stroke="black"/>
<path d="M16.0352 6.90918H17.0697" stroke="black"/>
<path d="M18.1055 6.90918H19.14" stroke="black"/>
<path d="M20.1719 6.90918H21.2064" stroke="black"/>
</svg>
