<svg width="32" height="32" viewBox="0 0 32 32" fill="none" xmlns="http://www.w3.org/2000/svg">
<path d="M16.8365 5.29576C18.8619 5.40912 20.6318 4.31558 20.7903 2.86198C20.9488 1.40171 19.443 0.121473 17.4177 0.00811853C15.3924 -0.105236 13.6225 0.981632 13.464 2.4419C13.3054 3.90217 14.82 5.17574 16.8365 5.28909V5.29576ZM31.9912 26.673L30.7672 18.6716H28.7859C28.8035 18.0048 28.8035 17.9314 28.7419 17.5247C28.6802 17.1113 28.5129 16.8112 28.2312 16.7112C28.4601 16.5245 28.6186 16.2845 28.645 16.0177C28.6891 15.5977 28.4337 15.2043 27.9934 14.9709L22.9477 12.4571L19.2317 7.15611C18.6153 6.46264 17.5762 5.90254 16.317 5.82253C15.3484 5.76918 14.459 6.0159 13.7457 6.37596L6.37534 10.6968C6.12878 10.8435 5.95267 11.0368 5.86461 11.2769L4.1475 16.5112L4.01541 16.6645H3.9978C3.70721 16.6645 3.45184 16.8712 3.34618 17.1513C3.24931 17.4247 3.13484 17.7781 3.13484 18.0648V18.6649H1.224L0 26.6664H4.94001L2.7738 29.2935C2.63291 29.5002 2.4656 29.787 2.43919 30.0603C2.33352 31.0539 3.35498 31.9207 4.71987 31.994C5.6973 32.0407 6.54265 31.6873 7.05338 31.1139L10.7078 26.6664H11.1833L11.1128 26.173L12.1255 24.9394C12.24 24.7727 12.5834 24.3726 12.6274 24.1793L13.869 20.1052L19.1524 24.2859L20.8079 30.5738C21.0721 31.3206 21.9174 31.934 23.0446 31.994C24.4183 32.074 25.6158 31.3406 25.7215 30.3471L25.7039 29.9803L24.8409 26.6664H32L31.9912 26.673ZM3.96258 17.9981C4.01541 17.6847 4.16511 17.5047 4.44689 17.5047H4.55256C4.83434 17.7581 5.23941 17.9314 5.71491 17.9648C6.26087 17.9981 6.75399 17.8181 7.0798 17.5447C7.15025 17.5914 7.21189 17.6647 7.25592 17.7647C7.32636 17.9581 7.37039 18.1781 7.37039 18.3582C7.37039 18.4649 7.36159 18.6849 7.35278 18.6849H3.93616C3.92735 18.6849 3.92735 18.2582 3.96258 18.0114V17.9981ZM9.00826 18.6716H7.96918C7.9956 18.0048 7.98679 17.9314 7.92515 17.5247C7.87232 17.178 7.74904 16.9112 7.5377 16.7712L8.84095 12.4771L11.4122 10.9701L9.00826 18.6716ZM28.1695 18.6716H24.7529C24.7353 18.6716 24.7441 18.2448 24.7793 17.9981C24.8233 17.6847 24.9818 17.5047 25.2636 17.5047C25.6599 17.5047 26.0209 17.498 26.3379 17.4914C26.6549 17.4847 27.0952 17.4713 27.6412 17.4713C27.8525 17.4713 27.9934 17.5647 28.0726 17.7581C28.1519 17.9514 28.1871 18.1715 28.1871 18.3515L28.1695 18.6782V18.6716ZM17.1183 17.1513L18.7738 11.857L20.1651 13.844C20.2796 13.984 20.4029 14.0907 20.579 14.1974L25.5542 16.6645H24.8057C24.5151 16.6645 24.4095 16.8712 24.3126 17.1513C24.2157 17.4247 24.2598 17.7781 24.2598 18.0648V18.6649H22.0319L21.6709 21.0187L17.1271 17.1446L17.1183 17.1513Z" fill="black"/>
</svg>
