<svg width="32" height="32" viewBox="0 0 32 32" fill="none" xmlns="http://www.w3.org/2000/svg">
<rect x="0.5" y="19.3232" width="31" height="12.1765" rx="2.5" stroke="black"/>
<path d="M15.4259 6.04595L13.5067 7.74289L12.2646 5.38939V3.97527L13.5067 1.62177L15.4259 3.31872C15.6285 3.50053 15.8631 3.32882 15.9591 2.95509C16.055 2.57125 15.9644 2.12682 15.7671 1.945L13.6773 0.0965437C13.5783 0.0074966 13.4671 -0.0208976 13.3591 0.0153049C13.2511 0.0515074 13.1518 0.15051 13.0749 0.298561L12.1473 2.05611C12.0993 1.93223 12.0367 1.83122 11.9646 1.76109C11.8924 1.69096 11.8126 1.65364 11.7315 1.65208C11.4383 1.65208 11.1984 2.10661 11.1984 2.66216V3.67225H9.50306C9.24716 2.31873 8.51147 1.39955 7.67981 1.71268C7.05607 1.945 6.54428 2.91468 6.427 4.09648C6.29372 5.45 6.64024 6.6621 7.18935 7.28835L8.57544 15.7933H7.73312C7.29064 15.7933 6.93345 16.47 6.93345 17.3084C6.93345 18.1468 7.29064 18.8235 7.73312 18.8235H13.0643C13.5067 18.8235 13.8639 18.1468 13.8639 17.3084C13.8639 16.47 13.5067 15.7933 13.0643 15.7933H11.9341L9.28448 6.47018C9.37511 6.22776 9.44975 5.97524 9.50306 5.69242H11.1984V6.7025C11.1984 7.25805 11.4383 7.71259 11.7315 7.71259C11.9021 7.71259 12.0513 7.55098 12.1473 7.30856L13.0749 9.0661C13.2348 9.36913 13.4748 9.44994 13.6773 9.26812L15.7671 7.41966C15.9697 7.23785 16.055 6.79341 15.9591 6.40958C15.9137 6.22769 15.8321 6.0873 15.7321 6.01914C15.6322 5.95099 15.5221 5.96063 15.4259 6.04595ZM7.99968 5.69242C7.70647 5.69242 7.46657 5.23788 7.46657 4.68233C7.46657 4.12679 7.70647 3.67225 7.99968 3.67225C8.29289 3.67225 8.53279 4.12679 8.53279 4.68233C8.53279 5.23788 8.29289 5.69242 7.99968 5.69242Z" fill="black"/>
<path d="M9.59896 23.0592L6.93229 20.7061L4.26562 23.0592V27.7647L6.93229 30.1178L9.59896 27.7647V23.0592ZM6.93229 27.0994C6.63944 27.0994 6.35858 26.9216 6.1515 26.6051C5.94442 26.2887 5.82808 25.8595 5.82808 25.4119C5.82808 24.9644 5.94442 24.5352 6.1515 24.2187C6.35858 23.9023 6.63944 23.7245 6.93229 23.7245C7.22515 23.7245 7.50601 23.9023 7.71309 24.2187C7.92017 24.5352 8.0365 24.9644 8.0365 25.4119C8.0365 25.8595 7.92017 26.2887 7.71309 26.6051C7.50601 26.9216 7.22515 27.0994 6.93229 27.0994Z" fill="black"/>
<path d="M19.2005 23.0592L16.5339 20.7061L13.8672 23.0592V27.7647L16.5339 30.1178L19.2005 27.7647V23.0592ZM16.5339 27.0994C16.241 27.0994 15.9601 26.9216 15.7531 26.6051C15.546 26.2887 15.4296 25.8595 15.4296 25.4119C15.4296 24.9644 15.546 24.5352 15.7531 24.2187C15.9601 23.9023 16.241 23.7245 16.5339 23.7245C16.8267 23.7245 17.1076 23.9023 17.3146 24.2187C17.5217 24.5352 17.6381 24.9644 17.6381 25.4119C17.6381 25.8595 17.5217 26.2887 17.3146 26.6051C17.1076 26.9216 16.8267 27.0994 16.5339 27.0994Z" fill="black"/>
<path d="M28.7982 23.0592L26.1315 20.7061L23.4648 23.0592V27.7647L26.1315 30.1178L28.7982 27.7647V23.0592ZM26.1315 27.0994C25.8387 27.0994 25.5578 26.9216 25.3507 26.6051C25.1436 26.2887 25.0273 25.8595 25.0273 25.4119C25.0273 24.9644 25.1436 24.5352 25.3507 24.2187C25.5578 23.9023 25.8387 23.7245 26.1315 23.7245C26.4244 23.7245 26.7052 23.9023 26.9123 24.2187C27.1194 24.5352 27.2357 24.9644 27.2357 25.4119C27.2357 25.8595 27.1194 26.2887 26.9123 26.6051C26.7052 26.9216 26.4244 27.0994 26.1315 27.0994Z" fill="black"/>
<path d="M18.1349 7.34865V17.3035C18.1349 17.4723 18.1657 17.6109 18.2272 17.7195C18.2887 17.828 18.3674 17.8823 18.4634 17.8823H25.2736C25.3692 17.8823 25.4478 17.828 25.5093 17.7195C25.5708 17.6109 25.6016 17.4723 25.6016 17.3035V7.34865H23.4682V12.4969C23.4682 12.7855 23.4009 13.0051 23.2661 13.1557C23.1313 13.3063 22.9921 13.3151 22.8485 13.1821L21.8682 12.3256L20.8874 13.1821C20.7441 13.3145 20.6051 13.3057 20.4704 13.1557C20.3356 13.0051 20.2682 12.7855 20.2682 12.4969V7.34865H18.1349ZM18.4634 18.8235C18.2245 18.8235 18.0211 18.6754 17.8533 18.3792C17.6855 18.0831 17.6016 17.7245 17.6016 17.3035V7.04559C17.6016 6.86237 17.6181 6.68982 17.6512 6.52794C17.6842 6.36606 17.734 6.21704 17.8005 6.08088L18.6314 4.32088C18.7086 4.13704 18.8051 3.99837 18.921 3.90488C19.0369 3.81139 19.1612 3.76465 19.2938 3.76465H24.4224C24.5546 3.76465 24.6805 3.81139 24.8 3.90488C24.9194 3.99837 25.0177 4.13673 25.0949 4.31994L25.936 6.11759C26.0025 6.25375 26.0522 6.4059 26.0853 6.57406C26.1184 6.74159 26.1349 6.91728 26.1349 7.10112V17.3035C26.1349 17.7239 26.051 18.0825 25.8832 18.3792C25.7153 18.6754 25.5121 18.8235 25.2736 18.8235H18.4634ZM18.3376 6.40747H25.3882L24.6789 4.90347C24.6444 4.84324 24.6049 4.79524 24.5605 4.75947C24.5161 4.72371 24.4698 4.70582 24.4218 4.70582H19.304C19.2563 4.70582 19.2101 4.72402 19.1653 4.76041C19.1205 4.79681 19.0814 4.84512 19.048 4.90535L18.3376 6.40747ZM20.801 7.34865V12.1985L21.8677 11.2574L22.9344 12.1985V7.34959L20.801 7.34865Z" fill="black"/>
</svg>
