<svg width="32" height="32" viewBox="0 0 32 32" fill="none" xmlns="http://www.w3.org/2000/svg">
<path d="M18.0224 13.6513L18.5408 13.584L18.7984 13.9848L18.4736 14.3535L18.0224 13.6513ZM20.5952 21.8934H19.8416V23.7243H20.5984L20.5952 21.8934ZM20.3152 23.3876H19.9856V22.2236H20.3216L20.3152 23.3876ZM20.5952 14.5074H19.9552C19.8904 14.5105 19.8269 14.4878 19.7787 14.4443C19.7305 14.4007 19.7013 14.3399 19.6976 14.2749V13.9543C19.6236 13.9238 19.5636 13.8666 19.5296 13.794L19.288 13.919C19.2291 13.9506 19.1608 13.9594 19.0958 13.9438C19.0309 13.9281 18.974 13.8891 18.936 13.8341L18.744 13.5327C18.7261 13.5062 18.7143 13.4761 18.7094 13.4445C18.7045 13.4129 18.7066 13.3807 18.7156 13.35C18.7247 13.3194 18.7404 13.2911 18.7616 13.2672C18.7828 13.2434 18.809 13.2245 18.8384 13.212L19.8832 12.6653C19.9457 12.632 20.0182 12.6229 20.087 12.6397C20.1558 12.6566 20.2159 12.6982 20.256 12.7567L20.4336 13.0341C20.4512 13.0621 20.4626 13.0935 20.4671 13.1263C20.4717 13.159 20.4691 13.1924 20.4597 13.2241C20.4504 13.2558 20.4343 13.2852 20.4127 13.3102C20.3911 13.3352 20.3644 13.3553 20.3344 13.3691L20.08 13.5022C20.1242 13.5496 20.1487 13.6121 20.1488 13.677C20.1472 13.7355 20.1277 13.7922 20.0932 13.8395C20.0586 13.8867 20.0105 13.9223 19.9552 13.9415V14.2621H20.5952V14.5074ZM2.1888 27.2834H2.1216V27.1808L2.3008 27.1423L2.48 27.1808V27.2834H2.4128V31.992H2.1888V27.2834ZM0.2448 30.9291C0.332755 31.2226 0.399593 31.5221 0.4448 31.8253V32L0.00480003 31.9808V29.9351C0.0026667 29.9532 0.00639998 29.9719 0.016 29.9912C0.0760241 30.3074 0.151853 30.6204 0.2432 30.9291M0.2176 5.14629C0.197847 5.27551 0.209932 5.4076 0.2528 5.53106C0.2864 5.56794 0.312 5.53106 0.312 5.44289C0.307415 5.40555 0.317561 5.3679 0.340274 5.33796C0.362988 5.30801 0.396475 5.28814 0.4336 5.28257C0.5568 5.28257 0.7632 5.94309 0.7024 6.14509C0.6848 6.20441 0.7472 6.30541 0.8416 6.3487C1.1088 6.4994 1.1248 6.8008 0.8608 6.74469C0.6624 6.7014 0.6576 6.70942 0.7696 6.89058C0.9216 7.13427 0.92 7.18076 0.7552 7.37154C0.6304 7.51263 0.6336 7.53186 0.7968 7.66172C0.895338 7.74119 0.958589 7.85642 0.9728 7.98237C0.976705 8.03686 0.993191 8.0897 1.02096 8.13672C1.04872 8.18373 1.08701 8.22365 1.1328 8.25331C1.4528 8.44569 1.3168 9.74108 0.9728 9.74108C0.928 9.74108 0.8944 9.81323 0.8976 9.9014C0.9008 9.98958 0.9216 10.0168 0.9456 9.9479C0.959362 9.91596 0.98151 9.88836 1.00968 9.86803C1.03786 9.84771 1.07101 9.83541 1.1056 9.83247C1.12273 9.83107 1.13941 9.82624 1.15464 9.81825C1.16986 9.81026 1.18333 9.79928 1.19423 9.78597C1.20513 9.77265 1.21324 9.75727 1.21808 9.74075C1.22292 9.72422 1.22439 9.70689 1.2224 9.68978C1.22335 9.65068 1.23448 9.61251 1.25468 9.57904C1.27489 9.54558 1.30347 9.51798 1.3376 9.499C1.37407 9.47488 1.40125 9.43902 1.41463 9.39734C1.42801 9.35565 1.4268 9.31064 1.4112 9.26974C1.3632 9.06613 1.5424 9.02445 1.7008 9.20241C1.8592 9.38036 1.8256 9.58397 1.656 9.52305C1.55787 9.48564 1.57227 9.52144 1.6992 9.63046C1.83556 9.76531 1.93003 9.93684 1.9712 10.1243C2.01237 10.3118 1.99848 10.5072 1.9312 10.687C1.8192 10.8665 1.8208 10.913 1.9472 11.1519C2.0592 11.3651 2.0656 11.4341 1.9808 11.4934C1.896 11.5527 1.9008 11.5896 1.9984 11.681C2.06753 11.8742 2.09473 12.0799 2.07818 12.2845C2.06162 12.4891 2.0017 12.6878 1.9024 12.8673C1.7584 12.9956 1.8912 13.2633 2.0992 13.2633C2.13262 13.267 2.16327 13.2836 2.18453 13.3097C2.20578 13.3358 2.21594 13.3693 2.2128 13.4028C2.2128 13.4894 2.136 13.5423 2.0096 13.5423C1.8832 13.5423 1.8192 13.5824 1.8496 13.6705C1.86219 13.7029 1.86496 13.7383 1.85756 13.7722C1.85016 13.8062 1.83292 13.8372 1.808 13.8613C1.74933 13.8998 1.75413 13.9816 1.8224 14.1066C1.9072 14.2669 1.8992 14.3134 1.7744 14.4273C1.6496 14.5411 1.64 14.578 1.7328 14.7479C1.8256 14.9178 1.8176 14.9611 1.744 15.0124C1.7133 15.0461 1.69015 15.086 1.67607 15.1294C1.662 15.1729 1.65734 15.2188 1.6624 15.2641C1.6704 15.3683 1.632 15.4389 1.5744 15.4245C1.5168 15.41 1.4704 15.4373 1.4704 15.479C1.4704 15.6393 1.5792 15.6649 1.752 15.5383C1.9248 15.4116 1.9568 15.4228 2.1296 15.5591C2.3024 15.6954 2.3264 15.7194 2.1936 15.5014C2.0336 15.2513 2.0864 15.0317 2.2976 15.0317C2.4576 15.0317 2.6176 15.6633 2.5072 15.8541C2.48932 15.9634 2.5061 16.0755 2.5552 16.1748C2.58742 16.2437 2.60532 16.3184 2.60779 16.3945C2.61027 16.4706 2.59727 16.5464 2.5696 16.6172C2.54079 16.6925 2.529 16.7733 2.53508 16.8537C2.54117 16.9341 2.56498 17.0121 2.6048 17.0822C2.66559 17.2541 2.69001 17.4368 2.67652 17.6187C2.66302 17.8006 2.6119 17.9777 2.5264 18.1387C2.47307 18.1772 2.48107 18.2215 2.5504 18.2717C2.7104 18.3824 2.4912 18.6373 2.2304 18.6373C2.0704 18.6373 2.0384 18.6741 2.0704 18.7832C2.10068 18.8793 2.1179 18.979 2.1216 19.0798C2.1216 19.2048 2.1376 19.2016 2.232 19.0573C2.44 18.7367 2.5952 18.9419 2.5952 19.5383C2.5952 20.0802 2.3808 20.5002 2.0976 20.5002C2.0448 20.5002 2.0848 20.5659 2.1856 20.6445C2.4384 20.8449 2.4144 20.9651 2.1216 20.9651C1.86453 20.9651 1.8112 21.0464 1.9616 21.2088C2.0192 21.2746 1.992 21.3804 1.8736 21.5487C1.79214 21.655 1.73645 21.7789 1.7109 21.9105C1.68536 22.0421 1.69067 22.1778 1.7264 22.307C1.7472 22.4497 1.7072 22.4914 1.5472 22.4914C1.3872 22.4914 1.1344 22.6373 1.1344 22.7511C1.1344 22.7719 1.2272 22.7703 1.3408 22.7511C1.6208 22.6918 1.6224 23.022 1.3408 23.3363C1.28957 23.3822 1.24877 23.4386 1.22117 23.5016C1.19357 23.5647 1.1798 23.633 1.1808 23.7018C1.2416 23.8814 1.376 23.8798 1.376 23.7018C1.37469 23.685 1.37672 23.668 1.38197 23.6519C1.38722 23.6359 1.39559 23.621 1.40659 23.6082C1.41759 23.5954 1.43101 23.5849 1.44608 23.5773C1.46115 23.5697 1.47757 23.5651 1.4944 23.5639C1.6432 23.5639 1.9056 24.1603 1.84 24.3495C1.8112 24.4361 1.84 24.4906 1.9136 24.4906C1.9307 24.4914 1.94747 24.4956 1.96291 24.503C1.97835 24.5105 1.99215 24.5209 2.00349 24.5338C2.01482 24.5466 2.02347 24.5616 2.02892 24.5779C2.03437 24.5942 2.0365 24.6114 2.0352 24.6285C2.03012 24.6673 2.01105 24.7029 1.98158 24.7286C1.9521 24.7543 1.91427 24.7683 1.8752 24.7679C1.7008 24.7679 1.6528 24.9026 1.792 24.9988C1.9312 25.095 1.8784 25.3194 1.6832 25.3739C1.5232 25.4188 1.4992 25.475 1.5232 25.7122C1.5584 25.9848 1.5504 25.9944 1.3024 25.9543C1.16 25.9303 1.0432 25.9543 1.0432 25.988C1.0432 26.0216 1.1376 26.0649 1.2528 26.0649C1.4896 26.0649 1.6208 26.3198 1.448 26.4433C1.36 26.5042 1.3744 26.5251 1.5088 26.5267C1.55228 26.5295 1.59443 26.5428 1.63172 26.5653C1.66901 26.5879 1.70035 26.6191 1.72308 26.6564C1.74582 26.6936 1.7593 26.7358 1.76238 26.7793C1.76547 26.8229 1.75806 26.8665 1.7408 26.9066C1.72208 26.9316 1.69798 26.9521 1.67029 26.9666C1.64259 26.981 1.612 26.989 1.5808 26.99C1.5168 26.99 1.4624 27.0717 1.4624 27.1711C1.46853 27.2542 1.44213 27.3365 1.3888 27.4004C1.31577 27.5134 1.2723 27.6429 1.2624 27.7772C1.2208 28.0273 1.1664 28.0978 1.0336 28.0978C0.864 28.0978 0.864 28.0978 1.0112 28.2854C1.2128 28.5355 1.0544 28.7583 0.8016 28.5804C0.5488 28.4024 0.4368 28.4409 0.5904 28.6124C0.7632 28.808 0.7504 28.8705 0.536 28.978C0.383947 29.1078 0.259227 29.2666 0.169122 29.4453C0.0790166 29.6239 0.0253311 29.8188 0.0112 30.0184C0.0112 30.0008 0.0032 29.98 0 29.9623V4.68136C0.0828613 4.7234 0.149301 4.79201 0.188735 4.87627C0.22817 4.96052 0.238331 5.05558 0.2176 5.14629ZM8.1776 27.2834H8.1136V27.1808L8.2896 27.1423L8.4688 27.1808V27.2834H8.4032V31.992H8.1792L8.1776 27.2834ZM8.0448 27.4854H2.5328V31.992H8.0448V27.4854ZM4.2704 28.3559H2.8416V27.9279H4.2688L4.2704 28.3559ZM4.2704 28.8818H2.8416V28.5611H4.2688L4.2704 28.8818ZM4.2704 29.406H2.8416V29.0854H4.2688L4.2704 29.406ZM4.2704 29.9303H2.8416V29.6096H4.2688L4.2704 29.9303ZM4.2704 30.4561H2.8416V30.1355H4.2688L4.2704 30.4561ZM4.2704 30.9804H2.8416V30.6597H4.2688L4.2704 30.9804ZM4.2704 31.5479H2.8416V31.192H4.2688L4.2704 31.5479ZM6.0096 28.3559H4.584V27.9279H6.0096V28.3559ZM6.0096 28.8818H4.584V28.5611H6.0096V28.8818ZM6.0096 29.406H4.584V29.0854H6.0096V29.406ZM6.0096 29.9303H4.584V29.6096H6.0096V29.9303ZM6.0096 30.4561H4.584V30.1355H6.0096V30.4561ZM6.0096 30.9804H4.584V30.6597H6.0096V30.9804ZM6.0096 31.5479H4.584V31.192H6.0096V31.5479ZM7.7536 28.3559H6.3264V27.9279H7.7536V28.3559ZM7.7536 28.8818H6.3264V28.5611H7.7536V28.8818ZM7.7536 29.406H6.3264V29.0854H7.7536V29.406ZM7.7536 29.9303H6.3264V29.6096H7.7536V29.9303ZM7.7536 30.4561H6.3264V30.1355H7.7536V30.4561ZM7.7536 30.9804H6.3264V30.6597H7.7536V30.9804ZM7.7536 31.5479H6.3264V31.192H7.7536V31.5479ZM14.192 27.2834H14.1248V27.1808L14.304 27.1423L14.4832 27.1808V27.2834H14.416V31.992H14.192V27.2834ZM14.0592 27.4854H8.5472V31.992H14.0608L14.0592 27.4854ZM10.28 28.3559H8.8528V27.9279H10.28V28.3559ZM10.28 28.8818H8.8528V28.5611H10.28V28.8818ZM10.28 29.406H8.8528V29.0854H10.28V29.406ZM10.28 29.9303H8.8528V29.6096H10.28V29.9303ZM10.28 30.4561H8.8528V30.1355H10.28V30.4561ZM10.28 30.9804H8.8528V30.6597H10.28V30.9804ZM10.28 31.5479H8.8528V31.192H10.28V31.5479ZM12.024 28.3559H10.5952V27.9279H12.0208L12.024 28.3559ZM12.024 28.8818H10.5952V28.5611H12.0208L12.024 28.8818ZM12.024 29.406H10.5952V29.0854H12.0208L12.024 29.406ZM12.024 29.9303H10.5952V29.6096H12.0208L12.024 29.9303ZM12.024 30.4561H10.5952V30.1355H12.0208L12.024 30.4561ZM12.024 30.9804H10.5952V30.6597H12.0208L12.024 30.9804ZM12.024 31.5479H10.5952V31.192H12.0208L12.024 31.5479ZM13.768 28.3559H12.3344V27.9279H13.7744L13.768 28.3559ZM13.768 28.8818H12.3344V28.5611H13.7744L13.768 28.8818ZM13.768 29.406H12.3344V29.0854H13.7744L13.768 29.406ZM13.768 29.9303H12.3344V29.6096H13.7744L13.768 29.9303ZM13.768 30.4561H12.3344V30.1355H13.7744L13.768 30.4561ZM13.768 30.9804H12.3344V30.6597H13.7744L13.768 30.9804ZM13.768 31.5479H12.3344V31.192H13.7744L13.768 31.5479ZM20.2032 27.2834H20.136V27.1808L20.3152 27.1423L20.4944 27.1808V27.2834H20.4272V31.992H20.2032V27.2834ZM20.0688 27.4854H14.5568V31.992H20.0688V27.4854ZM16.2928 28.3559H14.8656V27.9279H16.2912L16.2928 28.3559ZM16.2928 28.8818H14.8656V28.5611H16.2912L16.2928 28.8818ZM16.2928 29.406H14.8656V29.0854H16.2912L16.2928 29.406ZM16.2928 29.9303H14.8656V29.6096H16.2912L16.2928 29.9303ZM16.2928 30.4561H14.8656V30.1355H16.2912L16.2928 30.4561ZM16.2928 30.9804H14.8656V30.6597H16.2912L16.2928 30.9804ZM16.2928 31.5479H14.8656V31.192H16.2912L16.2928 31.5479ZM18.0336 28.3559H16.6064V27.9279H18.0336V28.3559ZM18.0336 28.8818H16.6064V28.5611H18.0336V28.8818ZM18.0336 29.406H16.6064V29.0854H18.0336V29.406ZM18.0336 29.9303H16.6064V29.6096H18.0336V29.9303ZM18.0336 30.4561H16.6064V30.1355H18.0336V30.4561ZM18.0336 30.9804H16.6064V30.6597H18.0336V30.9804ZM18.0336 31.5479H16.6064V31.192H18.0336V31.5479ZM19.7776 28.3559H18.3504V27.9279H19.7776V28.3559ZM19.7776 28.8818H18.3504V28.5611H19.7776V28.8818ZM19.7776 29.406H18.3504V29.0854H19.7776V29.406ZM19.7776 29.9303H18.3504V29.6096H19.7776V29.9303ZM19.7776 30.4561H18.3504V30.1355H19.7776V30.4561ZM19.7776 30.9804H18.3504V30.6597H19.7776V30.9804ZM19.7776 31.5479H18.3504V31.192H19.7776V31.5479ZM27.9072 28.0481H26.3984V31.309H27.9072V28.0481ZM27.5616 30.9627H26.7728V28.3976H27.5616V30.9627ZM26.112 28.0481H24.6192V31.309H26.112V28.0481ZM25.776 30.9643H24.976V28.3992H25.776V30.9643ZM27.888 22.3952H24.6V27.3267H27.888V22.3952ZM27.6272 23.5174H24.8016V22.6629H27.6288L27.6272 23.5174ZM27.6688 23.8381H27.6288V23.7948H24.8016V23.8381H24.7616C24.7377 23.7608 24.7377 23.6781 24.7616 23.6008H24.8016V23.6441H27.6352V23.6008H27.6736C27.6928 23.5992 27.6928 23.8381 27.6688 23.8381ZM20.5856 23.7243V31.9968H23.9584V21.3675H28.5632L28.5536 31.6088V31.9968H32V0L18.5104 10.9884H20.5904V14.1948H20.6V14.5042H20.5904V21.8902H20.6V23.7243H20.5856ZM23.9872 17.422V11.0429H28.4944V11.1936L28.5072 17.2858V17.4253L24.0992 17.4349L23.9872 17.422ZM28.1248 11.394H24.3616L24.3872 17.0309H28.1488L28.1248 11.394ZM27.888 12.7711H24.6V11.5543H27.888V12.7711ZM27.8672 13.2265H27.8224V13.1655H24.6656V13.2265H24.6208C24.5928 13.1154 24.5928 12.9992 24.6208 12.8882H24.664V12.9491H27.8208V12.8882H27.864C27.8931 12.9989 27.8942 13.1152 27.8672 13.2265Z" fill="black"/>
</svg>
