<svg width="33" height="33" viewBox="0 0 33 33" fill="none" xmlns="http://www.w3.org/2000/svg">
<path fill-rule="evenodd" clip-rule="evenodd" d="M15.8126 7.68182C15.8828 7.98007 15.9182 8.28501 15.9182 8.59091H11.6953V4.5C12.6522 4.5 13.5807 4.81482 14.3287 5.39289C15.0768 5.97097 15.6 6.77801 15.8126 7.68182ZM14.8428 7.68182C14.6869 7.17548 14.4034 6.71471 14.0177 6.3411C13.632 5.96748 13.1564 5.69279 12.6337 5.54182V7.68182H14.8428Z" fill="black"/>
<path fill-rule="evenodd" clip-rule="evenodd" d="M5.59375 10.4103C5.59375 9.79579 5.73663 9.1892 6.0118 8.63556C6.28697 8.08191 6.68734 7.59543 7.18319 7.21224C7.67904 6.82905 8.25763 6.55899 8.876 6.42211C9.49436 6.28524 10.1366 6.28507 10.755 6.42162V9.50117H13.9339C14.066 10.0626 14.0742 10.6447 13.9581 11.2094C13.842 11.7741 13.6041 12.3087 13.2601 12.7783C12.916 13.2478 12.4735 13.6417 11.9614 13.9341C11.4494 14.2266 10.8795 14.4111 10.2888 14.4754C9.69813 14.5398 9.10009 14.4827 8.53379 14.3078C7.96749 14.1328 7.44569 13.8441 7.00251 13.4604C6.55934 13.0766 6.20477 12.6066 5.96201 12.081C5.71925 11.5554 5.59376 10.9861 5.59375 10.4103ZM13.0091 10.4103H9.81662V7.31753C9.18521 7.31753 8.56797 7.49892 8.04297 7.83875C7.51797 8.17859 7.10878 8.6616 6.86715 9.22673C6.62551 9.79185 6.56229 10.4137 6.68547 11.0136C6.80866 11.6136 7.11271 12.1646 7.55919 12.5972C8.00567 13.0297 8.57452 13.3242 9.1938 13.4436C9.81308 13.5629 10.455 13.5016 11.0383 13.2676C11.6217 13.0335 12.1203 12.6371 12.4711 12.1285C12.8219 11.6199 13.0091 11.0219 13.0091 10.4103Z" fill="black"/>
<path d="M20.0708 6.75H18.3676C18.2649 6.75011 18.1665 6.78966 18.094 6.85996C18.0214 6.93026 17.9806 7.02558 17.9805 7.125V13.125C17.9806 13.2244 18.0214 13.3197 18.094 13.39C18.1665 13.4603 18.2649 13.4999 18.3676 13.5H20.0708C20.1734 13.4999 20.2718 13.4603 20.3444 13.39C20.4169 13.3197 20.4578 13.2244 20.4579 13.125V7.125C20.4578 7.02558 20.4169 6.93026 20.3444 6.85996C20.2718 6.78966 20.1734 6.75011 20.0708 6.75ZM19.8385 12.9H18.5998V7.35H19.8385V12.9ZM23.4772 8.7H21.774C21.6714 8.70011 21.573 8.73966 21.5004 8.80996C21.4279 8.88026 21.387 8.97558 21.3869 9.075V13.125C21.387 13.2244 21.4279 13.3197 21.5004 13.39C21.573 13.4603 21.6714 13.4999 21.774 13.5H23.4772C23.5799 13.4999 23.6783 13.4603 23.7508 13.39C23.8234 13.3197 23.8642 13.2244 23.8643 13.125V9.075C23.8642 8.97558 23.8234 8.88026 23.7508 8.80996C23.6783 8.73966 23.5799 8.70011 23.4772 8.7ZM23.245 12.9H22.0063V9.3H23.245V12.9ZM26.8837 4.5H25.1805C25.0778 4.50011 24.9794 4.53966 24.9069 4.60996C24.8343 4.68026 24.7935 4.77558 24.7934 4.875V13.125C24.7935 13.2244 24.8343 13.3197 24.9069 13.39C24.9794 13.4603 25.0778 13.4999 25.1805 13.5H26.8837C26.9863 13.4999 27.0847 13.4603 27.1573 13.39C27.2299 13.3197 27.2707 13.2244 27.2708 13.125V4.875C27.2707 4.77558 27.2299 4.68026 27.1573 4.60996C27.0847 4.53966 26.9863 4.50011 26.8837 4.5ZM26.6514 12.9H25.4127V5.1H26.6514V12.9Z" fill="black"/>
<path d="M6.11 18H1.96484C1.6887 18 1.46484 17.7761 1.46484 17.5V1C1.46484 0.723858 1.6887 0.5 1.96484 0.5H29.8681C30.1442 0.5 30.3681 0.723858 30.3681 1V17.5C30.3681 17.7761 30.1442 18 29.8681 18H27.2713" stroke="black"/>
<path d="M6.62891 32.5L14.0619 19.7482C14.1515 19.5945 14.316 19.5 14.4939 19.5H18.3768C18.5547 19.5 18.7192 19.5945 18.8088 19.7482L26.2418 32.5" stroke="black"/>
<path d="M5.07875 31H2.8326C2.63017 31 2.44771 30.8779 2.37045 30.6908L1.46585 28.5L0.519156 25.2901C0.466553 25.1118 0.517276 24.9189 0.650835 24.7895L2.53076 22.9684C2.77156 22.7351 3.16097 22.8042 3.28469 23.1158C3.49689 23.6502 3.77892 24.4631 4.0465 25.5C4.4594 27.1 4.90671 27.5 5.07875 27.5H7.6594" stroke="black"/>
<path d="M27.7884 31H30.0346C30.237 31 30.4195 30.8779 30.4967 30.6908L31.4013 28.5L32.348 25.2901C32.4006 25.1118 32.3499 24.9189 32.2164 24.7895L30.3364 22.9684C30.0956 22.7351 29.7062 22.8042 29.5825 23.1158C29.3703 23.6502 29.0883 24.4631 28.8207 25.5C28.4078 27.1 27.9605 27.5 27.7884 27.5H25.2078" stroke="black"/>
<path d="M7.88047 24.5H6.37013C6.16846 24.5 5.98653 24.3788 5.90878 24.1928L5.29983 22.7353L4.64989 20.5575C4.59624 20.3778 4.64773 20.1831 4.78324 20.0534L5.925 18.9603C6.16556 18.73 6.54963 18.7999 6.66796 19.1112C6.80882 19.4818 6.97976 19.992 7.14315 20.6176C7.43808 21.7471 7.75758 22.0294 7.88047 22.0294H9.72379" stroke="black"/>
<path d="M24.9867 24.5H26.4971C26.6987 24.5 26.8807 24.3788 26.9584 24.1928L27.5674 22.7353L28.2173 20.5575C28.2709 20.3778 28.2195 20.1831 28.0839 20.0534L26.9422 18.9603C26.7016 18.73 26.3176 18.7999 26.1992 19.1112C26.0584 19.4818 25.8874 19.992 25.724 20.6176C25.4291 21.7471 25.1096 22.0294 24.9867 22.0294H23.1434" stroke="black"/>
<path d="M11.7134 19.5H10.9536C10.7454 19.5 10.5589 19.3709 10.4856 19.176L10.1651 18.3235L9.79495 16.9456C9.75001 16.7783 9.79487 16.5997 9.91353 16.4734L10.3248 16.036C10.5665 15.7788 10.9746 15.854 11.0776 16.1915C11.1398 16.395 11.2064 16.6366 11.271 16.9118C11.448 17.6647 11.6397 17.8529 11.7134 17.8529H12.8194" stroke="black"/>
<path d="M21.1537 19.5H21.9136C22.1218 19.5 22.3083 19.3709 22.3816 19.176L22.7021 18.3235L23.0722 16.9456C23.1172 16.7783 23.0723 16.5997 22.9537 16.4734L22.5424 16.036C22.3007 15.7788 21.8926 15.854 21.7896 16.1915C21.7274 16.395 21.6608 16.6366 21.5961 16.9118C21.4192 17.6647 21.2275 17.8529 21.1537 17.8529H20.0478" stroke="black"/>
</svg>
