<svg width="32" height="32" viewBox="0 0 32 32" fill="none" xmlns="http://www.w3.org/2000/svg">
<path d="M16.0039 4.60254C16.1413 4.60254 16.2734 4.65971 16.3726 4.76214L28.6412 17.4108C28.6934 17.4646 28.7348 17.5292 28.7631 17.6008C28.7914 17.6724 28.806 17.7494 28.8059 17.8272V29.6984C28.8059 30.3088 28.5812 30.8942 28.1811 31.3258C27.781 31.7574 27.2384 31.9999 26.6726 31.9999H24.8141H20.2686H11.7353H11.1076H5.32864C4.76285 31.9999 4.22023 31.7574 3.82015 31.3258C3.42007 30.8942 3.19531 30.3088 3.19531 29.6984L3.19731 17.8272C3.19723 17.7494 3.21178 17.6724 3.24008 17.6008C3.26839 17.5292 3.30986 17.4646 3.36198 17.4108L15.6353 4.76214C15.7345 4.65971 15.8666 4.60254 16.0039 4.60254Z" fill="black"/>
<path d="M31.6606 15.2579L26.674 10.1113V2.30146C26.674 1.99626 26.5616 1.70357 26.3615 1.48777C26.1615 1.27197 25.8902 1.15073 25.6073 1.15073H22.4073C22.1244 1.15073 21.8531 1.27197 21.6531 1.48777C21.453 1.70357 21.3406 1.99626 21.3406 2.30146V4.60291L17.4793 0.619955C17.118 0.22583 16.5807 0 16 0C15.4213 0 14.8853 0.225831 14.524 0.620674L0.344024 15.2565C-0.0706412 15.688 -0.122641 16.3979 0.254691 16.8654C0.349445 16.9834 0.465465 17.0793 0.595689 17.1474C0.725914 17.2155 0.86762 17.2543 1.01218 17.2614C1.15675 17.2686 1.30114 17.2439 1.43658 17.1889C1.57203 17.1339 1.69568 17.0498 1.80002 16.9416L15.6333 2.6812C15.7326 2.57877 15.8646 2.5216 16.002 2.5216C16.1393 2.5216 16.2714 2.57877 16.3707 2.6812L30.2053 16.9416C30.4091 17.1524 30.682 17.2675 30.9643 17.2616C31.2466 17.2556 31.5153 17.1292 31.7113 16.91C32.1206 16.4525 32.0866 15.6974 31.6606 15.2579Z" fill="black"/>
<path d="M23.7517 16.9551H28.0905V30.9972H15.0742V26.3165H17.9667V23.196H20.8592V20.0755H23.7517V16.9551Z" fill="white"/>
</svg>
