<svg width="32" height="32" viewBox="0 0 32 32" fill="none" xmlns="http://www.w3.org/2000/svg">
<path d="M23.3333 4.82733C24.0489 4.86289 24.6796 4.89978 25.2253 4.938C26.9273 5.056 28.2493 6.33733 28.3873 8.038C28.4593 8.91667 28.5287 10.01 28.5807 11.3333M8.66667 27.172C8.03565 27.1414 7.40495 27.1045 6.77467 27.0613C5.07267 26.9433 3.75067 25.6633 3.61267 23.962C3.58067 23.5731 3.54956 23.1411 3.51933 22.666M11.4053 19.3C10.7149 19.3229 10.0241 19.334 9.33333 19.3333C6.88067 19.3333 5.16667 19.2053 4.06667 19.0773C3.08867 18.964 2.36467 18.2213 2.26467 17.242C2.136 15.9847 2 13.892 2 10.6667C2 7.44 2.136 5.34867 2.26467 4.09133C2.36467 3.112 3.08867 2.37 4.06667 2.256C5.16667 2.128 6.88067 2 9.33333 2C10.0933 2.00044 10.784 2.01156 11.4053 2.03333C11.752 2.14867 12.8633 2.62 14.4687 4.294C15.982 5.872 16.4707 6.992 16.614 7.418C16.634 7.996 16.65 8.63267 16.6587 9.33333" stroke="black" stroke-width="1.5" stroke-linecap="round" stroke-linejoin="round"/>
<path d="M16.6188 7.61463C15.7615 7.75063 14.2135 7.64463 13.0495 7.5293C12.6155 7.48688 12.21 7.29418 11.903 6.98451C11.596 6.67483 11.4068 6.26764 11.3682 5.8333C11.2548 4.60463 11.1455 2.93596 11.2828 2.0293M24.7388 12.6993C25.0855 12.814 26.1968 13.286 27.8022 14.96C29.3155 16.538 29.8035 17.658 29.9475 18.084C29.9802 19.0093 30.0002 20.086 30.0002 21.3326C30.0002 24.5593 29.8642 26.6506 29.7355 27.9073C29.6355 28.8873 28.9115 29.6293 27.9335 29.7433C26.8335 29.8706 25.1195 29.9993 22.6668 29.9993C20.2142 29.9993 18.5002 29.8706 17.4002 29.7433C16.4222 29.63 15.6982 28.8873 15.5982 27.9073C15.4695 26.6506 15.3335 24.5593 15.3335 21.3326C15.3335 18.106 15.4695 16.0146 15.5982 14.7573C15.6982 13.778 16.4222 13.036 17.4002 12.922C18.5002 12.794 20.2142 12.666 22.6668 12.666C23.4268 12.6664 24.1175 12.6775 24.7388 12.6993Z" stroke="black" stroke-width="1.5" stroke-linecap="round" stroke-linejoin="round"/>
<path d="M29.952 18.2817C29.0947 18.4177 27.5467 18.3117 26.3827 18.1964C25.9487 18.154 25.5431 17.9613 25.2361 17.6516C24.9291 17.3419 24.74 16.9347 24.7013 16.5004C24.588 15.2717 24.4787 13.6024 24.616 12.6964M23.23 7.03173C23.188 7.38973 22.8487 7.55773 22.5273 7.39373C22.126 7.18973 21.508 6.8484 20.6433 6.3024C20.0113 5.9044 19.5773 5.5784 19.2813 5.32573C18.8433 4.9524 18.8433 4.38107 19.2813 4.00707C19.5773 3.75373 20.0113 3.4284 20.6433 3.02973C21.508 2.4844 22.126 2.14307 22.5273 1.93907C22.8487 1.77507 23.188 1.94307 23.23 2.30107C23.2833 2.7504 23.3333 3.4884 23.3333 4.6664C23.3333 5.8444 23.2827 6.5824 23.23 7.03173ZM8.10333 24.9677C8.14533 24.6097 8.48467 24.4417 8.806 24.6057C9.20733 24.8104 9.82533 25.1511 10.69 25.6964C11.322 26.0951 11.756 26.4211 12.052 26.6737C12.49 27.0471 12.49 27.6184 12.052 27.9924C11.756 28.2457 11.322 28.5711 10.69 28.9697C9.82533 29.5151 9.20733 29.8564 8.806 30.0604C8.48467 30.2244 8.14533 30.0564 8.10333 29.6984C8.05 29.2491 8 28.5111 8 27.3331C8 26.1551 8.05067 25.4171 8.10333 24.9677Z" stroke="black" stroke-width="1.5" stroke-linecap="round" stroke-linejoin="round"/>
</svg>
