<svg width="34" height="34" viewBox="0 0 34 34" fill="none" xmlns="http://www.w3.org/2000/svg">
<path d="M23.6556 30.7453H28.1403C29.0053 30.7453 29.8349 30.4228 30.4466 29.8487C31.0582 29.2746 31.4019 28.4959 31.4019 27.684V24.5585M1.23219 26.0891V27.684C1.23219 28.4959 1.57582 29.2746 2.18749 29.8487C2.79915 30.4228 3.62875 30.7453 4.49378 30.7453H10.7625M10.7625 2.4283H4.49378C3.62875 2.4283 2.79915 2.75083 2.18749 3.32494C1.57582 3.89904 1.23219 4.6777 1.23219 5.4896V7.91722M21.8723 2.4283H28.1403C29.0053 2.4283 29.8349 2.75083 30.4466 3.32494C31.0582 3.89904 31.4019 4.6777 31.4019 5.4896V7.91722M24.6757 12.8964L13.6515 6.83581M26.1067 17.0399L12.0549 9.42491M24.4889 19.6826L10.438 12.0668M32.0362 9.96446L15.3646 0.929031C15.0371 0.751766 14.6479 0.703784 14.2827 0.795622C13.9174 0.88746 13.606 1.11161 13.4167 1.41884L0.941097 21.7061C0.751976 22.0136 0.70071 22.3791 0.798568 22.7221C0.896427 23.0651 1.1354 23.3575 1.46295 23.5352L18.1337 32.5706C18.4614 32.7481 18.8507 32.7963 19.2162 32.7044C19.5816 32.6126 19.8932 32.3883 20.0825 32.0808L32.5589 11.7936C32.748 11.4861 32.7993 11.1206 32.7014 10.7776C32.6036 10.4346 32.3638 10.1421 32.0362 9.96446Z" stroke="black" stroke-width="1.5" stroke-linecap="round" stroke-linejoin="round"/>
</svg>
