<svg width="32" height="32" viewBox="0 0 32 32" fill="none" xmlns="http://www.w3.org/2000/svg">
<path d="M0 28.96V21.4306H3.76471V6.58824C3.76471 4.75859 4.40533 3.20314 5.68659 1.92188C6.96784 0.640627 8.52329 0 10.3529 0C12.1826 0 13.738 0.640627 15.0193 1.92188C16.3005 3.20314 16.9412 4.75859 16.9412 6.58824V25.4118C16.9412 26.7369 17.3942 27.8525 18.3002 28.7586C19.2063 29.6646 20.3219 30.1176 21.6471 30.1176C22.9722 30.1176 24.0878 29.6646 24.9939 28.7586C25.8999 27.8525 26.3529 26.7369 26.3529 25.4118V10.5713H22.5882V3.04188H24.4706V0H30.1176V3.04188H32V10.5713H28.2353V25.4118C28.2353 27.2414 27.5947 28.7969 26.3134 30.0781C25.0322 31.3594 23.4767 32 21.6471 32C19.8174 32 18.262 31.3594 16.9807 30.0781C15.6995 28.7969 15.0588 27.2414 15.0588 25.4118V6.58824C15.0588 5.26306 14.6058 4.14745 13.6998 3.24141C12.7937 2.33537 11.6781 1.88235 10.3529 1.88235C9.02776 1.88235 7.91216 2.33537 7.00612 3.24141C6.10008 4.14745 5.64706 5.26306 5.64706 6.58824V21.4306H9.41176V28.96H7.52941V32H1.88235V28.9581L0 28.96Z" fill="black"/>
</svg>
