<svg width="34" height="34" viewBox="0 0 34 34" fill="none" xmlns="http://www.w3.org/2000/svg">
<path d="M6 7H28M1 3C1 2.46957 1.21071 1.96086 1.58579 1.58579C1.96086 1.21071 2.46957 1 3 1H31C31.5304 1 32.0391 1.21071 32.4142 1.58579C32.7893 1.96086 33 2.46957 33 3V31C33 31.5304 32.7893 32.0391 32.4142 32.4142C32.0391 32.7893 31.5304 33 31 33H3C2.46957 33 1.96086 32.7893 1.58579 32.4142C1.21071 32.0391 1 31.5304 1 31V3Z" stroke="black" stroke-width="2" stroke-linecap="round"/>
<path d="M14 27H6M6 15C6 14.4696 6.21071 13.9609 6.58579 13.5858C6.96086 13.2107 7.46957 13 8 13H12C12.5304 13 13.0391 13.2107 13.4142 13.5858C13.7893 13.9609 14 14.4696 14 15V19C14 19.5304 13.7893 20.0391 13.4142 20.4142C13.0391 20.7893 12.5304 21 12 21H8C7.46957 21 6.96086 20.7893 6.58579 20.4142C6.21071 20.0391 6 19.5304 6 19V15ZM20 15C20 14.4696 20.2107 13.9609 20.5858 13.5858C20.9609 13.2107 21.4696 13 22 13H26C26.5304 13 27.0391 13.2107 27.4142 13.5858C27.7893 13.9609 28 14.4696 28 15V25C28 25.5304 27.7893 26.0391 27.4142 26.4142C27.0391 26.7893 26.5304 27 26 27H22C21.4696 27 20.9609 26.7893 20.5858 26.4142C20.2107 26.0391 20 25.5304 20 25V15Z" stroke="black" stroke-width="2" stroke-linecap="round"/>
</svg>
