<svg width="32" height="32" viewBox="0 0 32 32" fill="none" xmlns="http://www.w3.org/2000/svg">
<path d="M31.4378 30.316H29.7831V2.24747L31.5536 1.66859C31.6256 1.64725 31.6941 1.60419 31.7551 1.54194C31.816 1.47969 31.8683 1.3995 31.9087 1.30606C31.9491 1.21262 31.9769 1.10781 31.9905 0.997761C32.0041 0.887713 32.0031 0.774638 31.9877 0.665155C31.9723 0.555672 31.9427 0.451981 31.9008 0.36015C31.8588 0.268319 31.8052 0.190193 31.7432 0.130344C31.6812 0.070496 31.612 0.0301277 31.5397 0.0116022C31.4674 -0.00692328 31.3933 -0.00323362 31.3219 0.0224548L0.435716 10.1266C0.302674 10.1704 0.184945 10.2878 0.105175 10.4562C0.0254043 10.6245 -0.0107741 10.832 0.00359869 11.0386C0.0179714 11.2452 0.0818802 11.4364 0.183032 11.5755C0.284184 11.7145 0.415435 11.7915 0.55154 11.7917C0.590477 11.7916 0.629302 11.7853 0.667363 11.7727L2.20616 11.2696V30.316H0.55154C0.405262 30.316 0.264976 30.4047 0.161542 30.5626C0.0581085 30.7205 0 30.9347 0 31.158C0 31.3813 0.0581085 31.5955 0.161542 31.7534C0.264976 31.9113 0.405262 32 0.55154 32H31.4378C31.584 32 31.7243 31.9113 31.8278 31.7534C31.9312 31.5955 31.9893 31.3813 31.9893 31.158C31.9893 30.9347 31.9312 30.7205 31.8278 30.5626C31.7243 30.4047 31.584 30.316 31.4378 30.316ZM3.30924 10.9097L28.6801 2.60954V30.316H24.2677V17.6858C24.2677 17.4625 24.2096 17.2483 24.1062 17.0904C24.0028 16.9325 23.8625 16.8438 23.7162 16.8438H8.27309C8.12682 16.8438 7.98653 16.9325 7.8831 17.0904C7.77966 17.2483 7.72156 17.4625 7.72156 17.6858V30.316H3.30924V10.9097ZM23.1647 23.5799H8.82463V18.5278H23.1647V23.5799ZM8.82463 25.2639H23.1647V30.316H8.82463V25.2639Z" fill="black"/>
</svg>
