<svg width="32" height="32" viewBox="0 0 32 32" fill="none" xmlns="http://www.w3.org/2000/svg">
<path d="M15.1568 12.4422H17.3952V10.6684H15.6L14.0992 0.684194C14.0703 0.489396 14.0007 0.315787 13.9016 0.191575C13.8026 0.0673633 13.6799 -0.000151517 13.5536 2.5533e-07H11.1472C11.0209 -0.000151517 10.8982 0.0673633 10.7991 0.191575C10.7001 0.315787 10.6305 0.489396 10.6016 0.684194L9.0992 10.6684H7.2976V12.4422H15.1568ZM11.5904 1.7713H13.1088L14.4464 10.6633H10.2528L11.5904 1.7713ZM14.0336 22.2211H10.6656C10.5919 22.2208 10.5189 22.2435 10.4508 22.2879C10.3827 22.3323 10.3208 22.3976 10.2686 22.48C10.2164 22.5624 10.175 22.6602 10.1468 22.768C10.1185 22.8758 10.104 22.9913 10.104 23.108V27.5553C10.1038 27.6722 10.1182 27.788 10.1463 27.896C10.1745 28.0041 10.2158 28.1023 10.268 28.185C10.3202 28.2676 10.3822 28.3331 10.4504 28.3777C10.5187 28.4223 10.5918 28.4451 10.6656 28.4447H14.0336C14.1074 28.4451 14.1805 28.4223 14.2488 28.3777C14.317 28.3331 14.379 28.2676 14.4312 28.185C14.4834 28.1023 14.5247 28.0041 14.5529 27.896C14.581 27.788 14.5954 27.6722 14.5952 27.5553V23.108C14.5952 22.9913 14.5807 22.8758 14.5524 22.768C14.5242 22.6602 14.4828 22.5624 14.4306 22.48C14.3784 22.3976 14.3165 22.3323 14.2484 22.2879C14.1803 22.2435 14.1073 22.2208 14.0336 22.2211ZM13.4736 26.6658H11.2272V23.9975H13.4672L13.4736 26.6658ZM6.736 22.2211H7.8592V26.6658H6.736V22.2211ZM24.6992 15.9949H25.8224V20.4397H24.6992V15.9949ZM24.6992 7.99747H25.8224V12.4422H24.6992V7.99747ZM31.4368 1.7713H23.5776C23.5039 1.7713 23.431 1.79433 23.3629 1.83906C23.2949 1.88379 23.2331 1.94934 23.1811 2.03197C23.129 2.1146 23.0878 2.21267 23.0598 2.32057C23.0317 2.42847 23.0174 2.54407 23.0176 2.66075V19.5527H0.560002C0.486327 19.5527 0.413376 19.5758 0.345329 19.6205C0.277282 19.6652 0.215477 19.7308 0.163456 19.8134C0.111434 19.896 0.0702179 19.9941 0.0421696 20.102C0.0141212 20.2099 -0.000208214 20.3255 2.28593e-06 20.4422V31.1105C-0.000208214 31.2272 0.0141212 31.3428 0.0421696 31.4507C0.0702179 31.5586 0.111434 31.6567 0.163456 31.7393C0.215477 31.822 0.277282 31.8875 0.345329 31.9322C0.413376 31.977 0.486327 32 0.560002 32H31.4384C31.5122 32.0003 31.5853 31.9776 31.6536 31.933C31.7218 31.8884 31.7838 31.8229 31.836 31.7402C31.8882 31.6576 31.9295 31.5594 31.9577 31.4513C31.9858 31.3433 32.0002 31.2274 32 31.1105V2.66075C32.0002 2.54364 31.9858 2.42762 31.9575 2.31939C31.9293 2.21116 31.8878 2.11286 31.8354 2.03017C31.7831 1.94747 31.7209 1.88202 31.6525 1.83759C31.584 1.79316 31.5107 1.77063 31.4368 1.7713ZM23.016 24.8869H16.2784V21.3392H23.016V24.8869ZM1.1216 21.3392H8.4208V30.2312H1.1216V21.3392ZM9.5424 21.3392H15.1568V24.8869H15.1376V26.6608H15.1568V30.2084H9.5424V21.3392ZM16.2784 26.6608H23.016V30.2084H16.2784V26.6608ZM30.8752 30.2084H24.1376V15.1105H30.8752V30.2084ZM24.1376 13.3316V3.55021H30.8752V13.3316H24.1376Z" fill="black"/>
</svg>
