<svg width="33" height="33" viewBox="0 0 33 33" fill="none" xmlns="http://www.w3.org/2000/svg">
<path d="M0.915348 16.6793C0.638449 17.7092 0.5 18.7793 0.5 19.8897V21.6276C0.5 22.8506 0.695739 23.969 1.08722 24.9828C1.47869 25.9966 2.00385 26.7529 2.66267 27.2517C2.95867 28.3621 3.40743 29.2471 4.00897 29.9069C4.61051 30.5667 5.27411 30.8966 5.99978 30.8966C6.6586 30.8966 7.26969 30.623 7.83304 30.0759C8.39638 29.5287 8.84515 28.7724 9.17933 27.8069H19.3195C19.6537 28.7724 20.1025 29.5287 20.6658 30.0759C21.2292 30.623 21.8403 30.8966 22.4991 30.8966C23.1579 30.8966 23.769 30.623 24.3324 30.0759C24.8957 29.5287 25.3445 28.7724 25.6787 27.8069H27.9989C28.2567 27.8069 28.4954 27.7264 28.715 27.5655C28.9346 27.4046 29.1256 27.1874 29.2879 26.9138C29.4502 26.6402 29.5839 26.3103 29.6889 25.9241C29.7939 25.5379 29.8417 25.1356 29.8321 24.7172V18.5379C29.8321 17.2506 29.6889 16.0437 29.4025 14.9172C29.116 13.7908 28.7245 12.8092 28.228 11.9724C27.7315 11.1356 27.1491 10.4759 26.4807 9.9931C25.8123 9.51034 25.0962 9.26897 24.3324 9.26897H23.8024L19.1047 1.35172C18.8469 0.917241 18.5509 0.587356 18.2167 0.362069C17.8825 0.136782 17.5293 0.016092 17.1569 0H4.16652V3.08966H4.58187L0.915348 16.6793ZM11.4996 3.08966V9.26897H4.9256L6.34351 3.98276C6.4199 3.7092 6.53448 3.49195 6.68725 3.33103C6.84002 3.17011 7.00711 3.08966 7.18853 3.08966H11.4996ZM17.1569 3.08966C17.4051 3.08966 17.62 3.24253 17.8014 3.54828L21.1958 9.26897H13.3328V3.08966H17.1569ZM22.4991 27.8069C22.2413 27.8069 22.0026 27.7264 21.783 27.5655C21.5634 27.4046 21.3724 27.1874 21.2101 26.9138C21.0478 26.6402 20.9141 26.3103 20.8091 25.9241C20.704 25.5379 20.6563 25.1356 20.6658 24.7172C20.6658 24.2828 20.7136 23.8805 20.8091 23.5103C20.9046 23.1402 21.0335 22.8184 21.1958 22.5448C21.3581 22.2713 21.5538 22.046 21.783 21.869C22.0121 21.692 22.2509 21.6115 22.4991 21.6276C22.7569 21.6276 22.9956 21.708 23.2152 21.869C23.4348 22.0299 23.6258 22.2471 23.7881 22.5207C23.9504 22.7943 24.0841 23.1241 24.1891 23.5103C24.2942 23.8966 24.3419 24.2989 24.3324 24.7172C24.3324 25.1517 24.2846 25.554 24.1891 25.9241C24.0937 26.2943 23.9648 26.6161 23.8024 26.8897C23.6401 27.1632 23.4444 27.3885 23.2152 27.5655C22.9861 27.7425 22.7474 27.823 22.4991 27.8069ZM22.4991 18.5379C21.9931 18.5379 21.5204 18.6989 21.0812 19.0207C20.642 19.3425 20.2505 19.7851 19.9068 20.3483C19.563 20.9115 19.3005 21.5632 19.119 22.3034C18.9376 23.0437 18.8421 23.8483 18.8326 24.7172H13.3328V12.3586H24.3324C24.8384 12.3586 25.3111 12.5195 25.7503 12.8414C26.1895 13.1632 26.581 13.6057 26.9247 14.169C27.2684 14.7322 27.531 15.3839 27.7124 16.1241C27.8939 16.8644 27.9893 17.669 27.9989 18.5379V24.7172H26.1656C26.1656 23.8644 26.0701 23.0678 25.8792 22.3276C25.6882 21.5874 25.4256 20.9276 25.0914 20.3483C24.7573 19.769 24.3706 19.3264 23.9313 19.0207C23.4921 18.7149 23.0147 18.554 22.4991 18.5379ZM5.99978 27.8069C5.74197 27.8069 5.50327 27.7264 5.28366 27.5655C5.06405 27.4046 4.87309 27.1874 4.71077 26.9138C4.54845 26.6402 4.41477 26.3103 4.30974 25.9241C4.20471 25.5379 4.15697 25.1356 4.16652 24.7172C4.16652 24.2828 4.21426 23.8805 4.30974 23.5103C4.40522 23.1402 4.53412 22.8184 4.69644 22.5448C4.85876 22.2713 5.0545 22.046 5.28366 21.869C5.51282 21.692 5.75152 21.6115 5.99978 21.6276C6.25758 21.6276 6.49628 21.708 6.71589 21.869C6.9355 22.0299 7.12647 22.2471 7.28879 22.5207C7.45111 22.7943 7.58478 23.1241 7.68981 23.5103C7.79484 23.8966 7.84258 24.2989 7.83304 24.7172C7.83304 25.1517 7.78529 25.554 7.68981 25.9241C7.59433 26.2943 7.46543 26.6161 7.30311 26.8897C7.14079 27.1632 6.94505 27.3885 6.71589 27.5655C6.48674 27.7425 6.24803 27.823 5.99978 27.8069ZM2.33326 19.8897C2.33326 19.2299 2.41442 18.5862 2.57674 17.9586L4.09491 12.3586H11.4996V24.7172H9.66629C9.66629 23.8644 9.57081 23.0678 9.37985 22.3276C9.18888 21.5874 8.92631 20.9276 8.59212 20.3483C8.25793 19.769 7.87123 19.3264 7.43201 19.0207C6.99279 18.7149 6.51538 18.554 5.99978 18.5379C5.59875 18.5379 5.21205 18.6425 4.83967 18.8517C4.46729 19.0609 4.12832 19.3586 3.82278 19.7448C3.51724 20.131 3.24989 20.5897 3.02073 21.1207C2.79157 21.6517 2.61493 22.2471 2.4908 22.9069C2.38577 22.4724 2.33326 22.046 2.33326 21.6276V19.8897Z" fill="black"/>
<path d="M0.5 32H32.5" stroke="black" stroke-linecap="round"/>
</svg>
