<svg width="33" height="33" viewBox="0 0 33 33" fill="none" xmlns="http://www.w3.org/2000/svg">
<path d="M0.5 15.7H16.6076C16.8837 15.7 17.1076 15.9239 17.1076 16.2V32C17.1076 32.2761 16.8837 32.5 16.6076 32.5H0.999999C0.723857 32.5 0.5 32.2761 0.5 32V15.7ZM0.5 15.7L8.39873 8.1M8.39873 8.1L16.2975 0.5H32.1C32.3209 0.5 32.5 0.679086 32.5 0.9M16.2975 0.5L32.5 0.9M26.4241 17.3H32C32.2761 17.3 32.5 17.0761 32.5 16.8V0.9M8.39873 8.1H24.7089C24.985 8.1 25.2089 8.32386 25.2089 8.6V24.4C25.2089 24.6761 24.985 24.9 24.7089 24.9H18.7278" stroke="black"/>
<path d="M2.53125 22.8002V18.2002C2.53125 17.9241 2.75511 17.7002 3.03125 17.7002H14.5882C14.8644 17.7002 15.0882 17.9241 15.0882 18.2002V22.8002C15.0882 23.0763 14.8644 23.3002 14.5882 23.3002H3.03125C2.75511 23.3002 2.53125 23.0763 2.53125 22.8002Z" stroke="black"/>
<path d="M10.2148 14.1V11C10.2148 10.7239 10.4387 10.5 10.7148 10.5H22.2718C22.5479 10.5 22.7718 10.7239 22.7718 11V14.8C22.7718 15.0761 22.5479 15.3 22.2718 15.3H18.7212" stroke="black"/>
<path d="M17.9258 6.90039V3.40039C17.9258 3.12425 18.1496 2.90039 18.4258 2.90039H29.5777C29.8538 2.90039 30.0777 3.12425 30.0777 3.40039V7.20039C30.0777 7.47653 29.8538 7.70039 29.5777 7.70039H26.4321" stroke="black"/>
</svg>
