<svg width="32" height="33" viewBox="0 0 32 33" fill="none" xmlns="http://www.w3.org/2000/svg">
<path d="M26.1211 32V1C26.1211 0.723858 26.345 0.5 26.6211 0.5H29.5395C29.8156 0.5 30.0395 0.723858 30.0395 1V32C30.0395 32.2761 29.8156 32.5 29.5395 32.5H26.6211C26.345 32.5 26.1211 32.2761 26.1211 32Z" stroke="black"/>
<path d="M2.61328 32V1C2.61328 0.723858 2.83714 0.5 3.11328 0.5H6.03165C6.30779 0.5 6.53165 0.723858 6.53165 1V32C6.53165 32.2761 6.30779 32.5 6.03165 32.5H3.11328C2.83714 32.5 2.61328 32.2761 2.61328 32Z" stroke="black"/>
<path d="M8.07724 9.00961C7.91696 9.43628 7.83682 9.87961 7.83682 10.3396V11.0596C7.83682 11.5663 7.95012 12.0296 8.17672 12.4496C8.40333 12.8696 8.70731 13.1829 9.08868 13.3896C9.26001 13.8496 9.51978 14.2163 9.86798 14.4896C10.2162 14.7629 10.6003 14.8996 11.0204 14.8996C11.4017 14.8996 11.7554 14.7863 12.0815 14.5596C12.4076 14.3329 12.6674 14.0196 12.8608 13.6196H18.7305C18.9239 14.0196 19.1837 14.3329 19.5098 14.5596C19.8359 14.7863 20.1896 14.8996 20.571 14.8996C20.9524 14.8996 21.3061 14.7863 21.6322 14.5596C21.9583 14.3329 22.218 14.0196 22.4115 13.6196H23.7545C23.9038 13.6196 24.0419 13.5863 24.1691 13.5196C24.2962 13.4529 24.4067 13.3629 24.5007 13.2496C24.5946 13.1363 24.672 12.9996 24.7328 12.8396C24.7936 12.6796 24.8212 12.5129 24.8157 12.3396V9.77961C24.8157 9.24628 24.7328 8.74628 24.567 8.27961C24.4012 7.81294 24.1746 7.40628 23.8872 7.05961C23.5998 6.71294 23.2626 6.43961 22.8757 6.23961C22.4889 6.03961 22.0743 5.93961 21.6322 5.93961H21.3254L18.6061 2.65961C18.4569 2.47961 18.2856 2.34294 18.0921 2.24961C17.8987 2.15628 17.6942 2.10628 17.4786 2.09961H9.95918V3.37961H10.1996L8.07724 9.00961ZM14.2039 3.37961V5.93961H10.3986L11.2193 3.74961C11.2635 3.63628 11.3299 3.54628 11.4183 3.47961C11.5067 3.41294 11.6035 3.37961 11.7085 3.37961H14.2039ZM17.4786 3.37961C17.6223 3.37961 17.7467 3.44294 17.8517 3.56961L19.8166 5.93961H15.2651V3.37961H17.4786ZM20.571 13.6196C20.4218 13.6196 20.2836 13.5863 20.1565 13.5196C20.0293 13.4529 19.9188 13.3629 19.8248 13.2496C19.7309 13.1363 19.6535 12.9996 19.5927 12.8396C19.5319 12.6796 19.5043 12.5129 19.5098 12.3396C19.5098 12.1596 19.5374 11.9929 19.5927 11.8396C19.648 11.6863 19.7226 11.5529 19.8166 11.4396C19.9105 11.3263 20.0238 11.2329 20.1565 11.1596C20.2891 11.0863 20.4273 11.0529 20.571 11.0596C20.7202 11.0596 20.8584 11.0929 20.9855 11.1596C21.1126 11.2263 21.2232 11.3163 21.3171 11.4296C21.4111 11.5429 21.4885 11.6796 21.5493 11.8396C21.6101 11.9996 21.6377 12.1663 21.6322 12.3396C21.6322 12.5196 21.6045 12.6863 21.5493 12.8396C21.494 12.9929 21.4194 13.1263 21.3254 13.2396C21.2315 13.3529 21.1182 13.4463 20.9855 13.5196C20.8529 13.5929 20.7147 13.6263 20.571 13.6196ZM20.571 9.77961C20.2781 9.77961 20.0045 9.84628 19.7502 9.97961C19.496 10.1129 19.2694 10.2963 19.0704 10.5296C18.8714 10.7629 18.7195 11.0329 18.6144 11.3396C18.5094 11.6463 18.4542 11.9796 18.4486 12.3396H15.2651V7.21961H21.6322C21.9251 7.21961 22.1987 7.28628 22.4529 7.41961C22.7072 7.55294 22.9338 7.73628 23.1327 7.96961C23.3317 8.20294 23.4837 8.47294 23.5887 8.77961C23.6937 9.08628 23.749 9.41961 23.7545 9.77961V12.3396H22.6934C22.6934 11.9863 22.6381 11.6563 22.5275 11.3496C22.417 11.0429 22.265 10.7696 22.0716 10.5296C21.8781 10.2896 21.6543 10.1063 21.4 9.97961C21.1458 9.85294 20.8694 9.78628 20.571 9.77961ZM11.0204 13.6196C10.8711 13.6196 10.733 13.5863 10.6058 13.5196C10.4787 13.4529 10.3682 13.3629 10.2742 13.2496C10.1803 13.1363 10.1029 12.9996 10.0421 12.8396C9.98128 12.6796 9.95365 12.5129 9.95918 12.3396C9.95918 12.1596 9.98681 11.9929 10.0421 11.8396C10.0974 11.6863 10.172 11.5529 10.2659 11.4396C10.3599 11.3263 10.4732 11.2329 10.6058 11.1596C10.7385 11.0863 10.8767 11.0529 11.0204 11.0596C11.1696 11.0596 11.3078 11.0929 11.4349 11.1596C11.562 11.2263 11.6725 11.3163 11.7665 11.4296C11.8605 11.5429 11.9378 11.6796 11.9986 11.8396C12.0594 11.9996 12.0871 12.1663 12.0815 12.3396C12.0815 12.5196 12.0539 12.6863 11.9986 12.8396C11.9434 12.9929 11.8688 13.1263 11.7748 13.2396C11.6808 13.3529 11.5675 13.4463 11.4349 13.5196C11.3022 13.5929 11.1641 13.6263 11.0204 13.6196ZM8.898 10.3396C8.898 10.0663 8.94497 9.79961 9.03893 9.53961L9.91772 7.21961H14.2039V12.3396H13.1427C13.1427 11.9863 13.0875 11.6563 12.9769 11.3496C12.8664 11.0429 12.7144 10.7696 12.5209 10.5296C12.3275 10.2896 12.1036 10.1063 11.8494 9.97961C11.5952 9.85294 11.3188 9.78628 11.0204 9.77961C10.7882 9.77961 10.5644 9.82294 10.3488 9.90961C10.1333 9.99628 9.93707 10.1196 9.76021 10.2796C9.58334 10.4396 9.42859 10.6296 9.29594 10.8496C9.16329 11.0696 9.06104 11.3163 8.98919 11.5896C8.92839 11.4096 8.898 11.2329 8.898 11.0596V10.3396Z" fill="black"/>
<path d="M8.07724 26.6102C7.91696 27.0369 7.83682 27.4802 7.83682 27.9402V28.6602C7.83682 29.1669 7.95012 29.6302 8.17672 30.0502C8.40333 30.4702 8.70731 30.7835 9.08868 30.9902C9.26001 31.4502 9.51978 31.8169 9.86798 32.0902C10.2162 32.3635 10.6003 32.5002 11.0204 32.5002C11.4017 32.5002 11.7554 32.3869 12.0815 32.1602C12.4076 31.9335 12.6674 31.6202 12.8608 31.2202H18.7305C18.9239 31.6202 19.1837 31.9335 19.5098 32.1602C19.8359 32.3869 20.1896 32.5002 20.571 32.5002C20.9524 32.5002 21.3061 32.3869 21.6322 32.1602C21.9583 31.9335 22.218 31.6202 22.4115 31.2202H23.7545C23.9038 31.2202 24.0419 31.1869 24.1691 31.1202C24.2962 31.0535 24.4067 30.9635 24.5007 30.8502C24.5946 30.7369 24.672 30.6002 24.7328 30.4402C24.7936 30.2802 24.8212 30.1135 24.8157 29.9402V27.3802C24.8157 26.8469 24.7328 26.3469 24.567 25.8802C24.4012 25.4135 24.1746 25.0069 23.8872 24.6602C23.5998 24.3135 23.2626 24.0402 22.8757 23.8402C22.4889 23.6402 22.0743 23.5402 21.6322 23.5402H21.3254L18.6061 20.2602C18.4569 20.0802 18.2856 19.9435 18.0921 19.8502C17.8987 19.7569 17.6942 19.7069 17.4786 19.7002H9.95918V20.9802H10.1996L8.07724 26.6102ZM14.2039 20.9802V23.5402H10.3986L11.2193 21.3502C11.2635 21.2369 11.3299 21.1469 11.4183 21.0802C11.5067 21.0135 11.6035 20.9802 11.7085 20.9802H14.2039ZM17.4786 20.9802C17.6223 20.9802 17.7467 21.0435 17.8517 21.1702L19.8166 23.5402H15.2651V20.9802H17.4786ZM20.571 31.2202C20.4218 31.2202 20.2836 31.1869 20.1565 31.1202C20.0293 31.0535 19.9188 30.9635 19.8248 30.8502C19.7309 30.7369 19.6535 30.6002 19.5927 30.4402C19.5319 30.2802 19.5043 30.1135 19.5098 29.9402C19.5098 29.7602 19.5374 29.5935 19.5927 29.4402C19.648 29.2869 19.7226 29.1535 19.8166 29.0402C19.9105 28.9269 20.0238 28.8335 20.1565 28.7602C20.2891 28.6869 20.4273 28.6535 20.571 28.6602C20.7202 28.6602 20.8584 28.6935 20.9855 28.7602C21.1126 28.8269 21.2232 28.9169 21.3171 29.0302C21.4111 29.1435 21.4885 29.2802 21.5493 29.4402C21.6101 29.6002 21.6377 29.7669 21.6322 29.9402C21.6322 30.1202 21.6045 30.2869 21.5493 30.4402C21.494 30.5935 21.4194 30.7269 21.3254 30.8402C21.2315 30.9535 21.1182 31.0469 20.9855 31.1202C20.8529 31.1935 20.7147 31.2269 20.571 31.2202ZM20.571 27.3802C20.2781 27.3802 20.0045 27.4469 19.7502 27.5802C19.496 27.7135 19.2694 27.8969 19.0704 28.1302C18.8714 28.3635 18.7195 28.6335 18.6144 28.9402C18.5094 29.2469 18.4542 29.5802 18.4486 29.9402H15.2651V24.8202H21.6322C21.9251 24.8202 22.1987 24.8869 22.4529 25.0202C22.7072 25.1535 22.9338 25.3369 23.1327 25.5702C23.3317 25.8035 23.4837 26.0735 23.5887 26.3802C23.6937 26.6869 23.749 27.0202 23.7545 27.3802V29.9402H22.6934C22.6934 29.5869 22.6381 29.2569 22.5275 28.9502C22.417 28.6435 22.265 28.3702 22.0716 28.1302C21.8781 27.8902 21.6543 27.7069 21.4 27.5802C21.1458 27.4535 20.8694 27.3869 20.571 27.3802ZM11.0204 31.2202C10.8711 31.2202 10.733 31.1869 10.6058 31.1202C10.4787 31.0535 10.3682 30.9635 10.2742 30.8502C10.1803 30.7369 10.1029 30.6002 10.0421 30.4402C9.98128 30.2802 9.95365 30.1135 9.95918 29.9402C9.95918 29.7602 9.98681 29.5935 10.0421 29.4402C10.0974 29.2869 10.172 29.1535 10.2659 29.0402C10.3599 28.9269 10.4732 28.8335 10.6058 28.7602C10.7385 28.6869 10.8767 28.6535 11.0204 28.6602C11.1696 28.6602 11.3078 28.6935 11.4349 28.7602C11.562 28.8269 11.6725 28.9169 11.7665 29.0302C11.8605 29.1435 11.9378 29.2802 11.9986 29.4402C12.0594 29.6002 12.0871 29.7669 12.0815 29.9402C12.0815 30.1202 12.0539 30.2869 11.9986 30.4402C11.9434 30.5935 11.8688 30.7269 11.7748 30.8402C11.6808 30.9535 11.5675 31.0469 11.4349 31.1202C11.3022 31.1935 11.1641 31.2269 11.0204 31.2202ZM8.898 27.9402C8.898 27.6669 8.94497 27.4002 9.03893 27.1402L9.91772 24.8202H14.2039V29.9402H13.1427C13.1427 29.5869 13.0875 29.2569 12.9769 28.9502C12.8664 28.6435 12.7144 28.3702 12.5209 28.1302C12.3275 27.8902 12.1036 27.7069 11.8494 27.5802C11.5952 27.4535 11.3188 27.3869 11.0204 27.3802C10.7882 27.3802 10.5644 27.4235 10.3488 27.5102C10.1333 27.5969 9.93707 27.7202 9.76021 27.8802C9.58334 28.0402 9.42859 28.2302 9.29594 28.4502C9.16329 28.6702 9.06104 28.9169 8.98919 29.1902C8.92839 29.0102 8.898 28.8335 8.898 28.6602V27.9402Z" fill="black"/>
<path d="M6.53125 15.7002H26.1231" stroke="black"/>
<path d="M30.0391 15.7002H31.9982" stroke="black"/>
<path d="M0 15.7002H1.95918" stroke="black"/>
</svg>
