<svg width="32" height="32" viewBox="0 0 32 32" fill="none" xmlns="http://www.w3.org/2000/svg">
<path d="M27.0769 27.0769V23.3846C27.0769 22.6954 27.6185 22.1538 28.3077 22.1538H30.7692C31.4585 22.1538 32 22.6954 32 23.3846V30.7692C32 31.4585 31.4585 32 30.7692 32H1.23077C0.541538 32 0 31.4585 0 30.7692V23.3846C0 22.6954 0.541538 22.1538 1.23077 22.1538H3.69231C4.38154 22.1538 4.92308 22.6954 4.92308 23.3846V27.0769H27.0769ZM14.7692 11.0769L11.4708 9.42769C10.2446 8.81555 9.21299 7.87428 8.49134 6.70921C7.76969 5.54414 7.38649 4.20123 7.38462 2.83077V0C11.3231 1.30462 14.4492 4.25846 16 8.02462C17.5508 4.25846 20.6769 1.30462 24.6154 0V2.83077C24.6135 4.20123 24.2303 5.54414 23.5087 6.70921C22.787 7.87428 21.7554 8.81555 20.5292 9.42769L17.2308 11.0769V17.1323C19.5689 13.6355 23.0494 11.0599 27.0769 9.84615C27.0775 12.6835 26.0978 15.4338 24.3035 17.6318C22.5093 19.8297 20.0107 21.3402 17.2308 21.9077V25.8462H14.7692V21.9077C11.9893 21.3402 9.49072 19.8297 7.69648 17.6318C5.90224 15.4338 4.9225 12.6835 4.92308 9.84615C8.95059 11.0599 12.4311 13.6355 14.7692 17.1323V11.0769Z" fill="black"/>
</svg>
