<svg width="33" height="32" viewBox="0 0 33 32" fill="none" xmlns="http://www.w3.org/2000/svg">
<path d="M16.9414 20.4106H32.0002M16.9414 12.7998H32.0002M18.1963 20.4106V12.7998H30.7453V20.4106C30.7453 21.6722 30.0843 22.8821 28.9076 23.7742C27.7309 24.6662 26.1349 25.1674 24.4708 25.1674C22.8067 25.1674 21.2108 24.6662 20.0341 23.7742C18.8574 22.8821 18.1963 21.6722 18.1963 20.4106ZM30.7453 20.4106H18.1963M18.1963 15.6539H21.3336M27.6081 24.6917L29.4904 30.3998H19.4512L21.3336 24.6917" stroke="black" stroke-width="2" stroke-linecap="round"/>
<path d="M11.2941 7.49569H0V19.7478H2.81131V32H8.45837V19.7478H11.2941V7.49569ZM6.16043 4.90511H5.03591C3.59358 4.90511 2.73797 4.16191 2.73797 2.93033V1.95355C2.73797 0.743198 3.59358 0 5.03591 0H6.45378C7.60275 0 8.45837 0.743198 8.45837 1.95355V3.18514C8.45837 4.16191 7.60275 4.90511 6.16043 4.90511Z" fill="black"/>
</svg>
