<svg width="33" height="33" viewBox="0 0 33 33" fill="none" xmlns="http://www.w3.org/2000/svg">
<path d="M2.91667 30.2908V32.25H0.25V0.25H2.91667V9.06633M2.91667 30.2908H29.9643M2.91667 30.2908V28.6582M29.9643 30.2908V28.6582M29.9643 30.2908V31.9235H32.25V0.576531H29.9643V9.06633M29.9643 28.6582H2.91667M29.9643 28.6582V20.4949M2.91667 28.6582V20.4949M29.9643 20.4949H2.91667M29.9643 20.4949V18.8622M2.91667 20.4949V18.8622M2.91667 18.8622H29.9643M2.91667 18.8622V10.699M29.9643 18.8622V10.699M29.9643 10.699H2.91667M29.9643 10.699V9.06633M2.91667 10.699V9.06633M2.91667 9.06633H5.20238M29.9643 9.06633H27.6786M27.6786 9.06633V1.55612H17.7738V9.06633M27.6786 9.06633H17.7738M17.7738 9.06633H14.7262M14.7262 9.06633V1.55612H5.20238V9.06633M14.7262 9.06633H5.20238" stroke="black" stroke-width="0.5"/>
<path d="M5.58203 19.1891V13.3115H27.6773V18.8625" stroke="black" stroke-width="0.5"/>
<path d="M6.34375 28.9847V22.4541H14.7247V28.3317" stroke="black" stroke-width="0.5"/>
<path d="M17.0117 28.3315V24.4131H27.6784V28.3315" stroke="black" stroke-width="0.5"/>
<path d="M8.25 1.55566V3.18832H11.2976V1.55566" stroke="black" stroke-width="0.5"/>
<path d="M21.2031 1.55566V3.18832H24.2507V1.55566" stroke="black" stroke-width="0.5"/>
<path d="M14.7266 13.3115V14.9442H17.7742V13.3115" stroke="black" stroke-width="0.5"/>
<path d="M9.01172 22.4541V24.0868H12.0593V22.4541" stroke="black" stroke-width="0.5"/>
<path d="M20.8164 24.4131V26.0457H23.864V24.4131" stroke="black" stroke-width="0.5"/>
</svg>
