<svg width="32" height="32" viewBox="0 0 32 32" fill="none" xmlns="http://www.w3.org/2000/svg">
<path d="M5.86667 8.47059C6.29101 8.47059 6.69798 8.32185 6.99804 8.05709C7.2981 7.79233 7.46667 7.43325 7.46667 7.05882C7.46667 6.6844 7.2981 6.32531 6.99804 6.06055C6.69798 5.7958 6.29101 5.64706 5.86667 5.64706C5.44232 5.64706 5.03535 5.7958 4.7353 6.06055C4.43524 6.32531 4.26667 6.6844 4.26667 7.05882C4.26667 7.43325 4.43524 7.79233 4.7353 8.05709C5.03535 8.32185 5.44232 8.47059 5.86667 8.47059ZM7.46667 12.7059C7.46667 13.0803 7.2981 13.4394 6.99804 13.7042C6.69798 13.9689 6.29101 14.1176 5.86667 14.1176C5.44232 14.1176 5.03535 13.9689 4.7353 13.7042C4.43524 13.4394 4.26667 13.0803 4.26667 12.7059C4.26667 12.3315 4.43524 11.9724 4.7353 11.7076C5.03535 11.4429 5.44232 11.2941 5.86667 11.2941C6.29101 11.2941 6.69798 11.4429 6.99804 11.7076C7.2981 11.9724 7.46667 12.3315 7.46667 12.7059ZM5.86667 19.7647C6.07678 19.7647 6.28484 19.7282 6.47896 19.6572C6.67308 19.5863 6.84946 19.4823 6.99804 19.3512C7.14661 19.2201 7.26447 19.0645 7.34487 18.8932C7.42528 18.7219 7.46667 18.5383 7.46667 18.3529C7.46667 18.1675 7.42528 17.984 7.34487 17.8127C7.26447 17.6414 7.14661 17.4858 6.99804 17.3547C6.84946 17.2236 6.67308 17.1196 6.47896 17.0486C6.28484 16.9777 6.07678 16.9412 5.86667 16.9412C5.44232 16.9412 5.03535 17.0899 4.7353 17.3547C4.43524 17.6194 4.26667 17.9785 4.26667 18.3529C4.26667 18.7274 4.43524 19.0865 4.7353 19.3512C5.03535 19.616 5.44232 19.7647 5.86667 19.7647ZM13.8667 7.05882C13.8667 7.43325 13.6981 7.79233 13.398 8.05709C13.098 8.32185 12.691 8.47059 12.2667 8.47059C11.8423 8.47059 11.4354 8.32185 11.1353 8.05709C10.8352 7.79233 10.6667 7.43325 10.6667 7.05882C10.6667 6.6844 10.8352 6.32531 11.1353 6.06055C11.4354 5.7958 11.8423 5.64706 12.2667 5.64706C12.691 5.64706 13.098 5.7958 13.398 6.06055C13.6981 6.32531 13.8667 6.6844 13.8667 7.05882ZM12.2667 14.1176C12.691 14.1176 13.098 13.9689 13.398 13.7042C13.6981 13.4394 13.8667 13.0803 13.8667 12.7059C13.8667 12.3315 13.6981 11.9724 13.398 11.7076C13.098 11.4429 12.691 11.2941 12.2667 11.2941C11.8423 11.2941 11.4354 11.4429 11.1353 11.7076C10.8352 11.9724 10.6667 12.3315 10.6667 12.7059C10.6667 13.0803 10.8352 13.4394 11.1353 13.7042C11.4354 13.9689 11.8423 14.1176 12.2667 14.1176ZM11.5371 19.6104C11.9407 18.7353 12.4807 17.9143 13.1413 17.1708C12.9594 17.0674 12.7556 16.9976 12.5423 16.9657C12.329 16.9338 12.1105 16.9404 11.9001 16.9851C11.6898 17.0298 11.4918 17.1117 11.3184 17.2258C11.1449 17.3399 10.9995 17.4839 10.8908 17.6491C10.7822 17.8142 10.7127 17.9971 10.6865 18.1866C10.6603 18.3761 10.678 18.5684 10.7384 18.7517C10.7988 18.935 10.9007 19.1057 11.038 19.2533C11.1753 19.4008 11.345 19.5223 11.5371 19.6104ZM7.46667 22.5882H10.7136C10.65 23.2144 10.65 23.8444 10.7136 24.4706H8.53333V28.2353H11.7333V27.8475C12.16 28.6682 12.7061 29.4287 13.3483 30.1176H1.06667C0.783769 30.1176 0.512458 30.0185 0.31242 29.842C0.112381 29.6655 0 29.4261 0 29.1765V2.82353C0 2.07468 0.337141 1.35651 0.937258 0.826993C1.53737 0.297478 2.35131 0 3.2 0H16C16.8487 0 17.6626 0.297478 18.2627 0.826993C18.8629 1.35651 19.2 2.07468 19.2 2.82353V11.2941H22.4C23.1374 11.2939 23.8523 11.5184 24.4237 11.9296C24.9951 12.3409 25.388 12.9136 25.536 13.5511C24.5146 13.3018 23.4597 13.1758 22.4 13.1765H18.1333C17.8504 13.1765 17.5791 13.0773 17.3791 12.9008C17.179 12.7243 17.0667 12.4849 17.0667 12.2353V2.82353C17.0667 2.57391 16.9543 2.33452 16.7542 2.15802C16.5542 1.98151 16.2829 1.88235 16 1.88235H3.2C2.9171 1.88235 2.64579 1.98151 2.44575 2.15802C2.24571 2.33452 2.13333 2.57391 2.13333 2.82353V28.2353H6.4V23.5294C6.4 23.2798 6.51238 23.0404 6.71242 22.8639C6.91246 22.6874 7.18377 22.5882 7.46667 22.5882ZM32 23.5294C32 25.776 30.9886 27.9305 29.1882 29.519C27.3879 31.1076 24.9461 32 22.4 32C19.8539 32 17.4121 31.1076 15.6118 29.519C13.8114 27.9305 12.8 25.776 12.8 23.5294C12.8 21.2829 13.8114 19.1283 15.6118 17.5398C17.4121 15.9513 19.8539 15.0588 22.4 15.0588C24.9461 15.0588 27.3879 15.9513 29.1882 17.5398C30.9886 19.1283 32 21.2829 32 23.5294ZM27.4219 20.0395C27.3228 19.9519 27.2051 19.8823 27.0755 19.8349C26.9459 19.7874 26.807 19.763 26.6667 19.763C26.5264 19.763 26.3874 19.7874 26.2579 19.8349C26.1283 19.8823 26.0106 19.9519 25.9115 20.0395L20.2667 25.0221L18.8885 23.8042C18.6882 23.6275 18.4166 23.5282 18.1333 23.5282C17.8501 23.5282 17.5784 23.6275 17.3781 23.8042C17.1778 23.981 17.0653 24.2207 17.0653 24.4706C17.0653 24.7205 17.1778 24.9602 17.3781 25.1369L19.5115 27.0193C19.6106 27.1069 19.7283 27.1765 19.8579 27.2239C19.9874 27.2714 20.1264 27.2958 20.2667 27.2958C20.407 27.2958 20.5459 27.2714 20.6755 27.2239C20.8051 27.1765 20.9228 27.1069 21.0219 27.0193L27.4219 21.3722C27.5212 21.2848 27.6 21.1809 27.6538 21.0666C27.7076 20.9523 27.7352 20.8297 27.7352 20.7059C27.7352 20.5821 27.7076 20.4595 27.6538 20.3452C27.6 20.2308 27.5212 20.127 27.4219 20.0395Z" fill="black"/>
</svg>
