<svg width="32" height="32" viewBox="0 0 32 32" fill="none" xmlns="http://www.w3.org/2000/svg">
<path d="M20.1466 6.16772V8.11629M20.1451 3.80343C20.1217 3.80343 20.0986 3.7988 20.077 3.78981C20.0554 3.78082 20.0358 3.76764 20.0194 3.75104C20.0029 3.73444 19.9899 3.71475 19.9811 3.69309C19.9722 3.67143 19.9678 3.64824 19.968 3.62486C19.968 3.52486 20.048 3.44629 20.1451 3.44629M20.148 3.80343C20.1951 3.80306 20.2402 3.78408 20.2733 3.75063C20.3065 3.71718 20.3251 3.67197 20.3251 3.62486C20.3253 3.60148 20.3209 3.57829 20.3121 3.55663C20.3032 3.53498 20.2902 3.51528 20.2738 3.49868C20.2573 3.48208 20.2377 3.4689 20.2161 3.45991C20.1945 3.45092 20.1714 3.44629 20.148 3.44629M7.22656 18.3777H24.3794M8.84371 9.75629C8.84371 10.1201 8.91535 10.4803 9.05456 10.8163C9.19376 11.1524 9.3978 11.4578 9.65502 11.715C9.91224 11.9722 10.2176 12.1762 10.5537 12.3154C10.8897 12.4546 11.2499 12.5263 11.6137 12.5263C11.9775 12.5263 12.3377 12.4546 12.6737 12.3154C13.0098 12.1762 13.3152 11.9722 13.5724 11.715C13.8296 11.4578 14.0336 11.1524 14.1729 10.8163C14.3121 10.4803 14.3837 10.1201 14.3837 9.75629C14.3837 9.39253 14.3121 9.03233 14.1729 8.69626C14.0336 8.36018 13.8296 8.05482 13.5724 7.7976C13.3152 7.54039 13.0098 7.33635 12.6737 7.19714C12.3377 7.05794 11.9775 6.98629 11.6137 6.98629C11.2499 6.98629 10.8897 7.05794 10.5537 7.19714C10.2176 7.33635 9.91224 7.54039 9.65502 7.7976C9.3978 8.05482 9.19376 8.36018 9.05456 8.69626C8.91535 9.03233 8.84371 9.39253 8.84371 9.75629Z" stroke="black" stroke-linecap="round" stroke-linejoin="round"/>
<path d="M7.22266 18.3789V16.9161C7.22266 15.752 7.6851 14.6355 8.50825 13.8124C9.3314 12.9892 10.4478 12.5268 11.6119 12.5268C12.7761 12.5268 13.8925 12.9892 14.7156 13.8124C15.5388 14.6355 16.0012 15.752 16.0012 16.9161V18.3789M16.5641 9.59464C17.3942 10.407 18.4778 10.9101 19.6341 11.0201C20.7903 11.1302 21.9493 10.8404 22.9178 10.1992C23.8863 9.55804 24.6056 8.60419 24.9558 7.49677C25.3061 6.38935 25.266 5.19533 24.8423 4.11388C24.4187 3.03242 23.637 2.12893 22.6278 1.55409C21.6185 0.979254 20.4427 0.767839 19.2964 0.955109C18.1501 1.14238 17.1027 1.71701 16.3289 2.58316C15.555 3.4493 15.1015 4.55458 15.0441 5.71464" stroke="black" stroke-linecap="round" stroke-linejoin="round"/>
<rect y="19.4785" width="32" height="12.5217" rx="0.5" fill="black"/>
</svg>
