<svg width="34" height="33" viewBox="0 0 34 33" fill="none" xmlns="http://www.w3.org/2000/svg">
<path d="M15.9881 19.95C15.8635 19.138 15.6835 18.3307 15.4487 17.5308C15.1553 16.5244 13.9668 15.7959 12.5024 15.7356C11.6335 15.7002 10.7633 15.6828 9.8929 15.6833C8.8872 15.6833 8.00949 15.7052 7.2834 15.7356C5.81903 15.7959 4.63047 16.5249 4.33714 17.5308C4.13904 18.2081 3.93333 19.046 3.79771 19.95M32.6783 20.8396C32.5564 20.2839 31.8181 20.0119 31.0158 20.0023C29.1789 19.982 25.0303 19.95 16.75 19.95C8.46968 19.95 4.3219 19.982 2.48496 20.0028C1.68192 20.0119 0.943639 20.2844 0.821736 20.8401C0.772046 21.0787 0.748105 21.3196 0.750117 21.5607C0.750117 21.8412 0.777545 22.0753 0.818688 22.27C0.940592 22.8332 1.68954 23.1073 2.50325 23.1137C4.35009 23.1287 8.49863 23.15 16.75 23.15C25.0014 23.15 29.1507 23.1287 30.9967 23.1143C31.8105 23.1079 32.5594 22.8337 32.6805 22.2705C32.7224 22.0764 32.7499 21.8423 32.7499 21.5612C32.752 21.3197 32.728 21.0785 32.6783 20.8396ZM15.9881 6.61667C15.9881 8.1726 16.8711 9.66481 18.4428 10.765C20.0145 11.8652 22.1462 12.4833 24.369 12.4833C26.5917 12.4833 28.7234 11.8652 30.2952 10.765C31.8669 9.66481 32.7499 8.1726 32.7499 6.61667C32.7499 5.06073 31.8669 3.56852 30.2952 2.46831C28.7234 1.36809 26.5917 0.75 24.369 0.75C22.1462 0.75 20.0145 1.36809 18.4428 2.46831C16.8711 3.56852 15.9881 5.06073 15.9881 6.61667Z" stroke="black" stroke-width="1.5" stroke-linecap="round" stroke-linejoin="round"/>
<path d="M6.65924 14.7459C5.80194 14.1458 5.32031 13.3319 5.32031 12.4832C5.32031 11.6345 5.80194 10.8206 6.65924 10.2205C7.51655 9.62034 8.6793 9.2832 9.89171 9.2832C11.1041 9.2832 12.2669 9.62034 13.1242 10.2205C13.9815 10.8206 14.4631 11.6345 14.4631 12.4832C14.4631 13.3319 13.9815 14.1458 13.1242 14.7459C12.2669 15.3461 11.1041 15.6832 9.89171 15.6832C8.6793 15.6832 7.51655 15.3461 6.65924 14.7459Z" stroke="black" stroke-width="1.5" stroke-linecap="round" stroke-linejoin="round"/>
<path d="M31.2256 32.7504V23.1504H2.27344V32.7504H5.49034V30.6171H28.0087V32.7504H31.2256Z" fill="black"/>
<path d="M23.6389 7.65909H24.8611V8.88636H26.6944V6.84091H27.9167L24.25 4.79545L20.5833 6.84091H21.8056V8.88636H23.6389V7.65909ZM24.25 2.75L29.75 4.38636V6.84091C29.75 9.11136 27.4033 11.2345 24.25 11.75C21.0967 11.2345 18.75 9.11136 18.75 6.84091V4.38636L24.25 2.75Z" fill="black"/>
</svg>
