<svg width="32" height="32" viewBox="0 0 32 32" fill="none" xmlns="http://www.w3.org/2000/svg">
<path d="M22.0952 11.7895H25.1429C25.7778 11.7895 26.3177 11.5441 26.7627 11.0535C27.2076 10.5628 27.4296 9.96603 27.4286 9.26316V7.57895C27.4286 6.87719 27.2066 6.28098 26.7627 5.79031C26.3187 5.29965 25.7788 5.05375 25.1429 5.05263H21.3333C20.9016 5.05263 20.5399 5.21431 20.2484 5.53768C19.9568 5.86105 19.8105 6.26077 19.8095 6.73684V13.8947C19.8095 14.2596 19.9177 14.5617 20.1341 14.8008C20.3505 15.04 20.6232 15.159 20.9524 15.1579C21.2815 15.1568 21.5548 15.0372 21.7722 14.7992C21.9896 14.5611 22.0973 14.2596 22.0952 13.8947V11.7895ZM22.0952 9.26316V7.57895H25.1429V9.26316H22.0952ZM16.7619 20.2105C15.9238 20.2105 15.2066 19.881 14.6103 19.2219C14.014 18.5628 13.7153 17.7695 13.7143 16.8421V3.36842C13.7143 2.4421 14.013 1.6494 14.6103 0.990316C15.2076 0.331228 15.9248 0.00112281 16.7619 0H28.9524C29.7905 0 30.5082 0.330105 31.1055 0.990316C31.7029 1.65053 32.001 2.44323 32 3.36842V16.8421C32 17.7684 31.7018 18.5617 31.1055 19.2219C30.5092 19.8821 29.7915 20.2116 28.9524 20.2105H24.381V30.3158C24.381 30.793 24.2347 31.1933 23.9421 31.5166C23.6495 31.84 23.2879 32.0011 22.8571 32C22.4264 31.9989 22.0648 31.8372 21.7722 31.5149C21.4796 31.1927 21.3333 30.793 21.3333 30.3158V20.2105H16.7619ZM16.7619 16.8421H28.9524V3.36842H16.7619V16.8421ZM9.14286 32C8.71111 32 8.34946 31.8383 8.05791 31.5149C7.76635 31.1916 7.62007 30.7919 7.61905 30.3158V28.6316H1.52381C1.09207 28.6316 0.730418 28.4699 0.438862 28.1465C0.147307 27.8232 0.00102113 27.4234 5.25451e-06 26.9474C-0.00101062 26.4713 0.145275 26.0716 0.438862 25.7482C0.73245 25.4248 1.0941 25.2632 1.52381 25.2632H9.14286V16.8421H1.52381C1.09207 16.8421 0.730418 16.6804 0.438862 16.357C0.147307 16.0337 0.00102113 15.634 5.25451e-06 15.1579C-0.00101062 14.6818 0.145275 14.2821 0.438862 13.9587C0.73245 13.6354 1.0941 13.4737 1.52381 13.4737H7.92381L6.32381 8.42105H1.52381C1.09207 8.42105 0.730418 8.25937 0.438862 7.936C0.147307 7.61263 0.00102113 7.21291 5.25451e-06 6.73684C-0.00101062 6.26077 0.145275 5.86105 0.438862 5.53768C0.73245 5.21431 1.0941 5.05263 1.52381 5.05263H6.85715C7.33969 5.05263 7.77803 5.20702 8.17219 5.51579C8.56635 5.82456 8.83911 6.23158 8.99048 6.73684L12.0381 16.2947C12.0889 16.4632 12.127 16.6456 12.1524 16.8421C12.1778 17.0386 12.1905 17.2351 12.1905 17.4316V30.3158C12.1905 30.793 12.0442 31.1933 11.7516 31.5166C11.459 31.84 11.0974 32.0011 10.6667 32H9.14286ZM5.33334 23.5789C5.96826 23.5789 6.50819 23.3336 6.95315 22.8429C7.3981 22.3523 7.62007 21.7555 7.61905 21.0526C7.61803 20.3498 7.39607 19.7535 6.95315 19.264C6.51023 18.7745 5.97029 18.5286 5.33334 18.5263C4.69638 18.5241 4.15696 18.77 3.71505 19.264C3.27315 19.758 3.05067 20.3542 3.04762 21.0526C3.04458 21.751 3.26705 22.3478 3.71505 22.8429C4.16305 23.3381 4.70248 23.5834 5.33334 23.5789Z" fill="black"/>
</svg>
