<svg width="34" height="34" viewBox="0 0 34 34" fill="none" xmlns="http://www.w3.org/2000/svg">
<path d="M11.15 8.75V32.75M11.15 20.75H32.75M32.75 8.75H0.75M0.75 0.75H32.75V32.75H0.75V0.75Z" stroke="black" stroke-width="1.5"/>
<path d="M8.53682 23.1498L3.94922 13.9782L4.16312 13.5498L8.74922 22.722L8.53682 23.1498ZM5.65082 23.1498L3.94922 19.7472L4.16342 19.3188L5.86442 22.7214L5.65082 23.1498Z" fill="black"/>
<path d="M11.9484 10.7036L30.2916 18.3496L31.1484 17.9931L12.804 10.3496L11.9484 10.7036ZM11.9484 15.5136L18.7536 18.3496L19.6104 17.9926L12.8052 15.1576L11.9484 15.5136Z" fill="black"/>
<path d="M31.1492 30.7964L12.806 23.1504L11.9492 23.5069L30.2936 31.1504L31.1492 30.7964ZM31.1492 25.9864L24.344 23.1504L23.4872 23.5074L30.2924 26.3424L31.1492 25.9864Z" fill="black"/>
<rect x="0.75" y="0.75" width="32" height="8" fill="black"/>
</svg>
