<svg width="31" height="33" viewBox="0 0 31 33" fill="none" xmlns="http://www.w3.org/2000/svg">
<path d="M4.25 25.9118H1.5C0.947715 25.9118 0.5 25.464 0.5 24.9118V1.5C0.5 0.947716 0.947715 0.5 1.5 0.5H29.5C30.0523 0.5 30.5 0.947715 30.5 1.5V24.9118C30.5 25.464 30.0523 25.9118 29.5 25.9118H26.75M4.25 25.9118V27.7353C4.25 28.2876 4.69772 28.7353 5.25 28.7353H5.5M4.25 25.9118H26.75M26.75 25.9118V27.7353C26.75 28.2876 26.3023 28.7353 25.75 28.7353H25.5M25.5 28.7353V31.5C25.5 32.0523 25.0523 32.5 24.5 32.5H22.75C22.1977 32.5 21.75 32.0523 21.75 31.5V28.7353M25.5 28.7353H21.75M21.75 28.7353H19.875M19.875 28.7353V31.5C19.875 32.0523 19.4273 32.5 18.875 32.5H17.75C17.1977 32.5 16.75 32.0523 16.75 31.5V28.7353M19.875 28.7353H16.75M16.75 28.7353H14.25M14.25 28.7353V31.5C14.25 32.0523 13.8023 32.5 13.25 32.5H12.125C11.5727 32.5 11.125 32.0523 11.125 31.5V28.7353M14.25 28.7353H11.125M11.125 28.7353H8.625M8.625 28.7353V31.5C8.625 32.0523 8.17728 32.5 7.625 32.5H6.5C5.94772 32.5 5.5 32.0523 5.5 31.5V28.7353M8.625 28.7353H5.5" stroke="black"/>
<path d="M12.7956 18.3815L15.32 14.7188L10.5 14.2472L17.5313 8.96973H18.2288L15.6444 12.6418L20.5 13.1035L13.4688 18.381L12.7956 18.3815Z" fill="black"/>
<path d="M25.125 3.79395H5.875C5.32272 3.79395 4.875 4.24166 4.875 4.79394V6.08806C4.875 6.64035 5.32272 7.08806 5.875 7.08806H25.125C25.6773 7.08806 26.125 6.64035 26.125 6.08806V4.79395C26.125 4.24166 25.6773 3.79395 25.125 3.79395Z" stroke="black"/>
<path d="M25.5039 19.3242H5.50391V22.1477H25.5039V19.3242Z" stroke="black"/>
<path d="M9.87891 19.3242V22.1477" stroke="black"/>
<path d="M13.6289 19.3242V22.1477" stroke="black"/>
<path d="M17.375 19.3242V22.1477" stroke="black"/>
<path d="M21.125 19.3242V22.1477" stroke="black"/>
</svg>
