<svg width="32" height="32" viewBox="0 0 32 32" fill="none" xmlns="http://www.w3.org/2000/svg">
<path d="M9.69697 0.813559V4.0678H13.7374C14.5455 4.0678 14.5455 5.15254 14.5455 5.15254V26.8475C14.5455 26.8475 14.5455 27.9322 13.7374 27.9322H9.69697V31.1864C9.69697 32.2712 4.84849 32.2712 4.84849 31.1864V27.9322H0.808081C0 27.9322 0 26.8475 0 26.8475V5.15254C0 5.15254 0 4.0678 0.808081 4.0678H4.84849V0.813559C4.84849 -0.271186 9.69697 -0.271186 9.69697 0.813559ZM7.27273 8.40678C4.0404 8.40678 1.61616 11.661 1.61616 16C1.61616 20.339 4.0404 23.5932 7.27273 23.5932C10.5051 23.5932 12.9293 20.339 12.9293 16C12.9293 11.661 10.5051 8.40678 7.27273 8.40678Z" fill="black"/>
<path d="M20.8424 28.1598C23.2422 28.1598 25.1918 25.6875 25.1918 22.6449C25.1918 21.0393 24.6671 19.6338 23.6755 18.4934C23.4921 18.2816 23.4505 18.1657 23.4505 17.8488L23.4587 14.7215L26.017 12.8094L25.9921 16.465L24.5835 17.5C24.3503 17.669 24.2504 17.9647 24.3756 18.2608C24.5003 18.525 24.7588 18.5777 24.9753 18.4299L25.9836 17.6902L25.9754 19.3174C25.9754 19.6762 26.1418 19.9512 26.4252 19.9512C26.7085 19.9512 26.8838 19.6658 26.8838 19.3169L26.8667 17.7005L27.8668 18.4299C28.0837 18.5881 28.3418 18.5245 28.4584 18.2608C28.5917 17.9647 28.4918 17.6794 28.2582 17.5L26.8585 16.4646L26.8418 12.809L29.3081 14.6476V16.7075C29.3081 17.0352 29.4666 17.289 29.7248 17.2994C29.9665 17.2994 30.1333 17.0352 30.1333 16.7395L30.1414 15.271L31.2578 16.095C31.5081 16.2852 31.7911 16.2324 31.9333 15.9363C32.0748 15.6298 31.9663 15.2917 31.7164 15.1123L30.5748 14.2991L31.5831 13.5595C31.7999 13.4008 31.8831 13.0839 31.7665 12.8202C31.6414 12.5344 31.3829 12.4822 31.1497 12.6616L29.7333 13.6861L27.2585 11.9011L29.7582 10.1049L31.1746 11.1403C31.3996 11.2985 31.6496 11.2566 31.7914 10.9712C31.908 10.7071 31.8163 10.3898 31.608 10.2424L30.5997 9.49185L31.7246 8.68951C31.983 8.50921 32.0748 8.18196 31.9329 7.86508C31.7996 7.56939 31.5162 7.50583 31.2915 7.67486L30.1581 8.52003V7.06229C30.1581 6.73459 29.9914 6.49163 29.75 6.49163C29.4834 6.49163 29.3333 6.73504 29.3333 7.09384L29.3248 9.14342L26.8418 10.9924L26.8585 7.31561L28.2664 6.28068C28.5 6.10083 28.5917 5.80513 28.4666 5.51981C28.35 5.25566 28.0918 5.19211 27.875 5.35077L26.8667 6.07964L26.8834 4.48442C26.8834 4.12517 26.7085 3.83984 26.4252 3.83984C26.1503 3.83984 25.9754 4.12517 25.9754 4.48442L25.9836 6.08009L24.9835 5.35077C24.7588 5.19211 24.5085 5.25611 24.3837 5.51981C24.2586 5.80513 24.3503 6.10128 24.5835 6.28068L25.9918 7.31561L26.0167 10.9924L23.4672 9.07986V8.36181C23.4672 6.15357 22.4088 4.68501 20.8424 4.68501C19.2674 4.68501 18.2094 6.15357 18.2094 8.36181L18.2175 17.8488C18.2175 18.1657 18.176 18.2816 18.0007 18.4934C17.0009 19.6338 16.4844 21.0393 16.4844 22.6449C16.4844 25.6875 18.4259 28.1598 20.8424 28.1598ZM20.8424 26.6277C19.1092 26.6277 17.701 24.8319 17.701 22.6449C17.701 21.3242 18.1927 20.1306 19.0758 19.3805C19.3342 19.1587 19.4341 18.9581 19.4341 18.525V8.42492C19.4341 7.0411 20.009 6.15357 20.842 6.15357C21.6672 6.15357 22.2339 7.0411 22.2339 8.42537V18.525C22.2339 18.9577 22.3338 19.1587 22.5923 19.3805C23.4754 20.1306 23.9671 21.3246 23.9671 22.6449C23.9671 24.8319 22.5674 26.6277 20.842 26.6277M25.6 11.9007L23.4583 13.422V10.369L25.6 11.9007ZM20.8338 25.2015C21.0994 25.2018 21.3624 25.1356 21.6077 25.0065C21.853 24.8775 22.0758 24.6883 22.2632 24.4497C22.4506 24.2111 22.5989 23.928 22.6997 23.6164C22.8005 23.3049 22.8517 22.9712 22.8504 22.6345C22.8504 21.6415 22.4088 20.8279 21.7671 20.3843C21.5004 20.2045 21.4091 20.0778 21.4091 19.5599V17.4896C21.4091 16.9401 21.1591 16.6021 20.8342 16.6021C20.5174 16.6021 20.259 16.9401 20.259 17.4896V19.5599C20.259 20.0778 20.1672 20.2045 19.901 20.3843C19.2592 20.8279 18.8177 21.6415 18.8177 22.6345C18.8164 22.9712 18.8676 23.3048 18.9683 23.6163C19.0691 23.9278 19.2174 24.211 19.4047 24.4496C19.5921 24.6881 19.8148 24.8774 20.0601 25.0064C20.3053 25.1355 20.5683 25.2018 20.8338 25.2015Z" fill="black"/>
<path d="M4.80151 19.2177H10.0151C10.884 19.2177 10.884 21.7602 10.0151 21.7602H4.80151C3.93257 21.7602 3.93257 19.2177 4.80151 19.2177ZM3.93257 10.3188C3.49811 10.9544 5.84422 14.3868 5.84422 14.3868C5.84422 14.3868 5.67044 14.8953 5.67044 15.4039C5.67044 16.6751 6.33082 17.9464 7.4083 17.9464C8.50315 17.9464 9.14616 16.6751 9.14616 15.4039C9.14616 14.1326 8.50315 12.8613 7.4083 12.8613C6.88694 12.8613 6.71315 13.1156 6.71315 13.1156C6.71315 13.1156 4.36704 9.68312 3.93257 10.3188Z" fill="black"/>
</svg>
