<svg width="34" height="34" viewBox="0 0 34 34" fill="none" xmlns="http://www.w3.org/2000/svg">
<path d="M32.75 6.56818H0.75M0.75 6.56818L6.56818 0.75H26.9318L32.75 6.56818V15.2955H0.75V6.56818ZM28.3864 9.47727V12.3864M25.4773 9.47727V12.3864M22.5682 9.47727V12.3864" stroke="black" stroke-width="1.5" stroke-miterlimit="10" stroke-linecap="round" stroke-linejoin="round"/>
<path d="M28.3864 18.2042V21.1133M25.4773 18.2042V21.1133M22.5682 18.2042V21.1133M6.93182 9.11328L5.11364 10.9315L6.93182 12.7496L8.75 10.9315L6.93182 9.11328ZM32.75 15.2951H0.75V24.0224H32.75V15.2951Z" stroke="black" stroke-width="1.5" stroke-miterlimit="10" stroke-linecap="round" stroke-linejoin="round"/>
<path d="M28.3864 26.9317V29.8408M25.4773 26.9317V29.8408M22.5682 26.9317V29.8408M6.93182 17.8408L5.11364 19.659L6.93182 21.4772L8.75 19.659L6.93182 17.8408ZM32.75 24.0226H0.75V32.7499H32.75V24.0226Z" stroke="black" stroke-width="1.5" stroke-miterlimit="10" stroke-linecap="round" stroke-linejoin="round"/>
<path d="M6.93146 26.5684L5.11328 28.3865L6.93146 30.2047L8.74964 28.3865L6.93146 26.5684Z" stroke="black" stroke-width="1.5" stroke-miterlimit="10" stroke-linecap="round" stroke-linejoin="round"/>
</svg>
