<svg width="32" height="32" viewBox="0 0 32 32" fill="none" xmlns="http://www.w3.org/2000/svg">
<path d="M32 29.4042V15.0967C32 13.6531 30.1262 12.484 27.7365 12.484H4.27185C1.80105 12.484 0.00668865 13.669 0.00668865 15.0961L0 15.0967V29.4042C0 30.8636 1.93483 31.9995 4.27101 32H27.7633C30.0978 32 32.0042 30.93 32 29.4083V29.4047V29.4042ZM27.5776 29.2877H4.42236V15.2193H27.5776V29.2877ZM21.789 1.41148C21.7631 -0.459746 26.1938 -0.481208 26.2189 1.41148L26.1512 7.09004L28.5342 5.3062C30.1789 4.20247 33.0711 5.74104 31.2859 6.98733L25.5065 11.1917C24.5943 11.7497 23.4078 11.7466 22.5006 11.1917L16.7488 6.97149C14.9628 5.72418 17.8826 4.16977 19.4997 5.28933L21.8559 7.09004L21.789 1.41148ZM5.70751 10.2101C5.68158 12.0813 10.1115 12.1023 10.1374 10.2101L10.0705 4.53103L12.4527 6.31488C14.0982 7.41861 16.9904 5.88003 15.2052 4.63374L9.42666 0.429877C8.5136 -0.128118 7.32628 -0.124541 6.4199 0.429877L0.668077 4.6506C-1.11876 5.89689 1.80105 7.45182 3.41898 6.33174L5.7744 4.53103L5.70834 10.2101H5.70751Z" fill="black"/>
<path d="M26.4885 23.2773C26.4892 23.3407 26.4693 23.4036 26.43 23.4623C26.3907 23.521 26.3327 23.5744 26.2595 23.6193C26.1863 23.6642 26.0992 23.6999 26.0033 23.7242C25.9074 23.7484 25.8046 23.7608 25.7009 23.7607H20.5159C20.3067 23.7599 20.1065 23.7087 19.9587 23.6182C19.8109 23.5277 19.7275 23.4052 19.7266 23.2773V19.8338C19.7252 19.7464 19.7522 19.6597 19.806 19.5788C19.8599 19.4978 19.9396 19.4243 20.0404 19.3623C20.1413 19.3003 20.2613 19.2513 20.3934 19.2179C20.5256 19.1845 20.6673 19.1676 20.8103 19.168H25.4007C25.5439 19.1674 25.6858 19.1842 25.8183 19.2175C25.9507 19.2507 26.071 19.2998 26.1721 19.3618C26.2732 19.4237 26.3531 19.4974 26.4072 19.5784C26.4612 19.6595 26.4883 19.7463 26.4868 19.8338V23.2773H26.4885Z" fill="black"/>
<path d="M25.2159 23.636H23.2435V28.2931C23.2435 29.1189 25.2159 29.1189 25.2159 28.2931V23.636ZM22.9433 23.636H20.97V28.2931C20.97 29.1127 22.9433 29.1127 22.9433 28.2931V23.636ZM24.603 17.985C24.603 18.225 24.447 18.4552 24.1693 18.6249C23.8916 18.7946 23.5149 18.89 23.1222 18.89C22.7295 18.89 22.3528 18.7946 22.0751 18.6249C21.7974 18.4552 21.6414 18.225 21.6414 17.985C21.6414 17.745 21.7974 17.5148 22.0751 17.3451C22.3528 17.1754 22.7295 17.0801 23.1222 17.0801C23.5149 17.0801 23.8916 17.1754 24.1693 17.3451C24.447 17.5148 24.603 17.745 24.603 17.985ZM19.3955 23.2788C19.3965 23.3423 19.3769 23.4053 19.3377 23.4641C19.2985 23.5228 19.2406 23.5763 19.1673 23.6213C19.094 23.6663 19.0068 23.7019 18.9107 23.7261C18.8147 23.7503 18.7118 23.7626 18.6079 23.7622H13.423C13.2136 23.7615 13.0131 23.7104 12.8652 23.6199C12.7172 23.5293 12.6337 23.4068 12.6328 23.2788V19.8353C12.6328 19.4403 13.1521 19.1695 13.7165 19.1695H18.3077C18.9265 19.1695 19.3939 19.4705 19.3939 19.8353V23.2788H19.3955Z" fill="black"/>
<path d="M18.133 23.636H16.1598V28.2931C16.1598 29.1189 18.133 29.1189 18.133 28.2931V23.636ZM15.8613 23.636H13.888V28.2931C13.888 29.1127 15.8613 29.1127 15.8613 28.2931V23.636ZM17.5202 17.985C17.5202 18.225 17.3641 18.4552 17.0864 18.6249C16.8087 18.7946 16.4321 18.89 16.0393 18.89C15.6466 18.89 15.27 18.7946 14.9923 18.6249C14.7146 18.4552 14.5585 18.225 14.5585 17.985C14.5585 17.745 14.7146 17.5148 14.9923 17.3451C15.27 17.1754 15.6466 17.0801 16.0393 17.0801C16.4321 17.0801 16.8087 17.1754 17.0864 17.3451C17.3641 17.5148 17.5202 17.745 17.5202 17.985ZM12.3135 23.2788C12.3135 23.5645 11.9372 23.7622 11.525 23.7622H6.3401C6.13088 23.7614 5.93063 23.7102 5.78284 23.6197C5.63505 23.5292 5.55166 23.4067 5.55078 23.2788V19.8353C5.55078 19.4403 6.06919 19.1695 6.63442 19.1695H11.2257C11.3689 19.1689 11.5108 19.1857 11.6433 19.219C11.7757 19.2522 11.896 19.3013 11.9971 19.3633C12.0982 19.4252 12.1781 19.4989 12.2322 19.5799C12.2862 19.661 12.3133 19.7478 12.3118 19.8353V23.2788H12.3135Z" fill="black"/>
<path d="M11.0389 23.636H9.0656V28.2931C9.0656 29.1189 11.0389 29.1189 11.0389 28.2931V23.636ZM8.76543 23.636H6.79297V28.2931C6.79297 29.1127 8.76543 29.1127 8.76543 28.2931V23.636ZM10.426 17.985C10.426 18.225 10.27 18.4552 9.99229 18.6249C9.71458 18.7946 9.33793 18.89 8.9452 18.89C8.55246 18.89 8.17581 18.7946 7.89811 18.6249C7.6204 18.4552 7.46439 18.225 7.46439 17.985C7.46439 17.745 7.6204 17.5148 7.89811 17.3451C8.17581 17.1754 8.55246 17.0801 8.9452 17.0801C9.33793 17.0801 9.71458 17.1754 9.99229 17.3451C10.27 17.5148 10.426 17.745 10.426 17.985Z" fill="black"/>
</svg>
