<svg width="32" height="32" viewBox="0 0 32 32" fill="none" xmlns="http://www.w3.org/2000/svg">
<path d="M16 0C7.16373 0 0 7.16373 0 16C0 24.8352 7.16373 32 16 32C24.8363 32 32 24.8352 32 16C32 7.16373 24.8363 0 16 0ZM8.53333 6.93333C8.53333 6.4 9.06667 5.86667 9.6 5.86667H11.7333C12.2667 5.86667 12.8 6.4 12.8 6.93333V9.06667C12.8 9.6 12.2667 10.1333 11.7333 10.1323H9.6C9.06667 10.1333 8.53333 9.6 8.53333 9.06667V6.93333ZM13.8667 18.1333L13.3333 13.3333L12.8 26.1333H11.2L10.6667 19.2L10.1333 26.1333H8.53333L8 13.3333L7.46667 18.1333H5.86667L6.4 12.2667C6.4 11.7333 6.93333 11.2 7.46667 11.2H13.8667C14.4 11.2 14.9333 11.7333 14.9333 12.2667L15.4667 18.1333H13.8667ZM19.2 6.93333C19.2 6.4 19.7333 5.86667 20.2667 5.86667H22.4C22.9333 5.86667 23.4667 6.4 23.4667 6.93333V9.06667C23.4667 9.6 22.9333 10.1333 22.4 10.1323H20.2667C19.7333 10.1333 19.2 9.6 19.2 9.06667V6.93333ZM24.5333 18.1333L23.4667 13.3333V15.4667L24.5333 20.2667H23.4667V26.1333H21.8667V20.2667H20.8V26.1333H19.2V20.2667H18.1333L19.2 15.4667V13.3333L18.1333 18.1333H16.5333L18.1333 12.2667C18.1333 11.7333 18.6667 11.2 19.2 11.2H23.4667C24 11.2 24.5333 11.7333 24.5333 12.2667L26.1333 18.1333H24.5333Z" fill="black"/>
</svg>
