<svg width="32" height="32" viewBox="0 0 32 32" fill="none" xmlns="http://www.w3.org/2000/svg">
<path d="M29.7933 5.33301H20.9648V7.46634H29.7933V29.8663H20.9648V31.9997H32.0004V7.46634C32.0004 6.90055 31.7678 6.35792 31.3539 5.95785C30.94 5.55777 30.3786 5.33301 29.7933 5.33301Z" fill="black"/>
<path d="M17.5244 0H2.33953C1.71905 0 1.12398 0.238247 0.685233 0.662329C0.246485 1.08641 0 1.66159 0 2.26133V32H19.8639V2.26133C19.8639 1.66159 19.6175 1.08641 19.1787 0.662329C18.74 0.238247 18.1449 0 17.5244 0ZM17.6568 29.8667H14.3462V26.6667H5.51776V29.8667H2.2071V2.26133C2.2071 2.24452 2.21053 2.22788 2.21718 2.21235C2.22384 2.19682 2.23359 2.18271 2.24589 2.17082C2.25819 2.15894 2.27279 2.14951 2.28885 2.14308C2.30492 2.13664 2.32214 2.13333 2.33953 2.13333H17.5244C17.5418 2.13333 17.559 2.13664 17.5751 2.14308C17.5912 2.14951 17.6058 2.15894 17.6181 2.17082C17.6303 2.18271 17.6401 2.19682 17.6468 2.21235C17.6534 2.22788 17.6568 2.24452 17.6568 2.26133V29.8667Z" fill="black"/>
<path d="M4.41406 5.33301H6.62117V7.46634H4.41406V5.33301Z" fill="black"/>
<path d="M8.82422 5.33301H11.0313V7.46634H8.82422V5.33301Z" fill="black"/>
<path d="M13.2461 5.33301H15.4532V7.46634H13.2461V5.33301Z" fill="black"/>
<path d="M4.41406 10.667H6.62117V12.8003H4.41406V10.667Z" fill="black"/>
<path d="M8.82422 10.667H11.0313V12.8003H8.82422V10.667Z" fill="black"/>
<path d="M13.2461 10.667H15.4532V12.8003H13.2461V10.667Z" fill="black"/>
<path d="M4.41406 16H6.62117V18.1333H4.41406V16Z" fill="black"/>
<path d="M8.82422 16H11.0313V18.1333H8.82422V16Z" fill="black"/>
<path d="M13.2461 16H15.4532V18.1333H13.2461V16Z" fill="black"/>
<path d="M4.41406 21.333H6.62117V23.4663H4.41406V21.333Z" fill="black"/>
<path d="M8.82422 21.333H11.0313V23.4663H8.82422V21.333Z" fill="black"/>
<path d="M13.2461 21.333H15.4532V23.4663H13.2461V21.333Z" fill="black"/>
<path d="M20.9648 10.667H23.1719V12.8003H20.9648V10.667Z" fill="black"/>
<path d="M25.3828 10.667H27.5899V12.8003H25.3828V10.667Z" fill="black"/>
<path d="M20.9648 16H23.1719V18.1333H20.9648V16Z" fill="black"/>
<path d="M25.3828 16H27.5899V18.1333H25.3828V16Z" fill="black"/>
<path d="M20.9648 21.333H23.1719V23.4663H20.9648V21.333Z" fill="black"/>
<path d="M25.3828 21.333H27.5899V23.4663H25.3828V21.333Z" fill="black"/>
</svg>
