<svg width="34" height="32" viewBox="0 0 34 32" fill="none" xmlns="http://www.w3.org/2000/svg">
<path d="M32.75 7.80881V4.2794C32.75 3.34335 32.4129 2.44563 31.8127 1.78374C31.2126 1.12185 30.3987 0.75 29.55 0.75H3.95C3.10131 0.75 2.28737 1.12185 1.68726 1.78374C1.08714 2.44563 0.75 3.34335 0.75 4.2794V21.9264C0.75 22.8625 1.08714 23.7602 1.68726 24.4221C2.28737 25.084 3.10131 25.4558 3.95 25.4558H16.75M32.75 7.80881H7.15M32.75 7.80881V11.3382" stroke="black" stroke-width="1.5" stroke-linecap="round" stroke-linejoin="round"/>
<path d="M32.0322 17.998L27.9426 16.8527C27.4258 16.708 26.885 16.708 26.3682 16.8527L22.2786 17.998C22.0718 18.0557 21.8888 18.1891 21.7595 18.3762C21.6303 18.5634 21.5622 18.7933 21.5666 19.0285C21.8418 29.1897 27.1554 30.7497 27.1554 30.7497C27.1554 30.7497 32.469 29.1897 32.7442 19.0285C32.757 18.545 32.4578 18.118 32.0322 17.998Z" stroke="black" stroke-width="1.5" stroke-linecap="round" stroke-linejoin="round"/>
</svg>
