<svg width="32" height="32" viewBox="0 0 32 32" fill="none" xmlns="http://www.w3.org/2000/svg">
<path d="M30.8198 28.8008H19.9975V32H30.9331C31.8333 32 32 31.0642 32 31.0642V30.2884C32 30.2884 31.9933 28.8088 30.8198 28.8088V28.8008ZM29.3261 28.169C30.7998 28.169 32 26.7293 32 24.9538C32 23.1702 30.7998 21.7386 29.3261 21.7386C27.8525 21.7386 26.6522 23.1782 26.6522 24.9538C26.6522 26.7293 27.8525 28.169 29.3261 28.169ZM23.6916 28.001C25.0986 28.001 26.2255 26.8173 26.2255 25.1297C26.2255 23.4501 25.0919 22.5704 23.6983 22.5544L20.0042 23.1142V27.993H23.6916V28.001ZM11.6824 7.15021C13.3228 7.15021 14.6497 5.55061 14.6497 3.57511C14.6497 1.5996 13.3228 0 11.6824 0C10.0421 0 8.71515 1.5996 8.71515 3.57511C8.71515 5.55061 10.0421 7.15021 11.6824 7.15021ZM8.65514 18.7153L8.62846 18.6673L7.28152 14.9163V22.4024H11.3024L12.1825 21.2827L9.80204 20.187C9.23526 19.931 8.83517 19.3552 8.6618 18.7153H8.65514ZM9.50865 18.3794C9.64201 18.7313 9.88206 19.0112 10.1821 19.1472L14.7697 21.1867C15.3565 21.4986 16.0433 21.1787 16.2967 20.4669C16.5568 19.7551 16.2901 18.9313 15.6966 18.6193L11.4691 16.6998L10.1621 12.9408L11.0156 12.5569L12.1225 15.7801L15.3365 17.2117V13.2767L17.0435 14.4924L17.8971 19.6351C18.1038 20.3709 18.7639 20.7548 19.3774 20.4989C19.9842 20.2509 20.3042 19.4511 20.0975 18.7153L19.144 13.7646C19.084 13.4846 18.9506 13.2447 18.7706 13.0607C18.2838 12.4129 15.81 9.09373 15.6366 8.87778C15.3765 8.56586 14.7897 8.006 13.6762 8.006H9.67535C7.40154 8.006 6.96145 10.7893 7.42821 12.2049L9.52198 18.3794H9.50865ZM19.3374 23.2022H1.31361C0.660138 23.2022 0 23.6501 0 24.6258V32H19.3374V23.2022Z" fill="black"/>
</svg>
