<svg width="32" height="30" viewBox="0 0 32 30" fill="none" xmlns="http://www.w3.org/2000/svg">
<path d="M12.526 29.7939C12.4268 29.5808 12.4268 29.5573 12.5932 29.0585C12.7934 28.4547 12.8872 27.798 12.8675 27.1385C12.8478 26.479 12.7151 25.8342 12.4796 25.2535C12.0178 24.1031 11.9033 22.761 12.1596 21.5018C12.3948 20.3785 12.7196 19.9287 13.014 20.3166C13.158 20.5298 13.1548 20.5703 12.8668 21.6212C12.7431 22.1551 12.7002 22.7165 12.7405 23.2727C12.7809 23.8289 12.9038 24.3689 13.102 24.8613C13.381 25.5734 13.5345 26.3609 13.5509 27.1639C13.5672 27.9669 13.446 28.7642 13.1964 29.4955C13.0364 29.8898 12.9996 29.9538 12.8252 29.9794C12.7659 30.0011 12.7027 29.9937 12.6472 29.9585C12.5917 29.9232 12.5475 29.8626 12.5228 29.7875L12.526 29.7939ZM15.7581 29.8792C15.6157 29.6873 15.6445 29.4912 15.8349 28.8709C15.958 28.4539 16.022 28.0102 16.0237 27.5621C16.0706 26.7462 15.9347 25.9302 15.6333 25.2173C15.3445 24.4858 15.2039 23.6665 15.2253 22.8405C15.2253 21.6809 15.5661 20.3166 15.8765 20.2101C15.9212 20.1863 15.9694 20.1771 16.0173 20.183C16.0652 20.189 16.1113 20.21 16.152 20.2443C16.1926 20.2787 16.2265 20.3253 16.2509 20.3805C16.2753 20.4357 16.2896 20.4978 16.2925 20.5618C16.2618 20.8281 16.2043 21.0877 16.1213 21.3334C15.9695 21.8226 15.9112 22.3544 15.9517 22.881C15.8961 23.4373 15.9687 24.003 16.1597 24.5032C16.5247 25.2785 16.7173 26.1758 16.7149 27.091C16.7839 27.9332 16.6631 28.7836 16.3677 29.5339C16.2269 29.8877 16.1677 29.9602 16.0045 29.9879C15.9577 29.9999 15.9094 29.9972 15.8635 29.9798C15.8177 29.9624 15.7755 29.9308 15.7405 29.8877L15.7581 29.8792ZM18.9342 29.8792C18.8254 29.7278 18.859 29.4976 19.0942 28.6705C19.2094 28.2584 19.2637 27.8205 19.2542 27.3809C19.2663 26.6373 19.1323 25.9025 18.8654 25.2493C18.7291 24.8598 18.6152 24.4572 18.5245 24.0449C18.3989 23.2643 18.3989 22.4572 18.5245 21.6766C18.6075 21.1557 18.771 20.6635 19.0046 20.2314C19.0802 20.1729 19.17 20.1559 19.2548 20.1842C19.3397 20.2124 19.4129 20.2837 19.459 20.3827C19.5566 20.5831 19.5534 20.6193 19.3566 21.2738C19.1777 21.8379 19.0957 22.4482 19.1165 23.06C19.1372 23.6718 19.2602 24.2697 19.4766 24.8101C19.7927 25.5821 19.9521 26.4506 19.939 27.3297C19.9628 27.8588 19.9084 28.3889 19.779 28.8901C19.579 29.7023 19.4206 29.9985 19.1822 29.9985C19.1354 30.0037 19.0884 29.9951 19.0445 29.9734C19.0005 29.9516 18.9607 29.9173 18.9278 29.8728L18.9342 29.8792ZM0.185003 17.5818C0.110926 17.4837 0.0559944 17.3629 0.0250005 17.23C-0.00166671 14.6806 -0.00700013 12.1312 0.00900017 9.58172L0.0250005 2.12098L0.233004 1.56675C0.458547 0.926644 0.859236 0.425618 1.35303 0.166268C1.69383 1.42938e-07 1.76903 0 16.0045 0C30.24 0 30.32 1.42938e-07 30.6608 0.166268C31.1537 0.42408 31.5543 0.922662 31.7808 1.56036L31.984 2.11459L32 9.58172C32 13.683 32 17.132 31.9808 17.23C31.9498 17.3629 31.8949 17.4837 31.8208 17.5818C31.696 17.748 31.5456 17.748 16.0013 17.748C0.457009 17.748 0.309806 17.7182 0.185003 17.5519V17.5818ZM1.56903 14.3843C1.58823 12.4658 1.59943 12.3486 1.73863 11.967C1.84517 11.6974 2.00157 11.4685 2.19304 11.3019L2.48745 11.0355H29.56L29.8512 11.3019C30.0367 11.4731 30.1874 11.7032 30.2896 11.9713C30.4304 12.3486 30.4416 12.4658 30.4496 14.3907L30.472 16.4051H30.9648V9.45808C30.9648 1.95045 30.9648 2.17854 30.6352 1.76926L30.4848 1.57741L30.4464 2.15722C30.4505 2.51747 30.3748 2.87135 30.2288 3.17464C30.0828 3.47794 29.873 3.7172 29.6256 3.86253C29.4208 3.97764 27.9503 3.99256 16.0125 3.99256C4.07468 3.99256 2.61225 4.02667 2.40104 3.91582C2.15307 3.77292 1.94319 3.53376 1.79877 3.22956C1.65434 2.92536 1.58209 2.57024 1.59143 2.21051L1.55463 1.6371L1.39463 1.82895C1.05382 2.23183 1.06182 2.0144 1.06182 9.50284V16.4541H1.55303L1.56903 14.3843ZM14.2493 9.96754C14.1985 9.93288 14.1553 9.8816 14.1235 9.8185C14.0917 9.75541 14.0726 9.6826 14.0678 9.60691C14.063 9.53122 14.0727 9.45515 14.0961 9.38585C14.1194 9.31656 14.1556 9.25632 14.2013 9.21081C14.3213 9.0957 14.5821 9.07439 16.0013 9.07439C17.8717 9.07439 17.9661 9.09996 17.9293 9.60516C17.8957 10.0421 17.7773 10.072 16.0093 10.072C15.4243 10.1193 14.8371 10.0858 14.2573 9.9718L14.2493 9.96754ZM26.3503 9.79062C26.3231 9.73655 26.3056 9.67492 26.2991 9.61043C26.2925 9.54595 26.2972 9.48034 26.3126 9.41861C26.3281 9.35688 26.3539 9.30069 26.3882 9.25432C26.4224 9.20796 26.4642 9.17266 26.5103 9.15112C26.7951 8.95075 27.1007 9.57745 26.8671 9.88654C26.8281 9.92673 26.7834 9.95607 26.7358 9.97282C26.6881 9.98957 26.6384 9.99339 26.5896 9.98404C26.5408 9.9747 26.4939 9.95238 26.4517 9.91842C26.4095 9.88446 26.3728 9.83955 26.3439 9.78635L26.3503 9.79062ZM27.9791 9.80554C27.9308 9.72429 27.9064 9.62239 27.9104 9.5189C27.9145 9.41541 27.9466 9.31741 28.0009 9.24323C28.0552 9.16904 28.128 9.12375 28.2055 9.11582C28.2831 9.10789 28.3602 9.13787 28.4223 9.20015C28.467 9.23263 28.5054 9.27844 28.5345 9.33399C28.5637 9.38954 28.5828 9.45333 28.5903 9.52035C28.5979 9.58738 28.5937 9.65583 28.5781 9.72033C28.5625 9.78484 28.5359 9.84366 28.5004 9.89218C28.4648 9.9407 28.4214 9.97761 28.3733 10C28.3253 10.0224 28.2741 10.0297 28.2236 10.0213C28.1731 10.0129 28.1248 9.98908 28.0824 9.95164C28.0399 9.91421 28.0046 9.8642 27.9791 9.80554ZM29.696 16.0321V15.659H2.30984V16.4051H29.696V16.0321ZM29.696 14.2841V13.8258H2.30984V14.7424H29.696V14.2841ZM29.696 12.6364C29.6802 12.4993 29.6397 12.3695 29.5778 12.258C29.5159 12.1466 29.4345 12.057 29.3407 11.9969C29.2431 11.9329 25.6015 11.9031 16.0013 11.9031C6.40112 11.9031 2.76745 11.9329 2.66505 11.9969C2.57285 12.0598 2.49282 12.1502 2.4312 12.2612C2.36958 12.3721 2.32805 12.5005 2.30984 12.6364V12.8239H29.696V12.6364ZM29.5072 2.83082C29.6768 2.60486 29.696 2.54518 29.696 1.95898V1.31948H2.30664V1.95898C2.30664 2.54305 2.31784 2.59847 2.48745 2.83082L2.67625 3.07809H29.3103L29.5072 2.83082Z" fill="black"/>
</svg>
