<svg width="32" height="32" viewBox="0 0 32 32" fill="none" xmlns="http://www.w3.org/2000/svg">
<g clip-path="url(#clip0_3345_373)">
<path d="M31.7695 2.04163C31.7695 1.02188 30.9352 0.1875 29.9155 0.1875H1.81322C0.895469 0.1875 0.144531 0.938437 0.144531 1.85619V30.1438C0.144531 31.0616 0.895469 31.8125 1.81322 31.8125H29.9154C30.9352 31.8125 31.7695 30.9781 31.7695 29.9584V2.04163Z" fill="black"/>
<path d="M29.9155 30.5573H1.81322C0.895469 30.5573 0.144531 29.8063 0.144531 28.8886V30.1439C0.144531 31.0616 0.895469 31.8126 1.81322 31.8126H29.9154C30.9352 31.8126 31.7695 30.9782 31.7695 29.9584V28.7031C31.7695 29.7229 30.9352 30.5573 29.9155 30.5573Z" fill="black"/>
<path d="M6.8679 24.8906C6.85464 24.7666 6.79877 24.67 6.70028 24.6009C6.60275 24.5317 6.47585 24.4972 6.3196 24.4972C6.20975 24.4972 6.11553 24.5137 6.03693 24.5469C5.95833 24.58 5.8982 24.625 5.85653 24.6818C5.81487 24.7386 5.79356 24.8035 5.79261 24.8764C5.79261 24.937 5.80634 24.9896 5.83381 25.0341C5.86222 25.0786 5.90057 25.1165 5.94886 25.1477C5.99716 25.178 6.05066 25.2036 6.10938 25.2244C6.16809 25.2453 6.22727 25.2628 6.28693 25.277L6.55966 25.3452C6.66951 25.3707 6.77509 25.4053 6.87642 25.4489C6.97869 25.4924 7.07008 25.5473 7.15057 25.6136C7.23201 25.6799 7.2964 25.7599 7.34375 25.8537C7.3911 25.9474 7.41477 26.0573 7.41477 26.1832C7.41477 26.3537 7.37121 26.5038 7.28409 26.6335C7.19697 26.7623 7.07102 26.8632 6.90625 26.9361C6.74242 27.008 6.54403 27.044 6.31108 27.044C6.08475 27.044 5.88826 27.009 5.72159 26.9389C5.55587 26.8688 5.42614 26.7666 5.33239 26.6321C5.23958 26.4976 5.18939 26.3338 5.18182 26.1406H5.70028C5.70786 26.242 5.73911 26.3262 5.79403 26.3935C5.84896 26.4607 5.92045 26.5109 6.00852 26.544C6.09754 26.5772 6.19697 26.5938 6.30682 26.5938C6.4214 26.5938 6.52178 26.5767 6.60795 26.5426C6.69508 26.5076 6.76326 26.4593 6.8125 26.3977C6.86174 26.3352 6.88684 26.2623 6.88778 26.179C6.88684 26.1032 6.86458 26.0407 6.82102 25.9915C6.77746 25.9413 6.71638 25.8996 6.63778 25.8665C6.56013 25.8324 6.46922 25.8021 6.36506 25.7756L6.03409 25.6903C5.79451 25.6288 5.60511 25.5355 5.46591 25.4105C5.32765 25.2846 5.25852 25.1174 5.25852 24.9091C5.25852 24.7377 5.30492 24.5876 5.39773 24.4588C5.49148 24.33 5.61884 24.2301 5.77983 24.1591C5.94081 24.0871 6.12311 24.0511 6.3267 24.0511C6.53314 24.0511 6.71402 24.0871 6.86932 24.1591C7.02557 24.2301 7.1482 24.3291 7.23722 24.456C7.32623 24.5819 7.37216 24.7268 7.375 24.8906H6.8679ZM7.75675 24.5327V24.0909H10.0778V24.5327H9.17862V27H8.65589V24.5327H7.75675ZM10.5472 27H9.98473L11.0089 24.0909H11.6594L12.685 27H12.1225L11.3455 24.6875H11.3228L10.5472 27ZM10.5657 25.8594H12.0998V26.2827H10.5657V25.8594ZM13.0682 27V24.0909H14.9318V24.5327H13.5952V25.3224H14.804V25.7642H13.5952V27H13.0682ZM19.0036 25.5455C19.0036 25.8589 18.9448 26.1274 18.8274 26.3509C18.7109 26.5734 18.5518 26.7438 18.3501 26.8622C18.1494 26.9806 17.9216 27.0398 17.6669 27.0398C17.4122 27.0398 17.1839 26.9806 16.9822 26.8622C16.7815 26.7429 16.6224 26.572 16.505 26.3494C16.3885 26.1259 16.3303 25.858 16.3303 25.5455C16.3303 25.232 16.3885 24.964 16.505 24.7415C16.6224 24.518 16.7815 24.3471 16.9822 24.2287C17.1839 24.1103 17.4122 24.0511 17.6669 24.0511C17.9216 24.0511 18.1494 24.1103 18.3501 24.2287C18.5518 24.3471 18.7109 24.518 18.8274 24.7415C18.9448 24.964 19.0036 25.232 19.0036 25.5455ZM18.4737 25.5455C18.4737 25.3248 18.4392 25.1387 18.37 24.9872C18.3018 24.8348 18.2071 24.7197 18.0859 24.642C17.9647 24.5634 17.825 24.5241 17.6669 24.5241C17.5088 24.5241 17.3691 24.5634 17.2479 24.642C17.1267 24.7197 17.0315 24.8348 16.9624 24.9872C16.8942 25.1387 16.8601 25.3248 16.8601 25.5455C16.8601 25.7661 16.8942 25.9527 16.9624 26.1051C17.0315 26.2566 17.1267 26.3717 17.2479 26.4503C17.3691 26.5279 17.5088 26.5668 17.6669 26.5668C17.825 26.5668 17.9647 26.5279 18.0859 26.4503C18.2071 26.3717 18.3018 26.2566 18.37 26.1051C18.4392 25.9527 18.4737 25.7661 18.4737 25.5455ZM21.8924 24.0909V27H21.4237L20.0529 25.0185H20.0288V27H19.5018V24.0909H19.9734L21.3427 26.0739H21.3683V24.0909H21.8924ZM22.4666 27V24.0909H22.9936V26.5582H24.2749V27H22.4666ZM24.2404 24.0909H24.8356L25.5472 25.3778H25.5756L26.2873 24.0909H26.8825L25.8242 25.9148V27H25.2987V25.9148L24.2404 24.0909Z" fill="white"/>
<path d="M11.9078 4.75018C11.9078 5.69038 11.1457 6.45252 10.2055 6.45252C9.26532 6.45252 8.50318 5.69038 8.50318 4.75018C8.50318 3.80999 9.26532 3.04785 10.2055 3.04785C11.1457 3.04785 11.9078 3.80999 11.9078 4.75018ZM12.7763 6.99399H7.59075C7.57885 6.99399 7.56723 6.99514 7.55551 6.99576C7.54989 6.99598 7.54429 6.99626 7.5387 6.99661C7.53246 6.99709 7.52618 6.99738 7.51999 6.99804C6.72446 7.05261 6.09375 7.7168 6.09375 8.52595V14.3625C6.09375 14.7193 6.38304 15.0085 6.73985 15.0085C7.09665 15.0085 7.38594 14.7193 7.38594 14.3625V8.5259C7.386 8.46232 7.41129 8.40137 7.45625 8.35641C7.50121 8.31146 7.56217 8.28619 7.62575 8.28614C7.68932 8.2862 7.75027 8.31148 7.79522 8.35643C7.84017 8.40138 7.86545 8.46233 7.86551 8.5259V12.11C7.86551 12.1452 7.86908 12.1794 7.87451 12.2131V13.7488C7.86753 13.8218 7.86398 13.895 7.86389 13.9683V19.7406C7.86389 20.271 8.29389 20.7009 8.82427 20.7009C9.35465 20.7009 9.78465 20.271 9.78465 19.7406V13.9683C9.78465 13.7356 9.97399 13.5462 10.2067 13.5462C10.4394 13.5462 10.6287 13.7356 10.6287 13.9683V19.7406C10.6287 20.271 11.0587 20.7009 11.5891 20.7009C12.1195 20.7009 12.5495 20.271 12.5495 19.7406V13.9683C12.5495 13.885 12.545 13.8028 12.5365 13.7218V8.52576C12.5366 8.46221 12.5619 8.4013 12.6068 8.35638C12.6518 8.31146 12.7127 8.2862 12.7762 8.28614C12.8398 8.2862 12.9007 8.31148 12.9457 8.35643C12.9906 8.40138 13.0159 8.46233 13.016 8.5259V14.3624C13.016 14.7192 13.3053 15.0085 13.6621 15.0085C14.0189 15.0085 14.3082 14.7192 14.3082 14.3624V8.5259C14.3082 7.68119 13.6209 6.99399 12.7763 6.99399ZM20.9535 3.04785C20.0133 3.04785 19.2512 3.80999 19.2512 4.75018C19.2512 5.69038 20.0133 6.45252 20.9535 6.45252C21.8937 6.45252 22.6558 5.69038 22.6558 4.75018C22.6558 3.80999 21.8937 3.04785 20.9535 3.04785ZM25.5426 12.9624L24.304 8.09038C24.3018 8.08174 24.2995 8.07315 24.2969 8.06461C24.1579 7.59933 23.7408 7.22238 23.2457 7.07399C23.1565 7.02926 23.058 7.00593 22.9582 7.00585H19.1365C18.486 7.00585 17.9015 7.44123 17.7152 8.06452C17.7116 8.07654 17.7083 8.08868 17.7055 8.1009L16.5537 12.973C16.4716 13.3202 16.6866 13.6683 17.0338 13.7504C17.0838 13.7622 17.1338 13.7679 17.183 13.7679C17.4758 13.7679 17.741 13.5675 17.8112 13.2702L18.957 8.42304C18.9707 8.38647 18.9952 8.35494 19.0273 8.33261C19.0593 8.31029 19.0974 8.29823 19.1365 8.29804H19.2233C19.3018 8.29804 19.3495 8.34171 19.3709 8.36776C19.389 8.38949 19.402 8.41499 19.4089 8.4424C19.4159 8.46981 19.4165 8.49843 19.4109 8.52614L19.082 10.1993L17.9097 15.1401C17.8364 15.5356 18.088 15.9099 18.4229 15.9036L18.9879 15.8929V19.9576C18.9879 20.4012 19.3476 20.7609 19.7912 20.7609C20.2347 20.7609 20.5944 20.4012 20.5944 19.9576V15.8625L21.315 15.8488V19.9576C21.315 20.4012 21.6747 20.7609 22.1182 20.7609C22.5618 20.7609 22.9215 20.4012 22.9215 19.9576V15.8184L23.6734 15.8041C24.0058 15.7979 24.2472 15.4194 24.168 15.0287L22.9135 10.1147L22.6012 8.52609C22.5929 8.48376 22.6241 8.43795 22.6435 8.41442C22.6911 8.35657 22.7636 8.31447 22.8336 8.3019C22.937 8.31918 23.0382 8.39023 23.0574 8.43104L24.2903 13.2808C24.3647 13.5732 24.6275 13.7679 24.916 13.7679C24.9698 13.7678 25.0235 13.7611 25.0757 13.7478C25.4215 13.6599 25.6306 13.3083 25.5426 12.9624Z" fill="white"/>
</g>
<defs>
<clipPath id="clip0_3345_373">
<rect width="32" height="32" fill="white"/>
</clipPath>
</defs>
</svg>
