<svg width="32" height="32" viewBox="0 0 32 32" fill="none" xmlns="http://www.w3.org/2000/svg">
<rect x="0.5" y="0.5" width="31" height="31" rx="2.5" stroke="black"/>
<path d="M6.01741 5.03216C6.34563 5.08203 5.52972 7.10568 5.98403 9.41543C6.37993 11.398 11.3152 19.0709 11.1122 21.7008C10.9527 23.3553 6.901 27.2285 6.47172 26.973C6.00814 26.8496 7.703 24.2162 7.07531 22.0202C6.34656 19.4637 1.99537 12.8521 2 9.93075C2 7.79336 5.7235 4.8913 6.01741 5.03216ZM15.3085 2.00587C15.7239 2.07411 14.6808 4.6577 15.265 7.59738C15.7675 10.1267 22.0639 19.9099 21.808 23.2634C21.6003 25.3728 16.4332 30.3125 15.888 29.9844C15.2937 29.8296 17.4577 26.4761 16.6557 23.6781C15.7239 20.4156 10.1804 11.9806 10.185 8.25793C10.185 5.5326 14.9321 1.83264 15.3085 2.00587ZM24.8945 5.03216C25.2274 5.08203 24.4068 7.10568 24.8658 9.41543C25.257 11.398 30.197 19.0709 29.9939 21.7008C29.8391 23.3553 25.7781 27.2285 25.3534 26.973C24.8852 26.8496 26.5847 24.2206 25.957 22.0202C25.2227 19.4637 20.8725 12.8521 20.8817 9.93512C20.8817 7.79773 24.6052 4.89567 24.8945 5.03216Z" fill="black"/>
</svg>
