<svg width="33" height="33" viewBox="0 0 33 33" fill="none" xmlns="http://www.w3.org/2000/svg">
<path d="M4.73884 30.7654V32.4997H2.45312V4.17188H4.73884V11.9765M4.73884 30.7654H27.9225M4.73884 30.7654V29.3201M27.9225 30.7654V29.3201M27.9225 30.7654V32.2107H29.8817V4.46093H27.9225V11.9765M27.9225 29.3201H4.73884M27.9225 29.3201V22.0936M4.73884 29.3201V22.0936M27.9225 22.0936H4.73884M27.9225 22.0936V20.6483M4.73884 22.0936V20.6483M4.73884 20.6483H27.9225M4.73884 20.6483V13.4218M27.9225 20.6483V13.4218M27.9225 13.4218H4.73884M27.9225 13.4218V11.9765M4.73884 13.4218V11.9765M4.73884 11.9765H6.69802M27.9225 11.9765H25.9633M25.9633 11.9765V5.32811H17.4735V11.9765M25.9633 11.9765H17.4735M17.4735 11.9765H14.8613M14.8613 11.9765V5.32811H6.69802V11.9765M14.8613 11.9765H6.69802" stroke="black" stroke-width="0.5"/>
<path d="M7.02344 20.9375V15.7344H25.9622V20.6484" stroke="black" stroke-width="0.5"/>
<path d="M7.67578 29.6093V23.8281H14.8595V29.0312" stroke="black" stroke-width="0.5"/>
<path d="M16.8164 29.0312V25.5625H25.9593V29.0312" stroke="black" stroke-width="0.5"/>
<path d="M9.30859 5.32812V6.77342H11.9208V5.32812" stroke="black" stroke-width="0.5"/>
<path d="M20.4102 5.32812V6.77342H23.0224V5.32812" stroke="black" stroke-width="0.5"/>
<path d="M14.8594 15.7344V17.1797H17.4716V15.7344" stroke="black" stroke-width="0.5"/>
<path d="M9.96094 23.8281V25.2734H12.5732V23.8281" stroke="black" stroke-width="0.5"/>
<path d="M20.082 25.5625V27.0078H22.6943V25.5625" stroke="black" stroke-width="0.5"/>
<path d="M31.1642 4.17213H0.999903C0.603899 4.17213 0.365055 3.73368 0.57982 3.40097L2.30469 0.728835C2.39678 0.586175 2.55497 0.5 2.72477 0.5H29.4393C29.6091 0.5 29.7673 0.586175 29.8594 0.728835L31.5842 3.40097C31.799 3.73368 31.5602 4.17213 31.1642 4.17213Z" stroke="black"/>
<path d="M2.45356 1.02441H29.7128L31.4906 3.64736H0.675781L2.45356 1.02441Z" fill="black"/>
</svg>
