<svg width="33" height="33" viewBox="0 0 33 33" fill="none" xmlns="http://www.w3.org/2000/svg">
<path d="M0.5 5.88947C0.5 4.00316 0.5 3.06 0.867158 2.33916C1.19009 1.70538 1.70538 1.19009 2.33916 0.867158C3.06 0.5 4.00316 0.5 5.88947 0.5H27.1105C28.9968 0.5 29.94 0.5 30.6608 0.867158C31.2946 1.19009 31.8099 1.70538 32.1328 2.33916C32.5 3.06 32.5 4.00316 32.5 5.88947V27.1105C32.5 28.9968 32.5 29.94 32.1328 30.6608C31.8099 31.2946 31.2946 31.8099 30.6608 32.1328C29.94 32.5 28.9968 32.5 27.1105 32.5H5.88947C4.00316 32.5 3.06 32.5 2.33916 32.1328C1.70538 31.8099 1.19009 31.2946 0.867158 30.6608C0.5 29.94 0.5 28.9968 0.5 27.1105V5.88947Z" stroke="black" stroke-linecap="round"/>
<path d="M27.4474 32.4988L17.3421 7.23561M32.5 3.86719L0.5 10.604M17.3421 21.6019C17.3421 25.2364 13.7379 27.7897 12.1665 28.7312C11.9493 28.8615 11.7007 28.9304 11.4474 28.9304C11.194 28.9304 10.9455 28.8615 10.7282 28.7312C9.15684 27.7897 5.55263 25.2364 5.55263 21.6002C5.55263 18.0348 8.40905 15.6567 11.4474 15.6567C14.5918 15.6567 17.3421 18.0348 17.3421 21.6019Z" stroke="black"/>
<path d="M11.4459 23.2356C12.3761 23.2356 13.1301 22.4816 13.1301 21.5514C13.1301 20.6212 12.3761 19.8672 11.4459 19.8672C10.5158 19.8672 9.76172 20.6212 9.76172 21.5514C9.76172 22.4816 10.5158 23.2356 11.4459 23.2356Z" fill="black"/>
</svg>
