<svg width="32" height="32" viewBox="0 0 32 32" fill="none" xmlns="http://www.w3.org/2000/svg">
<path d="M24.6154 8.72727C25.9692 8.72727 27.0769 10.0364 27.0769 11.6364V20.3636H24.6154V23.2727C24.6154 24.8727 23.5077 26.1818 22.1538 26.1818C20.8 26.1818 19.6923 24.8727 19.6923 23.2727V20.3636H12.3077V23.2727C12.3077 24.8727 11.2 26.1818 9.84615 26.1818C8.49231 26.1818 7.38462 24.8727 7.38462 23.2727V20.3636H4.92308V11.6364C4.92308 10.0364 6.03077 8.72727 7.38462 8.72727L9.57538 0.989091C9.74769 0.407272 10.2154 0 10.7323 0H21.2677C21.7846 0 22.2523 0.407272 22.4246 0.989091L24.6154 8.72727ZM9.84615 17.4545C11.2 17.4545 12.3077 16.1455 12.3077 14.5455C12.3077 12.9455 11.2 11.6364 9.84615 11.6364C8.49231 11.6364 7.38462 12.9455 7.38462 14.5455C7.38462 16.1455 8.49231 17.4545 9.84615 17.4545ZM9.84615 8.72727H22.1538L20.6277 2.90909H11.3723L9.84615 8.72727ZM22.1538 17.4545C23.5077 17.4545 24.6154 16.1455 24.6154 14.5455C24.6154 12.9455 23.5077 11.6364 22.1538 11.6364C20.8 11.6364 19.6923 12.9455 19.6923 14.5455C19.6923 16.1455 20.8 17.4545 22.1538 17.4545ZM25.8462 29.0909L24.6154 26.1818H29.5385L32 32H0L2.46154 26.1818H7.38462L6.15385 29.0909H25.8462Z" fill="black"/>
</svg>
