<svg width="32" height="32" viewBox="0 0 32 32" fill="none" xmlns="http://www.w3.org/2000/svg">
<path d="M16 14.079H18.2857V16.639H16V14.079ZM20.5714 14.079H22.8571V16.639H20.5714V14.079ZM25.1429 14.079H27.4286V16.639H25.1429V14.079ZM16 19.199H18.2857V21.759H16V19.199ZM20.5714 19.199H22.8571V21.759H20.5714V19.199ZM25.1429 19.199H27.4286V21.759H25.1429V19.199ZM16 24.319H18.2857V26.879H16V24.319ZM20.5714 24.319H22.8571V26.879H20.5714V24.319ZM25.1429 24.319H27.4286V26.879H25.1429V24.319ZM16 8.95898H27.4286V11.519H16V8.95898Z" fill="black"/>
<path d="M29.7143 3.84H13.7143V2.56C13.7134 1.88136 13.4723 1.2308 13.0438 0.750928C12.6154 0.271055 12.0345 0.00101568 11.4286 0H6.85714C6.25121 0.00101568 5.67036 0.271055 5.2419 0.750928C4.81344 1.2308 4.57234 1.88136 4.57143 2.56V3.84H2.28571C1.67978 3.84102 1.09893 4.11106 0.670472 4.59093C0.242014 5.0708 0.000906857 5.72136 0 6.4V29.44C0.000906857 30.1186 0.242014 30.7692 0.670472 31.2491C1.09893 31.7289 1.67978 31.999 2.28571 32H29.7143C30.3202 31.999 30.9011 31.7289 31.3295 31.2491C31.758 30.7692 31.9991 30.1186 32 29.44V6.4C31.9991 5.72136 31.758 5.0708 31.3295 4.59093C30.9011 4.11106 30.3202 3.84102 29.7143 3.84ZM6.85714 2.56H11.4286V24.32H6.85714V2.56ZM29.7143 29.44H2.28571V6.4H4.57143V24.32C4.57234 24.9986 4.81344 25.6492 5.2419 26.1291C5.67036 26.6089 6.25121 26.879 6.85714 26.88H11.4286C12.0345 26.879 12.6154 26.6089 13.0438 26.1291C13.4723 25.6492 13.7134 24.9986 13.7143 24.32V6.4H29.7143V29.44Z" fill="black"/>
</svg>
