<svg width="32" height="32" viewBox="0 0 32 32" fill="none" xmlns="http://www.w3.org/2000/svg">
<path d="M6.14062 9.88086H25.8007M6.14062 13.7817H25.8007M6.14062 17.6803H25.8007M6.14062 21.5822H25.8007M6.14062 25.483H14.5473" stroke="#B0BEC5" stroke-width="0.483" stroke-miterlimit="10" stroke-linecap="round"/>
<path d="M30.6088 5.22453L25.2533 0.768C24.623 0.274494 23.7889 -0.000282905 22.9222 2.18576e-07H0.90264C0.66335 0.00028239 0.433957 0.0792642 0.264753 0.21963C0.0955484 0.359996 0.000340143 0.550293 0 0.7488V31.2501C0 31.664 0.405031 32 0.90264 32H31.0974C31.3369 31.9997 31.5665 31.9206 31.7357 31.78C31.9049 31.6394 32 31.4488 32 31.2501V7.27467C31.9961 6.4992 31.2889 5.75787 30.6088 5.22453ZM30.7116 30.9333H1.28453V1.06667H22.0697C22.7512 1.06667 23.3066 1.52533 23.3066 2.0928V6.8608H28.8806C29.89 6.8608 30.709 7.32267 30.709 8.37867L30.7116 30.9333Z" fill="black"/>
</svg>
