<svg width="32" height="32" viewBox="0 0 32 32" fill="none" xmlns="http://www.w3.org/2000/svg">
<path d="M14 0C11.8783 0 9.84344 0.793275 8.34315 2.20531C6.84285 3.61735 6 5.53249 6 7.52941C6 9.52634 6.84285 11.4415 8.34315 12.8535C9.84344 14.2655 11.8783 15.0588 14 15.0588C16.1217 15.0588 18.1566 14.2655 19.6569 12.8535C21.1571 11.4415 22 9.52634 22 7.52941C22 5.53249 21.1571 3.61735 19.6569 2.20531C18.1566 0.793275 16.1217 0 14 0ZM8 7.52941C8 6.03172 8.63214 4.59537 9.75736 3.53634C10.8826 2.47731 12.4087 1.88235 14 1.88235C15.5913 1.88235 17.1174 2.47731 18.2426 3.53634C19.3679 4.59537 20 6.03172 20 7.52941C20 9.0271 19.3679 10.4635 18.2426 11.5225C17.1174 12.5815 15.5913 13.1765 14 13.1765C12.4087 13.1765 10.8826 12.5815 9.75736 11.5225C8.63214 10.4635 8 9.0271 8 7.52941ZM4.018 16.9412C3.4912 16.9389 2.96912 17.0347 2.48174 17.2229C1.99436 17.4111 1.55127 17.688 1.17793 18.0378C0.804587 18.3876 0.508338 18.8034 0.306195 19.2613C0.104051 19.7191 -5.33373e-06 20.2101 2.05053e-10 20.7059C2.05054e-10 23.8889 1.666 26.2889 4.27 27.8532C6.834 29.3911 10.29 30.1176 14 30.1176C14.484 30.1176 14.9627 30.1051 15.436 30.08C14.8265 29.9986 14.2452 29.7859 13.7373 29.4584C13.2295 29.1309 12.8088 28.6975 12.508 28.192C9.66 28.0226 7.174 27.3638 5.346 26.2645C3.246 25.0033 2 23.1718 2 20.7059C2 19.6649 2.896 18.8235 4.018 18.8235H12C12 18.1384 12.194 17.4946 12.536 16.9412H4.018ZM14 18.8235C14 18.3243 14.2107 17.8455 14.5858 17.4925C14.9609 17.1395 15.4696 16.9412 16 16.9412H30C30.5304 16.9412 31.0391 17.1395 31.4142 17.4925C31.7893 17.8455 32 18.3243 32 18.8235V26.3529C32 26.8522 31.7893 27.331 31.4142 27.684C31.0391 28.037 30.5304 28.2353 30 28.2353H26V30.1176H27C27.2652 30.1176 27.5196 30.2168 27.7071 30.3933C27.8946 30.5698 28 30.8092 28 31.0588C28 31.3084 27.8946 31.5478 27.7071 31.7243C27.5196 31.9008 27.2652 32 27 32H19C18.7348 32 18.4804 31.9008 18.2929 31.7243C18.1054 31.5478 18 31.3084 18 31.0588C18 30.8092 18.1054 30.5698 18.2929 30.3933C18.4804 30.2168 18.7348 30.1176 19 30.1176H20V28.2353H16C15.4696 28.2353 14.9609 28.037 14.5858 27.684C14.2107 27.331 14 26.8522 14 26.3529V18.8235Z" fill="black"/>
</svg>
