<svg width="32" height="32" viewBox="0 0 32 32" fill="none" xmlns="http://www.w3.org/2000/svg">
<path d="M5.96948 30.25C5.12531 29.0833 4.70323 27.6667 4.70323 26H2.85812C2.44809 26 2.10415 25.808 1.8263 25.424C1.54845 25.04 1.41001 24.5653 1.41097 24C1.41194 23.4347 1.55086 22.96 1.82775 22.576C2.10464 22.192 2.44809 22 2.85812 22H5.82476C6.23479 21.3667 6.71717 20.8753 7.27191 20.526C7.82665 20.1767 8.41756 20.0013 9.04466 20C9.67176 19.9987 10.2627 20.174 10.8174 20.526C11.3722 20.878 11.8545 21.3693 12.2646 22H18.3064L21.3454 4H7.23573C6.82571 4 6.48225 3.808 6.20536 3.424C5.92848 3.04 5.78955 2.56533 5.78858 2C5.78762 1.43467 5.92655 0.96 6.20536 0.576C6.48418 0.192 6.82763 0 7.23573 0H23.1543C23.6367 0 24.0226 0.25 24.312 0.75C24.6015 1.25 24.6859 1.81667 24.5653 2.45L23.6246 8H26.4104C26.8687 8 27.3028 8.142 27.7128 8.426C28.1229 8.71 28.4605 9.10133 28.7258 9.6L31.4392 14.55C31.7045 15.0167 31.8734 15.5253 31.9457 16.076C32.0181 16.6267 32.0181 17.1847 31.9457 17.75L30.9689 24.4C30.8966 24.8667 30.7277 25.25 30.4624 25.55C30.1971 25.85 29.8956 26 29.5579 26H27.8575C27.8575 27.6667 27.4355 29.0833 26.5913 30.25C25.7471 31.4167 24.7221 32 23.5161 32C22.3102 32 21.2851 31.4167 20.4409 30.25C19.5968 29.0833 19.1747 27.6667 19.1747 26H13.3861C13.3861 27.6667 12.964 29.0833 12.1198 30.25C11.2757 31.4167 10.2506 32 9.04466 32C7.83871 32 6.81365 31.4167 5.96948 30.25ZM21.9604 18H28.9429L29.0876 16.95L26.4104 12H22.9734L21.9604 18ZM18.3787 21.65L18.6146 20.2C18.7709 19.2333 18.9697 18.05 19.2109 16.65C19.2832 16.2167 19.3556 15.8167 19.4279 15.45C19.5003 15.0833 19.5606 14.7167 19.6088 14.35L19.8447 12.9C20.001 11.9333 20.1997 10.75 20.4409 9.35C20.6821 7.95 20.8813 6.76667 21.0386 5.8L21.273 4.35L21.3454 4L18.3064 22L18.3787 21.65ZM1.44715 18.65C1.03713 18.65 0.69367 18.4587 0.416783 18.076C0.139896 17.6933 0.000969753 17.218 4.99016e-06 16.65C-0.000959773 16.082 0.137966 15.6073 0.416783 15.226C0.695599 14.8447 1.03906 14.6527 1.44715 14.65H6.51216C6.92218 14.65 7.26612 14.842 7.54397 15.226C7.82182 15.61 7.96027 16.0847 7.9593 16.65C7.95834 17.2153 7.81941 17.6907 7.54252 18.076C7.26564 18.4613 6.92218 18.6527 6.51216 18.65H1.44715ZM4.34144 11.35C3.93142 11.35 3.58796 11.158 3.31107 10.774C3.03419 10.39 2.89526 9.91533 2.89429 9.35C2.89333 8.78467 3.03226 8.31 3.31107 7.926C3.58989 7.542 3.93334 7.35 4.34144 7.35H10.8536C11.2636 7.35 11.6076 7.542 11.8854 7.926C12.1633 8.31 12.3017 8.78467 12.3007 9.35C12.2998 9.91533 12.1608 10.3907 11.884 10.776C11.6071 11.1613 11.2636 11.3527 10.8536 11.35H4.34144ZM9.04466 28C9.45469 28 9.79862 27.808 10.0765 27.424C10.3543 27.04 10.4928 26.5653 10.4918 26C10.4908 25.4347 10.3519 24.96 10.075 24.576C9.79814 24.192 9.45469 24 9.04466 24C8.63464 24 8.29118 24.192 8.01429 24.576C7.73741 24.96 7.59848 25.4347 7.59752 26C7.59655 26.5653 7.73548 27.0407 8.01429 27.426C8.29311 27.8113 8.63657 28.0027 9.04466 28ZM23.5161 28C23.9261 28 24.2701 27.808 24.5479 27.424C24.8258 27.04 24.9642 26.5653 24.9633 26C24.9623 25.4347 24.8234 24.96 24.5465 24.576C24.2696 24.192 23.9261 24 23.5161 24C23.1061 24 22.7626 24.192 22.4857 24.576C22.2089 24.96 22.0699 25.4347 22.069 26C22.068 26.5653 22.2069 27.0407 22.4857 27.426C22.7646 27.8113 23.108 28.0027 23.5161 28Z" fill="black"/>
</svg>
