<svg width="32" height="32" viewBox="0 0 32 32" fill="none" xmlns="http://www.w3.org/2000/svg">
<path d="M1.28125 18.3638V6.67578" stroke="black" stroke-width="2"/>
<path d="M27.472 2.99431C27.2071 2.34521 26.7987 1.79896 26.2927 1.41698C25.7868 1.03499 25.2033 0.832416 24.608 0.832031H17.6C16.72 0.832031 16 1.70863 16 2.78003V12.52H1.6C0.72 12.52 0 13.3966 0 14.468V22.26C0 24.4028 1.44 26.156 3.2 26.156C3.2 29.3702 5.36 32 8 32C10.64 32 12.8 29.3702 12.8 26.156H19.2C19.2 29.3702 21.36 32 24 32C26.64 32 28.8 29.3702 28.8 26.156C30.56 26.156 32 24.4028 32 22.26V14.9355C32 14.3317 31.888 13.7278 31.664 13.2018L27.472 2.99431ZM19.2 4.72803H24.608L27.808 12.52H19.2V4.72803ZM8 28.104C7.71917 28.1036 7.44334 28.0135 7.20007 27.8426C6.95681 27.6718 6.75463 27.4262 6.61373 27.1304C6.47283 26.8347 6.39814 26.4991 6.39714 26.1571C6.39613 25.8152 6.46884 25.479 6.608 25.182C7.2 23.9548 8.784 23.9548 9.376 25.182C9.52 25.4742 9.584 25.8054 9.584 26.1365C9.584 27.2079 8.864 28.0845 7.984 28.0845L8 28.104ZM24 28.104C23.7192 28.1036 23.4433 28.0135 23.2001 27.8426C22.9568 27.6718 22.7546 27.4262 22.6137 27.1304C22.4728 26.8347 22.3981 26.4991 22.3971 26.1571C22.3961 25.8152 22.4688 25.479 22.608 25.182C23.2 23.9548 24.784 23.9548 25.376 25.182C25.52 25.4742 25.584 25.8054 25.584 26.1365C25.584 27.2079 24.864 28.0845 23.984 28.0845L24 28.104ZM28.8 22.26H27.568C27.568 22.26 27.488 22.1626 27.44 22.1236C27.344 22.0068 27.248 21.9094 27.168 21.812C26.976 21.5977 26.768 21.4029 26.56 21.247C26.2252 20.986 25.8652 20.7766 25.488 20.6237C25.376 20.5847 25.264 20.5263 25.152 20.4873C24.784 20.3704 24.4 20.312 24 20.312C23.4 20.312 23.216 20.3899 22.848 20.4873C22.736 20.5263 22.624 20.5847 22.512 20.6237C22.256 20.7211 22.016 20.838 21.792 20.9938C21.68 21.0717 21.552 21.1496 21.44 21.247C21.232 21.4224 21.024 21.5977 20.832 21.812C20.736 21.9094 20.64 22.0068 20.544 22.1236C20.512 22.1821 20.464 22.2016 20.416 22.26H11.568C11.568 22.26 11.488 22.1626 11.44 22.1236C11.344 22.0068 11.248 21.9094 11.168 21.812C10.976 21.5977 10.768 21.4029 10.56 21.247C10.2252 20.986 9.86516 20.7766 9.488 20.6237C9.376 20.5847 9.264 20.5263 9.152 20.4873C8.784 20.3704 8.4 20.312 8 20.312C7.4 20.312 7.216 20.3899 6.848 20.4873C6.736 20.5263 6.624 20.5847 6.512 20.6237C6.256 20.7211 6.016 20.838 5.792 20.9938C5.68 21.0717 5.552 21.1496 5.44 21.247C5.232 21.4224 5.024 21.5977 4.832 21.812C4.736 21.9094 4.64 22.0068 4.544 22.1236C4.512 22.1821 4.464 22.2016 4.416 22.26H3.184V16.416H28.784V22.26H28.8Z" fill="black"/>
<path d="M10.2204 10.9189C10.3057 10.829 10.353 10.7084 10.3521 10.5835L10.3085 4.77392L13.516 4.71815C13.6065 4.71649 13.6948 4.68728 13.7697 4.63421C13.8446 4.58113 13.9027 4.50658 13.9367 4.41995C13.9707 4.33333 13.9791 4.23853 13.9608 4.14751C13.9424 4.0565 13.8982 3.97336 13.8337 3.9086L10.1397 0.203985C10.0532 0.117267 9.93633 0.0697451 9.81491 0.0718564C9.69348 0.0739677 9.57739 0.12554 9.49214 0.215245L5.85474 4.04734C5.79123 4.11433 5.74828 4.19898 5.73132 4.2906C5.71436 4.38223 5.72415 4.47672 5.75944 4.56214C5.79473 4.64756 5.85395 4.72007 5.92962 4.77053C6.00529 4.82099 6.09401 4.84712 6.18457 4.84562L9.39206 4.78985L9.42265 8.86479L9.43567 10.5994C9.43661 10.7243 9.48578 10.8433 9.57238 10.9301C9.57238 10.9301 9.77589 11.0646 9.89742 11.0625C10.0189 11.0604 10.1351 11.0087 10.2204 10.9189Z" fill="black"/>
</svg>
