<svg width="32" height="32" viewBox="0 0 32 32" fill="none" xmlns="http://www.w3.org/2000/svg">
<path d="M15.9941 5.48242C16.1769 6.28165 16.3698 7.02408 16.585 7.71191C17.2213 9.74613 18.0559 11.3775 19.3379 12.6562V12.6572C20.6169 13.9363 22.2489 14.7687 24.2842 15.4043C24.9714 15.6189 25.7131 15.8117 26.5117 15.9941C25.7129 16.1766 24.9708 16.3693 24.2832 16.584C22.2471 17.2196 20.6141 18.0519 19.332 19.3301L19.3301 19.332C18.0519 20.6141 17.2196 22.2471 16.584 24.2832C16.3693 24.9708 16.1766 25.7129 15.9941 26.5117C15.8117 25.7131 15.6189 24.9714 15.4043 24.2842C14.8084 22.3763 14.04 20.8226 12.8926 19.582L12.6572 19.3379C11.3784 18.0557 9.74639 17.2214 7.71191 16.585C7.02408 16.3698 6.28165 16.1769 5.48242 15.9941C6.28162 15.8115 7.02414 15.6192 7.71191 15.4043C9.74656 14.7687 11.3782 13.9362 12.6572 12.6572C13.9362 11.3782 14.7687 9.74656 15.4043 7.71191C15.6192 7.02414 15.8115 6.28162 15.9941 5.48242ZM9.86328 21.1611C10.0477 21.3047 10.2184 21.4547 10.376 21.6123C10.5355 21.7719 10.688 21.9448 10.834 22.1328C10.1098 22.5001 9.35782 22.9345 8.56641 23.4316C9.06345 22.6391 9.49707 21.8861 9.86328 21.1611ZM22.1309 21.1562C22.4963 21.8812 22.9287 22.6336 23.4248 23.4248C22.6336 22.9287 21.8812 22.4963 21.1562 22.1309C21.3018 21.9436 21.4533 21.7713 21.6123 21.6123C21.7713 21.4533 21.9436 21.3018 22.1309 21.1562ZM23.4316 8.56641C22.9345 9.35782 22.5001 10.1098 22.1328 10.834C21.9448 10.688 21.7719 10.5355 21.6123 10.376C21.4547 10.2184 21.3047 10.0477 21.1611 9.86328C21.8861 9.49707 22.6391 9.06345 23.4316 8.56641ZM8.57617 8.57617C9.36188 9.06894 10.1085 9.49861 10.8271 9.8623C10.6834 10.047 10.5338 10.2182 10.376 10.376C10.2182 10.5338 10.047 10.6834 9.8623 10.8271C9.49861 10.1085 9.06894 9.36188 8.57617 8.57617Z" stroke="black" stroke-width="2"/>
</svg>
