<svg width="33" height="33" viewBox="0 0 33 33" fill="none" xmlns="http://www.w3.org/2000/svg">
<path d="M23.1667 26.9H32.5V0.5H0.5V26.9H11.8333V18.1M11.8333 18.1H2.5V10.1H30.5V17.3V24.5H21.1667V18.1H11.8333Z" stroke="black"/>
<path d="M2.5 18.0996L6.5 10.0996" stroke="black"/>
<path d="M3.16797 10.1002L5.83464 3.7002" stroke="black" stroke-linecap="round"/>
<path d="M3.16797 22.8996L5.83464 18.0996" stroke="black" stroke-linecap="round"/>
<path d="M29.832 24.4996L27.1654 18.0996" stroke="black" stroke-linecap="round"/>
<path d="M29.832 10.1002L27.1654 3.7002" stroke="black" stroke-linecap="round"/>
<path d="M30.2196 17.7828L25.447 10.418" stroke="black"/>
<path d="M21.168 18.0996H30.5013" stroke="black"/>
<path d="M2.5 9.30039V2.90039H30.5V10.1004" stroke="black"/>
<path d="M11.1667 23.6996H2.5V18.0996" stroke="black"/>
<path d="M14.5013 18.9004V30.1004L11.168 32.5004" stroke="black" stroke-linecap="round"/>
<path d="M18.5 18.9004V30.1004L21.8333 32.5004" stroke="black" stroke-linecap="round"/>
<path d="M16.5 18.9004V32.5004" stroke="black" stroke-linecap="round"/>
</svg>
