<svg width="32" height="32" viewBox="0 0 32 32" fill="none" xmlns="http://www.w3.org/2000/svg">
<path d="M23.3513 32L22.4865 21.8947L19.8919 20.2105V13.4737C19.8919 12.5474 20.2309 11.7547 20.909 11.0956C21.587 10.4365 22.4012 10.1064 23.3513 10.1053H24.2162L25.9459 13.4737L27.6757 10.1053H28.5405C29.4919 10.1053 30.3066 10.4354 30.9846 11.0956C31.6627 11.7558 32.0011 12.5485 32 13.4737V20.2105L29.4054 21.8947L28.5405 32H23.3513ZM25.9459 8.42105C24.9946 8.42105 24.1805 8.09151 23.5036 7.43242C22.8267 6.77333 22.4876 5.98007 22.4865 5.05263H29.4054C29.4054 5.97895 29.067 6.77221 28.3901 7.43242C27.7132 8.09263 26.8984 8.42217 25.9459 8.42105ZM22.4865 3.36842V1.68421C22.4865 1.20702 22.6525 0.807298 22.9846 0.485053C23.3168 0.162807 23.7273 0.00112281 24.2162 0H27.6757C28.1658 0 28.5769 0.161684 28.909 0.485053C29.2411 0.808421 29.4066 1.20814 29.4054 1.68421V3.36842H22.4865ZM10.3784 32C9.88829 32 9.47776 31.8383 9.14681 31.5149C8.81586 31.1916 8.6498 30.7919 8.64865 30.3158V28.6316H0V25.2632H10.3784V16.8421H0V13.4737H8.99459L7.17838 8.42105H0V5.05263H7.78378C8.33153 5.05263 8.82912 5.20702 9.27654 5.51579C9.72396 5.82456 10.0336 6.23158 10.2054 6.73684L13.8378 16.8421V30.3158C13.8378 30.793 13.6718 31.1933 13.3397 31.5166C13.0076 31.84 12.597 32.0011 12.1081 32H10.3784ZM6.05405 23.5789C6.77477 23.5789 7.38768 23.3336 7.89276 22.8429C8.39784 22.3523 8.6498 21.7555 8.64865 21.0526C8.64749 20.3498 8.39553 19.7535 7.89276 19.264C7.38998 18.7745 6.77708 18.5286 6.05405 18.5263C5.33103 18.5241 4.7187 18.77 4.21708 19.264C3.71546 19.758 3.46292 20.3542 3.45946 21.0526C3.456 21.751 3.70854 22.3478 4.21708 22.8429C4.72562 23.3381 5.33795 23.5834 6.05405 23.5789Z" fill="black"/>
</svg>
