<svg width="32" height="32" viewBox="0 0 32 32" fill="none" xmlns="http://www.w3.org/2000/svg">
<path d="M4.5524 12.0929C3.9579 8.45346 9.44046 7.3698 10.2992 11.0706L11.7964 18.1655L17.345 18.1859C18.9744 18.1859 19.8111 19.4332 19.8111 20.5782V30.2493C19.8111 32.6006 16.3102 32.5802 16.3102 30.2084V22.7046H9.22028C7.56891 22.7046 6.53405 21.6005 6.26983 20.3533L4.5524 12.0929ZM3.89185 4.73222C3.78176 5.91811 4.39827 7.04266 5.43313 7.65605C6.49001 8.28989 7.83313 8.28989 8.86799 7.65605C9.92487 7.04266 10.5194 5.91811 10.4313 4.73222C10.4809 4.15901 10.3616 3.58408 10.0862 3.06902C9.81082 2.55395 9.38971 2.11818 8.86799 1.80839C7.83313 1.17455 6.49001 1.17455 5.43313 1.80839C4.39827 2.42178 3.78176 3.54633 3.89185 4.73222ZM0.0386421 15.8959C-0.357688 13.8718 2.41662 13.4015 2.79093 15.4257L4.02396 21.7436C4.28818 23.0522 5.30102 24.1972 6.75423 24.6061C7.17258 24.7492 7.63496 24.7492 8.07533 24.7901L12.0827 24.8106C14.2184 24.7901 14.1964 27.489 12.0606 27.4686L7.85515 27.4482C7.1946 27.4482 6.55606 27.3664 5.89552 27.1823C3.40744 26.4667 1.668 24.5039 1.20561 22.2139L0.0386421 15.8959Z" fill="black"/>
<path d="M25.9043 0C25.1038 0 24.3112 0.137953 23.5716 0.405982C22.832 0.67401 22.16 1.06687 21.594 1.56212C20.4508 2.56233 19.8086 3.9189 19.8086 5.33341C19.8086 6.74792 20.4508 8.10449 21.594 9.1047C22.16 9.59995 22.832 9.99281 23.5716 10.2608C24.3112 10.5289 25.1038 10.6668 25.9043 10.6668C27.521 10.6668 29.0715 10.1049 30.2146 9.1047C31.3578 8.10449 32 6.74792 32 5.33341C32 4.63301 31.8424 3.93948 31.536 3.2924C31.2297 2.64532 30.7807 2.05737 30.2146 1.56212C29.6486 1.06687 28.9766 0.67401 28.237 0.405982C27.4975 0.137953 26.7048 0 25.9043 0ZM28.4645 7.57344L25.2947 5.86675V2.6667H26.2091V5.44008L28.9522 6.8801L28.4645 7.57344Z" fill="black"/>
</svg>
