<svg width="33" height="34" viewBox="0 0 33 34" fill="none" xmlns="http://www.w3.org/2000/svg">
<path d="M30.1727 5.79791L31.9182 6.22652V3.9406L15.6273 0.511719L0.5 3.9406V6.22652L1.66364 5.9188L15.6273 2.22616L30.1727 5.79791ZM1.66364 5.9188V13.0843M30.1727 5.79791V31.9431H26.1M22.0273 31.9431H26.1M32.5 31.9431H26.1M26.1 31.9431V19.3706M26.1 12.5128V10.7984H6.31818V12.5128H26.1ZM26.1 12.5128V14.7987M26.1 14.7987H12.1364M26.1 14.7987V17.0846M26.1 17.0846H12.1364M26.1 17.0846V19.3706M26.1 19.3706H12.1364" stroke="black"/>
<path d="M10.3909 23.9394H20.2818V32.5116H10.3909M10.3909 23.9394V15.3672H0.5V23.9394M10.3909 23.9394H0.5M10.3909 23.9394V32.5116M0.5 23.9394V32.5116H10.3909" stroke="black"/>
<path d="M3.41797 15.3672V17.6531H6.90888H7.4907V15.3672" stroke="black"/>
<path d="M13.3008 24.5137V26.7996H16.7917H17.3735V24.5137" stroke="black"/>
<path d="M2.83984 24.5137V26.7996H6.33075H6.91257V24.5137" stroke="black"/>
</svg>
