<svg width="32" height="32" viewBox="0 0 32 32" fill="none" xmlns="http://www.w3.org/2000/svg">
<rect x="0.5" y="0.5" width="31" height="31" rx="1.5" stroke="black"/>
<path d="M4.66667 15.9999V29.2173H6V15.9999H6.66667V8.34774H6V4.17383H4.66667V8.34774H4V15.9999H4.66667ZM16.6667 4.86948C16.6667 5.05398 16.5964 5.23092 16.4714 5.36138C16.3464 5.49184 16.1768 5.56513 16 5.56513H12.6667V7.65209H16.6667V16.6956H8V7.65209H11.3333V5.56513H8C7.82319 5.56513 7.65362 5.49184 7.5286 5.36138C7.40357 5.23092 7.33333 5.05398 7.33333 4.86948C7.33333 4.68498 7.40357 4.50804 7.5286 4.37758C7.65362 4.24712 7.82319 4.17383 8 4.17383H16C16.1768 4.17383 16.3464 4.24712 16.4714 4.37758C16.5964 4.50804 16.6667 4.68498 16.6667 4.86948ZM20 7.65209C23.682 7.65209 26.6667 10.7665 26.6667 14.6086V16.6956H28V20.8695H18.6667V16.6956H20V15.9999C20 15.6309 19.8595 15.277 19.6095 15.0161C19.3594 14.7552 19.0203 14.6086 18.6667 14.6086H18V7.65209H20ZM23.6667 29.2173C24.9553 29.2173 26 28.0848 26 26.6879C26 24.4743 23.6667 22.2608 23.6667 22.2608C23.6667 22.2608 21.3333 24.4743 21.3333 26.6879C21.3333 28.0848 22.378 29.2173 23.6667 29.2173Z" fill="black"/>
<path fill-rule="evenodd" clip-rule="evenodd" d="M6 4.17383H4.66667V8.34774H4V15.9999H4.66667V29.2173H6V15.9999H6.66667V8.34774H6V4.17383ZM23.6667 24.3394C23.6356 24.3811 23.6051 24.4236 23.5753 24.4667C23.0353 25.2354 22.6667 26.0389 22.6667 26.6879C22.6667 27.3669 23.162 27.826 23.6667 27.826C24.1713 27.826 24.6667 27.3669 24.6667 26.6879C24.6667 26.0396 24.2987 25.2361 23.758 24.4667L23.6667 24.3394ZM19.8213 15.3043C19.9347 15.5088 20 15.7467 20 15.9999V16.6956H18.6667V20.8695H28V16.6956H26.6667V14.6086C26.6667 10.7665 23.682 7.65209 20 7.65209H18V14.6086H18.6667C18.9007 14.6086 19.1306 14.6729 19.3333 14.795C19.536 14.9171 19.7043 15.0928 19.8213 15.3043ZM19.3333 13.305C20.4833 13.6138 21.3333 14.7032 21.3333 15.9999V18.0869H20V19.4782H26.6667V18.0869H25.3333V14.6086C25.3333 13.1326 24.7714 11.7171 23.7712 10.6734C22.771 9.62973 21.4145 9.04339 20 9.04339H19.3333V13.305ZM9.33333 9.04339V15.3043H15.3333V9.04339H9.33333ZM16.6667 7.65209V16.6956H8V7.65209H11.3333V5.56513H8C7.82319 5.56513 7.65362 5.49184 7.5286 5.36138C7.40357 5.23092 7.33333 5.05398 7.33333 4.86948C7.33333 4.68498 7.40357 4.50804 7.5286 4.37758C7.65362 4.24712 7.82319 4.17383 8 4.17383H16C16.1768 4.17383 16.3464 4.24712 16.4714 4.37758C16.5964 4.50804 16.6667 4.68498 16.6667 4.86948C16.6667 5.05398 16.5964 5.23092 16.4714 5.36138C16.3464 5.49184 16.1768 5.56513 16 5.56513H12.6667V7.65209H16.6667ZM26 26.6879C26 28.0848 24.9553 29.2173 23.6667 29.2173C22.378 29.2173 21.3333 28.0848 21.3333 26.6879C21.3333 24.4743 23.6667 22.2608 23.6667 22.2608C23.6667 22.2608 26 24.4743 26 26.6879Z" fill="black"/>
</svg>
