<svg width="32" height="32" viewBox="0 0 32 32" fill="none" xmlns="http://www.w3.org/2000/svg">
<path d="M16.7775 0.2531L31.1781 10.2521C31.9481 10.7896 32.2281 12.0082 31.7981 12.9706C31.3681 13.933 30.393 14.283 29.623 13.7455L16.0025 4.29021L2.37699 13.7518C1.60696 14.2892 0.631925 13.9393 0.201909 12.9769C-0.228107 12.0145 0.051903 10.7958 0.821932 10.2584L15.2275 0.2531C15.7125 -0.0843668 16.2975 -0.0843668 16.7825 0.2531H16.7775ZM16.0025 10.0021C16.533 10.0021 17.0417 10.2655 17.4168 10.7343C17.7919 11.2031 18.0026 11.8389 18.0026 12.5019C18.0026 13.1649 17.7919 13.8007 17.4168 14.2695C17.0417 14.7383 16.533 15.0017 16.0025 15.0017C15.472 15.0017 14.9633 14.7383 14.5882 14.2695C14.2131 13.8007 14.0024 13.1649 14.0024 12.5019C14.0024 11.8389 14.2131 11.2031 14.5882 10.7343C14.9633 10.2655 15.472 10.0021 16.0025 10.0021ZM7.20217 16.0016C7.73262 16.0016 8.24135 16.2649 8.61644 16.7337C8.99152 17.2025 9.20225 17.8383 9.20225 18.5013C9.20225 19.1643 8.99152 19.8001 8.61644 20.2689C8.24135 20.7377 7.73262 21.0011 7.20217 21.0011C6.67172 21.0011 6.16299 20.7377 5.7879 20.2689C5.41282 19.8001 5.2021 19.1643 5.2021 18.5013C5.2021 17.8383 5.41282 17.2025 5.7879 16.7337C6.16299 16.2649 6.67172 16.0016 7.20217 16.0016ZM22.8028 18.5013C22.8028 17.8383 23.0135 17.2025 23.3886 16.7337C23.7636 16.2649 24.2724 16.0016 24.8028 16.0016C25.3333 16.0016 25.842 16.2649 26.2171 16.7337C26.5922 17.2025 26.8029 17.8383 26.8029 18.5013C26.8029 19.1643 26.5922 19.8001 26.2171 20.2689C25.842 20.7377 25.3333 21.0011 24.8028 21.0011C24.2724 21.0011 23.7636 20.7377 23.3886 20.2689C23.0135 19.8001 22.8028 19.1643 22.8028 18.5013ZM11.3473 30.7126L10.0023 27.5942V30.0002C10.0023 31.1063 9.28725 32 8.40222 32H6.00213C5.11709 32 4.40207 31.1063 4.40207 30.0002V27.5942L3.05702 30.7126C2.742 31.4438 2.01698 31.7125 1.43195 31.3251C0.846933 30.9376 0.631925 30.0252 0.941936 29.294L2.83701 24.9007C3.60204 23.1196 5.09209 22.0072 6.71215 22.0072H7.68719C8.50222 22.0072 9.28225 22.2884 9.95727 22.7946L11.6373 18.9013C12.4024 17.1202 13.8924 16.0078 15.5125 16.0078H16.4875C18.1076 16.0078 19.5926 17.1202 20.3627 18.9013L22.0427 22.7946C22.7178 22.2884 23.4978 22.0072 24.3128 22.0072H25.2878C26.9079 22.0072 28.393 23.1196 29.163 24.9007L31.0581 29.294C31.3731 30.0252 31.1531 30.9314 30.568 31.3251C29.983 31.7188 29.258 31.4438 28.943 30.7126L27.6029 27.5942V30.0002C27.6029 31.1063 26.8879 32 26.0029 32H23.6028C22.7178 32 22.0027 31.1063 22.0027 30.0002V27.5942L20.6577 30.7126C20.3427 31.4438 19.6176 31.7125 19.0326 31.3251C18.4476 30.9376 18.2326 30.0252 18.5426 29.294L20.3577 25.0757C20.2727 24.9694 20.1977 24.8507 20.1427 24.7132L18.8026 21.5948V25.0007C18.8026 26.1068 18.0876 27.0005 17.2025 27.0005H14.8025C13.9174 27.0005 13.2024 26.1068 13.2024 25.0007V21.5948L11.8573 24.7132C11.7973 24.8507 11.7273 24.9694 11.6423 25.0757L13.4574 29.294C13.7724 30.0252 13.5524 30.9314 12.9674 31.3251C12.3824 31.7188 11.6573 31.4438 11.3423 30.7126H11.3473Z" fill="black"/>
</svg>
