<svg width="32" height="32" viewBox="0 0 32 32" fill="none" xmlns="http://www.w3.org/2000/svg">
<path fill-rule="evenodd" clip-rule="evenodd" d="M8.53359 14.2705V22.0707C8.43297 22.0598 8.33138 22.0543 8.22881 22.0543C7.45218 22.0543 6.72776 22.3713 6.11632 22.9191H1.28004V29.8381H4.57044C4.75934 30.4797 5.03037 31.0662 5.36981 31.5678H0V14.2705H8.53359ZM4.87634 24.6489V24.6785C4.64332 25.2018 4.47317 25.7763 4.37281 26.3786H3.65725V24.6489H4.87634ZM7.31449 19.4597H1.21909V21.1894H7.31449V19.4597ZM7.31449 16.0003H1.21909V17.73H7.31449V16.0003ZM11.1227 26.3057L10.5809 26.7496C10.6398 27.0513 10.6695 27.3629 10.6693 27.6759C10.6695 27.989 10.6398 28.3006 10.5809 28.6022L11.1227 29.0461C11.0642 29.2947 10.9898 29.5352 10.9005 29.7646L10.8435 29.9046C10.7471 30.1314 10.6363 30.3453 10.5125 30.5435L9.97083 30.0998C9.6651 30.5415 9.27649 30.8672 8.84071 31.0264V31.9138C8.64008 31.9715 8.43588 32.0004 8.23118 32.0002C8.02243 32.0002 7.81859 31.9705 7.62162 31.9138V31.0264C7.18583 30.8672 6.79717 30.5414 6.49144 30.0997L5.94983 30.5434C5.82545 30.3443 5.71423 30.1295 5.61759 29.9015L5.56313 29.7677C5.47319 29.5373 5.39837 29.2957 5.33961 29.0459L5.88137 28.6021C5.82254 28.3005 5.79281 27.9889 5.79299 27.6759C5.79281 27.363 5.82254 27.0514 5.88137 26.7497L5.33961 26.3059C5.39838 26.0561 5.47323 25.8144 5.56319 25.584L5.61753 25.4505C5.71419 25.2225 5.82542 25.0076 5.94983 24.8085L6.49144 25.2522C6.79717 24.8104 7.18583 24.4846 7.62162 24.3255V23.4381C7.82225 23.3804 8.02646 23.3514 8.23118 23.3516C8.43993 23.3516 8.64376 23.3814 8.84071 23.4381V24.3255C9.27649 24.4846 9.6651 24.8104 9.97083 25.2521L10.5125 24.8084C10.6363 25.0066 10.7472 25.2205 10.8435 25.4473L10.9004 25.5872C10.9898 25.8166 11.0642 26.0571 11.1227 26.3057ZM9.14552 27.6759C9.14552 28.3924 8.73616 28.9732 8.23121 28.9732C7.72625 28.9732 7.31689 28.3924 7.31689 27.6759C7.31689 26.9595 7.72625 26.3786 8.23121 26.3786C8.73616 26.3786 9.14552 26.9595 9.14552 27.6759Z" fill="black"/>
<path d="M26.2876 28.5406H15.773C15.5993 28.5405 15.4321 28.4468 15.3051 28.2785C15.1782 28.1102 15.101 27.8798 15.0891 27.6339C15.0773 27.388 15.1317 27.1448 15.2413 26.9536C15.351 26.7623 15.5077 26.6373 15.6798 26.6037L15.773 26.5946H17.3731V23.354H12.1158C11.5702 23.354 11.0469 23.0464 10.6611 22.499C10.2753 21.9516 10.0586 21.2092 10.0586 20.435V2.91892C10.0586 2.14477 10.2753 1.40234 10.6611 0.854932C11.0469 0.307528 11.5702 0 12.1158 0H29.944C30.4896 0 31.0128 0.307528 31.3986 0.854932C31.7844 1.40234 32.0012 2.14477 32.0012 2.91892V20.435C32.0012 21.2092 31.7844 21.9516 31.3986 22.499C31.0128 23.0464 30.4896 23.354 29.944 23.354H24.6858V26.5946H26.2876C26.4535 26.5947 26.6137 26.68 26.7386 26.8348C26.8635 26.9896 26.9446 27.2034 26.967 27.4366L26.9734 27.5676C26.9736 27.8029 26.9137 28.0304 26.8047 28.2079C26.6958 28.3853 26.5452 28.5008 26.3809 28.5328L26.2876 28.5406ZM23.3143 23.354H18.7446V26.5946H23.3152L23.3143 23.354ZM29.943 1.94595H12.1158C11.9339 1.94595 11.7595 2.04846 11.6309 2.23092C11.5023 2.41339 11.4301 2.66087 11.4301 2.91892V20.435C11.4301 20.9734 11.7373 21.408 12.1158 21.408L24.0009 21.4054L24.0265 21.408H29.944C30.1258 21.408 30.3002 21.3055 30.4288 21.123C30.5574 20.9406 30.6297 20.6931 30.6297 20.435V2.91892C30.6297 2.66087 30.5574 2.41339 30.4288 2.23092C30.3002 2.04846 30.1258 1.94595 29.944 1.94595" fill="black"/>
</svg>
