<svg width="34" height="34" viewBox="0 0 34 34" fill="none" xmlns="http://www.w3.org/2000/svg">
<path d="M12.027 18.4847C12.6347 17.8424 13.1388 18.2853 13.8116 19.3449C13.8872 19.4645 13.9888 19.3245 14.0468 19.2563C14.1047 19.1881 14.9918 18.1002 15.0355 18.0505C15.0785 17.9983 15.1306 17.9008 15.0622 17.7919C14.8974 17.5147 14.7361 17.2338 14.5782 16.9493C13.4006 14.8541 17.7997 13.4331 17.1243 13.4109C16.7804 13.3985 15.4009 13.3764 15.1944 13.4074C14.3587 13.527 13.3095 14.5892 12.7812 15.0844C12.0902 15.7276 11.8322 16.105 11.7899 16.1573C11.5945 16.3894 11.7586 16.9254 11.4043 17.348C11.0298 17.7936 10.796 17.4561 10.5791 17.7148C10.4716 17.8441 10.1707 18.1507 10.0847 18.2525C9.99809 18.3562 9.98246 18.5307 10.071 18.6698C10.071 18.6698 10.8943 19.9066 10.9634 20.0164C11.0318 20.1245 11.218 20.2184 11.3327 20.0793C11.448 19.9411 11.7443 19.5894 11.7938 19.5274C11.8446 19.4689 11.7612 18.7646 12.027 18.4847ZM15.7448 18.9427C15.6666 18.8195 15.5696 18.816 15.4862 18.917L14.5522 20.0262C14.5163 20.0708 14.4944 20.1326 14.4911 20.1986C14.4879 20.2646 14.5034 20.3298 14.5346 20.3806L19.9367 28.7429C20.0631 28.9404 20.2819 28.9608 20.4259 28.7898L21.0577 28.0696C21.1272 27.9863 21.1698 27.869 21.1761 27.7433C21.1825 27.6175 21.1521 27.4935 21.0915 27.398L15.7448 18.9427ZM22.9478 15.3839C22.8996 14.9462 22.7329 15.0375 22.6463 15.2227C22.5596 15.4096 22.1767 16.199 22.019 16.5569C21.8627 16.9112 21.4771 17.612 20.7594 16.9201C20.0116 16.2016 20.2715 15.7002 20.4018 15.3626C20.5327 15.0233 20.9346 14.0718 20.9925 13.954C21.0505 13.8344 20.9828 13.4871 20.7509 13.6324C20.5184 13.7777 19.1076 14.5405 18.9122 15.6346C18.7122 16.7473 19.0796 17.7422 18.3586 18.7301L17.4838 19.9704L18.3625 21.3577L19.4398 19.9668C19.6964 19.616 20.2448 19.2749 20.7411 19.4291C21.8048 19.756 22.3851 19.2129 22.7349 18.3146C23.0488 17.5119 22.9967 15.8215 22.9478 15.3839ZM11.7691 27.4884C11.7042 27.5779 11.6679 27.6985 11.6679 27.8242C11.6679 27.9498 11.7042 28.0704 11.7691 28.1599L12.3885 28.9838C12.5239 29.169 12.7389 29.091 12.8744 28.9059L16.0704 24.6321L15.0915 23.1137L11.7691 27.4884Z" fill="black"/>
<path d="M3.09459 13.2404L29.473 5.56741L31.6351 4.93848M0.5 13.9951L3.09459 13.2404M3.09459 13.2404V32.7121H0.5H29.473M31.6351 32.7121H29.473M29.473 32.7121V5.56741" stroke="black" stroke-linecap="round"/>
<path d="M0.5 13.9949L1.36486 9.76852L32.5 0.711914L31.6351 4.93833" stroke="black" stroke-linecap="round"/>
</svg>
