<svg width="34" height="34" viewBox="0 0 34 34" fill="none" xmlns="http://www.w3.org/2000/svg">
<path d="M0.425781 32.6653H1.70578V18.0393L2.98578 15.8232L4.26578 18.0393V32.6653H9.38578V18.0393L10.6658 15.8232L11.9458 18.0393V32.6653H17.0658V18.0393L18.3458 16.2665L19.6258 18.0393V32.6653H20.9058H0.425781Z" stroke="black"/>
<path d="M4.26953 21.584H9.38953" stroke="black"/>
<path d="M11.9453 21.584H17.0653" stroke="black"/>
<path d="M11.9453 28.6768H17.0653" stroke="black"/>
<path d="M4.26953 28.6768H9.38953" stroke="black"/>
<path d="M1.70667 21.584H0" stroke="black"/>
<path d="M1.70667 28.6768H0" stroke="black"/>
<path d="M21.3317 28.6768H19.625" stroke="black"/>
<path d="M21.3317 21.584H19.625" stroke="black"/>
<path d="M20.6359 32.665H28.2108M29.834 32.665H28.2108M28.2108 32.665V11.545H31.9983L18.4717 0.665039L7.10938 11.545H11.9789V14.105" stroke="black"/>
</svg>
