<svg width="34" height="32" viewBox="0 0 34 32" fill="none" xmlns="http://www.w3.org/2000/svg">
<path d="M31.9717 10.6309V31.5H30.8125V10.7744H3.1875V31.5H2.02832V10.6309L17 3.24707L31.9717 10.6309ZM23.9121 30.9385V31.5H22.7529V30.9385H23.9121ZM11.2471 30.9385V31.5H10.0879V30.9385H11.2471ZM12.3945 18.3047H21.6055C21.9735 18.3047 22.2681 18.5319 22.5713 18.9307C22.859 19.3091 23.1067 19.8015 23.3281 20.3838C23.6218 21.1563 23.8471 22.0385 23.9648 22.8926L24.042 23.4463L24.583 23.3096C24.8858 23.2331 25.2339 23.1664 25.5088 23.167C25.597 23.1672 25.6621 23.1763 25.708 23.1855C25.6872 23.2176 25.6525 23.2653 25.5859 23.3271C25.4031 23.4972 25.1131 23.6722 24.791 23.8301L24.4082 24.0176L24.5342 24.4258L24.5908 24.6338C24.7087 25.1289 24.7754 25.7568 24.7754 26.3926C24.7754 27.0291 24.709 27.6579 24.5908 28.1533C24.5435 28.3518 24.4831 28.5229 24.4248 28.6611H9.5752C9.51691 28.5229 9.45654 28.3518 9.40918 28.1533C9.29102 27.6579 9.22461 27.0291 9.22461 26.3926C9.22462 25.756 9.29101 25.1271 9.40918 24.6318C9.42585 24.5619 9.4455 24.4939 9.4668 24.4238L9.59082 24.0176L9.20898 23.8301C8.88691 23.6722 8.59687 23.4972 8.41406 23.3271C8.34723 23.265 8.31177 23.2176 8.29102 23.1855C8.33693 23.1762 8.40236 23.1672 8.49121 23.167C8.76612 23.1664 9.11424 23.2331 9.41699 23.3096L9.95801 23.4463L10.0352 22.8926C10.153 22.0385 10.3782 21.1563 10.6719 20.3838C10.8933 19.8014 11.141 19.3092 11.4287 18.9307C11.732 18.5318 12.0265 18.3047 12.3945 18.3047ZM11.2432 24.7568C10.8075 24.7568 10.3883 24.9276 10.0781 25.2334C9.76772 25.5396 9.59184 25.9566 9.5918 26.3926C9.5918 26.8286 9.76769 27.2456 10.0781 27.5518C10.3883 27.8576 10.8075 28.0283 11.2432 28.0283C11.6789 28.0283 12.098 27.8576 12.4082 27.5518C12.7186 27.2456 12.8945 26.8286 12.8945 26.3926C12.8945 25.9566 12.7186 25.5396 12.4082 25.2334C12.098 24.9276 11.6788 24.7568 11.2432 24.7568ZM22.7568 24.7568C22.3212 24.7568 21.902 24.9276 21.5918 25.2334C21.2814 25.5396 21.1055 25.9566 21.1055 26.3926C21.1055 26.8286 21.2814 27.2456 21.5918 27.5518C21.902 27.8576 22.3211 28.0283 22.7568 28.0283C23.1925 28.0283 23.6117 27.8576 23.9219 27.5518C24.2323 27.2456 24.4082 26.8286 24.4082 26.3926C24.4082 25.9566 24.2323 25.5396 23.9219 25.2334C23.6117 24.9276 23.1925 24.7568 22.7568 24.7568ZM12.3945 19.0869C12.3681 19.1042 12.2375 19.1709 12.0674 19.3945L12.042 19.4316C11.9885 19.3776 11.9377 19.302 11.9131 19.1973C11.8599 18.9707 11.9793 18.8111 12.002 18.7812C12.0383 18.7336 12.0746 18.7036 12.085 18.6953C12.0998 18.6834 12.1122 18.6752 12.1172 18.6719C12.1231 18.6679 12.1279 18.6643 12.1299 18.6631C12.1193 18.6695 12.0804 18.6931 12.0312 18.7285C11.9318 18.8004 11.8049 18.913 11.6689 19.0918C11.4174 19.4228 11.1607 19.9239 10.9502 20.4775C10.671 21.2119 10.46 22.0746 10.3447 22.8848L10.2383 23.6377L10.9717 23.4385C12.5786 23.0018 14.3778 22.9893 17 22.9893C19.6222 22.9893 21.4214 23.0018 23.0283 23.4385L23.7617 23.6377L23.6553 22.8848C23.54 22.0745 23.329 21.2119 23.0498 20.4775C22.8393 19.924 22.5827 19.4228 22.3311 19.0918C22.1951 18.913 22.0682 18.8004 21.9688 18.7285L21.8828 18.6719C21.8878 18.6752 21.9002 18.6834 21.915 18.6953C21.9254 18.7036 21.9626 18.7334 21.999 18.7812C22.022 18.8115 22.14 18.9712 22.0869 19.1973C22.0623 19.3019 22.0105 19.3766 21.957 19.4307L21.9326 19.3945C21.7625 19.1708 21.6319 19.1042 21.6055 19.0869V18.582H12.3945V19.0869ZM28.3018 15.749V16.0264H5.69824V15.749H28.3018ZM28.3018 13.1943V13.4717H5.69824V13.1943H28.3018ZM26.6777 5.47656L17.2207 0.813477L17 0.704102L16.7793 0.813477L7.32129 5.47656L17 0.560547L26.6777 5.47656Z" stroke="black"/>
</svg>
