<svg width="34" height="34" viewBox="0 0 34 34" fill="none" xmlns="http://www.w3.org/2000/svg">
<path d="M16.7509 5.80273C24.8133 5.80273 31.4838 12.3947 32.5901 20.9682C32.7676 22.3493 31.7307 23.4869 30.4682 23.4869H3.03352C1.77104 23.4869 0.73333 22.3501 0.911615 20.9682C2.0179 12.3947 8.68761 5.80273 16.7509 5.80273Z" stroke="black" stroke-width="1.5" stroke-linecap="round" stroke-linejoin="round"/>
<path d="M16.75 10.0132C21.1355 10.0132 24.9443 12.7433 26.8605 16.75M16.75 0.75V5.80263M19.7976 0.75H13.7024M30.5748 28.6161C31.4967 28.6296 32.4871 28.9723 32.6852 29.9668C32.7256 30.1681 32.75 30.3938 32.75 30.6447C32.75 30.8957 32.7256 31.1214 32.6852 31.3226C32.4871 32.3172 31.4967 32.6599 30.5748 32.6734C28.4955 32.7028 24.0506 32.75 16.75 32.75C9.44943 32.75 5.00448 32.7028 2.92524 32.6734C2.00333 32.6599 1.01286 32.3172 0.814762 31.3226C0.774381 31.1214 0.75 30.8957 0.75 30.6447C0.75 30.3938 0.774381 30.1681 0.814762 29.9668C1.01286 28.9723 2.00333 28.6296 2.92524 28.6161C5.00448 28.5866 9.44943 28.5395 16.75 28.5395C24.0506 28.5395 28.4955 28.5866 30.5748 28.6161Z" stroke="black" stroke-width="1.5" stroke-linecap="round" stroke-linejoin="round"/>
</svg>
