<svg width="32" height="32" viewBox="0 0 32 32" fill="none" xmlns="http://www.w3.org/2000/svg">
<path d="M2.55957 7.83691H7.74512C8.16164 7.83581 8.56337 7.91808 8.90234 8.06738C9.24251 8.21723 9.4898 8.42052 9.63672 8.63477L10.5488 9.96582V9.91992L15.2578 16.5918L15.3115 16.668C15.4141 16.8416 15.4668 17.0199 15.4668 17.1992V31.4863H0.5V9.12891C0.5 8.84272 0.665574 8.53157 1.03711 8.27148C1.40689 8.01264 1.94418 7.83691 2.55957 7.83691ZM6.58496 17.1426C5.52706 17.2724 4.62732 17.5986 3.91699 18.1318C3.08244 18.7512 2.63281 19.5634 2.63281 20.5381C2.63288 21.4742 3.01292 22.2802 3.75684 22.9209C4.41186 23.4922 5.36834 23.8994 6.5752 24.1787V25.999C6.5151 25.9531 6.45594 25.9049 6.39941 25.8525L6.39746 25.8506C6.15253 25.6253 5.99584 25.3718 5.90918 25.0713L5.79688 24.6807L5.3916 24.7119L2.67188 24.917L2.09375 24.9609L2.22168 25.5264C2.46229 26.589 2.99661 27.446 3.86328 28.0498L3.86621 28.0518C4.60364 28.5589 5.5084 28.8809 6.5752 29.0234V30.4023H9.09082V28.9814C10.2264 28.8157 11.1801 28.4788 11.9287 27.9336H11.9443L12.0811 27.8252C12.9499 27.1366 13.4092 26.2545 13.4092 25.21C13.4091 24.2785 13.0422 23.4945 12.3271 22.8955C11.6764 22.3504 10.5675 21.9516 9.09961 21.6426V20.0391C9.23363 20.1728 9.32024 20.3289 9.37012 20.5068L9.48242 20.9072L9.89648 20.8701L12.5312 20.6309L13.1094 20.5781L12.9717 20.0137C12.7612 19.1543 12.2577 18.467 11.5107 17.9707C10.8689 17.5443 10.0532 17.2769 9.09961 17.1494V16.374H6.58496V17.1426ZM9.08105 24.7402C9.28199 24.8103 9.43087 24.8844 9.53711 24.957L9.61133 25.0137C9.78317 25.166 9.84078 25.3106 9.84082 25.4756C9.84082 25.6652 9.76857 25.8423 9.53711 26.0352C9.40825 26.139 9.25857 26.2271 9.08105 26.2959V24.7402ZM6.56641 20.9268C6.50547 20.8858 6.45271 20.8466 6.41016 20.8057C6.26704 20.6591 6.23057 20.5417 6.23047 20.4453C6.23047 20.3302 6.2753 20.1959 6.44141 20.0381L6.49805 19.9834C6.52033 19.9652 6.5418 19.945 6.56641 19.9277V20.9268ZM22.4736 0.5C22.9195 0.500023 23.3587 0.563524 23.7627 0.68457C24.1667 0.805671 24.5218 0.980153 24.8096 1.19141C25.0975 1.4029 25.3068 1.64321 25.4375 1.88965C25.5672 2.1342 25.6194 2.38408 25.6016 2.62793L25.5996 2.66406L25.6016 2.70117C25.6193 2.94492 25.5671 3.19501 25.4375 3.43945C25.3068 3.6858 25.0974 3.92529 24.8096 4.13672C24.5218 4.34808 24.1669 4.52339 23.7627 4.64453C23.3587 4.76558 22.9195 4.82908 22.4736 4.8291C22.0277 4.8291 21.5886 4.76556 21.1846 4.64453C20.7802 4.52336 20.4246 4.34819 20.1367 4.13672C19.8489 3.92526 19.6394 3.68584 19.5088 3.43945C19.3792 3.19502 19.327 2.94491 19.3447 2.70117L19.3477 2.66406L19.3447 2.62793C19.3269 2.38416 19.3792 2.13413 19.5088 1.88965C19.6395 1.64322 19.8488 1.4029 20.1367 1.19141C20.4246 0.979985 20.7802 0.80572 21.1846 0.68457C21.5886 0.563519 22.0277 0.5 22.4736 0.5ZM27.0049 18.6035L26.9785 18.5254L24.5137 11.2451L24.165 10.2158L23.6104 11.1504C23.4646 11.3958 23.3032 11.6656 23.165 11.8916C23.0198 12.1292 22.9178 12.2864 22.8818 12.333C22.6663 12.5991 22.4722 12.7677 22.0195 12.918L18.0615 14.0801L17.96 14.1045C17.7834 14.146 17.6267 14.1709 17.4629 14.1709H17.4609C17.272 14.1716 17.0869 14.1455 16.917 14.0967C16.7467 14.0477 16.5995 13.9781 16.4824 13.8965C16.3654 13.8148 16.2851 13.726 16.2354 13.6426C16.1872 13.5618 16.1671 13.4854 16.166 13.416C16.1662 13.2234 16.3421 12.9279 16.8467 12.7637L17.0938 12.6826L20.2227 11.7451L20.2334 11.7412L20.2451 11.7373C20.2845 11.7234 20.4006 11.6813 20.5303 11.6064C20.6517 11.5363 20.8287 11.4119 20.9521 11.2139L20.9531 11.2148C21.3184 10.6384 22.8821 7.87728 23.2217 7.28809L23.2207 7.28711C23.446 6.90082 24.043 6.26522 25.3867 6.03125L25.3877 6.03027C26.1393 5.89776 26.8917 5.99944 27.4912 6.25879C28.0217 6.48831 28.392 6.8218 28.5723 7.18262L28.6377 7.33887L30.9521 14.1543L31.0049 14.3086L31.0205 14.3193C31.1051 14.5862 31.2152 14.9937 31.3086 15.418C31.4228 15.9371 31.4999 16.4163 31.5 16.668L31.4814 29.9717C31.4752 30.6973 30.6799 31.5059 29.208 31.5C27.7478 31.494 27.0049 30.6968 27.0049 29.9619V18.6035Z" stroke="black"/>
</svg>
