<svg width="32" height="32" viewBox="0 0 32 32" fill="none" xmlns="http://www.w3.org/2000/svg">
<path d="M28.6363 12.9102C32.1979 9.34967 33.0896 3.99561 30.5456 1.45432C28.0027 -1.08965 22.6509 -0.197927 19.0899 3.36256C16.1683 6.28572 15.5107 10.059 17.2835 12.8072L16.3438 13.7469C16.1773 13.9143 16.0578 14.1225 15.9973 14.3506C15.9368 14.5788 15.9375 14.8188 15.9993 15.0467L9.59085 21.453L6.8469 23.2444C6.8469 23.2444 4.45922 25.631 1.59581 28.4955C1.33661 28.7537 0.297701 29.1643 0.297701 29.1643C-0.0388256 29.3217 -0.099091 29.6651 0.163304 29.927L2.0726 31.8363C2.33499 32.0987 2.67792 32.0395 2.83525 31.703C2.83525 31.703 3.24591 30.6635 3.50404 30.4048L8.7562 25.1537L10.5455 22.4092L16.9539 16.0008C17.1816 16.0624 17.4216 16.0631 17.6497 16.0026C17.8777 15.9421 18.0858 15.8227 18.2531 15.6563L19.1928 14.7171C21.9421 16.4904 25.7148 15.8333 28.6363 12.9102ZM20.293 4.08788L21.0002 4.79454L20.045 5.74972L19.3709 5.07507C19.5794 4.81747 19.7992 4.56307 20.045 4.31721C20.125 4.23774 20.2109 4.16521 20.293 4.08788ZM26.1623 1.36472L26.7276 1.93004L25.7729 2.88523L24.8177 1.93004L25.2727 1.47618C25.5667 1.42124 25.8638 1.38402 26.1623 1.36472ZM23.8647 7.65903L22.9095 8.61315L21.9543 7.65796L22.9084 6.70491L23.8647 7.65903ZM23.3868 6.22705L24.342 5.27186L25.2951 6.22705L24.342 7.18224L23.3868 6.22705ZM22.4327 9.09048L21.4775 10.0457L20.5224 9.09154L21.4775 8.13636L22.4327 9.09048ZM22.4327 11.955L21.4775 12.9091L20.5224 11.956L21.4775 10.9998L22.4327 11.955ZM21.9543 10.5225L22.9095 9.56834L23.8647 10.5225L22.9095 11.4766L21.9543 10.5225ZM24.342 10.9998L25.2951 11.956L24.341 12.9102L23.3858 11.956L24.342 10.9998ZM24.341 10.0457L23.3868 9.09048L24.342 8.13636L25.2951 9.09154L24.341 10.0457ZM24.8177 7.65903L25.7729 6.70491L26.727 7.65903L25.7729 8.61315L24.8177 7.65903ZM26.2502 6.22705L27.2054 5.27186L28.1595 6.22705L27.2054 7.18224L26.2502 6.22705ZM28.6374 6.70384L29.5915 7.65903L28.6374 8.61315L27.6833 7.65796L28.6374 6.70384ZM29.1147 6.22705L30.0699 5.27186L30.6358 5.83772C30.6163 6.13658 30.5789 6.43401 30.5238 6.72838L30.0699 7.18224L29.1147 6.22705ZM28.6374 5.74972L27.6833 4.79347L28.6374 3.83935L29.5915 4.79347L28.6374 5.74972ZM27.2054 4.31774L26.2502 3.36256L27.2054 2.40737L28.1595 3.36256L27.2054 4.31774ZM26.727 4.79454L25.7729 5.74972L24.8177 4.79454L25.7729 3.84042L26.727 4.79454ZM24.342 4.31774L23.3868 3.36256L24.342 2.40844L25.2951 3.36256L24.342 4.31774ZM23.8647 4.79454L22.9095 5.74972L21.9543 4.79347L22.9095 3.83935L23.8647 4.79454ZM22.4327 6.22705L21.4775 7.18117L20.5234 6.22705L21.4775 5.27186L22.4327 6.22705ZM21.0002 7.65903L20.045 8.61315L19.0899 7.65903L20.045 6.70491L21.0002 7.65903ZM19.5677 9.09048L18.6136 10.0446L17.6835 9.11608L17.6867 9.06381L18.6136 8.13636L19.5677 9.09048ZM20.045 9.56834L21.0002 10.5225L20.045 11.4776L19.0899 10.5225L20.045 9.56834ZM21.0002 13.3875L20.4962 13.8915C20.0775 13.6964 19.6892 13.4418 19.3432 13.1358L20.045 12.4334L21.0002 13.3875ZM21.4775 13.8653L21.8994 14.2861C21.6628 14.256 21.4287 14.2082 21.1992 14.1432L21.4775 13.8653ZM22.8844 14.3176L21.9543 13.3875L22.9095 12.4323L23.8647 13.3875L22.9378 14.3144L22.8844 14.3176ZM24.342 13.8643L24.4807 14.0029C24.3491 14.0467 24.2176 14.086 24.086 14.1208L24.342 13.8643ZM24.8188 13.3875L25.7729 12.4334L26.3793 13.0387C25.9804 13.3132 25.5749 13.5443 25.1628 13.732L24.8188 13.3875ZM24.8188 10.5225L25.7729 9.56834L26.727 10.5225L25.7729 11.4776L24.8188 10.5225ZM26.2513 9.09048L27.2054 8.13636L28.1606 9.09048L27.2054 10.0457L26.2513 9.09048ZM28.6374 9.56834L29.1649 10.0958C28.9249 10.4761 28.6539 10.8446 28.3606 11.2003L27.6828 10.5225L28.6374 9.56834ZM29.1137 9.09154L30.0699 8.13636L30.1158 8.18222C29.952 8.62275 29.7531 9.06274 29.5184 9.49527L29.1137 9.09154ZM30.5456 4.79454L30.6144 4.72627C30.6203 4.7796 30.631 4.83027 30.6358 4.88414L30.5456 4.79454ZM30.0699 4.31774L29.1147 3.36256L29.8107 2.66603C30.103 3.02976 30.3179 3.45535 30.4566 3.93108L30.0699 4.31774ZM28.6374 2.88523L27.6833 1.93004L28.0699 1.54338C28.5451 1.68205 28.9707 1.89698 29.3339 2.18871L28.6374 2.88523ZM27.2054 1.45325L27.1164 1.36418C27.1702 1.36845 27.2204 1.37965 27.2732 1.38605L27.2054 1.45325ZM23.8647 1.93004L22.9095 2.88523L22.5058 2.4815C22.9378 2.24684 23.3783 2.04791 23.8188 1.88364L23.8647 1.93004ZM22.4327 3.36256L21.4775 4.31774L20.7997 3.63989C21.1505 3.34827 21.5196 3.07946 21.9047 2.8351L22.4327 3.36256ZM19.5677 6.22705L18.6136 7.18224L18.2691 6.83771C18.4568 6.42651 18.6872 6.01905 18.9624 5.62066L19.5677 6.22705ZM18.1357 7.65903L17.8803 7.91449C17.9144 7.78294 17.9535 7.65156 17.9976 7.52036L18.1357 7.65903ZM18.1357 10.5225L17.8579 10.8009C17.793 10.5717 17.7452 10.3379 17.715 10.1017L18.1357 10.5225ZM18.6136 10.9998L19.5677 11.955L18.8659 12.6584C18.5594 12.3123 18.3045 11.9238 18.1091 11.5048L18.6136 10.9998ZM26.926 12.6296L26.2508 11.955L27.2049 10.9998L27.9121 11.708C27.8353 11.7902 27.7633 11.875 27.6828 11.955C27.4374 12.2008 27.1836 12.4211 26.926 12.6296ZM19.917 19.9165C19.4242 20.4098 19.1474 21.0786 19.1474 21.7759C19.1474 22.4732 19.4242 23.142 19.917 23.6353L23.6348 19.9165C23.1418 19.4235 22.4731 19.1466 21.7759 19.1466C21.0787 19.1466 20.4101 19.4235 19.917 19.9165ZM25.494 21.7746L24.5649 20.8466L20.8461 24.5644L21.7751 25.4934L24.5639 31.9995L25.494 31.0704L24.9367 29.7702L25.8668 28.8401L26.6556 29.9089L27.5857 28.9787L26.7964 27.911L27.7265 26.9809L28.7473 27.8171L29.6763 26.8881L28.6555 26.0518L29.7712 24.9361L31.0715 25.4934L32 24.5644L25.494 21.7746ZM25.8668 23.2631L25.5868 23.5431L24.5639 22.7047L25.8668 23.2631ZM23.2636 25.8673L22.7053 24.5644L23.4956 25.6342L23.2636 25.8673ZM24.6572 24.4727L24.4247 24.7052L23.6343 23.6343L24.6572 24.4727ZM24.3783 28.4683L23.822 27.1692L24.2866 26.7046L25.0753 27.7713L24.3783 28.4683ZM26.0055 26.8412L25.2167 25.7745L25.6823 25.3089L26.702 26.1441L26.0055 26.8412ZM27.6316 25.215L26.6118 24.3799L27.1702 23.8215L28.4683 24.3777L27.6316 25.215Z" fill="black"/>
</svg>
