<svg width="32" height="32" viewBox="0 0 32 32" fill="none" xmlns="http://www.w3.org/2000/svg">
<path d="M16 0.5C21.8999 0.5 26.7002 5.30034 26.7002 11.2002V19.7002H31.5V21.9004H29.9004V29.2998H31.5V31.5H0.5V29.2998H2.09961V21.9004H0.5V19.7002H5.2998V11.2002C5.2998 5.30034 10.1001 0.5 16 0.5ZM4.2998 29.2998H8.5V21.9004H4.2998V29.2998ZM10.7002 29.2998H14.9004V21.9004H10.7002V29.2998ZM17.0996 29.2998H21.2998V21.9004H17.0996V29.2998ZM23.5 29.2998H27.7002V21.9004H23.5V29.2998ZM7.5 19.7002H14.9004V13.9004H7.5V19.7002ZM17.0996 19.7002H24.5V13.9004H17.0996V19.7002ZM14.2988 2.87012C10.4245 3.66886 7.5 7.10104 7.5 11.2002V11.7002H14.9004V2.74609L14.2988 2.87012ZM17.0996 11.7002H24.5V11.2002C24.5004 9.24078 23.824 7.34116 22.585 5.82324C21.3459 4.30534 19.62 3.26205 17.7002 2.87012L17.0996 2.74805V11.7002Z" stroke="black"/>
</svg>
