<svg width="32" height="34" viewBox="0 0 32 34" fill="none" xmlns="http://www.w3.org/2000/svg">
<path d="M9.19823 28.4741C9.06608 28.7741 9 29.0858 9 29.4092V29.9155C9 30.2717 9.09342 30.5975 9.28026 30.8928C9.4671 31.1881 9.71774 31.4084 10.0322 31.5538C10.1735 31.8772 10.3876 32.135 10.6747 32.3272C10.9618 32.5194 11.2786 32.6155 11.6249 32.6155C11.9393 32.6155 12.231 32.5358 12.4999 32.3764C12.7687 32.217 12.9829 31.9967 13.1424 31.7155H17.9821C18.1416 31.9967 18.3557 32.217 18.6246 32.3764C18.8935 32.5358 19.1851 32.6155 19.4996 32.6155C19.814 32.6155 20.1057 32.5358 20.3745 32.3764C20.6434 32.217 20.8576 31.9967 21.0171 31.7155H22.1245C22.2475 31.7155 22.3614 31.692 22.4662 31.6452C22.5711 31.5983 22.6622 31.535 22.7397 31.4553C22.8171 31.3756 22.8809 31.2795 22.9311 31.167C22.9812 31.0545 23.004 30.9374 22.9994 30.8155V29.0155C22.9994 28.6405 22.9311 28.2889 22.7944 27.9608C22.6576 27.6327 22.4708 27.3467 22.2338 27.103C21.9969 26.8592 21.7189 26.667 21.3999 26.5264C21.0809 26.3858 20.7391 26.3155 20.3745 26.3155H20.1216L17.8795 24.0092C17.7565 23.8827 17.6152 23.7866 17.4557 23.7209C17.2962 23.6553 17.1276 23.6202 16.9499 23.6155H10.7499V24.5155H10.9482L9.19823 28.4741ZM14.2498 24.5155V26.3155H11.1122L11.7889 24.7756C11.8254 24.6959 11.8801 24.6327 11.953 24.5858C12.0259 24.5389 12.1057 24.5155 12.1923 24.5155H14.2498ZM16.9499 24.5155C17.0684 24.5155 17.1709 24.56 17.2575 24.6491L18.8775 26.3155H15.1248V24.5155H16.9499ZM19.4996 31.7155C19.3765 31.7155 19.2626 31.692 19.1578 31.6452C19.053 31.5983 18.9618 31.535 18.8844 31.4553C18.8069 31.3756 18.7431 31.2795 18.693 31.167C18.6428 31.0545 18.6201 30.9374 18.6246 30.8155C18.6246 30.6889 18.6474 30.5717 18.693 30.4639C18.7385 30.3561 18.8001 30.2624 18.8775 30.1827C18.955 30.103 19.0484 30.0374 19.1578 29.9858C19.2672 29.9342 19.3811 29.9108 19.4996 29.9155C19.6226 29.9155 19.7365 29.9389 19.8414 29.9858C19.9462 30.0327 20.0373 30.0959 20.1148 30.1756C20.1923 30.2553 20.2561 30.3514 20.3062 30.4639C20.3563 30.5764 20.3791 30.6936 20.3745 30.8155C20.3745 30.942 20.3518 31.0592 20.3062 31.167C20.2606 31.2749 20.1991 31.3686 20.1216 31.4483C20.0441 31.528 19.9507 31.5936 19.8414 31.6452C19.732 31.6967 19.6181 31.7202 19.4996 31.7155ZM19.4996 29.0155C19.258 29.0155 19.0325 29.0624 18.8228 29.1561C18.6132 29.2499 18.4264 29.3788 18.2623 29.5428C18.0983 29.7069 17.9729 29.8967 17.8864 30.1124C17.7998 30.328 17.7542 30.5624 17.7496 30.8155H15.1248V27.2155H20.3745C20.6161 27.2155 20.8416 27.2624 21.0513 27.3561C21.2609 27.4499 21.4477 27.5788 21.6118 27.7428C21.7758 27.9069 21.9012 28.0967 21.9878 28.3124C22.0743 28.528 22.1199 28.7624 22.1245 29.0155V30.8155H21.2495C21.2495 30.567 21.2039 30.335 21.1128 30.1194C21.0216 29.9038 20.8963 29.7116 20.7368 29.5428C20.5773 29.3741 20.3928 29.2452 20.1831 29.1561C19.9735 29.067 19.7457 29.0202 19.4996 29.0155ZM11.6249 31.7155C11.5019 31.7155 11.3879 31.692 11.2831 31.6452C11.1783 31.5983 11.0872 31.535 11.0097 31.4553C10.9322 31.3756 10.8684 31.2795 10.8183 31.167C10.7682 31.0545 10.7454 30.9374 10.7499 30.8155C10.7499 30.6889 10.7727 30.5717 10.8183 30.4639C10.8639 30.3561 10.9254 30.2624 11.0028 30.1827C11.0803 30.103 11.1737 30.0374 11.2831 29.9858C11.3925 29.9342 11.5064 29.9108 11.6249 29.9155C11.7479 29.9155 11.8619 29.9389 11.9667 29.9858C12.0715 30.0327 12.1626 30.0959 12.2401 30.1756C12.3176 30.2553 12.3814 30.3514 12.4315 30.4639C12.4816 30.5764 12.5044 30.6936 12.4999 30.8155C12.4999 30.942 12.4771 31.0592 12.4315 31.167C12.3859 31.2749 12.3244 31.3686 12.2469 31.4483C12.1695 31.528 12.076 31.5936 11.9667 31.6452C11.8573 31.6967 11.7434 31.7202 11.6249 31.7155ZM9.87496 29.4092C9.87496 29.217 9.9137 29.0295 9.99117 28.8467L10.7157 27.2155H14.2498V30.8155H13.3748C13.3748 30.567 13.3293 30.335 13.2381 30.1194C13.147 29.9038 13.0216 29.7116 12.8621 29.5428C12.7026 29.3741 12.5181 29.2452 12.3085 29.1561C12.0988 29.067 11.871 29.0202 11.6249 29.0155C11.4335 29.0155 11.2489 29.0459 11.0712 29.1069C10.8935 29.1678 10.7317 29.2545 10.5859 29.367C10.44 29.4795 10.3124 29.6131 10.2031 29.7678C10.0937 29.9225 10.0094 30.0959 9.95016 30.2881C9.90003 30.1616 9.87496 30.0374 9.87496 29.9155V29.4092Z" fill="black"/>
<path d="M4.36364 32.6155V20.7894M27.6364 32.6155H0H32H27.6364ZM27.6364 32.6155V20.7894M27.6364 20.7894H4.36364M27.6364 20.7894V11.7459M4.36364 20.7894V11.7459M4.36364 11.7459V0.615479L27.6364 5.48504V11.7459M4.36364 11.7459H27.6364" stroke="black"/>
</svg>
