<svg width="32" height="26" viewBox="0 0 32 26" fill="none" xmlns="http://www.w3.org/2000/svg">
<path d="M3.55657 25.9993H28.4434C30.8109 25.9993 32 24.5965 32 21.8167V4.18325C32 1.40349 30.8109 2.4987e-07 28.4434 2.4987e-07H3.55657C1.20057 -0.000680396 0 1.3892 0 4.18325V21.8174C0 24.5972 1.20057 25.9993 3.55657 25.9993ZM3.59086 23.8281C2.45829 23.8281 1.824 23.0998 1.824 21.6963V19.7401H5.00686C6.68286 19.7401 7.66857 18.566 7.66857 16.569V9.41742C7.66857 7.4204 6.68286 6.24697 5.00686 6.24697H1.824V4.29011C1.824 2.90023 2.45829 2.17194 3.59086 2.17194H15.0537V6.71866C12.528 7.20464 10.6251 9.80879 10.6251 12.9929C10.6251 16.1769 12.528 18.7811 15.0537 19.2807V23.8274L3.59086 23.8281ZM21.3069 12.9935C21.284 9.82308 19.4154 7.25909 16.8783 6.73295V2.17262H28.4091C29.5303 2.17262 30.176 2.90091 30.176 4.29079V6.24697H26.9931C25.3166 6.24697 24.3314 7.42108 24.3314 9.4181V16.569C24.3314 18.566 25.3166 19.7394 26.9931 19.7394H30.176V21.6963C30.176 23.0991 29.5303 23.8281 28.4091 23.8281H16.8777V19.28C19.4263 18.7668 21.3406 16.1762 21.3069 12.9922M27.0269 17.5661C26.472 17.5661 26.1549 17.1884 26.1549 16.5274V9.45758C26.1549 8.79667 26.472 8.41891 27.0269 8.41891H30.176V17.5668L27.0269 17.5661ZM4.97314 8.41891C5.52857 8.41891 5.84571 8.79667 5.84571 9.45758V16.5281C5.84571 17.1884 5.52857 17.5668 4.97314 17.5668H1.82457V8.41891H4.97314ZM12.268 12.9792C12.2654 12.0013 12.5388 11.0507 13.0442 10.28C13.5496 9.50928 14.2577 8.96316 15.0549 8.72929V17.2564C13.4691 16.7704 12.268 15.0307 12.268 12.9792ZM19.6651 12.9792C19.6423 15.03 18.464 16.7704 16.8783 17.2564V8.7429C18.4754 9.2282 19.676 10.9414 19.6651 12.9792Z" fill="black"/>
</svg>
