<svg width="32" height="32" viewBox="0 0 32 32" fill="none" xmlns="http://www.w3.org/2000/svg">
<path d="M27.5003 9.00002C29.9814 9.00002 32.0006 6.98135 32.0006 4.49974C32.0006 2.01814 29.9814 0 27.5003 0C25.0193 0 23 2.01867 23 4.50028C23 6.98188 25.0187 9.00002 27.5003 9.00002ZM27.5003 1C27.96 1 28.4152 1.09054 28.8398 1.26644C29.2645 1.44235 29.6504 1.70018 29.9754 2.02521C30.3004 2.35024 30.5583 2.73611 30.7342 3.16078C30.9101 3.58545 31.0006 4.04061 31.0006 4.50028C31.0006 4.95994 30.9101 5.4151 30.7342 5.83978C30.5583 6.26445 30.3004 6.65032 29.9754 6.97535C29.6504 7.30038 29.2645 7.5582 28.8398 7.73411C28.4152 7.91002 27.96 8.00055 27.5003 8.00055C26.572 8.00055 25.6817 7.63177 25.0253 6.97535C24.3688 6.31892 24.0001 5.42861 24.0001 4.50028C24.0001 3.57195 24.3688 2.68164 25.0253 2.02521C25.6817 1.36878 26.572 1 27.5003 1ZM5.00001 4.00001H8.26881C8.44428 4.30392 8.69662 4.55632 9.0005 4.73185C9.30437 4.90738 9.64909 4.99986 10 5.00001H12C13.1024 5.00001 14 4.10241 14 3.00001C14 1.8976 13.1024 1 12 1H11.7312C11.5558 0.696088 11.3034 0.443692 10.9995 0.268162C10.6957 0.0926328 10.3509 0.000149305 10 0H5.00001C3.8976 0 3 0.897602 3 2C3 3.10241 3.8976 4.00001 5.00001 4.00001ZM5.00001 1H10C10.5515 1 11 1.448 11 2H12C12.5515 2 13 2.44801 13 3.00001C13 3.55201 12.5515 4.00001 12 4.00001H10C9.7348 4.00001 9.48045 3.89465 9.29291 3.70712C9.10537 3.51958 9.00002 3.26522 9.00002 3.00001H5.00001C4.73479 3.00001 4.48043 2.89465 4.2929 2.70711C4.10536 2.51958 4 2.26522 4 2C4 1.73479 4.10536 1.48043 4.2929 1.2929C4.48043 1.10536 4.73479 1 5.00001 1ZM17 6.50028H19C20.1024 6.50028 21 5.60268 21 4.50028C21 3.39787 20.1024 2.50027 19 2.50027H17C15.8976 2.50027 15 3.39787 15 4.50028C15 5.60268 15.8976 6.50028 17 6.50028ZM17 3.50027H19C19.5515 3.50027 20 3.94828 20 4.50028C20 5.05228 19.5515 5.50028 19 5.50028H17C16.7348 5.50028 16.4805 5.39492 16.2929 5.20739C16.1054 5.01985 16 4.76549 16 4.50028C16 4.23506 16.1054 3.98071 16.2929 3.79317C16.4805 3.60563 16.7348 3.50027 17 3.50027ZM8.50028 6.00001H6.50028C5.39787 6.00001 4.50027 6.89762 4.50027 8.00002C4.50027 9.10242 5.39787 10 6.50028 10H8.50028C9.60268 10 10.5003 9.10242 10.5003 8.00002C10.5003 6.89762 9.60268 6.00001 8.50028 6.00001ZM8.50028 9.00002H6.50028C6.23506 9.00002 5.9807 8.89466 5.79317 8.70713C5.60563 8.51959 5.50027 8.26524 5.50027 8.00002C5.50027 7.7348 5.60563 7.48045 5.79317 7.29291C5.9807 7.10537 6.23506 7.00002 6.50028 7.00002H8.50028C9.05175 7.00002 9.50028 7.44802 9.50028 8.00002C9.50028 8.55202 9.05175 9.00002 8.50028 9.00002ZM23.7883 18.6534C24.0742 18.7078 24.2305 18.624 24.6411 18.3739C25.2081 18.0262 25.9878 17.5494 27.271 17.7952L27.4422 17.8278C28.0987 14.4064 22.6528 12.2918 22.3979 12.215C22.6528 13.6555 23.0416 16.0187 23.2982 18.3334C23.4587 18.5264 23.5771 18.6134 23.7883 18.6534ZM16.8848 16.8912C17.1552 17.271 17.2635 17.4054 17.5403 17.4582C17.815 17.5115 17.9659 17.4262 18.3627 17.1744C18.3942 17.1542 18.4288 17.1334 18.4603 17.112C19.52 15.1446 20.679 13.2118 21.4096 12.0256C21.063 11.9814 15.2816 11.9915 14.5952 15.3766L14.7627 15.4091C15.992 15.6432 16.5078 16.3643 16.8848 16.8912Z" fill="black"/>
<path d="M29.8299 16C28.9323 12.6917 24.7878 10.9978 24.1558 10.7584C23.2806 10.3029 21.6929 10.0384 20.8443 9.99995C18.344 9.88635 13.0486 10.2608 12.1264 14.9226L12.0496 15.3136L12.0438 15.3397L12.0406 15.3674C12.0116 15.577 12.0006 15.7886 12.0075 16H0V32H32.0001V16H29.8299ZM13.0315 15.5056L13.1078 15.1168C13.8832 11.1957 18.656 10.8944 20.8449 11C21.5889 11.0357 23.0065 11.2709 23.7457 11.6725C23.7457 11.6725 29.7681 13.8432 28.9179 18.1397L28.8417 18.528C28.6993 19.0826 28.4971 19.3765 28.3009 19.3765C28.1681 19.3765 28.039 19.241 27.9334 18.9616L27.5569 18.8896C27.3701 18.853 27.1803 18.8341 26.9899 18.833C25.7441 18.833 25.2865 19.7397 24.263 19.7397C24.1499 19.7401 24.029 19.7282 23.9003 19.704C22.4449 19.4261 22.6795 17.9573 20.8214 17.6016C20.636 17.5652 20.4476 17.5464 20.2587 17.5456C19.0118 17.5456 18.5542 18.4533 17.5296 18.4533C17.4173 18.4533 17.2966 18.4416 17.1675 18.4181C15.712 18.1392 15.9462 16.6704 14.0891 16.3152L13.7099 16.2432C13.5435 16.4218 13.4 16.5066 13.2854 16.5066C13.0512 16.505 12.9419 16.1456 13.0315 15.5056ZM21.1094 18.7386L19.5584 26.5899C19.533 26.7215 19.4564 26.8377 19.3454 26.913C19.2345 26.9883 19.0982 27.0165 18.9664 26.9915C18.9015 26.9792 18.8396 26.9542 18.7843 26.9178C18.7291 26.8814 18.6817 26.8344 18.6448 26.7795C18.6079 26.7246 18.5824 26.6629 18.5695 26.598C18.5567 26.5332 18.5569 26.4664 18.5702 26.4016L20.119 18.5589L21.1094 18.7386ZM31.0001 31H7.87415C-2.17334 23.2357 9.34936 20.4906 19.4187 19.5226L18.0795 26.304C18.0267 26.5675 18.0806 26.8363 18.2304 27.0592C18.3216 27.1956 18.4452 27.3072 18.5902 27.3841C18.7351 27.4609 18.8968 27.5007 19.0608 27.4997C19.5408 27.4997 19.9569 27.1573 20.0497 26.6859L21.4993 19.3456L21.7483 19.3274C21.7627 19.3466 21.7777 19.3632 21.7926 19.3829C22.1606 19.848 22.6646 20.4853 23.7137 20.6853C23.8993 20.7205 24.0843 20.7392 24.2635 20.7392C25.0161 20.7392 25.5515 20.4336 25.9814 20.1877C26.3419 19.9808 26.6027 19.8325 26.991 19.8325C27.0859 19.8325 27.1874 19.8412 27.2955 19.8586C27.6534 20.3157 28.0945 20.3765 28.3019 20.3765C28.7723 20.3765 29.3851 20.121 29.7393 19.0048C30.5355 18.9978 31.0006 19.0026 31.0006 19.0026L31.0001 31Z" fill="black"/>
</svg>
