<svg width="32" height="32" viewBox="0 0 32 32" fill="none" xmlns="http://www.w3.org/2000/svg">
<path d="M13.166 28C13.166 30.2 14.4251 32 15.9954 32C17.5656 32 18.8247 30.2 18.8247 28C18.8247 25.8001 17.5515 24.0001 15.9954 24.0001C14.4392 24.0001 13.166 25.8001 13.166 28ZM24.0024 20.7801C21.8663 17.7601 19.0228 16.1001 15.9954 16.1001C12.9679 16.1001 10.1244 17.7601 7.98828 20.7801L9.98298 23.6001C11.5816 21.3401 13.7177 20.0801 15.9812 20.0801C18.2447 20.0801 20.3809 21.3201 21.9794 23.6001L23.9741 20.7801H24.0024Z" fill="black"/>
<path d="M28.0095 15.1401C24.7982 10.6001 20.54 8.1001 15.9989 8.1001C11.4578 8.1001 7.1996 10.6001 3.98828 15.1401L5.99712 17.9601C8.67086 14.1801 12.2217 12.1001 15.9989 12.1001C19.7761 12.1001 23.3269 14.1801 26.0007 17.9601L28.0095 15.1401Z" fill="black"/>
<path d="M0 9.37996L1.99469 12.2C5.72944 6.91997 10.7091 3.99998 16 3.99998C21.2909 3.99998 26.2564 6.91997 30.0053 12.2L32 9.37996C27.7277 3.33999 22.0407 0 16 0C9.95933 0 4.27233 3.31999 0 9.37996Z" fill="black"/>
</svg>
