<svg width="34" height="34" viewBox="0 0 34 34" fill="none" xmlns="http://www.w3.org/2000/svg">
<path d="M27.9498 32.75V31.95M5.5498 32.75V31.95M16.7498 31.15V0.75M21.5498 10.35V13.55" stroke="black" stroke-width="1.5" stroke-linecap="round"/>
<path d="M0.75 13.55C0.75 7.5164 0.75 4.4988 2.6252 2.6252C4.5004 0.7516 7.5164 0.75 13.55 0.75H19.95C25.9836 0.75 29.0012 0.75 30.8748 2.6252C32.7484 4.5004 32.75 7.5164 32.75 13.55V18.35C32.75 24.3836 32.75 27.4012 30.8748 29.2748C28.9996 31.1484 25.9836 31.15 19.95 31.15H13.55C7.5164 31.15 4.4988 31.15 2.6252 29.2748C0.7516 27.3996 0.75 24.3836 0.75 18.35V13.55Z" stroke="black" stroke-width="1.5"/>
<path d="M0.75 10.3501H16.75M0.75 21.5501H32.75M21.55 26.3501H24.75M8.75 26.3501H11.95" stroke="black" stroke-width="1.5" stroke-linecap="round"/>
</svg>
