<svg width="32" height="32" viewBox="0 0 32 32" fill="none" xmlns="http://www.w3.org/2000/svg">
<path d="M2.87289 32C2.05393 32 1.37067 31.692 0.823111 31.076C0.275556 30.46 0.00118519 29.6907 0 28.768V9.232C0 8.31067 0.27437 7.542 0.823111 6.926C1.37185 6.31 2.05452 6.00134 2.87111 6H10.6667V3.23C10.6667 2.31 10.941 1.54134 11.4898 0.924004C12.0385 0.306671 12.7218 -0.00132902 13.5396 4.31035e-06H18.4622C19.28 4.31035e-06 19.9633 0.308004 20.512 0.924004C21.0607 1.54 21.3345 2.30867 21.3333 3.23V6H29.1289C29.9467 6 30.6293 6.30867 31.1769 6.926C31.7244 7.54334 31.9988 8.312 32 9.232V28.77C32 29.69 31.7256 30.4587 31.1769 31.076C30.6281 31.6933 29.9455 32.0013 29.1289 32H2.87289ZM12.4444 6H19.5556V3.23C19.5556 2.92334 19.4418 2.64134 19.2142 2.384C18.9867 2.12667 18.736 1.99867 18.4622 2H13.5378C13.2652 2 13.0145 2.128 12.7858 2.384C12.557 2.64 12.4433 2.922 12.4444 3.23V6ZM30.2222 21H19.5556V24H12.4444V21H1.77778V28.77C1.77778 29.0767 1.89156 29.3587 2.11911 29.616C2.34667 29.8733 2.59733 30.0013 2.87111 30H29.1289C29.4015 30 29.6521 29.872 29.8809 29.616C30.1096 29.36 30.2234 29.0773 30.2222 28.768V21ZM14.2222 22H17.7778V18H14.2222V22ZM1.77778 19H12.4444V16H19.5556V19H30.2222V9.232C30.2222 8.924 30.1084 8.64134 29.8809 8.384C29.6533 8.12667 29.4027 7.99867 29.1289 8H2.87111C2.59852 8 2.34785 8.128 2.11911 8.384C1.89037 8.64 1.77659 8.92267 1.77778 9.232V19Z" fill="black"/>
</svg>
