<svg width="32" height="32" viewBox="0 0 32 32" fill="none" xmlns="http://www.w3.org/2000/svg">
<path d="M6.64355 26.4053L5.69043 28.7656L5.41309 29.4521H26.5869L26.3096 28.7656L25.3564 26.4053H29.2021L31.2588 31.5H0.741211L2.79785 26.4053H6.64355ZM18.4521 0.5H20.9229C21.2415 0.5 21.6543 0.842206 21.6543 1.52441V7.15625L21.7646 7.29297L23.5615 9.51855L23.6904 9.67676L23.8926 9.7002C26.6941 10.0279 29.038 12.9731 29.0381 16.7617C29.0381 20.7657 26.3864 23.8808 23.3848 23.8809C20.383 23.8809 17.7305 20.7658 17.7305 16.7617C17.7306 13.8044 19.1837 11.3083 21.1641 10.2217L21.6816 9.9375L21.3154 9.47363L20.3311 8.22363L20.0371 7.85156L19.6494 8.125L13.5703 12.4219L13.2227 12.668L13.4092 13.0498C13.9438 14.1434 14.2695 15.4099 14.2695 16.7617C14.2695 20.7658 11.617 23.8809 8.61523 23.8809C5.61357 23.8808 2.96191 20.7657 2.96191 16.7617C2.96204 12.7578 5.61365 9.64268 8.61523 9.64258C9.04638 9.64258 9.48656 9.72334 9.91309 9.8623L10.8438 10.165L10.5439 9.2334L9.48535 5.94238L9.37402 5.5957H8.43359C8.19336 5.59997 8.02772 5.50076 7.90527 5.33301C7.77135 5.14948 7.6875 4.87405 7.6875 4.57129C7.68756 4.26877 7.77149 3.99401 7.90527 3.81055C8.02772 3.64279 8.19335 3.54358 8.43359 3.54785H13.4248C13.6651 3.54357 13.8307 3.64277 13.9531 3.81055C14.0869 3.99401 14.1708 4.26875 14.1709 4.57129C14.1709 4.87407 14.0871 5.14948 13.9531 5.33301C13.8307 5.50078 13.6651 5.59999 13.4248 5.5957H10.9814L11.1914 6.24902L12.4473 10.1494L12.6553 10.7979L13.2119 10.4043L19.9805 5.62012L20.1924 5.4707V2.54785H18.4521C18.2119 2.55215 18.0463 2.45294 17.9238 2.28516C17.79 2.10171 17.7061 1.82696 17.7061 1.52441C17.7061 1.22165 17.7899 0.946224 17.9238 0.762695C18.0463 0.594917 18.2119 0.495707 18.4521 0.5ZM8.61523 11.6904C6.20174 11.6905 4.42298 14.0613 4.42285 16.7617C4.42285 19.4623 6.20165 21.8329 8.61523 21.833C11.0289 21.833 12.8076 19.4623 12.8076 16.7617C12.8075 14.0612 11.0288 11.6904 8.61523 11.6904ZM23.3848 11.6904C20.9712 11.6904 19.1925 14.0612 19.1924 16.7617C19.1924 19.4623 20.9711 21.833 23.3848 21.833C25.7984 21.8329 27.5771 19.4623 27.5771 16.7617C27.577 14.0613 25.7983 11.6905 23.3848 11.6904Z" stroke="black"/>
</svg>
