<svg width="32" height="29" viewBox="0 0 32 29" fill="none" xmlns="http://www.w3.org/2000/svg">
<path d="M6.0752 24.4561H20.7061L21.2158 25.3477H6.0752C5.95087 25.3477 5.83276 25.2992 5.74707 25.2148C5.66166 25.1307 5.61528 25.018 5.61523 24.9023C5.61523 24.7866 5.66162 24.674 5.74707 24.5898C5.83278 24.5054 5.95079 24.4561 6.0752 24.4561ZM4.16016 0.5H26.5566C27.5295 0.500125 28.4608 0.881225 29.1465 1.55664C29.832 2.23192 30.2158 3.14596 30.2158 4.09766V7.77637C29.9655 7.72349 29.7061 7.69534 29.4404 7.69531H29.2959V4.09766C29.2958 2.59668 28.0619 1.39186 26.5566 1.3916H4.16016C2.65472 1.3916 1.42002 2.59652 1.41992 4.09766V17.3369C1.41992 18.0572 1.71095 18.746 2.22559 19.2529C2.73999 19.7596 3.43587 20.0439 4.16016 20.0439H19.3398V20.9346H4.16016C3.18705 20.9346 2.25516 20.5535 1.56934 19.8779C0.883893 19.2026 0.5 18.2886 0.5 17.3369V4.09766C0.500046 3.14601 0.883867 2.23191 1.56934 1.55664C2.25516 0.881066 3.18705 0.5 4.16016 0.5ZM24.46 15.0898H29.2998V11.4785H24.46V15.0898ZM24.1797 24.665L24.1143 24.5498L22.3584 21.4746C22.2937 21.3611 22.2597 21.2336 22.2598 21.1045V15.8506C22.2598 15.6514 22.3402 15.4587 22.4854 15.3154C22.6311 15.1719 22.8308 15.0898 23.04 15.0898H23.54V11.3477C23.5401 11.1484 23.6203 10.9557 23.7656 10.8125C23.9113 10.669 24.111 10.5869 24.3203 10.5869H29.4404C29.6383 10.5869 29.828 10.6599 29.9717 10.79C30.1151 10.92 30.2018 11.0972 30.2178 11.2852L30.2197 11.3477V15.0898H30.7197C30.929 15.0898 31.1287 15.1719 31.2744 15.3154C31.4197 15.4587 31.5 15.6514 31.5 15.8506V21.1045L31.4941 21.2012C31.4817 21.2968 31.4498 21.3895 31.4014 21.4746L29.6455 24.5498L29.5801 24.665V27.7393C29.58 27.9385 29.4998 28.1312 29.3545 28.2744C29.2088 28.418 29.0091 28.5 28.7998 28.5H24.96C24.7508 28.5 24.5519 28.4178 24.4062 28.2744C24.2608 28.1312 24.1797 27.9386 24.1797 27.7393V24.665Z" stroke="black"/>
</svg>
