<svg width="32" height="33" viewBox="0 0 32 33" fill="none" xmlns="http://www.w3.org/2000/svg">
<path d="M6.66667 27.9149H23.3333V18.383C23.3333 17.575 23.5679 16.7852 24.0075 16.1134C24.447 15.4416 25.0717 14.918 25.8026 14.6088C26.5335 14.2996 27.3378 14.2187 28.1137 14.3764C28.8896 14.534 29.6024 14.9231 30.1618 15.4944C30.7212 16.0657 31.1021 16.7936 31.2565 17.586C31.4108 18.3784 31.3316 19.1998 31.0289 19.9463C30.7261 20.6927 30.2134 21.3307 29.5556 21.7796C28.8978 22.2285 28.1245 22.4681 27.3333 22.4681H26.6667M0 32H32M20 14.2979H3.33333V14.6383L3.41733 14.7745C5.97601 18.9107 7.33386 23.7032 7.33333 28.5957M7.33333 0V1.3617C7.33333 3.70915 8.24643 5.96045 9.87174 7.62035C11.4971 9.28025 13.7015 10.2128 16 10.2128M19.3333 10.8936V6.12766H16C14.7623 6.12766 13.5753 5.62553 12.7002 4.73174C11.825 3.83795 11.3333 2.62571 11.3333 1.3617V0" stroke="black"/>
</svg>
