<svg width="33" height="33" viewBox="0 0 33 33" fill="none" xmlns="http://www.w3.org/2000/svg">
<path d="M8.46875 2.85303H23.5276" stroke="black" stroke-linecap="round"/>
<rect x="0.5" y="0.530029" width="31" height="31" rx="3.5" stroke="black"/>
<rect x="8.03125" y="8.06006" width="15.9412" height="15.9412" rx="3.5" stroke="black"/>
<rect x="9.91016" y="9.94141" width="12.1765" height="12.1765" rx="1.5" stroke="black"/>
<path d="M7.05859 0.5V4.20588C7.05859 4.75817 7.50631 5.20588 8.05859 5.20588H23.9409C24.4932 5.20588 24.9409 4.75817 24.9409 4.20588V0.5" stroke="black" stroke-linecap="round"/>
<path d="M7.53125 31.0886V27.3827C7.53125 26.8305 7.97897 26.3827 8.53125 26.3827H24.4136C24.9659 26.3827 25.4136 26.8305 25.4136 27.3827V31.0886" stroke="black" stroke-linecap="round"/>
<path d="M31.5312 24.9714H27.8254C27.2731 24.9714 26.8254 24.5237 26.8254 23.9714V8.08908C26.8254 7.5368 27.2731 7.08908 27.8254 7.08908H31.5312" stroke="black" stroke-linecap="round"/>
<path d="M0.941406 6.61865H4.64729C5.19957 6.61865 5.64729 7.06637 5.64729 7.61865V23.501C5.64729 24.0533 5.19957 24.501 4.64729 24.501H0.941406" stroke="black" stroke-linecap="round"/>
<path d="M2.82422 8.5V22.6176" stroke="black" stroke-linecap="round"/>
<path d="M29.1758 8.5V23.5588" stroke="black" stroke-linecap="round"/>
<path d="M9.41016 29.207H23.5278" stroke="black" stroke-linecap="round"/>
<path d="M10.3555 11.3242H21.6496" stroke="black" stroke-linecap="round"/>
<path d="M10.3555 13.207H21.6496" stroke="black" stroke-linecap="round"/>
<path d="M10.3555 15.0886H21.6496" stroke="black" stroke-linecap="round"/>
<path d="M10.3555 16.9714H21.6496" stroke="black" stroke-linecap="round"/>
<path d="M10.3555 18.853H21.6496" stroke="black" stroke-linecap="round"/>
<path d="M10.3555 20.7358H21.6496" stroke="black" stroke-linecap="round"/>
<path d="M11.293 10.3828V21.6769" stroke="black" stroke-linecap="round"/>
<path d="M13.1758 10.3828V21.6769" stroke="black" stroke-linecap="round"/>
<path d="M15.0586 10.3828V21.6769" stroke="black" stroke-linecap="round"/>
<path d="M16.9414 10.3828V21.6769" stroke="black" stroke-linecap="round"/>
<path d="M18.8242 10.3828V21.6769" stroke="black" stroke-linecap="round"/>
<path d="M20.707 10.3828V21.6769" stroke="black" stroke-linecap="round"/>
</svg>
