<svg width="34" height="34" viewBox="0 0 34 34" fill="none" xmlns="http://www.w3.org/2000/svg">
<path d="M15.4004 10.6C18.6004 5.8 12.2004 5.8 15.4004 1M22.6004 10.6C25.8004 5.8 19.4004 5.8 22.6004 1M7.40039 13.8H7.41639M7.40039 20.2H7.41639M13.8004 23.4V17M20.2004 23.4V17M26.6004 23.4V17" stroke="black" stroke-width="2" stroke-linecap="round" stroke-linejoin="round"/>
<path d="M29.8 7.3999C30.6487 7.3999 31.4626 7.73704 32.0627 8.33716C32.6629 8.93728 33 9.75121 33 10.5999V26.5999C33 27.4486 32.6629 28.2625 32.0627 28.8626C31.4626 29.4628 30.6487 29.7999 29.8 29.7999H4.2C3.35131 29.7999 2.53737 29.4628 1.93726 28.8626C1.33714 28.2625 1 27.4486 1 26.5999V10.5999C1 9.75121 1.33714 8.93728 1.93726 8.33716C2.53737 7.73704 3.35131 7.3999 4.2 7.3999H9M5.8 29.7999V32.9999M28.2 29.7999V32.9999" stroke="black" stroke-width="2" stroke-linecap="round" stroke-linejoin="round"/>
</svg>
