<svg width="34" height="34" viewBox="0 0 34 34" fill="none" xmlns="http://www.w3.org/2000/svg">
<path d="M5.87978 19.2767C8.13736 14.9077 7.31977 9.17795 3.9502 5.80273M27.6204 19.2767C25.3628 14.9077 26.1804 9.17795 29.55 5.80273" stroke="black" stroke-width="1.5" stroke-linejoin="round"/>
<path d="M3.70344 19.2766H29.796C32.1336 19.2766 32.9272 18.7478 32.7176 16.2282C32.0136 7.77328 25.1241 0.75 16.7497 0.75C8.3754 0.75 1.48585 7.77328 0.781859 16.2282C0.57386 18.7478 1.36585 19.2766 3.70344 19.2766Z" stroke="black" stroke-width="1.5" stroke-linejoin="round"/>
<path d="M3.94998 28.5397C3.94998 25.951 7.34035 25.3632 9.12273 24.6137C11.6427 23.5527 14.3499 25.5872 14.3499 28.5397C14.3499 31.4922 11.6427 33.525 9.12273 32.4657C7.34195 31.7162 3.94998 31.1284 3.94998 28.5397ZM3.94998 28.5397H0.75M29.5498 28.5397C29.5498 25.951 26.1594 25.3632 24.377 24.6137C21.857 23.5527 19.1499 25.5872 19.1499 28.5397C19.1499 31.4922 21.857 33.525 24.377 32.4657C26.1578 31.7162 29.5498 31.1284 29.5498 28.5397ZM29.5498 28.5397H32.7498M14.3499 27.6976C14.8299 26.6904 15.7243 26.0133 16.7499 26.0133C17.7755 26.0133 18.6699 26.6904 19.1499 27.6976" stroke="black" stroke-width="1.5" stroke-linecap="round"/>
</svg>
