<svg width="32" height="32" viewBox="0 0 32 32" fill="none" xmlns="http://www.w3.org/2000/svg">
<path d="M26.6413 15.9285C27.6866 15.9285 28.5738 15.5056 29.303 14.6598C30.0333 13.814 30.3985 12.7768 30.3985 11.5482C30.3985 10.6698 30.2453 9.97082 29.9388 9.45129C29.6335 8.93302 29.2838 8.45427 28.8898 8.01506V4.48753C28.8898 3.74965 28.6742 3.13098 28.2428 2.63153C27.8125 2.13208 27.2787 1.88235 26.6413 1.88235C26.0124 1.88235 25.4855 2.13208 25.0606 2.63153C24.6357 3.13098 24.4232 3.75027 24.4232 4.48941V8.01506C24.0709 8.40533 23.726 8.84831 23.3886 9.344C23.0523 9.83843 22.8841 10.5725 22.8841 11.5464C22.8841 12.7762 23.2487 13.814 23.978 14.6598C24.7083 15.5056 25.596 15.9285 26.6413 15.9285ZM4.77413 20.7059H11.0393L8.71708 16.3878C8.495 15.9849 8.22061 15.6624 7.8939 15.4202C7.56719 15.1793 7.19243 15.0588 6.76963 15.0588H4.77413V20.7059ZM4.77413 30.1176H18.1789C17.5148 30.1176 16.8907 29.9307 16.3067 29.5567C15.7227 29.1827 15.255 28.6601 14.9038 27.9887L12.0242 22.5882H4.77413V30.1176ZM0.802362 32C0.574946 32 0.384365 31.9096 0.230619 31.7289C0.0768731 31.5482 0 31.3242 0 31.0569C0 30.7896 0.0768731 30.5663 0.230619 30.3868C0.384365 30.2074 0.574412 30.1176 0.80076 30.1176H3.17261V10.3529C3.17261 10.0856 3.24949 9.86227 3.40323 9.68282C3.55698 9.50337 3.74756 9.41302 3.97497 9.41177C4.20239 9.41051 4.39244 9.50086 4.54512 9.68282C4.69779 9.86478 4.77413 10.0882 4.77413 10.3529V13.1765H6.76963C7.43266 13.1765 8.05618 13.3635 8.64021 13.7374C9.22529 14.1114 9.69347 14.634 10.0447 15.3054L16.2314 26.9064C16.4535 27.3104 16.7279 27.6329 17.0546 27.8739C17.3802 28.1148 17.7545 28.2353 18.1773 28.2353H20.5427C20.8737 28.2353 21.162 28.3796 21.4075 28.6682C21.6531 28.9569 21.7759 29.2957 21.7759 29.6847V30.1176H25.8405V17.7449C24.5348 17.3534 23.4484 16.65 22.5814 15.6348C21.7156 14.6184 21.2826 13.2562 21.2826 11.5482C21.2826 10.602 21.4251 9.78071 21.7102 9.08424C21.9953 8.38776 22.3935 7.74274 22.905 7.14918C22.874 6.58698 22.8526 6.11012 22.8409 5.71859C22.8281 5.3258 22.8217 4.91545 22.8217 4.48753C22.8217 3.24141 23.1938 2.18165 23.9379 1.30824C24.6821 0.436078 25.5854 0 26.6477 0C27.7111 0 28.6176 0.436706 29.3671 1.31012C30.1166 2.18353 30.4914 3.24329 30.4914 4.48941C30.4914 4.76926 30.485 5.20847 30.4721 5.80706C30.4604 6.40565 30.439 6.82918 30.4081 7.07765C30.8992 7.69506 31.2873 8.35765 31.5724 9.06541C31.8575 9.77318 32 10.6008 32 11.5482C32 13.2562 31.5665 14.6177 30.6996 15.6329C29.8337 16.6494 28.7478 17.3534 27.4421 17.7449V30.1176H31.1992C31.4266 30.1176 31.6167 30.208 31.7694 30.3887C31.9221 30.5694 31.9989 30.7934 32 31.0607C32.0011 31.328 31.9242 31.5514 31.7694 31.7308C31.6146 31.9103 31.4245 32 31.1992 32H0.802362Z" fill="black"/>
</svg>
