<svg width="32" height="32" viewBox="0 0 32 32" fill="none" xmlns="http://www.w3.org/2000/svg">
<path d="M0 5.33333C0 3.91885 0.561903 2.56229 1.5621 1.5621C2.56229 0.561903 3.91885 0 5.33333 0H26.6667C27.3671 0 28.0606 0.137951 28.7076 0.405976C29.3547 0.674001 29.9427 1.06685 30.4379 1.5621C30.9331 2.05734 31.326 2.64529 31.594 3.29236C31.8621 3.93942 32 4.63295 32 5.33333V26.6667C32 28.0812 31.4381 29.4377 30.4379 30.4379C29.4377 31.4381 28.0812 32 26.6667 32H5.33333C4.63295 32 3.93942 31.8621 3.29236 31.594C2.64529 31.326 2.05734 30.9331 1.5621 30.4379C0.561903 29.4377 0 28.0812 0 26.6667V5.33333ZM5.33333 2.13333C4.48464 2.13333 3.67071 2.47048 3.07059 3.07059C2.47048 3.67071 2.13333 4.48464 2.13333 5.33333V13.8667H3.2V8.8C3.2 8.064 3.79733 7.46667 4.53333 7.46667H8.53333V6.66667C8.53333 5.93067 9.13067 5.33333 9.86667 5.33333H11.4667C12.2027 5.33333 12.8 5.93067 12.8 6.66667V10.6667H17.8667C18.6027 10.6667 19.2 11.264 19.2 12V16.0267C19.2853 16.0096 19.3742 16.0007 19.4667 16H27.4667C28.2027 16 28.8 16.5973 28.8 17.3333V19.2H29.8667V5.33333C29.8667 4.48464 29.5295 3.67071 28.9294 3.07059C28.3293 2.47048 27.5154 2.13333 26.6667 2.13333H5.33333ZM29.8667 21.3333H25.6C25.3171 21.3333 25.0458 21.4457 24.8458 21.6458C24.6457 21.8458 24.5333 22.1171 24.5333 22.4C24.5333 22.6829 24.6457 22.9542 24.8458 23.1542C25.0458 23.3543 25.3171 23.4667 25.6 23.4667H29.8667V21.3333ZM29.8667 25.6H25.6C25.3171 25.6 25.0458 25.7124 24.8458 25.9124C24.6457 26.1125 24.5333 26.3838 24.5333 26.6667C24.5333 26.9496 24.6457 27.2209 24.8458 27.4209C25.0458 27.621 25.3171 27.7333 25.6 27.7333H29.6853C29.8027 27.3995 29.8667 27.04 29.8667 26.6667V25.6ZM23.4667 29.8667V20.5333C23.4667 19.7973 24.064 19.2 24.8 19.2H27.7333V17.3333C27.7333 17.2626 27.7052 17.1948 27.6552 17.1448C27.6052 17.0948 27.5374 17.0667 27.4667 17.0667H19.4667C19.3959 17.0667 19.3281 17.0948 19.2781 17.1448C19.2281 17.1948 19.2 17.2626 19.2 17.3333V23.4667H20C20.736 23.4667 21.3333 24.064 21.3333 24.8V29.8667H23.4667ZM8.53333 29.8667V12C8.53333 11.264 9.13067 10.6667 9.86667 10.6667H11.7333V6.66667C11.7333 6.59594 11.7052 6.52811 11.6552 6.47811C11.6052 6.4281 11.5374 6.4 11.4667 6.4H9.86667C9.79594 6.4 9.72812 6.4281 9.67811 6.47811C9.6281 6.52811 9.6 6.59594 9.6 6.66667V8.53333H4.53333C4.46261 8.53333 4.39478 8.56143 4.34477 8.61144C4.29476 8.66145 4.26667 8.72928 4.26667 8.8V13.8667H5.06667C5.80267 13.8667 6.4 14.464 6.4 15.2V29.8667H8.53333ZM2.13333 21.8667C2.13333 22.0081 2.18952 22.1438 2.28954 22.2438C2.38956 22.3438 2.52522 22.4 2.66667 22.4H3.73333C3.87478 22.4 4.01044 22.3438 4.11046 22.2438C4.21048 22.1438 4.26667 22.0081 4.26667 21.8667V20.8C4.26667 20.6586 4.21048 20.5229 4.11046 20.4229C4.01044 20.3229 3.87478 20.2667 3.73333 20.2667H2.66667C2.52522 20.2667 2.38956 20.3229 2.28954 20.4229C2.18952 20.5229 2.13333 20.6586 2.13333 20.8V21.8667ZM11.2 12.8C11.0586 12.8 10.9229 12.8562 10.8229 12.9562C10.7229 13.0562 10.6667 13.1919 10.6667 13.3333V14.4C10.6667 14.5414 10.7229 14.6771 10.8229 14.7771C10.9229 14.8771 11.0586 14.9333 11.2 14.9333H12.2667C12.4081 14.9333 12.5438 14.8771 12.6438 14.7771C12.7438 14.6771 12.8 14.5414 12.8 14.4V13.3333C12.8 13.1919 12.7438 13.0562 12.6438 12.9562C12.5438 12.8562 12.4081 12.8 12.2667 12.8H11.2ZM10.6667 17.6V18.6667C10.6667 18.8081 10.7229 18.9438 10.8229 19.0438C10.9229 19.1438 11.0586 19.2 11.2 19.2H12.2667C12.4081 19.2 12.5438 19.1438 12.6438 19.0438C12.7438 18.9438 12.8 18.8081 12.8 18.6667V17.6C12.8 17.4586 12.7438 17.3229 12.6438 17.2229C12.5438 17.1229 12.4081 17.0667 12.2667 17.0667H11.2C11.0586 17.0667 10.9229 17.1229 10.8229 17.2229C10.7229 17.3229 10.6667 17.4586 10.6667 17.6ZM11.2 25.6C11.0586 25.6 10.9229 25.6562 10.8229 25.7562C10.7229 25.8562 10.6667 25.9919 10.6667 26.1333V27.2C10.6667 27.3414 10.7229 27.4771 10.8229 27.5771C10.9229 27.6771 11.0586 27.7333 11.2 27.7333H12.2667C12.4081 27.7333 12.5438 27.6771 12.6438 27.5771C12.7438 27.4771 12.8 27.3414 12.8 27.2V26.1333C12.8 25.9919 12.7438 25.8562 12.6438 25.7562C12.5438 25.6562 12.4081 25.6 12.2667 25.6H11.2ZM14.9333 17.6V18.6667C14.9333 18.8081 14.9895 18.9438 15.0895 19.0438C15.1896 19.1438 15.3252 19.2 15.4667 19.2H16.5333C16.6748 19.2 16.8104 19.1438 16.9105 19.0438C17.0105 18.9438 17.0667 18.8081 17.0667 18.6667V17.6C17.0667 17.4586 17.0105 17.3229 16.9105 17.2229C16.8104 17.1229 16.6748 17.0667 16.5333 17.0667H15.4667C15.3252 17.0667 15.1896 17.1229 15.0895 17.2229C14.9895 17.3229 14.9333 17.4586 14.9333 17.6ZM15.4667 21.3333C15.3252 21.3333 15.1896 21.3895 15.0895 21.4895C14.9895 21.5896 14.9333 21.7252 14.9333 21.8667V22.9333C14.9333 23.0748 14.9895 23.2104 15.0895 23.3105C15.1896 23.4105 15.3252 23.4667 15.4667 23.4667H16.5333C16.6748 23.4667 16.8104 23.4105 16.9105 23.3105C17.0105 23.2104 17.0667 23.0748 17.0667 22.9333V21.8667C17.0667 21.7252 17.0105 21.5896 16.9105 21.4895C16.8104 21.3895 16.6748 21.3333 16.5333 21.3333H15.4667Z" fill="black"/>
</svg>
