<svg width="32" height="32" viewBox="0 0 32 32" fill="none" xmlns="http://www.w3.org/2000/svg">
<path d="M10.9158 3.76471V2.31529H7.08952C6.25253 2.31529 5.53179 2.20173 4.92729 1.97459C4.3228 1.7462 4.02055 1.47388 4.02055 1.15765C4.02055 0.842666 4.3228 0.570981 4.92729 0.342589C5.53179 0.114196 6.25253 0 7.08952 0H28.1638C29.1934 0 30.0902 0.144314 30.8541 0.432941C31.618 0.721569 32 1.06039 32 1.44941V2.4C32 2.53302 31.9734 2.64847 31.9203 2.74635C31.8705 2.84424 31.7625 2.94714 31.5964 3.05506L27.5908 6.08188H18.0103V4.12612L9.24179 7.584C9.15875 7.61537 8.71867 7.66996 7.92153 7.74777C7.34693 7.74777 6.89522 7.65051 6.56641 7.456C6.23759 7.26149 6.216 7.07137 6.50164 6.88565L10.9158 3.76471ZM8.04609 32C5.81743 32 3.91925 31.7038 2.35155 31.1115C0.78385 30.5192 0 29.8014 0 28.9581V21.1012C0 20.8364 0.0664325 20.5917 0.199288 20.3671C0.332144 20.1424 0.574606 19.9122 0.926674 19.6762L16.5804 8.57788C17.0454 8.23906 17.6798 7.97992 18.4836 7.80047C19.2874 7.62102 20.1642 7.53067 21.1141 7.52941H25.867C27.0229 7.52941 27.9828 7.67372 28.7467 7.96235C29.5106 8.25098 29.8926 8.61365 29.8926 9.05035V28.9581C29.8926 29.8014 29.1071 30.5192 27.536 31.1115C25.9683 31.7038 24.0702 32 21.8415 32H8.04609ZM8.04609 30.1176H21.8415C22.7383 30.1176 23.474 30.0091 24.0486 29.792C24.6232 29.5749 24.9105 29.2976 24.9105 28.96V9.41176H21.0195L4.97712 20.8565V28.96C4.97712 29.2976 5.26608 29.5749 5.844 29.792C6.4186 30.0091 7.15263 30.1176 8.04609 30.1176ZM8.04609 30.1176H4.9821H24.9105H8.04609Z" fill="black"/>
</svg>
