<svg width="34" height="37" viewBox="0 0 34 37" fill="none" xmlns="http://www.w3.org/2000/svg">
<path d="M16.75 9.88043V10.6413M16.75 9.88043C16.75 7.45889 17.7133 5.13653 19.4279 3.42424C21.1425 1.71195 23.468 0.75 25.8929 0.75H26.6548V10.6413C26.6548 13.2646 25.6112 15.7805 23.7537 17.6355C21.8962 19.4905 19.3769 20.5326 16.75 20.5326M16.75 9.88043C16.75 7.45889 15.7867 5.13653 14.0721 3.42424C12.3575 1.71195 10.032 0.75 7.60714 0.75H6.84524V10.6413C6.84524 13.2646 7.88877 15.7805 9.74628 17.6355C11.6038 19.4905 14.1231 20.5326 16.75 20.5326M16.75 20.5326V34.9891M16.75 20.5326V34.2283M16.75 35.75H9.89286C7.46802 35.75 5.1425 34.788 3.42788 33.0758C1.71326 31.3635 0.75 29.0411 0.75 26.6196H7.60714C10.032 26.6196 12.3575 27.5815 14.0721 29.2938C15.7867 31.0061 16.75 33.3285 16.75 35.75ZM16.75 35.75H23.6071C26.032 35.75 28.3575 34.788 30.0721 33.0758C31.7867 31.3635 32.75 29.0411 32.75 26.6196H25.8929C23.468 26.6196 21.1425 27.5815 19.4279 29.2938C17.7133 31.0061 16.75 33.3285 16.75 35.75Z" stroke="black" stroke-width="1.5"/>
</svg>
