<svg width="36" height="32" viewBox="0 0 36 32" fill="none" xmlns="http://www.w3.org/2000/svg">
<path d="M9 0.5H34.2002C34.5467 0.500051 34.8778 0.635944 35.1211 0.875977C35.3641 1.11599 35.4999 1.44063 35.5 1.77734V30.2227C35.4999 30.5594 35.3641 30.884 35.1211 31.124C34.8778 31.3641 34.5467 31.4999 34.2002 31.5H1.7998C1.4533 31.4999 1.12216 31.3641 0.878906 31.124C0.635887 30.884 0.500116 30.5594 0.5 30.2227V16.8652C0.50005 16.6839 0.53907 16.5044 0.615234 16.3389C0.691567 16.1731 0.803574 16.0246 0.943359 15.9043L7.52637 10.2344L7.7002 10.085V1.77734C7.70031 1.44063 7.83511 1.11599 8.07812 0.875977C8.32146 0.635655 8.65323 0.5 9 0.5ZM10.2998 7.83691H10.7998C11.1063 7.83691 11.4119 7.94334 11.6553 8.1543L11.6562 8.15527L20.6562 15.9043C20.7961 16.0247 20.908 16.1731 20.9844 16.3389C21.0606 16.5044 21.0996 16.6839 21.0996 16.8652V28.9443H32.9004V3.05566H10.2998V7.83691ZM28.2998 21.833V24.3887H25.7002V21.833H28.2998ZM28.2998 14.7227V17.2773H25.7002V14.7227H28.2998ZM28.2998 7.61133V10.167H25.7002V7.61133H28.2998ZM21.0996 7.61133V10.167H18.5V7.61133H21.0996ZM18.5 17.4453L18.3262 17.2959L11.126 11.0947L10.7998 10.8135L10.4736 11.0947L3.27344 17.2959L3.09961 17.4453V28.9443H9.5V21.833H12.0996V28.9443H18.5V17.4453Z" stroke="black"/>
</svg>
