<svg width="33" height="33" viewBox="0 0 33 33" fill="none" xmlns="http://www.w3.org/2000/svg">
<path d="M5.64286 32.5H1C0.723858 32.5 0.5 32.2761 0.5 32V1C0.5 0.723858 0.723858 0.5 1 0.5H32C32.2761 0.5 32.5 0.723858 32.5 1V32C32.5 32.2761 32.2761 32.5 32 32.5H29.0714" stroke="black"/>
<path d="M7.8125 29.9398L14.398 13.6128C14.4742 13.4237 14.6577 13.2998 14.8617 13.2998H18.1348C18.3387 13.2998 18.5222 13.4236 18.5985 13.6128L25.1839 29.9398" stroke="black"/>
<path d="M6.44241 28.0201H4.53385C4.31061 28.0201 4.11441 27.8721 4.05309 27.6575L3.24241 24.8201L2.37167 20.5535C2.3439 20.4174 2.37398 20.2759 2.45471 20.1629L4.05784 17.9185C4.29253 17.59 4.78329 17.6658 4.88798 18.0557C5.07136 18.7388 5.30539 19.7328 5.52813 20.9801C5.89384 23.0281 6.29003 23.5401 6.44241 23.5401H8.72813" stroke="black"/>
<path d="M26.5576 28.0201H28.4662C28.6894 28.0201 28.8856 27.8721 28.9469 27.6575L29.7576 24.8201L30.6283 20.5535C30.6561 20.4174 30.626 20.2759 30.5453 20.1629L28.9422 17.9185C28.7075 17.59 28.2167 17.6658 28.112 18.0557C27.9286 18.7388 27.6946 19.7328 27.4719 20.9801C27.1062 23.0281 26.71 23.5401 26.5576 23.5401H24.2719" stroke="black"/>
<path d="M8.92315 19.7H7.66642C7.44376 19.7 7.24793 19.5528 7.18609 19.3389L6.63744 17.4412L6.0289 14.4944C6.00053 14.3571 6.03117 14.2141 6.11334 14.1004L7.06301 12.7865C7.29829 12.461 7.7821 12.5383 7.88164 12.9274C7.99971 13.389 8.13769 13.9979 8.27009 14.7306C8.53131 16.1763 8.81431 16.5377 8.92315 16.5377H10.5558" stroke="black"/>
<path d="M24.0768 19.7H25.3336C25.5562 19.7 25.7521 19.5528 25.8139 19.3389L26.3626 17.4412L26.9711 14.4944C26.9995 14.3571 26.9688 14.2141 26.8867 14.1004L25.937 12.7865C25.7017 12.461 25.2179 12.5383 25.1184 12.9274C25.0003 13.389 24.8623 13.9979 24.7299 14.7306C24.4687 16.1763 24.1857 16.5377 24.0768 16.5377H22.4442" stroke="black"/>
<path d="M12.3219 13.3002H11.7288C11.5012 13.3002 11.3023 13.1464 11.2449 12.9261L10.9504 11.7943L10.5951 9.88254C10.5717 9.7564 10.5976 9.62608 10.6676 9.51853L10.9674 9.05767C11.1966 8.70528 11.7022 8.7847 11.7859 9.19666C11.8329 9.42784 11.8821 9.69252 11.93 9.98723C12.0868 10.951 12.2566 11.1919 12.3219 11.1919H13.3015" stroke="black"/>
<path d="M20.6781 13.3002H21.2712C21.4988 13.3002 21.6977 13.1464 21.7551 12.9261L22.0496 11.7943L22.4049 9.88254C22.4283 9.7564 22.4024 9.62608 22.3324 9.51853L22.0326 9.05767C21.8034 8.70528 21.2978 8.7847 21.2141 9.19666C21.1671 9.42784 21.1179 9.69252 21.07 9.98723C20.9132 10.951 20.7434 11.1919 20.6781 11.1919H19.6985" stroke="black"/>
</svg>
