<svg width="32" height="32" viewBox="0 0 32 32" fill="none" xmlns="http://www.w3.org/2000/svg">
<mask id="path-1-inside-1_266_57" fill="white">
<path d="M25.4272 18.1973C25.5989 18.3041 25.744 18.4741 25.8455 18.6873C25.947 18.9005 26.0006 19.148 26 19.4005V26.6197C25.9996 26.973 25.894 27.3116 25.7065 27.5612C25.5191 27.8108 25.2649 27.9509 25 27.9509H24V29.984C23.9983 30.5133 23.8398 31.0202 23.5589 31.3942C23.2781 31.7683 22.8977 31.9791 22.5008 31.9808H21.4992C21.1023 31.9791 20.7219 31.7683 20.4411 31.3942C20.1602 31.0202 20.0017 30.5133 20 29.984V27.9509H12V29.9477C11.9983 30.477 11.8398 30.9839 11.5589 31.358C11.2781 31.732 10.8977 31.9429 10.5008 31.9445H9.4992C9.10225 31.9429 8.7219 31.732 8.44107 31.358C8.16023 30.9839 8.00169 30.477 8 29.9477V27.9509H7C6.86875 27.9512 6.73875 27.917 6.61744 27.8502C6.49612 27.7834 6.38587 27.6854 6.29299 27.5618C6.20011 27.4381 6.12643 27.2913 6.07615 27.1297C6.02588 26.968 6 26.7947 6 26.6197V19.4005C6 18.8864 6.2224 18.4171 6.5728 18.1973L7.576 17.5659C7.70814 17.4819 7.82497 17.3605 7.91836 17.2102C8.01175 17.0598 8.07947 16.8842 8.1168 16.6955L9.6144 8.9792C9.67011 8.69299 9.79559 8.43959 9.97111 8.25885C10.1466 8.07812 10.3622 7.98031 10.584 7.9808H21.416C21.6378 7.98031 21.8534 8.07812 22.0289 8.25885C22.2044 8.43959 22.3299 8.69299 22.3856 8.9792L23.8832 16.6955C23.9205 16.8842 23.9882 17.0598 24.0816 17.2102C24.175 17.3605 24.2919 17.4819 24.424 17.5659L25.4272 18.1973ZM22.5008 24C22.7033 24.0125 22.9056 23.9701 23.0954 23.8754C23.2853 23.7807 23.4588 23.6356 23.6054 23.4489C23.752 23.2623 23.8687 23.0379 23.9484 22.7894C24.0281 22.5409 24.0692 22.2735 24.0692 22.0032C24.0692 21.7329 24.0281 21.4655 23.9484 21.217C23.8687 20.9685 23.752 20.7441 23.6054 20.5575C23.4588 20.3708 23.2853 20.2257 23.0954 20.131C22.9056 20.0363 22.7033 19.9939 22.5008 20.0064C22.2983 19.9939 22.096 20.0363 21.9062 20.131C21.7163 20.2257 21.5428 20.3708 21.3962 20.5575C21.2496 20.7441 21.1329 20.9685 21.0532 21.217C20.9735 21.4655 20.9324 21.7329 20.9324 22.0032C20.9324 22.2735 20.9735 22.5409 21.0532 22.7894C21.1329 23.0379 21.2496 23.2623 21.3962 23.4489C21.5428 23.6356 21.7163 23.7807 21.9062 23.8754C22.096 23.9701 22.2983 24.0125 22.5008 24ZM18 24C18.2648 23.9994 18.5187 23.8591 18.7061 23.6096C18.8935 23.3601 18.9992 23.0219 19 22.6688C18.9992 22.3157 18.8935 21.9775 18.7061 21.728C18.5187 21.4785 18.2648 21.3382 18 21.3376H14C13.7352 21.3382 13.4813 21.4785 13.2939 21.728C13.1065 21.9775 13.0008 22.3157 13 22.6688C13 23.4005 13.4496 24 14 24H18ZM9.4992 20C9.29671 19.9875 9.09442 20.0299 8.90457 20.1246C8.71472 20.2194 8.54124 20.3644 8.39463 20.5511C8.24802 20.7377 8.13132 20.9621 8.05159 21.2106C7.97186 21.4591 7.93076 21.7265 7.93076 21.9968C7.93076 22.2671 7.97186 22.5345 8.05159 22.783C8.13132 23.0315 8.24802 23.2559 8.39463 23.4425C8.54124 23.6292 8.71472 23.7743 8.90457 23.869C9.09442 23.9637 9.29671 24.0061 9.4992 23.9936C9.70169 24.0061 9.90398 23.9637 10.0938 23.869C10.2837 23.7743 10.4572 23.6292 10.6038 23.4425C10.7504 23.2559 10.8671 23.0315 10.9468 22.783C11.0265 22.5345 11.0676 22.2671 11.0676 21.9968C11.0676 21.7265 11.0265 21.4591 10.9468 21.2106C10.8671 20.9621 10.7504 20.7377 10.6038 20.5511C10.4572 20.3644 10.2837 20.2194 10.0938 20.1246C9.90398 20.0299 9.70169 19.9875 9.4992 20ZM10.0368 15.6416C9.8544 16.4885 10.36 17.3227 11.0544 17.3227H20.9456C21.64 17.3227 22.1456 16.4885 21.9632 15.6437L21.104 11.648C21.0369 11.3596 20.9014 11.1081 20.7179 10.9312C20.5344 10.7542 20.3128 10.6614 20.0864 10.6667H11.9136C11.6872 10.6614 11.4656 10.7542 11.2821 10.9312C11.0986 11.1081 10.9631 11.3596 10.896 11.648L10.0368 15.6416ZM31 0C31.2652 0 31.5196 0.140476 31.7071 0.390524C31.8946 0.640573 32 0.979711 32 1.33333V30.6667C32 31.0203 31.8946 31.3594 31.7071 31.6095C31.5196 31.8595 31.2652 32 31 32C30.7348 32 30.4804 31.8595 30.2929 31.6095C30.1054 31.3594 30 31.0203 30 30.6667V6.66667C30 6.31305 29.8946 5.97391 29.7071 5.72386C29.5196 5.47381 29.2652 5.33333 29 5.33333H3C2.73478 5.33333 2.48043 5.47381 2.29289 5.72386C2.10536 5.97391 2 6.31305 2 6.66667V30.6667C2 31.0203 1.89464 31.3594 1.70711 31.6095C1.51957 31.8595 1.26522 32 1 32C0.734784 32 0.48043 31.8595 0.292893 31.6095C0.105357 31.3594 0 31.0203 0 30.6667V1.33333C0 0.979711 0.105357 0.640573 0.292893 0.390524C0.48043 0.140476 0.734784 0 1 0H31Z"/>
</mask>
<path d="M25.4272 18.1973C25.5989 18.3041 25.744 18.4741 25.8455 18.6873C25.947 18.9005 26.0006 19.148 26 19.4005V26.6197C25.9996 26.973 25.894 27.3116 25.7065 27.5612C25.5191 27.8108 25.2649 27.9509 25 27.9509H24V29.984C23.9983 30.5133 23.8398 31.0202 23.5589 31.3942C23.2781 31.7683 22.8977 31.9791 22.5008 31.9808H21.4992C21.1023 31.9791 20.7219 31.7683 20.4411 31.3942C20.1602 31.0202 20.0017 30.5133 20 29.984V27.9509H12V29.9477C11.9983 30.477 11.8398 30.9839 11.5589 31.358C11.2781 31.732 10.8977 31.9429 10.5008 31.9445H9.4992C9.10225 31.9429 8.7219 31.732 8.44107 31.358C8.16023 30.9839 8.00169 30.477 8 29.9477V27.9509H7C6.86875 27.9512 6.73875 27.917 6.61744 27.8502C6.49612 27.7834 6.38587 27.6854 6.29299 27.5618C6.20011 27.4381 6.12643 27.2913 6.07615 27.1297C6.02588 26.968 6 26.7947 6 26.6197V19.4005C6 18.8864 6.2224 18.4171 6.5728 18.1973L7.576 17.5659C7.70814 17.4819 7.82497 17.3605 7.91836 17.2102C8.01175 17.0598 8.07947 16.8842 8.1168 16.6955L9.6144 8.9792C9.67011 8.69299 9.79559 8.43959 9.97111 8.25885C10.1466 8.07812 10.3622 7.98031 10.584 7.9808H21.416C21.6378 7.98031 21.8534 8.07812 22.0289 8.25885C22.2044 8.43959 22.3299 8.69299 22.3856 8.9792L23.8832 16.6955C23.9205 16.8842 23.9882 17.0598 24.0816 17.2102C24.175 17.3605 24.2919 17.4819 24.424 17.5659L25.4272 18.1973ZM22.5008 24C22.7033 24.0125 22.9056 23.9701 23.0954 23.8754C23.2853 23.7807 23.4588 23.6356 23.6054 23.4489C23.752 23.2623 23.8687 23.0379 23.9484 22.7894C24.0281 22.5409 24.0692 22.2735 24.0692 22.0032C24.0692 21.7329 24.0281 21.4655 23.9484 21.217C23.8687 20.9685 23.752 20.7441 23.6054 20.5575C23.4588 20.3708 23.2853 20.2257 23.0954 20.131C22.9056 20.0363 22.7033 19.9939 22.5008 20.0064C22.2983 19.9939 22.096 20.0363 21.9062 20.131C21.7163 20.2257 21.5428 20.3708 21.3962 20.5575C21.2496 20.7441 21.1329 20.9685 21.0532 21.217C20.9735 21.4655 20.9324 21.7329 20.9324 22.0032C20.9324 22.2735 20.9735 22.5409 21.0532 22.7894C21.1329 23.0379 21.2496 23.2623 21.3962 23.4489C21.5428 23.6356 21.7163 23.7807 21.9062 23.8754C22.096 23.9701 22.2983 24.0125 22.5008 24ZM18 24C18.2648 23.9994 18.5187 23.8591 18.7061 23.6096C18.8935 23.3601 18.9992 23.0219 19 22.6688C18.9992 22.3157 18.8935 21.9775 18.7061 21.728C18.5187 21.4785 18.2648 21.3382 18 21.3376H14C13.7352 21.3382 13.4813 21.4785 13.2939 21.728C13.1065 21.9775 13.0008 22.3157 13 22.6688C13 23.4005 13.4496 24 14 24H18ZM9.4992 20C9.29671 19.9875 9.09442 20.0299 8.90457 20.1246C8.71472 20.2194 8.54124 20.3644 8.39463 20.5511C8.24802 20.7377 8.13132 20.9621 8.05159 21.2106C7.97186 21.4591 7.93076 21.7265 7.93076 21.9968C7.93076 22.2671 7.97186 22.5345 8.05159 22.783C8.13132 23.0315 8.24802 23.2559 8.39463 23.4425C8.54124 23.6292 8.71472 23.7743 8.90457 23.869C9.09442 23.9637 9.29671 24.0061 9.4992 23.9936C9.70169 24.0061 9.90398 23.9637 10.0938 23.869C10.2837 23.7743 10.4572 23.6292 10.6038 23.4425C10.7504 23.2559 10.8671 23.0315 10.9468 22.783C11.0265 22.5345 11.0676 22.2671 11.0676 21.9968C11.0676 21.7265 11.0265 21.4591 10.9468 21.2106C10.8671 20.9621 10.7504 20.7377 10.6038 20.5511C10.4572 20.3644 10.2837 20.2194 10.0938 20.1246C9.90398 20.0299 9.70169 19.9875 9.4992 20ZM10.0368 15.6416C9.8544 16.4885 10.36 17.3227 11.0544 17.3227H20.9456C21.64 17.3227 22.1456 16.4885 21.9632 15.6437L21.104 11.648C21.0369 11.3596 20.9014 11.1081 20.7179 10.9312C20.5344 10.7542 20.3128 10.6614 20.0864 10.6667H11.9136C11.6872 10.6614 11.4656 10.7542 11.2821 10.9312C11.0986 11.1081 10.9631 11.3596 10.896 11.648L10.0368 15.6416ZM31 0C31.2652 0 31.5196 0.140476 31.7071 0.390524C31.8946 0.640573 32 0.979711 32 1.33333V30.6667C32 31.0203 31.8946 31.3594 31.7071 31.6095C31.5196 31.8595 31.2652 32 31 32C30.7348 32 30.4804 31.8595 30.2929 31.6095C30.1054 31.3594 30 31.0203 30 30.6667V6.66667C30 6.31305 29.8946 5.97391 29.7071 5.72386C29.5196 5.47381 29.2652 5.33333 29 5.33333H3C2.73478 5.33333 2.48043 5.47381 2.29289 5.72386C2.10536 5.97391 2 6.31305 2 6.66667V30.6667C2 31.0203 1.89464 31.3594 1.70711 31.6095C1.51957 31.8595 1.26522 32 1 32C0.734784 32 0.48043 31.8595 0.292893 31.6095C0.105357 31.3594 0 31.0203 0 30.6667V1.33333C0 0.979711 0.105357 0.640573 0.292893 0.390524C0.48043 0.140476 0.734784 0 1 0H31Z" stroke="black" stroke-width="2" mask="url(#path-1-inside-1_266_57)"/>
</svg>
