<svg width="36" height="34" viewBox="0 0 36 34" fill="none" xmlns="http://www.w3.org/2000/svg">
<path d="M17.1111 27.6667L19.7778 20.5556L11.0987 17L16.432 10.7778L21.7653 15.2222H27.9876M21.5556 8.11111C22.4985 8.11111 23.4029 7.73651 24.0697 7.06971C24.7365 6.40292 25.1111 5.49855 25.1111 4.55556C25.1111 3.61256 24.7365 2.70819 24.0697 2.0414C23.4029 1.3746 22.4985 1 21.5556 1C20.6126 1 19.7082 1.3746 19.0414 2.0414C18.3746 2.70819 18 3.61256 18 4.55556C18 5.49855 18.3746 6.40292 19.0414 7.06971C19.7082 7.73651 20.6126 8.11111 21.5556 8.11111ZM28.6667 33C30.0812 33 31.4377 32.4381 32.4379 31.4379C33.4381 30.4377 34 29.0812 34 27.6667C34 26.2522 33.4381 24.8956 32.4379 23.8954C31.4377 22.8952 30.0812 22.3333 28.6667 22.3333C27.2522 22.3333 25.8956 22.8952 24.8954 23.8954C23.8952 24.8956 23.3333 26.2522 23.3333 27.6667C23.3333 29.0812 23.8952 30.4377 24.8954 31.4379C25.8956 32.4381 27.2522 33 28.6667 33ZM7.33333 33C8.74782 33 10.1044 32.4381 11.1046 31.4379C12.1048 30.4377 12.6667 29.0812 12.6667 27.6667C12.6667 26.2522 12.1048 24.8956 11.1046 23.8954C10.1044 22.8952 8.74782 22.3333 7.33333 22.3333C5.91885 22.3333 4.56229 22.8952 3.5621 23.8954C2.5619 24.8956 2 26.2522 2 27.6667C2 29.0812 2.5619 30.4377 3.5621 31.4379C4.56229 32.4381 5.91885 33 7.33333 33Z" stroke="black" stroke-width="2" stroke-linecap="round" stroke-linejoin="round"/>
<line y1="33.5" x2="36" y2="33.5" stroke="black"/>
</svg>
