<svg width="32" height="32" viewBox="0 0 32 32" fill="none" xmlns="http://www.w3.org/2000/svg">
<path d="M0.888901 32C0.622235 32 0.407124 31.9188 0.243568 31.7564C0.0800129 31.5941 -0.00117239 31.379 1.27897e-05 31.1111V30.2222H22.1547V31.1111C22.1547 31.3778 22.0729 31.5929 21.9093 31.7564C21.7458 31.92 21.5313 32.0012 21.2658 32H0.888901ZM1.27897e-05 25.984V25.0951C1.27897e-05 24.8284 0.0817906 24.6133 0.245346 24.4498C0.408902 24.2862 0.62342 24.205 0.888901 24.2062H7.52001V22.1547H14.6311V24.2062H21.2658C21.5324 24.2062 21.747 24.2874 21.9093 24.4498C22.0717 24.6121 22.1535 24.8272 22.1547 25.0951V25.984H1.27897e-05ZM27.3511 32V20.9511C26.512 20.1926 25.8009 19.283 25.2178 18.2222C24.6335 17.1627 24.3413 15.9597 24.3413 14.6133V0H32V14.6133C32 15.9597 31.7327 17.1644 31.1982 18.2275C30.6637 19.2907 29.9739 20.1985 29.1289 20.9511V30.2222H32V32H27.3511ZM26.1191 9.57333H30.2222V1.77778H26.1191V9.57333Z" fill="black"/>
</svg>
