<svg width="32" height="26" viewBox="0 0 32 26" fill="none" xmlns="http://www.w3.org/2000/svg">
<path d="M11.5344 2.31356H0.8816V22.9999H11.5344V2.31356ZM10.6272 22.0994H1.7824V3.20929H10.6272V22.0994ZM21.4768 2.40776V22.8865L32 26V0L21.4768 2.40776ZM31.0976 24.8009L30.9824 24.7642L22.3776 22.2143V3.11987L22.4496 3.10391L31.0976 1.12085V24.8009ZM23.2496 3.1071L22.56 3.26676V22.0802L23.2496 22.2846V3.1071ZM12.2416 23.0478V2.20179H21.5664L23.2496 1.8138V1.12085H0V24.1287H23.248V23.5986L21.3952 23.0478H12.2416ZM11.7136 23.1787H0.7024V2.13473H11.7136V23.1787Z" fill="black"/>
</svg>
