<svg width="29" height="32" viewBox="0 0 29 32" fill="none" xmlns="http://www.w3.org/2000/svg">
<path d="M11.751 4.44426C11.751 4.20852 11.8446 3.98244 12.0113 3.81575C12.178 3.64906 12.4041 3.55542 12.6398 3.55542H16.1952C16.4309 3.55542 16.657 3.64906 16.8237 3.81575C16.9903 3.98244 17.084 4.20852 17.084 4.44426C17.084 4.67999 16.9903 4.90607 16.8237 5.07276C16.657 5.23945 16.4309 5.33309 16.1952 5.33309H12.6398C12.4041 5.33309 12.178 5.23945 12.0113 5.07276C11.8446 4.90607 11.751 4.67999 11.751 4.44426Z" fill="black"/>
<path fill-rule="evenodd" clip-rule="evenodd" d="M22.7411 11.1282C22.4184 11.3815 21.9998 11.5842 21.4949 11.7486C21.5175 11.9774 21.5287 12.209 21.5287 12.4437C21.5283 13.4065 21.3324 14.3593 20.9528 15.2441C20.5732 16.129 20.0179 16.9276 19.3205 17.5914C18.623 18.2552 17.798 18.7705 16.8955 19.106C15.993 19.4415 15.0318 19.5901 14.0701 19.543C13.1084 19.4959 12.1663 19.254 11.3009 18.8319C10.4355 18.4098 9.66482 17.8164 9.03563 17.0875C8.40643 16.3587 7.9318 15.5097 7.64052 14.592C7.34925 13.6742 7.24739 12.7069 7.34112 11.7486C6.83626 11.5842 6.41762 11.3815 6.09586 11.1282C5.67811 10.7993 5.39813 10.3603 5.36524 9.8323C5.33413 9.34255 5.5279 8.92657 5.72166 8.63326C5.91286 8.35537 6.14001 8.10402 6.39718 7.88575C6.5228 7.77672 6.64309 7.67983 6.75805 7.5951C6.72368 7.412 6.68753 7.19275 6.64961 6.93736C6.49295 5.81688 6.41573 4.68672 6.41851 3.55534C6.41851 3.27625 6.53762 3.06826 6.59272 2.98026C6.66205 2.86916 6.74382 2.77406 6.81849 2.69762C6.96692 2.54207 7.15891 2.38386 7.36957 2.23187C7.79621 1.92255 8.38284 1.57502 9.07968 1.2497C10.4689 0.600853 12.3773 0 14.418 0C16.4588 0 18.3671 0.601742 19.7564 1.2497C20.3555 1.52358 20.928 1.85237 21.4665 2.23187C21.6771 2.38386 21.8691 2.54296 22.0176 2.69762C22.0922 2.77406 22.174 2.86916 22.2433 2.98026C22.2984 3.06826 22.4175 3.27625 22.4175 3.55534C22.4175 4.97926 22.302 6.13296 22.1865 6.93736C22.1485 7.19335 22.1124 7.41259 22.078 7.5951C22.1918 7.67954 22.3153 7.77642 22.4398 7.88575C22.662 8.0804 22.9162 8.33372 23.1144 8.63326C23.309 8.92657 23.5019 9.34255 23.4717 9.83319C23.4388 10.3603 23.1588 10.7993 22.7411 11.1282ZM8.19796 3.83799C8.21129 5.03614 8.31084 6.00497 8.4095 6.68226C8.4332 6.84225 8.45572 6.98506 8.47705 7.11068H20.359C20.3809 6.98447 20.4034 6.84166 20.4266 6.68226C20.5243 6.00497 20.6248 5.03614 20.6381 3.83799C20.5689 3.77958 20.4974 3.72384 20.4239 3.67089C20.103 3.4389 19.6159 3.14648 19.0044 2.86116C17.7752 2.28697 16.1281 1.77767 14.418 1.77767C12.7079 1.77767 11.0609 2.28697 9.83164 2.86116C9.22012 3.14648 8.73304 3.4389 8.41306 3.67C8.33922 3.72351 8.26747 3.77985 8.19796 3.83888M8.00775 8.88835L8.00508 8.89013C7.85163 8.9923 7.70469 9.10392 7.56511 9.22433C7.4069 9.36299 7.28068 9.4981 7.20424 9.61542C7.18647 9.64207 7.17015 9.66967 7.15536 9.69808L7.19446 9.73097C7.32779 9.83585 7.61399 9.98962 8.17218 10.1416C8.2824 10.1712 8.40061 10.2003 8.52683 10.2287L8.53483 10.2305C8.98102 10.3292 9.53032 10.4172 10.1996 10.4865C11.148 10.5851 12.3417 10.65 13.8332 10.6642L14.418 10.666C17.2863 10.666 19.1413 10.4874 20.3021 10.2305L20.3092 10.2287C20.436 10.2009 20.5545 10.1718 20.6648 10.1416C21.2221 9.99051 21.5092 9.83585 21.6416 9.73097L21.6807 9.69808C21.6662 9.66969 21.6502 9.64209 21.6327 9.61542C21.5289 9.47046 21.4074 9.33907 21.271 9.22433C21.1317 9.10395 20.985 8.99233 20.8319 8.89013L20.8283 8.88835H8.00775ZM14.1763 12.4437C16.5246 12.4437 18.3449 12.3193 19.7404 12.1024C19.7475 12.215 19.751 12.3287 19.751 12.4437C19.7504 13.1554 19.6073 13.8598 19.3302 14.5154C19.0531 15.171 18.6476 15.7644 18.1375 16.2608C17.6275 16.7572 17.0232 17.1465 16.3604 17.4057C15.6975 17.6649 14.9895 17.7888 14.278 17.7701C13.5665 17.7515 12.866 17.5905 12.2176 17.2969C11.5693 17.0032 10.9863 16.5828 10.503 16.0603C10.0197 15.5378 9.64593 14.9239 9.40362 14.2546C9.1613 13.5854 9.05539 12.8745 9.09213 12.1637C10.3925 12.3433 12.0591 12.4437 14.1763 12.4437ZM7.37668 29.2222C7.33016 29.5529 7.30699 29.8865 7.30735 30.2204V31.1092C7.30745 31.3046 7.24316 31.4946 7.12442 31.6498C7.00569 31.805 6.83913 31.9167 6.65051 31.9677C6.46189 32.0187 6.26172 32.0061 6.08096 31.9319C5.9002 31.8577 5.74894 31.726 5.65056 31.5572C5.05124 31.8813 4.35059 31.9637 3.69245 31.7874L1.97522 31.327C1.29238 31.1437 0.710287 30.6967 0.356928 30.0844C0.00356957 29.472 -0.0921224 28.7443 0.0908924 28.0614L0.780628 25.4856C0.963729 24.8026 1.41063 24.2203 2.02303 23.8667C2.63542 23.5132 3.36317 23.4174 4.04621 23.6004L5.76344 24.0599C6.36074 24.2199 6.85671 24.571 7.20157 25.0296C8.02454 23.8845 9.10842 22.9518 10.3635 22.3088C11.6186 21.6658 13.0087 21.331 14.4189 21.332C15.8284 21.3313 17.2177 21.6662 18.4721 22.3088C19.7265 22.9515 20.8099 23.8835 21.6327 25.0278C21.9906 24.5547 22.496 24.2144 23.0691 24.0608L24.7863 23.6012C25.4692 23.4182 26.1969 23.5139 26.8092 23.8673C27.4216 24.2206 27.8686 24.8027 28.0519 25.4856L28.7425 28.0623C28.8331 28.4006 28.8562 28.7534 28.8104 29.1006C28.7646 29.4477 28.6509 29.7825 28.4758 30.0857C28.3007 30.389 28.0675 30.6548 27.7896 30.8679C27.5118 31.081 27.1947 31.2373 26.8564 31.3279L25.1401 31.7874C24.4831 31.9638 23.7835 31.8824 23.1846 31.5599C23.0859 31.7285 22.9345 31.8598 22.7536 31.9337C22.5728 32.0075 22.3726 32.0198 22.1841 31.9685C21.9957 31.9172 21.8293 31.8052 21.7108 31.6499C21.5924 31.4946 21.5284 31.3046 21.5287 31.1092V30.2204C21.5291 29.8865 21.5059 29.5529 21.4594 29.2222L16.8339 30.4622C16.6192 30.9217 16.2778 31.3105 15.8499 31.5829C15.422 31.8553 14.9253 32 14.418 32C13.9108 32 13.414 31.8553 12.9861 31.5829C12.5582 31.3105 12.2169 30.9217 12.0022 30.4622L7.37668 29.2222ZM11.8582 28.5823C11.977 28.1768 12.1905 27.8054 12.481 27.4987C12.7715 27.1919 13.1308 26.9586 13.5292 26.8179V23.1648C12.2825 23.3225 11.0998 23.8074 10.1011 24.5701C9.10246 25.3329 8.32348 26.3464 7.84332 27.5077L11.8582 28.5823ZM20.9927 27.5068C20.5125 26.3457 19.7334 25.3324 18.7348 24.5698C17.7361 23.8072 16.5535 23.3224 15.3069 23.1648V26.8171C16.1104 27.1015 16.7379 27.7592 16.9779 28.5832L20.9927 27.5068ZM22.9011 26.8668C22.8708 26.7541 22.8631 26.6365 22.8783 26.5207C22.8935 26.405 22.9314 26.2934 22.9897 26.1922C23.0481 26.0911 23.1258 26.0025 23.2184 25.9314C23.311 25.8604 23.4167 25.8082 23.5295 25.778L25.2467 25.3176C25.4743 25.2568 25.7167 25.2888 25.9207 25.4066C26.1247 25.5245 26.2736 25.7185 26.3346 25.946L27.0253 28.5218C27.0555 28.6346 27.0633 28.7522 27.048 28.8679C27.0328 28.9837 26.995 29.0953 26.9366 29.1964C26.8783 29.2975 26.8006 29.3862 26.7079 29.4572C26.6153 29.5283 26.5096 29.5804 26.3969 29.6107L24.6796 30.0711C24.5668 30.1013 24.4492 30.109 24.3334 30.0937C24.2176 30.0785 24.1059 30.0405 24.0048 29.9821C23.9037 29.9236 23.8151 29.8458 23.744 29.7531C23.673 29.6604 23.6209 29.5546 23.5908 29.4418L22.9011 26.8668ZM3.58668 25.3176C3.47387 25.2872 3.35617 25.2794 3.24032 25.2945C3.12448 25.3097 3.01275 25.3475 2.91154 25.4059C2.81033 25.4642 2.72162 25.542 2.65049 25.6347C2.57935 25.7273 2.52718 25.8331 2.49697 25.946L1.80723 28.521C1.77699 28.6337 1.76925 28.7513 1.78446 28.8671C1.79968 28.9828 1.83754 29.0944 1.8959 29.1955C1.95425 29.2966 2.03195 29.3853 2.12456 29.4563C2.21717 29.5274 2.32288 29.5796 2.43564 29.6098L4.15287 30.0702C4.26563 30.1004 4.38323 30.1082 4.49898 30.093C4.61473 30.0777 4.72634 30.0399 4.82745 29.9815C4.92856 29.9232 5.01719 29.8455 5.08826 29.7529C5.15934 29.6602 5.21147 29.5545 5.24169 29.4418L5.93143 26.8659C5.96181 26.7531 5.96965 26.6354 5.9545 26.5196C5.93935 26.4037 5.90151 26.292 5.84315 26.1908C5.78478 26.0896 5.70704 26.0009 5.61436 25.9297C5.52168 25.8586 5.41588 25.8064 5.30302 25.7762L3.58668 25.3176ZM15.3069 29.3316C15.3069 29.5673 15.2132 29.7934 15.0465 29.9601C14.8798 30.1268 14.6538 30.2204 14.418 30.2204C14.1823 30.2204 13.9562 30.1268 13.7895 29.9601C13.6228 29.7934 13.5292 29.5673 13.5292 29.3316C13.5292 29.0958 13.6228 28.8698 13.7895 28.7031C13.9562 28.5364 14.1823 28.4427 14.418 28.4427C14.6538 28.4427 14.8798 28.5364 15.0465 28.7031C15.2132 28.8698 15.3069 29.0958 15.3069 29.3316Z" fill="black"/>
</svg>
