<svg width="34" height="34" viewBox="0 0 34 34" fill="none" xmlns="http://www.w3.org/2000/svg">
<path d="M3.03571 28.1786V17.1028C3.03571 11.937 3.13324 8.17095 3.2361 5.6361C3.33743 3.15152 5.05781 1.12638 7.53705 0.923714C8.77514 0.823143 10.3142 0.75 12.1786 0.75C14.043 0.75 15.582 0.823143 16.8201 0.923714C19.2993 1.12638 21.0197 3.15152 21.121 5.63686C21.2239 8.17095 21.3214 11.9378 21.3214 17.1035V28.1786H22.0353C22.7591 28.1786 23.4144 28.555 23.5249 29.2704C23.5729 29.5858 23.6071 29.979 23.6071 30.4643C23.6071 30.9496 23.5736 31.3428 23.5249 31.6582C23.4144 32.3736 22.7591 32.75 22.0353 32.75H2.32181C1.598 32.75 0.942762 32.3736 0.832286 31.6582C0.783524 31.3428 0.75 30.9496 0.75 30.4643C0.75 29.979 0.783524 29.5858 0.832286 29.2704C0.942762 28.555 1.598 28.1786 2.32181 28.1786H3.03571Z" stroke="black" stroke-width="1.5" stroke-linecap="round" stroke-linejoin="round"/>
<path d="M21.3219 24.3692H29.2167C29.9631 24.3694 30.6903 24.1334 31.2942 23.6948C31.8981 23.2563 32.3477 22.6379 32.5785 21.9281C32.8092 21.2184 32.8094 20.4538 32.5788 19.744C32.3483 19.0341 31.899 18.4155 31.2952 17.9768L29.8148 16.901C29.4261 16.6182 29.1098 16.2475 28.8917 15.8191C28.6736 15.3908 28.56 14.9169 28.56 14.4362V9.89297M30.4647 5.32154V2.27393M26.6552 5.32154V2.27393M15.7371 12.1048C16.5356 12.0621 17.2 11.5974 17.3371 10.8095C17.4339 10.2534 17.5124 9.46478 17.5124 8.36916C17.5124 7.27354 17.4339 6.48497 17.3371 5.92802C17.2 5.14097 16.5356 4.67621 15.7371 4.63354C15.0011 4.59469 13.8705 4.55964 12.179 4.55964C10.4876 4.55964 9.3577 4.59469 8.62094 4.63354C7.82246 4.67621 7.15808 5.14097 7.02094 5.92878C6.92418 6.48497 6.8457 7.27354 6.8457 8.36916C6.8457 9.46478 6.92418 10.2541 7.02094 10.8103C7.15808 11.5974 7.82246 12.0621 8.62094 12.1048C9.3577 12.1436 10.4884 12.1787 12.179 12.1787C13.8697 12.1787 15.0004 12.1436 15.7371 12.1048ZM10.8442 23.2812C9.88309 23.1602 8.92697 23.0026 7.97789 22.8088C7.85649 22.7853 7.74351 22.73 7.65051 22.6485C7.55751 22.567 7.48784 22.4622 7.44862 22.3449C7.4094 22.2277 7.40204 22.1021 7.4273 21.981C7.45256 21.86 7.50952 21.7478 7.59237 21.656C8.61256 20.4636 10.5562 18.2754 12.6583 16.3562C13.1459 15.9105 13.9025 16.2854 13.8598 16.9452C13.7767 18.2613 13.6614 19.5752 13.5139 20.8857C14.7192 21.0396 15.6945 21.2172 16.3802 21.3581C16.5016 21.3816 16.6146 21.4369 16.7076 21.5184C16.8006 21.5999 16.8702 21.7047 16.9095 21.822C16.9487 21.9392 16.956 22.0648 16.9308 22.1859C16.9055 22.3069 16.8485 22.4191 16.7657 22.5109C15.7455 23.7033 13.8019 25.8914 11.6998 27.8107C11.2122 28.2564 10.4556 27.8815 10.4983 27.2217C10.6034 25.6034 10.7284 24.2937 10.8442 23.2812ZM26.6804 5.34897C25.9032 5.37564 25.2609 5.82212 25.1794 6.59545C25.1505 6.86973 25.1314 7.20421 25.1314 7.60726C25.1314 7.75202 25.134 7.88789 25.139 8.01488C25.1794 9.18059 26.1196 9.85869 27.2853 9.88154C28.1348 9.89788 28.9844 9.89788 29.8339 9.88154C31.0004 9.85869 31.9406 9.18059 31.9817 8.01488C31.9863 7.88789 31.9886 7.75202 31.9886 7.60726C31.9886 7.20421 31.9695 6.8705 31.9406 6.59545C31.859 5.82212 31.2167 5.3764 30.4396 5.34897C29.8133 5.3291 29.1866 5.31995 28.56 5.32154C27.747 5.32154 27.1352 5.33297 26.6804 5.34897Z" stroke="black" stroke-width="1.5" stroke-linecap="round" stroke-linejoin="round"/>
</svg>
