<svg width="32" height="32" viewBox="0 0 32 32" fill="none" xmlns="http://www.w3.org/2000/svg">
<path d="M28.4443 0.5C29.2881 0.5 29.9987 0.794747 30.6025 1.39844C31.2064 2.00232 31.501 2.71239 31.5 3.55469V28.4443C31.5 29.2886 31.2054 29.9996 30.6025 30.6035C30.0003 31.2067 29.2902 31.501 28.4453 31.5H3.55566C2.71142 31.5 2.00103 31.2051 1.39844 30.6025C0.87145 30.0754 0.580104 29.4655 0.514648 28.7549L0.5 28.4434V3.55566C0.5 2.71179 0.794878 2.00203 1.39844 1.39941C1.92706 0.871694 2.53711 0.58007 3.24609 0.514648L3.55664 0.5H28.4443ZM3.05566 28.9443H28.9443V3.05566H3.05566V28.9443ZM8.88867 12.0557H10.666L10.9766 12.0693C11.6876 12.1347 12.2978 12.4268 12.8252 12.9541C13.4278 13.5567 13.7227 14.2671 13.7227 15.1113V19.0557H11.9443V26.167H7.61133V19.0557H5.83301V15.1113L5.84766 14.8018C5.91305 14.0927 6.20469 13.4827 6.73242 12.9541C7.33503 12.3505 8.0448 12.0557 8.88867 12.0557ZM25.7646 18.2773L22.2217 23.9443L18.6797 18.2773H25.7646ZM25.7646 13.7227H18.6797L22.2217 8.05469L25.7646 13.7227ZM9.77832 5.83301C10.2694 5.83207 10.667 5.99619 11.001 6.33008C11.3351 6.66418 11.5 7.06268 11.5 7.55566C11.5 8.04869 11.3355 8.44645 11.0029 8.78027C10.671 9.11221 10.2726 9.2764 9.77637 9.27734C9.28248 9.27818 8.88648 9.1139 8.55566 8.78125C8.22319 8.4469 8.05756 8.04814 8.05566 7.55371C8.05379 7.06183 8.21757 6.66536 8.55176 6.33301C8.88745 5.99922 9.28628 5.83404 9.77832 5.83301Z" stroke="black"/>
</svg>
