<svg width="32" height="24" viewBox="0 0 32 24" fill="none" xmlns="http://www.w3.org/2000/svg">
<path d="M31.0588 0H0.941177C0.691561 0 0.452169 0.0972524 0.275664 0.270363C0.0991593 0.443473 0 0.678262 0 0.923077V23.0769C0 23.3217 0.0991593 23.5565 0.275664 23.7296C0.452169 23.9028 0.691561 24 0.941177 24H31.0588C31.3084 24 31.5478 23.9028 31.7243 23.7296C31.9008 23.5565 32 23.3217 32 23.0769V0.923077C32 0.678262 31.9008 0.443473 31.7243 0.270363C31.5478 0.0972524 31.3084 0 31.0588 0ZM9.41177 14.7692V9.23077H22.5882V14.7692H9.41177ZM1.88235 14.7692V9.23077H7.52941V14.7692H1.88235ZM24.4706 9.23077H30.1176V14.7692H24.4706V9.23077ZM30.1176 7.38462H16.9412V1.84615H30.1176V7.38462ZM15.0588 1.84615V7.38462H1.88235V1.84615H15.0588ZM1.88235 16.6154H15.0588V22.1538H1.88235V16.6154ZM16.9412 22.1538V16.6154H30.1176V22.1538H16.9412Z" fill="black"/>
</svg>
