<svg width="32" height="32" viewBox="0 0 32 32" fill="none" xmlns="http://www.w3.org/2000/svg">
<path d="M8.88889 3.2C8.88889 4.04869 8.54834 4.86263 7.94216 5.46274C7.33599 6.06286 6.51383 6.4 5.65657 6.4C4.7993 6.4 3.97715 6.06286 3.37097 5.46274C2.76479 4.86263 2.42424 4.04869 2.42424 3.2C2.42424 2.35131 2.76479 1.53737 3.37097 0.937258C3.97715 0.337142 4.7993 0 5.65657 0C6.51383 0 7.33599 0.337142 7.94216 0.937258C8.54834 1.53737 8.88889 2.35131 8.88889 3.2ZM3.23232 8C1.43838 8 0 9.424 0 11.2V20.8H3.23232V32H9.06667C7.98898 30.9584 7.13222 29.7142 6.54664 28.3405C5.96106 26.9667 5.65846 25.4911 5.65657 24C5.66002 22.0373 6.18439 20.1099 7.17715 18.411C8.16992 16.7121 9.59621 15.3014 11.3131 14.32V11.2C11.3131 9.424 9.87475 8 8.08081 8M16.1616 9.6V22.4H25.0505L29.4141 28.16L32 26.24L26.6667 19.2H19.3939V9.6M14.5455 16.368C12.905 16.8787 11.4719 17.8942 10.4546 19.2668C9.43728 20.6394 8.88878 22.2975 8.88889 24C8.88889 26.1217 9.74026 28.1566 11.2557 29.6569C12.7711 31.1571 14.8265 32 16.9697 32C19.1129 32 21.1682 31.1571 22.6837 29.6569C24.1991 28.1566 25.0505 26.1217 25.0505 24H21.8182C21.8182 25.273 21.3074 26.4939 20.3981 27.3941C19.4888 28.2943 18.2556 28.8 16.9697 28.8C15.6838 28.8 14.4506 28.2943 13.5413 27.3941C12.632 26.4939 12.1212 25.273 12.1212 24C12.1235 23.1596 12.3486 22.3346 12.774 21.6073C13.1995 20.8801 13.8103 20.2762 14.5455 19.856V16.368Z" fill="black"/>
</svg>
