<svg width="32" height="32" viewBox="0 0 32 32" fill="none" xmlns="http://www.w3.org/2000/svg">
<path d="M31.5 28.2061V31.5H0.5V28.2061H31.5ZM23.3848 19.9678C23.693 20.7879 23.708 21.6847 23.4326 22.5703L23.4316 22.5723C23.028 23.8934 21.9661 25.2176 20.2314 26.1875H17.957C18.0309 25.677 18.0217 25.1341 17.9912 24.6807L19.4971 24.1758C20.6815 23.7786 21.6063 23.3555 22.2891 22.5C22.7826 21.8815 23.1202 21.0712 23.3848 19.9678ZM18.8213 14.4277C19.5136 15.4285 20.0306 16.7738 20.2119 18.2021C20.4479 20.0613 20.1078 21.9744 18.9521 23.3857L17.9844 24.5654C17.9581 24.2279 17.9211 23.9289 17.8887 23.7129C17.8721 23.6024 17.8567 23.5127 17.8457 23.4502C17.8402 23.4189 17.8362 23.3941 17.833 23.377C17.8314 23.3686 17.83 23.3621 17.8291 23.3574C17.8287 23.3551 17.8284 23.3529 17.8281 23.3516L17.8271 23.3496V23.3486L17.5732 22.0664L16.9062 23.1914C16.9059 23.1921 16.9051 23.193 16.9043 23.1943C16.9024 23.1975 16.8997 23.203 16.8955 23.21C16.887 23.2239 16.8737 23.2451 16.8564 23.2725C16.822 23.3273 16.7706 23.4065 16.7061 23.502C16.5762 23.6939 16.3945 23.9465 16.1846 24.1943C15.9723 24.445 15.7447 24.6754 15.5244 24.835C15.2935 25.0023 15.1365 25.0438 15.0498 25.0381C14.6643 25.0116 14.2209 24.7678 13.7422 24.3096C13.2727 23.8601 12.8262 23.2597 12.4355 22.6436C12.0468 22.0305 11.724 21.4185 11.498 20.959C11.3854 20.7298 11.2969 20.5394 11.2373 20.4072C11.2076 20.3413 11.1849 20.2894 11.1699 20.2549C11.1626 20.238 11.1569 20.2252 11.1533 20.2168C11.1515 20.2125 11.1502 20.209 11.1494 20.207L11.1484 20.2051L10.1934 20.4775L10.1943 20.4785C10.1944 20.4792 10.1942 20.4803 10.1943 20.4814C10.1948 20.484 10.1955 20.4885 10.1963 20.4932C10.1978 20.5025 10.2002 20.516 10.2031 20.5332C10.2091 20.5683 10.2177 20.6195 10.2295 20.6846C10.2531 20.8147 10.2892 21.0013 10.3369 21.2305C10.4322 21.6887 10.5771 22.3198 10.7754 23.0088C11.0685 24.0272 11.4941 25.2314 12.0801 26.1875H11.8203C9.98422 25.4275 9.20532 24.7434 8.90332 24.125C8.60529 23.5145 8.70667 22.8385 9.01465 21.875C9.55932 20.171 10.6521 17.8757 9.65918 14.7266C10.8368 15.3947 11.624 16.6828 12.3281 17.9785C12.7443 18.7445 13.1499 19.5481 13.5879 20.0742C13.8119 20.3433 14.0841 20.591 14.4209 20.7168C14.7805 20.851 15.1576 20.8261 15.5293 20.6494C16.8947 20.0001 17.6517 18.8242 18.1182 17.5098C18.459 16.5492 18.657 15.4759 18.8213 14.4277ZM29.2832 21.5566V25.959H27.0977V21.5566H29.2832ZM4.90234 21.5566V25.959H2.7168V21.5566H4.90234ZM29.2832 17.123V19.3096H27.0977V17.123H29.2832ZM4.90234 17.123V19.3096H2.7168V17.123H4.90234ZM14.002 13.1836C13.9481 13.4968 13.9067 13.8406 13.9219 14.1162C13.942 14.481 14.0243 14.9183 14.1318 15.3604C13.9858 15.1253 13.8549 14.8889 13.7539 14.6582C13.5643 14.2249 13.5041 13.8785 13.5537 13.6328V13.6318C13.5588 13.6075 13.5933 13.5273 13.7266 13.4004C13.8038 13.3269 13.8986 13.2549 14.002 13.1836ZM29.2832 12.6904V14.877H27.0977V12.6904H29.2832ZM4.90234 12.6904V14.877H2.7168V12.6904H4.90234ZM31.5 8.25781V10.4434H0.5V8.25781H31.5ZM24.2148 0.5L27.3633 6.01074H4.6377L7.78516 0.5H24.2148Z" stroke="black"/>
</svg>
