<svg width="34" height="34" viewBox="0 0 34 34" fill="none" xmlns="http://www.w3.org/2000/svg">
<path d="M31.0174 15.7457C31.4769 15.7457 31.9176 15.5532 32.2425 15.2107C32.5674 14.8682 32.75 14.4036 32.75 13.9192V11.0881C32.7523 10.471 32.6387 9.85955 32.4157 9.28895C32.1927 8.71835 31.8649 8.19992 31.4509 7.76355C31.037 7.32719 30.5453 6.98152 30.004 6.74647C29.4627 6.51143 28.8827 6.39166 28.2974 6.39408H5.15067C3.97737 6.40373 2.8555 6.90313 2.03071 7.78291C1.20592 8.6627 0.745415 9.85118 0.750034 11.0881V13.974C0.750034 14.4584 0.932569 14.923 1.25748 15.2655C1.5824 15.608 2.02307 15.8005 2.48257 15.8005L3.10628 29.0973C3.19242 30.0922 3.62703 31.0176 4.32534 31.693C5.02364 32.3683 5.93556 32.7453 6.88321 32.7502H26.5648C27.5125 32.7453 28.4244 32.3683 29.1227 31.693C29.821 31.0176 30.2556 30.0922 30.3417 29.0973L30.9655 15.8005" stroke="black" stroke-width="1.5" stroke-linecap="round" stroke-linejoin="round"/>
<path d="M22.0587 6.39386V2.63131C22.0624 2.38351 22.0183 2.13752 21.9289 1.9083C21.8395 1.67908 21.7069 1.47142 21.539 1.29798C21.3765 1.1232 21.1823 0.984627 20.968 0.890499C20.7537 0.79637 20.5237 0.748602 20.2915 0.750031H13.1535C12.9214 0.748602 12.6913 0.79637 12.477 0.890499C12.2627 0.984627 12.0686 1.1232 11.9061 1.29798C11.7382 1.47142 11.6055 1.67908 11.5161 1.9083C11.4268 2.13752 11.3826 2.38351 11.3863 2.63131V6.39386M24.415 17.382V20.9747C24.4154 21.0928 24.3937 21.2099 24.351 21.3191C24.3084 21.4284 24.2456 21.5276 24.1663 21.6112C24.0871 21.6947 23.9929 21.7609 23.8893 21.8059C23.7857 21.8509 23.6746 21.8738 23.5626 21.8733H19.304V26.3628C19.3042 26.4808 19.2823 26.5977 19.2395 26.7067C19.1968 26.8157 19.134 26.9148 19.0547 26.9981C18.9755 27.0815 18.8814 27.1475 18.7779 27.1923C18.6744 27.2372 18.5635 27.2601 18.4516 27.2596H15.0454C14.9335 27.2601 14.8226 27.2372 14.7191 27.1923C14.6156 27.1475 14.5215 27.0815 14.4423 26.9981C14.3631 26.9148 14.3002 26.8157 14.2575 26.7067C14.2147 26.5977 14.1928 26.4808 14.193 26.3628V21.8733H9.93445C9.82238 21.8738 9.71133 21.8509 9.6077 21.8059C9.50408 21.7609 9.40993 21.6947 9.33068 21.6112C9.25144 21.5276 9.18867 21.4284 9.14599 21.3191C9.10332 21.2099 9.08158 21.0928 9.08204 20.9747V17.382C9.08181 17.264 9.10371 17.1471 9.14649 17.0381C9.18927 16.929 9.25208 16.83 9.3313 16.7467C9.41052 16.6633 9.50459 16.5973 9.6081 16.5524C9.71162 16.5075 9.82252 16.4847 9.93445 16.4852H14.193V11.9957C14.1926 11.8775 14.2143 11.7605 14.257 11.6512C14.2996 11.542 14.3624 11.4427 14.4417 11.3592C14.5209 11.2756 14.6151 11.2095 14.7187 11.1645C14.8223 11.1195 14.9334 11.0966 15.0454 11.0971H18.4516C18.5637 11.0966 18.6747 11.1195 18.7783 11.1645C18.882 11.2095 18.9761 11.2756 19.0554 11.3592C19.1346 11.4427 19.1974 11.542 19.24 11.6512C19.2827 11.7605 19.3045 11.8775 19.304 11.9957V16.4852H23.5626C23.6745 16.4847 23.7854 16.5075 23.8889 16.5524C23.9924 16.5973 24.0865 16.6633 24.1657 16.7467C24.2449 16.83 24.3077 16.929 24.3505 17.0381C24.3933 17.1471 24.4152 17.264 24.415 17.382Z" stroke="black" stroke-width="1.5" stroke-linecap="round" stroke-linejoin="round"/>
</svg>
