<svg width="32" height="32" viewBox="0 0 32 32" fill="none" xmlns="http://www.w3.org/2000/svg">
<path d="M29.9636 0H2.03636C1.49629 0 0.978329 0.302563 0.596437 0.841129C0.214545 1.3797 0 2.11015 0 2.87179V29.1282C0 29.8899 0.214545 30.6203 0.596437 31.1589C0.978329 31.6974 1.49629 32 2.03636 32H29.9636C30.5037 32 31.0217 31.6974 31.4036 31.1589C31.7855 30.6203 32 29.8899 32 29.1282V2.87179C32 2.11015 31.7855 1.3797 31.4036 0.841129C31.0217 0.302563 30.5037 0 29.9636 0ZM30.2545 22.9744H28.8C27.4884 22.9744 26.2305 22.2396 25.303 20.9316C24.3756 19.6237 23.8545 17.8497 23.8545 16C23.8545 14.1503 24.3756 12.3763 25.303 11.0684C26.2305 9.76044 27.4884 9.02564 28.8 9.02564H30.2545V22.9744ZM1.74545 9.02564H3.2C4.51162 9.02564 5.76951 9.76044 6.69696 11.0684C7.62442 12.3763 8.14545 14.1503 8.14545 16C8.14545 17.8497 7.62442 19.6237 6.69696 20.9316C5.76951 22.2396 4.51162 22.9744 3.2 22.9744H1.74545V9.02564ZM1.74545 29.1282V25.4359H3.2C4.97454 25.4359 6.6764 24.4418 7.93119 22.6722C9.18598 20.9026 9.89091 18.5026 9.89091 16C9.89091 13.4974 9.18598 11.0974 7.93119 9.32781C6.6764 7.55824 4.97454 6.5641 3.2 6.5641H1.74545V2.87179C1.74545 2.76299 1.7761 2.65864 1.83066 2.5817C1.88522 2.50476 1.95921 2.46154 2.03636 2.46154H15.1273V29.5385H2.03636C1.95921 29.5385 1.88522 29.4952 1.83066 29.4183C1.7761 29.3414 1.74545 29.237 1.74545 29.1282ZM29.9636 29.5385H16.8727V2.46154H29.9636C30.0408 2.46154 30.1148 2.50476 30.1693 2.5817C30.2239 2.65864 30.2545 2.76299 30.2545 2.87179V6.5641H28.8C27.0255 6.5641 25.3236 7.55824 24.0688 9.32781C22.814 11.0974 22.1091 13.4974 22.1091 16C22.1091 18.5026 22.814 20.9026 24.0688 22.6722C25.3236 24.4418 27.0255 25.4359 28.8 25.4359H30.2545V29.1282C30.2545 29.237 30.2239 29.3414 30.1693 29.4183C30.1148 29.4952 30.0408 29.5385 29.9636 29.5385Z" fill="black"/>
</svg>
