<svg width="32" height="32" viewBox="0 0 32 32" fill="none" xmlns="http://www.w3.org/2000/svg">
<path d="M11.2259 29.4807C11.3479 29.613 11.4128 29.7881 11.4064 29.968C11.4001 30.1479 11.323 30.3179 11.192 30.4413L9.71854 31.8191C9.58689 31.9411 9.41222 32.006 9.23281 31.9996C9.05339 31.9931 8.88386 31.9157 8.76136 31.7845L0.180669 22.5369C0.0587317 22.4046 -0.00603507 22.2294 0.00044312 22.0495C0.0069213 21.8697 0.084121 21.6996 0.215266 21.5764L1.69072 20.2006C1.82237 20.0786 1.99704 20.0137 2.17646 20.0202C2.35588 20.0266 2.5254 20.104 2.6479 20.2352L11.2259 29.4807ZM22.1748 12.0806C22.2967 12.2129 22.3615 12.3881 22.355 12.568C22.3485 12.7478 22.2713 12.9179 22.1402 13.0411L12.8669 21.7039C12.7352 21.826 12.5605 21.8909 12.3811 21.8844C12.2017 21.8779 12.0322 21.8006 11.9097 21.6693L9.69616 19.2808C9.57422 19.1484 9.50945 18.9732 9.51593 18.7934C9.52241 18.6135 9.59961 18.4435 9.73075 18.3202L19.002 9.65743C19.0671 9.59684 19.1434 9.54967 19.2267 9.51861C19.31 9.48756 19.3986 9.47323 19.4875 9.47644C19.5763 9.47965 19.6636 9.50035 19.7445 9.53734C19.8253 9.57433 19.898 9.6269 19.9585 9.69203L22.1748 12.0806ZM14.381 26.5319C14.6347 26.8052 14.6191 27.2374 14.3464 27.4924L12.8709 28.8695C12.7393 28.9916 12.5646 29.0565 12.3852 29.05C12.2058 29.0435 12.0362 28.9662 11.9137 28.8349L3.3378 19.5874C3.21578 19.4551 3.15089 19.28 3.15724 19.1001C3.16359 18.9203 3.24067 18.7502 3.37172 18.6268L4.84446 17.2504C4.97611 17.1283 5.15078 17.0634 5.3302 17.0699C5.50961 17.0764 5.67914 17.1538 5.80164 17.285L14.381 26.5319ZM28.6695 12.4123C28.7913 12.5448 28.856 12.72 28.8494 12.8998C28.8428 13.0797 28.7654 13.2497 28.6342 13.3729L27.1594 14.7499C27.0278 14.8723 26.8531 14.9375 26.6735 14.9311C26.4939 14.9247 26.3242 14.8474 26.2016 14.716L17.6243 5.47053C17.5021 5.33832 17.4371 5.16318 17.4434 4.98327C17.4498 4.80335 17.527 4.63323 17.6582 4.50996L19.137 3.12948C19.2021 3.06889 19.2784 3.02172 19.3617 2.99067C19.445 2.95961 19.5336 2.94528 19.6224 2.94849C19.7113 2.95171 19.7986 2.9724 19.8794 3.00939C19.9603 3.04639 20.033 3.09895 20.0935 3.16408L28.6695 12.4123ZM31.8198 9.46816C31.9415 9.60082 32.006 9.77601 31.9996 9.95588C31.9931 10.1357 31.9161 10.3058 31.7852 10.4294L30.3132 11.8058C30.2482 11.8665 30.1718 11.9137 30.0886 11.9448C30.0053 11.9759 29.9167 11.9903 29.8279 11.9871C29.739 11.984 29.6517 11.9634 29.5708 11.9264C29.49 11.8895 29.4172 11.837 29.3567 11.7719L20.7807 2.52234C20.659 2.38978 20.5943 2.21463 20.6006 2.03477C20.607 1.8549 20.6839 1.68475 20.8146 1.56109L22.2881 0.181969C22.353 0.121276 22.4292 0.0739962 22.5124 0.0428422C22.5956 0.0116881 22.6842 -0.00272674 22.773 0.000424609C22.8618 0.00357596 22.9491 0.0242315 23.0299 0.0612061C23.1107 0.0981807 23.1834 0.150747 23.2439 0.215888L31.8198 9.46816Z" fill="black"/>
</svg>
