<svg width="30" height="32" viewBox="0 0 30 32" fill="none" xmlns="http://www.w3.org/2000/svg">
<path d="M24.1894 21.7356C21.5581 20.7883 18.0815 20.2667 14.4 20.2667C12.6151 20.2625 10.8324 20.3916 9.06667 20.6529V13.0105L19.2 9.27713V6.73507L9.06667 1.9884V0H6.93333V26.6667H9.06667V22.8111C10.8306 22.5317 12.6141 22.3942 14.4 22.4C17.8414 22.4 21.0614 22.8769 23.4667 23.7429C25.8287 24.5933 26.6667 25.562 26.6667 26.1333C26.6667 26.7047 25.8287 27.6733 23.4667 28.5238C21.0614 29.3898 17.8414 29.8667 14.4 29.8667C10.9586 29.8667 7.7386 29.3898 5.33333 28.5238C2.97133 27.6733 2.13333 26.7047 2.13333 26.1333C2.13333 25.6073 2.8446 24.7445 4.8 23.9475V21.6691C4.73649 21.691 4.67336 21.7132 4.6106 21.7357C0.8 23.1075 0 24.8843 0 26.1333C0 27.3823 0.8 29.1592 4.6106 30.5311C7.24187 31.4783 10.7185 32 14.4 32C18.0815 32 21.5581 31.4783 24.1894 30.5311C28 29.1592 28.8 27.3823 28.8 26.1333C28.8 24.8843 28 23.1075 24.1894 21.7356ZM9.06667 4.3442L16.7057 7.92253L9.06667 10.7369V4.3442Z" fill="black"/>
<path d="M27.7329 19.7332C28.9112 19.7332 29.8663 18.7781 29.8663 17.5999C29.8663 16.4217 28.9112 15.4666 27.7329 15.4666C26.5547 15.4666 25.5996 16.4217 25.5996 17.5999C25.5996 18.7781 26.5547 19.7332 27.7329 19.7332Z" fill="black"/>
</svg>
