<svg width="34" height="34" viewBox="0 0 34 34" fill="none" xmlns="http://www.w3.org/2000/svg">
<path d="M6.08333 28.4833V29.55M11.4167 29.55V26.35M16.75 28.4833V29.55M27.4167 28.4833V29.55M22.0833 29.55V26.35M3.41667 32.75H30.0833M3.41667 6.43889H30.0833M0.75 10.7056H6.08333M32.75 10.7056H27.4167M11.4167 6.43889V5.01667C11.4167 3.88508 11.9786 2.79983 12.9788 1.99968C13.979 1.19952 15.3355 0.75 16.75 0.75C18.1645 0.75 19.521 1.19952 20.5212 1.99968C21.5214 2.79983 22.0833 3.88508 22.0833 5.01667V6.43889M6.08333 6.43889H27.4167V20.6611C27.4167 21.0383 27.2294 21.4001 26.896 21.6668C26.5626 21.9335 26.1104 22.0833 25.6389 22.0833H7.86111C7.38962 22.0833 6.93743 21.9335 6.60403 21.6668C6.27063 21.4001 6.08333 21.0383 6.08333 20.6611V6.43889Z" stroke="black" stroke-width="1.5" stroke-linecap="round" stroke-linejoin="round"/>
</svg>
