<svg width="32" height="32" viewBox="0 0 32 32" fill="none" xmlns="http://www.w3.org/2000/svg">
<path d="M15.293 2.28809L9.58105 8L24 22.4189L29.7119 16.707L31.293 18.2881L29.0049 20.5762L31.293 22.8643L27.8691 26.2881L30.1572 28.5762L28.5762 30.1572L26.2881 27.8691L22.8643 31.293L20.5762 29.0049L18.2881 31.293L16.707 29.7119L22.4189 24L8 9.58105L2.28809 15.293L0.707031 13.7119L2.99512 11.4238L0.707031 9.13574L4.13086 5.71191L1.84277 3.42383L3.42383 1.84277L5.71191 4.13086L9.13574 0.707031L11.4238 2.99512L13.7119 0.707031L15.293 2.28809Z" stroke="black"/>
</svg>
