<svg width="34" height="34" viewBox="0 0 34 34" fill="none" xmlns="http://www.w3.org/2000/svg">
<path d="M26.35 0.75V9.63889M7.15 0.75V9.63889M30.35 2.52778V5.19444M30.35 5.19444V7.86111M30.35 5.19444H32.75M3.15 2.52778V5.19444M3.15 5.19444V7.86111M3.15 5.19444H0.75M26.35 5.19444H7.15M11.95 9.63889V23.8611M21.55 9.63889V23.8611M23.15 29.1944V32.75M10.35 29.1944V32.75M9.1932 29.1944H24.3084C26.2876 29.1944 27.278 29.1944 27.6876 28.6558C28.6156 27.4362 26.8364 25.822 26.1868 25.0096C25.4556 24.0922 24.9196 23.8611 23.838 23.8611H9.662C8.5804 23.8611 8.046 24.0922 7.3132 25.0096C6.6636 25.822 4.8844 27.4362 5.8124 28.6558C6.222 29.1944 7.214 29.1944 9.1932 29.1944Z" stroke="black" stroke-width="1.5" stroke-linecap="round" stroke-linejoin="round"/>
</svg>
