<svg width="32" height="32" viewBox="0 0 32 32" fill="none" xmlns="http://www.w3.org/2000/svg">
<path fill-rule="evenodd" clip-rule="evenodd" d="M5.12012 16.0001C5.12012 18.8857 6.2664 21.653 8.3068 23.6934C10.3472 25.7338 13.1146 26.8801 16.0001 26.8801C18.8857 26.8801 21.653 25.7338 23.6934 23.6934C25.7338 21.653 26.8801 18.8857 26.8801 16.0001C26.8801 13.1146 25.7338 10.3472 23.6934 8.3068C21.653 6.2664 18.8857 5.12012 16.0001 5.12012C13.1146 5.12012 10.3472 6.2664 8.3068 8.3068C6.2664 10.3472 5.12012 13.1146 5.12012 16.0001ZM25.6001 16.0001C25.6001 18.5462 24.5887 20.988 22.7883 22.7883C20.988 24.5887 18.5462 25.6001 16.0001 25.6001C13.454 25.6001 11.0122 24.5887 9.21189 22.7883C7.41154 20.988 6.40012 18.5462 6.40012 16.0001C6.40012 13.454 7.41154 11.0122 9.21189 9.21189C11.0122 7.41154 13.454 6.40012 16.0001 6.40012C18.5462 6.40012 20.988 7.41154 22.7883 9.21189C24.5887 11.0122 25.6001 13.454 25.6001 16.0001Z" fill="black"/>
<path fill-rule="evenodd" clip-rule="evenodd" d="M11.5195 16C11.5195 21.6256 13.3653 26.24 15.9995 26.24C18.6338 26.24 20.4795 21.6256 20.4795 16C20.4795 10.3731 18.6338 5.76001 15.9995 5.76001C13.3653 5.76001 11.5195 10.3731 11.5195 16ZM19.1995 16C19.1995 20.9779 17.6059 24.96 15.9995 24.96C14.3931 24.96 12.7995 20.9779 12.7995 16C12.7995 11.0221 14.3931 7.04001 15.9995 7.04001C17.6059 7.04001 19.1995 11.0221 19.1995 16Z" fill="black"/>
<path d="M7.98057 9.99956L8.83817 9.0498C8.9747 9.17268 9.12105 9.29258 9.27721 9.40948C10.9642 10.6741 13.6266 11.4447 16.5284 11.4447C19.0026 11.4447 21.3118 10.8853 22.9988 9.92148C23.3875 9.70149 23.7547 9.44566 24.0958 9.15732L24.9278 10.1301C24.5455 10.457 24.1145 10.7573 23.635 11.0312C21.7444 12.1128 19.2164 12.7247 16.5284 12.7247C13.3668 12.7247 10.433 11.876 8.50921 10.4335C8.32661 10.2963 8.15022 10.1511 7.98057 9.99828M7.98057 22.0162L8.83817 22.9634C8.9747 22.8397 9.12105 22.7202 9.27721 22.605C10.9642 21.3404 13.6266 20.5698 16.5284 20.5698C19.0026 20.5698 21.3118 21.1279 22.9988 22.093C23.411 22.3294 23.7766 22.5837 24.0958 22.8559L24.9278 21.8831C24.5259 21.5431 24.093 21.2414 23.635 20.982C21.7444 19.9016 19.2164 19.2898 16.5284 19.2898C13.3668 19.2898 10.433 20.1384 8.50921 21.5797C8.32147 21.7205 8.14526 21.8656 7.98057 22.0149M5.75977 16.6402V15.3602H26.2398V16.6402H5.75977Z" fill="black"/>
<path fill-rule="evenodd" clip-rule="evenodd" d="M16 30.72C24.1293 30.72 30.72 24.1293 30.72 16C30.72 7.87072 24.1293 1.28 16 1.28C7.87072 1.28 1.28 7.87072 1.28 16C1.28 24.1293 7.87072 30.72 16 30.72ZM16 32C24.8371 32 32 24.8371 32 16C32 7.16288 24.8371 0 16 0C7.16288 0 0 7.16288 0 16C0 24.8371 7.16288 32 16 32Z" fill="black"/>
</svg>
