<svg width="32" height="32" viewBox="0 0 32 32" fill="none" xmlns="http://www.w3.org/2000/svg">
<path d="M4.36364 20.8H7.27273C8.04427 20.8 8.7842 21.1371 9.32977 21.7373C9.87533 22.3374 10.1818 23.1513 10.1818 24V27.2H11.6364V24C11.6364 23.1513 11.9429 22.3374 12.4884 21.7373C13.034 21.1371 13.7739 20.8 14.5455 20.8H17.4545C18.2261 20.8 18.966 21.1371 19.5116 21.7373C20.0571 22.3374 20.3636 23.1513 20.3636 24V27.2H21.8182V24C21.8182 23.1513 22.1247 22.3374 22.6702 21.7373C23.2158 21.1371 23.9557 20.8 24.7273 20.8H27.6364C28.4079 20.8 29.1478 21.1371 29.6934 21.7373C30.239 22.3374 30.5455 23.1513 30.5455 24V27.2H32V32H0V27.2H1.45455V24C1.45455 23.1513 1.76104 22.3374 2.3066 21.7373C2.85216 21.1371 3.5921 20.8 4.36364 20.8ZM4.36364 0H27.6364C28.4079 0 29.1478 0.337142 29.6934 0.937258C30.239 1.53737 30.5455 2.35131 30.5455 3.2V18.464C29.6643 17.8928 28.6591 17.5943 27.6364 17.6V3.2H4.36364V17.6C3.30182 17.6 2.31273 17.904 1.45455 18.464V3.2C1.45455 2.35131 1.76104 1.53737 2.3066 0.937258C2.85216 0.337142 3.5921 0 4.36364 0Z" fill="black"/>
<path d="M16.5 18C19.5377 18 22 15.5377 22 12.5C22 9.46235 19.5377 7 16.5 7C13.4624 7 11 9.46235 11 12.5C11 15.5377 13.4624 18 16.5 18Z" stroke="black" stroke-linejoin="round"/>
<path d="M16.5002 10.85C16.719 10.85 16.9288 10.763 17.0836 10.6083C17.2383 10.4536 17.3252 10.2438 17.3252 10.025C17.3252 9.80615 17.2383 9.59631 17.0836 9.44159C16.9288 9.28687 16.719 9.19995 16.5002 9.19995C16.2814 9.19995 16.0715 9.28687 15.9168 9.44159C15.7621 9.59631 15.6752 9.80615 15.6752 10.025C15.6752 10.2438 15.7621 10.4536 15.9168 10.6083C16.0715 10.763 16.2814 10.85 16.5002 10.85ZM16.5002 15.8C16.719 15.8 16.9288 15.713 17.0836 15.5583C17.2383 15.4036 17.3252 15.1938 17.3252 14.975C17.3252 14.7561 17.2383 14.5463 17.0836 14.3916C16.9288 14.2369 16.719 14.15 16.5002 14.15C16.2814 14.15 16.0715 14.2369 15.9168 14.3916C15.7621 14.5463 15.6752 14.7561 15.6752 14.975C15.6752 15.1938 15.7621 15.4036 15.9168 15.5583C16.0715 15.713 16.2814 15.8 16.5002 15.8ZM14.0252 13.325C14.244 13.325 14.4538 13.238 14.6086 13.0833C14.7633 12.9286 14.8502 12.7188 14.8502 12.5C14.8502 12.2811 14.7633 12.0713 14.6086 11.9166C14.4538 11.7619 14.244 11.675 14.0252 11.675C13.8064 11.675 13.5965 11.7619 13.4418 11.9166C13.2871 12.0713 13.2002 12.2811 13.2002 12.5C13.2002 12.7188 13.2871 12.9286 13.4418 13.0833C13.5965 13.238 13.8064 13.325 14.0252 13.325ZM18.9752 13.325C19.194 13.325 19.4038 13.238 19.5586 13.0833C19.7133 12.9286 19.8002 12.7188 19.8002 12.5C19.8002 12.2811 19.7133 12.0713 19.5586 11.9166C19.4038 11.7619 19.194 11.675 18.9752 11.675C18.7564 11.675 18.5465 11.7619 18.3918 11.9166C18.2371 12.0713 18.1502 12.2811 18.1502 12.5C18.1502 12.7188 18.2371 12.9286 18.3918 13.0833C18.5465 13.238 18.7564 13.325 18.9752 13.325Z" stroke="black" stroke-linejoin="round"/>
<path d="M16.5 18H22" stroke="black" stroke-linecap="round"/>
</svg>
