<svg width="34" height="34" viewBox="0 0 34 34" fill="none" xmlns="http://www.w3.org/2000/svg">
<path d="M16.5375 27.5907L11.3613 25.5669" stroke="black" stroke-width="1.5" stroke-linecap="round" stroke-linejoin="round"/>
<path d="M23.4959 9.70774C24.0215 10.521 24.3021 11.4681 24.3046 12.4364C24.3046 15.3778 21.7437 17.7622 18.5844 17.7622C15.425 17.7622 12.8633 15.3778 12.8633 12.4364C12.867 11.3339 13.2294 10.2625 13.8959 9.38428" stroke="black" stroke-width="1.5" stroke-linecap="round" stroke-linejoin="round"/>
<path d="M13.8116 5.20075C13.8332 4.49588 16.0429 3.98129 18.7465 4.05307C21.4501 4.12486 23.6235 4.75361 23.601 5.45761V9.39448C23.5785 10.2689 21.3696 10.9063 18.6661 10.818C15.9625 10.7307 13.7882 9.94972 13.8107 9.07534L13.8116 5.20075Z" stroke="black" stroke-width="1.5" stroke-linecap="round" stroke-linejoin="round"/>
<path d="M23.6019 5.45804C23.5794 6.1629 21.3705 6.6775 18.6669 6.60658C15.9634 6.53479 13.7891 5.90604 13.8125 5.20117M10.0339 22.7856L7.74023 17.4148L15.1002 19.935L17.3091 26.3999" stroke="black" stroke-width="1.5" stroke-linecap="round" stroke-linejoin="round"/>
<path d="M10.4856 22.7441C11.8919 23.1531 11.8668 25.0014 11.4128 25.5159C10.5592 26.4837 9.09495 25.714 8.84759 24.8033C8.557 23.7291 9.00068 22.7449 9.66057 22.271M19.0089 26.0132C17.5386 25.97 16.5959 26.6792 16.5397 27.538C16.4662 28.6511 17.7471 29.3854 19.5702 29.4537C20.2543 29.4796 21.2913 28.7462 21.7583 27.8961M15.0833 16.7661C14.0126 16.9157 12.2837 18.0807 12.4143 19.0156M16.0519 17.5116C16.2629 18.4941 16.5881 19.3659 17.2221 20.3017C17.9209 19.6634 18.9605 18.8107 19.6792 17.7564" stroke="black" stroke-width="1.5" stroke-linecap="round" stroke-linejoin="round"/>
<path d="M21.0994 22.114L21.3562 23.5238L18.9424 26.0146C20.1774 25.4887 22.1147 27.5463 22.0697 28.5694C23.7649 26.562 24.6816 25.09 25.2325 23.6293C24.6194 19.5411 23.2131 18.0163 20.7845 17.3486" stroke="black" stroke-width="1.5" stroke-linecap="round" stroke-linejoin="round"/>
<path d="M20.3359 24.6216C21.6038 24.8257 22.9132 26.1861 23.1018 27.3658" stroke="black" stroke-width="1.5" stroke-linecap="round" stroke-linejoin="round"/>
<path d="M24.8399 24.5372L32.6869 26.8075M15.7762 21.9132L21.3537 23.5279M0.75 17.5647L8.7993 19.8946M4.20946 0.75H29.2905C31.2071 0.75 32.75 2.29292 32.75 4.20946V29.2905C32.75 31.2071 31.2071 32.75 29.2905 32.75H4.20946C2.29292 32.75 0.75 31.2071 0.75 29.2905V4.20946C0.75 2.29292 2.29292 0.75 4.20946 0.75Z" stroke="black" stroke-width="1.5" stroke-linecap="round" stroke-linejoin="round"/>
</svg>
