<svg width="32" height="35" viewBox="0 0 32 35" fill="none" xmlns="http://www.w3.org/2000/svg">
<path d="M27.077 22.1539H19.6924V19.6924H27.077V22.1539ZM32.0001 32.0001H24.6155V29.5385H32.0001V32.0001ZM29.5385 27.077H22.1539V24.6155H29.5385V27.077Z" fill="black"/>
<path d="M16.0042 22.1538C15.9949 21.1155 15.7177 20.0971 15.1993 19.1973C14.6809 18.2975 13.939 17.5468 13.0454 17.0178L22.1543 1.23077L20.0251 0L10.6995 16.1551C9.55505 15.8995 8.36475 15.9349 7.23747 16.2581C6.11019 16.5812 5.0819 17.1818 4.24663 18.0049C-0.361374 22.4492 -0.00445067 32.8394 0.0127801 33.28C0.0255027 33.5978 0.160768 33.8984 0.390217 34.1186C0.619667 34.3389 0.925482 34.4618 1.24355 34.4615H19.694C19.9523 34.4615 20.2041 34.3803 20.4137 34.2292C20.6232 34.0782 20.7799 33.865 20.8616 33.62C20.9433 33.3749 20.9458 33.1104 20.8688 32.8638C20.7918 32.6172 20.6391 32.4011 20.4325 32.2462C16.0756 28.9772 16.0042 22.2203 16.0042 22.1538ZM9.76047 18.4578C10.7455 18.4687 11.6885 18.8589 12.3932 19.5473C13.0979 20.2357 13.51 21.1693 13.5439 22.1538C13.5439 22.2006 13.5463 22.4098 13.5648 22.7311L6.30324 19.5015C6.78157 19.1071 7.33354 18.8117 7.92706 18.6325C8.52058 18.4534 9.1438 18.394 9.76047 18.4578ZM14.0928 32C13.109 30.9983 12.4819 29.7009 12.3082 28.3077H9.84663C9.93477 29.6176 10.3439 30.8856 11.038 32H8.30201C7.79565 30.4028 7.4877 28.7493 7.38509 27.0769H4.92355C5.00244 28.7444 5.27715 30.3967 5.74201 32H2.46201C2.50016 29.7403 2.81893 24.7483 4.68109 21.4732L13.9525 25.5963C14.397 27.9096 15.3467 30.0962 16.734 32H14.0928Z" fill="black"/>
</svg>
