<svg width="34" height="34" viewBox="0 0 34 34" fill="none" xmlns="http://www.w3.org/2000/svg">
<path d="M4.90527 34V27.6744H0.905273L3.30527 15.0233C3.30527 15.0233 4.90527 12.6512 8.90527 12.6512C12.9053 12.6512 14.5053 15.0233 14.5053 15.0233L16.9053 27.6744H12.9053V34M27.3053 22.1395C24.9053 22.1395 23.3053 23.6324 23.3053 23.6324L21.7053 32.4186H32.9053L31.3053 23.6324C31.3053 23.6324 29.7053 22.1395 27.3053 22.1395ZM27.3053 22.1395V0M4.90527 4.74419C4.90527 5.79272 5.3267 6.7983 6.07685 7.53972C6.82699 8.28115 7.84441 8.69767 8.90527 8.69767C9.96614 8.69767 10.9836 8.28115 11.7337 7.53972C12.4838 6.7983 12.9053 5.79272 12.9053 4.74419C12.9053 3.69566 12.4838 2.69007 11.7337 1.94865C10.9836 1.20722 9.96614 0.790698 8.90527 0.790698C7.84441 0.790698 6.82699 1.20722 6.07685 1.94865C5.3267 2.69007 4.90527 3.69566 4.90527 4.74419Z" stroke="black" stroke-width="1.5"/>
</svg>
