<svg width="32" height="32" viewBox="0 0 32 32" fill="none" xmlns="http://www.w3.org/2000/svg">
<path d="M0 32V0H32V32H0ZM2.28571 30.2222H29.7143V1.77778H2.28571V30.2222ZM22.8343 24.8711C24.7238 23.3991 25.6686 21.6273 25.6686 19.5556C25.6686 17.4839 24.7238 15.712 22.8343 14.24C20.9402 12.7704 18.6621 12.0356 16 12.0356C13.3379 12.0356 11.0598 12.7704 9.16571 14.24C7.27619 15.7132 6.33143 17.485 6.33143 19.5556C6.33143 21.6261 7.27619 23.3979 9.16571 24.8711C11.0583 26.3407 13.3364 27.0756 16 27.0756C18.6636 27.0756 20.9417 26.3407 22.8343 24.8711ZM16 25.4222C15.0095 25.4222 14.0549 25.2759 13.136 24.9831C12.2171 24.6904 11.4103 24.2738 10.7154 23.7333L21.3714 15.4471C22.0663 15.9864 22.6019 16.6133 22.9783 17.328C23.3547 18.0427 23.5429 18.7852 23.5429 19.5556C23.5429 21.1852 22.8099 22.5707 21.344 23.712C19.8781 24.8533 18.0968 25.4234 16 25.4222ZM6.85714 7.11111C7.50476 7.11111 8.048 6.94044 8.48686 6.59911C8.92571 6.25778 9.14438 5.83585 9.14286 5.33333C9.14133 4.83082 8.9219 4.40889 8.48457 4.06756C8.04724 3.72622 7.50476 3.55556 6.85714 3.55556C6.20952 3.55556 5.66705 3.72622 5.22971 4.06756C4.79238 4.40889 4.57295 4.83082 4.57143 5.33333C4.5699 5.83585 4.78933 6.25837 5.22971 6.60089C5.6701 6.94341 6.21257 7.11348 6.85714 7.11111ZM15.344 6.59911C15.7813 6.26015 16 5.83822 16 5.33333C16 4.82844 15.7806 4.40652 15.3417 4.06756C14.9029 3.72859 14.3604 3.55793 13.7143 3.55556C13.0682 3.55319 12.5257 3.72385 12.0869 4.06756C11.648 4.41126 11.4286 4.83319 11.4286 5.33333C11.4286 5.83348 11.648 6.256 12.0869 6.60089C12.5257 6.94578 13.0682 7.11585 13.7143 7.11111C14.3604 7.10637 14.9036 6.9357 15.344 6.59911Z" fill="black"/>
</svg>
