<svg width="32" height="32" viewBox="0 0 32 32" fill="none" xmlns="http://www.w3.org/2000/svg">
<path d="M4.05415 0.529522C2.96615 2.10491 2.05046 2.68851 1.23077 2.68851C0.904349 2.68851 0.591298 2.87712 0.360484 3.21285C0.12967 3.54858 0 4.00393 0 4.47872C0 4.95352 0.12967 5.40886 0.360484 5.74459C0.591298 6.08032 0.904349 6.26893 1.23077 6.26893C2.56 6.26893 3.75877 5.03727 4.92308 3.67313C6.08 5.03011 7.27631 6.26893 8.61539 6.26893C9.94462 6.26893 11.1434 5.03727 12.3077 3.67313C13.472 5.03369 14.6708 6.26893 16 6.26893C17.3292 6.26893 18.528 5.03727 19.6923 3.67313C20.8492 5.03011 22.0455 6.26893 23.3846 6.26893C24.7138 6.26893 25.9126 5.03727 27.0769 3.67313C28.2412 5.03369 29.44 6.26893 30.7692 6.26893C31.0957 6.26893 31.4087 6.08032 31.6395 5.74459C31.8703 5.40886 32 4.95352 32 4.47872C32 4.00393 31.8703 3.54858 31.6395 3.21285C31.4087 2.87712 31.0957 2.68851 30.7692 2.68851C29.9495 2.68851 29.0338 2.10849 27.9483 0.52594C27.7175 0.190327 27.4045 0.00179221 27.0782 0.00179221C26.7518 0.00179221 26.4388 0.190327 26.208 0.52594C25.12 2.10849 24.2043 2.68851 23.3846 2.68851C22.5772 2.68851 21.6271 2.07626 20.5637 0.52594C20.3329 0.190327 20.0199 0.00179221 19.6935 0.00179221C19.3672 0.00179221 19.0542 0.190327 18.8234 0.52594C17.7354 2.10849 16.8197 2.68851 16 2.68851C15.1803 2.68851 14.2646 2.10849 13.1791 0.52594C13.0648 0.359224 12.9289 0.226955 12.7794 0.136705C12.6299 0.0464552 12.4696 0 12.3077 0C12.1458 0 11.9855 0.0464552 11.836 0.136705C11.6865 0.226955 11.5506 0.359224 11.4363 0.52594C10.3532 2.10849 9.43508 2.68851 8.61539 2.68851C7.808 2.68851 6.85785 2.07626 5.79446 0.52594C5.56366 0.190327 5.25066 0.00179221 4.92431 0.00179221C4.59795 0.00179221 4.28496 0.190327 4.05415 0.52594M4.05415 7.68678C2.96615 9.26932 2.05046 9.84935 1.23077 9.84935C0.904349 9.84935 0.591298 10.038 0.360484 10.3737C0.12967 10.7094 0 11.1648 0 11.6396C0 12.1144 0.12967 12.5697 0.360484 12.9054C0.591298 13.2412 0.904349 13.4298 1.23077 13.4298C2.56 13.4298 3.75877 12.1981 4.92308 10.834C6.08 12.1909 7.27631 13.4298 8.61539 13.4298C9.94462 13.4298 11.1434 12.1981 12.3077 10.834C13.472 12.1945 14.6708 13.4298 16 13.4298C17.3292 13.4298 18.528 12.1981 19.6923 10.834C20.8492 12.1909 22.0455 13.4298 23.3846 13.4298C24.7138 13.4298 25.9126 12.1981 27.0769 10.834C28.2412 12.1945 29.44 13.4298 30.7692 13.4298C31.0957 13.4298 31.4087 13.2412 31.6395 12.9054C31.8703 12.5697 32 12.1144 32 11.6396C32 11.1648 31.8703 10.7094 31.6395 10.3737C31.4087 10.038 31.0957 9.84935 30.7692 9.84935C29.9495 9.84935 29.0338 9.26932 27.9483 7.68678C27.7175 7.35117 27.4045 7.16263 27.0782 7.16263C26.7518 7.16263 26.4388 7.35117 26.208 7.68678C25.12 9.26932 24.2043 9.84935 23.3846 9.84935C22.5772 9.84935 21.6271 9.2371 20.5637 7.68678C20.3329 7.35117 20.0199 7.16263 19.6935 7.16263C19.3672 7.16263 19.0542 7.35117 18.8234 7.68678C17.7354 9.26932 16.8197 9.84935 16 9.84935C15.1803 9.84935 14.2646 9.26932 13.1791 7.68678C13.0648 7.52006 12.9289 7.38779 12.7794 7.29754C12.6299 7.20729 12.4696 7.16084 12.3077 7.16084C12.1458 7.16084 11.9855 7.20729 11.836 7.29754C11.6865 7.38779 11.5506 7.52006 11.4363 7.68678C10.3532 9.26932 9.43508 9.84935 8.61539 9.84935C7.808 9.84935 6.85785 9.2371 5.79446 7.68678C5.56366 7.35117 5.25066 7.16263 4.92431 7.16263C4.59795 7.16263 4.28496 7.35117 4.05415 7.68678Z" fill="black"/>
<line x1="31.5" y1="1.45459" x2="31.5" y2="32" stroke="black"/>
<line x1="32" y1="31.0454" y2="31.0454" stroke="black"/>
</svg>
