<svg width="32" height="32" viewBox="0 0 32 32" fill="none" xmlns="http://www.w3.org/2000/svg">
<path d="M13.0909 20.3636C13.4767 20.3636 13.8466 20.2104 14.1194 19.9376C14.3922 19.6648 14.5455 19.2949 14.5455 18.9091V7.27273C14.5455 6.88696 14.3922 6.51699 14.1194 6.24421C13.8466 5.97143 13.4767 5.81818 13.0909 5.81818C12.7051 5.81818 12.3352 5.97143 12.0624 6.24421C11.7896 6.51699 11.6364 6.88696 11.6364 7.27273V18.9091C11.6364 19.2949 11.7896 19.6648 12.0624 19.9376C12.3352 20.2104 12.7051 20.3636 13.0909 20.3636ZM18.9091 20.3636C19.2949 20.3636 19.6648 20.2104 19.9376 19.9376C20.2104 19.6648 20.3636 19.2949 20.3636 18.9091V7.27273C20.3636 6.88696 20.2104 6.51699 19.9376 6.24421C19.6648 5.97143 19.2949 5.81818 18.9091 5.81818C18.5233 5.81818 18.1534 5.97143 17.8806 6.24421C17.6078 6.51699 17.4545 6.88696 17.4545 7.27273V18.9091C17.4545 19.2949 17.6078 19.6648 17.8806 19.9376C18.1534 20.2104 18.5233 20.3636 18.9091 20.3636ZM7.27273 17.4545C7.6585 17.4545 8.02847 17.3013 8.30125 17.0285C8.57403 16.7557 8.72727 16.3858 8.72727 16V10.1818C8.72727 9.79605 8.57403 9.42608 8.30125 9.1533C8.02847 8.88052 7.6585 8.72727 7.27273 8.72727C6.88696 8.72727 6.51699 8.88052 6.24421 9.1533C5.97143 9.42608 5.81818 9.79605 5.81818 10.1818V16C5.81818 16.3858 5.97143 16.7557 6.24421 17.0285C6.51699 17.3013 6.88696 17.4545 7.27273 17.4545ZM27.6364 0H4.36364C3.20668 0.00115522 2.09745 0.461265 1.27936 1.27936C0.461265 2.09745 0.00115522 3.20668 0 4.36364V27.6364C0.00115522 28.7933 0.461265 29.9026 1.27936 30.7206C2.09745 31.5387 3.20668 31.9988 4.36364 32H27.6364C28.7933 31.9988 29.9026 31.5387 30.7206 30.7206C31.5387 29.9026 31.9988 28.7933 32 27.6364V4.36364C31.9988 3.20668 31.5387 2.09745 30.7206 1.27936C29.9026 0.461265 28.7933 0.00115522 27.6364 0ZM29.0909 27.6364C29.0909 28.0221 28.9377 28.3921 28.6649 28.6649C28.3921 28.9377 28.0221 29.0909 27.6364 29.0909H4.36364C3.97787 29.0909 3.6079 28.9377 3.33512 28.6649C3.06234 28.3921 2.90909 28.0221 2.90909 27.6364V4.36364C2.90909 3.97787 3.06234 3.6079 3.33512 3.33512C3.6079 3.06234 3.97787 2.90909 4.36364 2.90909H27.6364C28.0221 2.90909 28.3921 3.06234 28.6649 3.33512C28.9377 3.6079 29.0909 3.97787 29.0909 4.36364V27.6364ZM23.792 20.9585C21.5138 22.5544 18.7785 23.3666 15.9985 23.2727C13.2219 23.3474 10.4936 22.5369 8.208 20.9585C8.06269 20.8297 7.89305 20.7312 7.70909 20.669C7.52512 20.6067 7.33055 20.582 7.13685 20.5961C6.94316 20.6103 6.75426 20.6631 6.5813 20.7514C6.40834 20.8398 6.25483 20.9619 6.12981 21.1105C6.00479 21.2591 5.9108 21.4313 5.85338 21.6168C5.79597 21.8023 5.77629 21.9975 5.79551 22.1907C5.81473 22.384 5.87245 22.5715 5.96528 22.742C6.05811 22.9126 6.18416 23.0629 6.336 23.184C9.13815 25.2214 12.5352 26.2754 15.9985 26.1818C19.4622 26.2761 22.8598 25.2227 25.6625 23.1855C25.9579 22.9372 26.1425 22.5818 26.1757 22.1975C26.209 21.8131 26.0882 21.4313 25.84 21.136C25.5918 20.8407 25.2364 20.6561 24.852 20.6228C24.4677 20.5895 24.0873 20.7103 23.792 20.9585ZM24.7258 8.72727C24.34 8.72727 23.9701 8.88052 23.6973 9.1533C23.4245 9.42608 23.2713 9.79605 23.2713 10.1818V16C23.2713 16.3858 23.4245 16.7557 23.6973 17.0285C23.9701 17.3013 24.34 17.4545 24.7258 17.4545C25.1116 17.4545 25.4816 17.3013 25.7543 17.0285C26.0271 16.7557 26.1804 16.3858 26.1804 16V10.1818C26.1804 9.79605 26.0271 9.42608 25.7543 9.1533C25.4816 8.88052 25.1116 8.72727 24.7258 8.72727Z" fill="black"/>
</svg>
