<svg width="32" height="33" viewBox="0 0 32 33" fill="none" xmlns="http://www.w3.org/2000/svg">
<path d="M30.9648 23.8035H22.9648" stroke="black"/>
<path d="M16.9414 24.0002L0.000228643 24.0015" stroke="black"/>
<path d="M28.9887 11.4286C29.407 11.4286 29.7992 11.5179 30.1652 11.6964C30.5312 11.875 30.8501 12.119 31.122 12.4286C31.3939 12.7381 31.6083 13.1012 31.7652 13.5179C31.922 13.9345 32.0005 14.381 32.0005 14.8571C32.0005 15.3333 31.922 15.7798 31.7652 16.1964C31.6083 16.6131 31.3939 16.9762 31.122 17.2857C30.8501 17.5952 30.5312 17.8393 30.1652 18.0179C29.7992 18.1964 29.407 18.2857 28.9887 18.2857H23.9691C23.6972 18.2857 23.4619 18.1726 23.2632 17.9464L20.9573 15.3393L19.3573 17.1429L22.6671 20.9107C22.8658 21.1369 22.9652 21.4048 22.9652 21.7143V28.5714C22.9652 29.0476 22.8867 29.494 22.7299 29.9107C22.573 30.3274 22.3586 30.6905 22.0867 31C21.8148 31.3095 21.4959 31.5536 21.1299 31.7321C20.7639 31.9107 20.3717 32 19.9534 32C19.5351 32 19.1429 31.9107 18.7769 31.7321C18.4109 31.5536 18.092 31.3095 17.8201 31C17.5482 30.6905 17.3338 30.3274 17.1769 29.9107C17.0201 29.494 16.9416 29.0476 16.9416 28.5714V24.4821L14.9338 22.1964L12.6279 24.8036C12.4292 25.0298 12.1939 25.1429 11.922 25.1429H4.89458C4.47628 25.1429 4.08412 25.0536 3.71811 24.875C3.35209 24.6964 3.03314 24.4524 2.76124 24.1429C2.48935 23.8333 2.27497 23.4702 2.11811 23.0536C1.96124 22.6369 1.88281 22.1905 1.88281 21.7143C1.88281 21.2381 1.96124 20.7917 2.11811 20.375C2.27497 19.9583 2.48935 19.5952 2.76124 19.2857C3.03314 18.9762 3.35209 18.7321 3.71811 18.5536C4.08412 18.375 4.47628 18.2857 4.89458 18.2857H9.49066L10.7456 16.875C10.1913 16.6012 9.74686 16.1786 9.41222 15.6071C9.07758 15.0357 8.91026 14.4048 8.91026 13.7143V6.85714C8.91026 6.53571 8.96255 6.2381 9.06713 5.96429C9.1717 5.69048 9.31288 5.45238 9.49066 5.25C9.66843 5.04762 9.88281 4.88095 10.1338 4.75C10.3848 4.61905 10.6462 4.55952 10.9181 4.57143H18.9495C18.9495 3.94048 19.0541 3.35119 19.2632 2.80357C19.4724 2.25595 19.7599 1.76786 20.126 1.33929C20.492 0.910714 20.9155 0.583333 21.3965 0.357143C21.8776 0.130952 22.4005 0.0119048 22.9652 0C23.5194 0 24.0371 0.119048 24.5181 0.357143C24.9992 0.595238 25.4279 0.922619 25.8044 1.33929C26.1809 1.75595 26.4684 2.2381 26.6671 2.78571C26.8658 3.33333 26.9704 3.92857 26.9809 4.57143C26.9809 5.07143 26.9129 5.54762 26.7769 6C26.641 6.45238 26.4527 6.875 26.2122 7.26786C25.9717 7.66071 25.6789 7.99405 25.3338 8.26786C24.9887 8.54167 24.607 8.7619 24.1887 8.92857L26.4005 11.4286H28.9887ZM22.9652 2.28571C22.6828 2.28571 22.4214 2.34524 22.1809 2.46429C21.9403 2.58333 21.7312 2.74405 21.5534 2.94643C21.3756 3.14881 21.2292 3.39286 21.1142 3.67857C20.9992 3.96429 20.9469 4.2619 20.9573 4.57143C20.9573 4.89286 21.0096 5.19048 21.1142 5.46429C21.2188 5.7381 21.3599 5.97619 21.5377 6.17857C21.7155 6.38095 21.9299 6.54762 22.1809 6.67857C22.4318 6.80952 22.6933 6.86905 22.9652 6.85714C23.2161 6.85714 23.4619 6.80357 23.7024 6.69643C23.9429 6.58929 24.1573 6.43452 24.3456 6.23214C24.5338 6.02976 24.6854 5.80357 24.8005 5.55357C24.9155 5.30357 24.973 5.02381 24.973 4.71429C24.973 4.38095 24.926 4.06548 24.8318 3.76786C24.7377 3.47024 24.607 3.21429 24.4397 3C24.2724 2.78571 24.058 2.6131 23.7965 2.48214C23.5351 2.35119 23.258 2.28571 22.9652 2.28571ZM28.9887 16C29.2606 16 29.4959 15.8869 29.6946 15.6607C29.8933 15.4345 29.9926 15.1667 29.9926 14.8571C29.9926 14.4762 29.8985 14.2024 29.7103 14.0357C29.522 13.869 29.2815 13.7619 28.9887 13.7143C28.6959 13.6667 28.3665 13.6548 28.0005 13.6786C27.6344 13.7024 27.2789 13.7262 26.9338 13.75C26.5887 13.7738 26.2697 13.7679 25.9769 13.7321C25.6841 13.6964 25.4488 13.5774 25.271 13.375L19.5299 6.85714H10.9181V13.7143C10.9181 14.0238 11.0175 14.2917 11.2161 14.5179C11.4148 14.744 11.6501 14.8571 11.922 14.8571C12.309 14.8571 12.5704 14.7202 12.7063 14.4464C12.8423 14.1726 12.926 13.8155 12.9573 13.375C12.9887 12.9345 12.9782 12.4762 12.926 12C12.8737 11.5238 12.8632 11.0655 12.8946 10.625C12.926 10.1845 13.0044 9.83333 13.1299 9.57143C13.2554 9.30952 13.522 9.16667 13.9299 9.14286H16.9416C17.2135 9.14286 17.4488 9.25595 17.6475 9.48214C17.8462 9.70833 17.9456 9.97619 17.9456 10.2857C17.9456 10.5952 17.8462 10.8631 17.6475 11.0893C17.4488 11.3155 17.2135 11.4286 16.9416 11.4286H14.9338V14.8571C14.9338 15.1667 14.8344 15.4345 14.6358 15.6607L10.6201 20.2321C10.4214 20.4583 10.1861 20.5714 9.91419 20.5714H4.89458C4.62268 20.5714 4.38739 20.6845 4.18869 20.9107C3.99 21.1369 3.89066 21.4048 3.89066 21.7143C3.89066 22.0238 3.99 22.2917 4.18869 22.5179C4.38739 22.744 4.62268 22.8571 4.89458 22.8571H11.4985L14.2279 19.7679C14.4266 19.5417 14.6619 19.4286 14.9338 19.4286C15.2057 19.4286 15.441 19.5417 15.6397 19.7679L18.6514 23.1964C18.8501 23.4226 18.9495 23.6905 18.9495 24V28.5714C18.9495 28.881 19.0488 29.1488 19.2475 29.375C19.4462 29.6012 19.6815 29.7143 19.9534 29.7143C20.2253 29.7143 20.4606 29.6012 20.6593 29.375C20.858 29.1488 20.9573 28.881 20.9573 28.5714V22.1964L17.2397 17.9464C17.041 17.7202 16.9416 17.4524 16.9416 17.1429C16.9416 16.8333 17.041 16.5655 17.2397 16.3393L20.2514 12.9107C20.4501 12.6845 20.6854 12.5714 20.9573 12.5714C21.2292 12.5714 21.4645 12.6845 21.6632 12.9107L24.3926 16H28.9887Z" fill="black"/>
<line x1="31.0586" y1="32.5" x2="-0.000228882" y2="32.5" stroke="black"/>
</svg>
