<svg width="32" height="32" viewBox="0 0 32 32" fill="none" xmlns="http://www.w3.org/2000/svg">
<path fill-rule="evenodd" clip-rule="evenodd" d="M25.5784 22.6996C25.4097 20.8018 25.0687 19.0952 24.3087 17.8098L27.0177 15.0978C28.4109 15.0074 29.713 14.373 30.6438 13.3312C31.5746 12.2894 32.0597 10.9234 31.9946 9.52716C31.9296 8.13092 31.3196 6.81606 30.296 5.86549C29.2724 4.91493 27.917 4.40465 26.5213 4.44446C25.8519 1.92267 22.382 0 18.2018 0C14.5046 0 11.3624 1.504 10.2241 3.59735C6.95929 3.91201 4.43945 5.9618 4.43945 8.44447C4.43945 11.1449 7.421 13.3334 11.0986 13.3334C12.8682 13.3334 14.4762 12.8267 15.6695 12C15.7169 12.0889 15.7681 12.1823 15.8231 12.28C16.2298 13.0089 16.8176 13.9867 17.5385 14.9707C18.2559 15.9485 19.1279 16.9618 20.1081 17.7396C20.94 18.3983 21.9096 18.9343 22.9724 19.0765C23.4057 19.9885 23.6668 21.2454 23.8088 22.857C23.9731 24.6979 23.9731 26.8765 23.9731 29.3334V30.2223H25.7489V29.3023C25.7489 26.8819 25.7489 24.6267 25.5784 22.6996ZM23.1012 10.1191C23.077 9.86395 22.9979 9.61701 22.8695 9.39526C22.741 9.17352 22.5661 8.9822 22.3569 8.83445C22.1477 8.68669 21.909 8.58598 21.6572 8.53923C21.4055 8.49248 21.1466 8.50078 20.8983 8.56358C20.0163 8.78303 19.1106 8.89231 18.2018 8.88892C17.8662 8.88892 17.5373 8.87499 17.2153 8.84714C16.901 8.82031 16.5851 8.87781 16.3003 9.01373C16.0155 9.14965 15.7721 9.35908 15.5949 9.62048C14.9113 10.6311 13.274 11.5556 11.0986 11.5556C9.59811 11.5556 8.31066 11.1067 7.44053 10.4676C6.56862 9.82759 6.21524 9.09247 6.21524 8.44447C6.21524 7.29247 7.55862 5.64002 10.3937 5.36713C10.6827 5.33933 10.9605 5.24101 11.2027 5.08077C11.445 4.92053 11.6443 4.70327 11.7832 4.44801C12.4838 3.16001 14.8367 1.77778 18.2018 1.77778C20.0335 1.77778 21.6495 2.2009 22.8348 2.8409C24.0459 3.49512 24.6372 4.27201 24.8042 4.90135C24.9062 5.28671 25.1347 5.62654 25.4529 5.86625C25.7711 6.10597 26.1605 6.23166 26.5586 6.22313L26.6368 6.22224C27.2028 6.22237 27.7605 6.35792 28.2636 6.61759C28.7666 6.87726 29.2004 7.25354 29.5287 7.71506C29.8571 8.17658 30.0705 8.70998 30.1512 9.27081C30.2319 9.83165 30.1776 10.4037 29.9927 10.9392C29.8078 11.4748 29.4978 11.9583 29.0884 12.3496C28.679 12.7408 28.1822 13.0285 27.6392 13.1886C27.0963 13.3486 26.523 13.3765 25.9672 13.2698C25.4113 13.1631 24.889 12.9249 24.4437 12.5752L24.1453 12.312C23.5497 11.7274 23.1798 10.9506 23.1012 10.1191ZM22.1245 12.6143C21.6834 11.9108 21.4125 11.1139 21.3334 10.2871C20.7758 10.4285 20.1889 10.5325 19.5798 10.5956C18.7439 10.6827 17.9017 10.6905 17.0644 10.6187L16.9978 10.7147C17.0937 10.8996 17.2198 11.1378 17.3743 11.4143C17.8809 12.3294 18.4468 13.2104 19.0684 14.0516V13.9218C20.0495 13.9218 21.0794 13.3912 21.9336 12.7592C21.9993 12.7117 22.0629 12.6634 22.1245 12.6143ZM20.3194 15.5334C20.6089 15.8303 20.9054 16.1049 21.21 16.3458C21.648 16.6931 22.0742 16.9509 22.4885 17.1192L24.8139 14.7903C24.2699 14.5916 23.7619 14.3055 23.3098 13.9432C23.2074 14.0249 23.1003 14.1073 22.9884 14.1903C22.2994 14.6987 21.3707 15.2614 20.3194 15.5334Z" fill="black"/>
<path fill-rule="evenodd" clip-rule="evenodd" d="M10.6557 17.3333C10.656 17.6251 10.5989 17.9141 10.4876 18.1839C10.3763 18.4536 10.213 18.6987 10.0071 18.9053C9.8012 19.1119 9.55666 19.2758 9.28746 19.3877C9.01826 19.4997 8.72968 19.5575 8.43818 19.5577C8.14668 19.558 7.85797 19.5008 7.58855 19.3894C7.31913 19.278 7.07427 19.1146 6.86794 18.9084C6.66161 18.7023 6.49786 18.4575 6.38604 18.188C6.27422 17.9185 6.21652 17.6296 6.21623 17.3377C6.21564 16.7484 6.44894 16.1829 6.8648 15.7657C7.28066 15.3486 7.84503 15.1139 8.43374 15.1133C9.02245 15.1127 9.58728 15.3463 10.004 15.7626C10.4207 16.1789 10.6551 16.7439 10.6557 17.3333ZM8.8799 17.3351C8.87996 17.3934 8.86854 17.4512 8.84628 17.5052C8.82402 17.5591 8.79137 17.6082 8.75019 17.6495C8.709 17.6908 8.6601 17.7236 8.60626 17.746C8.55242 17.7683 8.4947 17.7799 8.4364 17.78C8.3781 17.78 8.32036 17.7686 8.26648 17.7463C8.21259 17.724 8.16362 17.6913 8.12235 17.6501C8.08109 17.6089 8.04834 17.5599 8.02597 17.506C8.00361 17.4521 7.99207 17.3943 7.99201 17.336C7.99189 17.2181 8.03855 17.105 8.12172 17.0216C8.2049 16.9381 8.31777 16.8912 8.43551 16.8911C8.55325 16.8909 8.66622 16.9377 8.74956 17.0209C8.8329 17.1042 8.87979 17.2172 8.8799 17.3351ZM4.44044 20.8889C4.44073 21.1807 4.38361 21.4697 4.27232 21.7394C4.16104 22.0092 3.99778 22.2543 3.79187 22.4609C3.58595 22.6674 3.34141 22.8314 3.07221 22.9433C2.80302 23.0552 2.51443 23.113 2.22293 23.1133C1.93143 23.1136 1.64273 23.0564 1.37331 22.945C1.10388 22.8336 0.859019 22.6702 0.652692 22.464C0.446365 22.2579 0.282615 22.013 0.170794 21.7435C0.0589729 21.474 0.00126917 21.1851 0.000977674 20.8933C0.000388965 20.3039 0.233688 19.7385 0.649552 19.3213C1.06542 18.9041 1.62978 18.6694 2.21849 18.6689C2.8072 18.6683 3.37203 18.9018 3.78873 19.3182C4.20542 19.7345 4.43985 20.2995 4.44044 20.8889ZM2.66466 20.8906C2.66466 21.0085 2.61788 21.1216 2.53463 21.2049C2.45137 21.2883 2.33845 21.3351 2.22071 21.3351C2.10297 21.3351 1.99005 21.2883 1.90679 21.2049C1.82354 21.1216 1.77676 21.0085 1.77676 20.8906C1.77676 20.7728 1.82354 20.6597 1.90679 20.5764C1.99005 20.493 2.10297 20.4462 2.22071 20.4462C2.33845 20.4462 2.45137 20.493 2.53463 20.5764C2.61788 20.6597 2.66466 20.7728 2.66466 20.8906ZM17.3167 23.1129C17.9054 23.1124 18.4698 22.8778 18.8857 22.4607C19.3017 22.0436 19.5351 21.4782 19.5346 20.8889C19.5341 20.2995 19.2998 19.7344 18.8832 19.318C18.4666 18.9016 17.9018 18.6679 17.3131 18.6684C16.7244 18.6689 16.16 18.9035 15.744 19.3205C15.3281 19.7376 15.0947 20.303 15.0952 20.8924C15.0956 21.4818 15.3299 22.0468 15.7465 22.4632C16.1632 22.8797 16.7279 23.1133 17.3167 23.1129ZM17.3149 21.3351C17.4326 21.3351 17.5455 21.2883 17.6288 21.2049C17.7121 21.1216 17.7588 21.0085 17.7588 20.8906C17.7588 20.7728 17.7121 20.6597 17.6288 20.5764C17.5455 20.493 17.4326 20.4462 17.3149 20.4462C17.1971 20.4462 17.0842 20.493 17.001 20.5764C16.9177 20.6597 16.8709 20.7728 16.8709 20.8906C16.8709 21.0085 16.9177 21.1216 17.001 21.2049C17.0842 21.2883 17.1971 21.3351 17.3149 21.3351Z" fill="black"/>
<path d="M7.99103 20.4443C8.462 20.4443 8.91368 20.6316 9.2467 20.965C9.57973 21.2984 9.76682 21.7506 9.76682 22.2221V23.9999H11.5426C12.0136 23.9999 12.4652 24.1872 12.7983 24.5206C13.1313 24.854 13.3184 25.3062 13.3184 25.7777C13.3184 26.2492 13.1313 26.7014 12.7983 27.0348C12.4652 27.3682 12.0136 27.5555 11.5426 27.5555H7.99103C7.52006 27.5555 7.06839 27.3682 6.73536 27.0348C6.40234 26.7014 6.21525 26.2492 6.21525 25.7777V22.2221C6.21525 21.7506 6.40234 21.2984 6.73536 20.965C7.06839 20.6316 7.52006 20.4443 7.99103 20.4443ZM3.55157 25.7777C3.55157 25.3062 3.36448 24.854 3.03145 24.5206C2.69843 24.1872 2.24675 23.9999 1.77578 23.9999C1.30482 23.9999 0.85314 24.1872 0.520115 24.5206C0.187091 24.854 0 25.3062 0 25.7777V30.2221C0 30.6936 0.187091 31.1458 0.520115 31.4792C0.85314 31.8126 1.30482 31.9999 1.77578 31.9999H5.32735C5.79832 31.9999 6.25 31.8126 6.58302 31.4792C6.91605 31.1458 7.10314 30.6936 7.10314 30.2221C7.10314 29.7506 6.91605 29.2985 6.58302 28.9651C6.25 28.6317 5.79832 28.4444 5.32735 28.4444H3.55157V25.7777ZM17.7578 23.9999C17.2869 23.9999 16.8352 24.1872 16.5022 24.5206C16.1692 24.854 15.9821 25.3062 15.9821 25.7777V28.4444H14.2063C13.7353 28.4444 13.2836 28.6317 12.9506 28.9651C12.6176 29.2985 12.4305 29.7506 12.4305 30.2221C12.4305 30.6936 12.6176 31.1458 12.9506 31.4792C13.2836 31.8126 13.7353 31.9999 14.2063 31.9999H17.7578C18.2288 31.9999 18.6805 31.8126 19.0135 31.4792C19.3465 31.1458 19.5336 30.6936 19.5336 30.2221V25.7777C19.5336 25.3062 19.3465 24.854 19.0135 24.5206C18.6805 24.1872 18.2288 23.9999 17.7578 23.9999Z" fill="black"/>
</svg>
