<svg width="32" height="32" viewBox="0 0 32 32" fill="none" xmlns="http://www.w3.org/2000/svg">
<path fill-rule="evenodd" clip-rule="evenodd" d="M23.205 21.0247C23.0783 19.6013 22.8223 18.3213 22.2517 17.3573L24.2857 15.3233C25.3318 15.2555 26.3095 14.7797 27.0084 13.9984C27.7072 13.217 28.0714 12.1925 28.0226 11.1453C27.9737 10.0982 27.5158 9.11203 26.7472 8.39911C25.9786 7.68619 24.9609 7.30348 23.913 7.33333C23.4103 5.442 20.805 4 17.6663 4C14.8903 4 12.531 5.128 11.6763 6.698C9.22501 6.934 7.33301 8.47133 7.33301 10.3333C7.33301 12.3587 9.57167 14 12.333 14C13.6617 14 14.869 13.62 15.765 13C15.8006 13.0667 15.839 13.1367 15.8803 13.21C16.1857 13.7567 16.627 14.49 17.1683 15.228C17.707 15.9613 18.3617 16.7213 19.0977 17.3047C19.7223 17.7987 20.4503 18.2007 21.2483 18.3073C21.5737 18.9913 21.7697 19.934 21.8763 21.1427C21.9997 22.5233 21.9997 24.1573 21.9997 26V26.6667H23.333V25.9767C23.333 24.1613 23.333 22.47 23.205 21.0247ZM21.345 11.5893C21.3268 11.3979 21.2675 11.2127 21.171 11.0464C21.0746 10.8801 20.9433 10.7366 20.7862 10.6258C20.6291 10.515 20.4499 10.4395 20.2608 10.4044C20.0718 10.3693 19.8774 10.3756 19.691 10.4227C19.0288 10.5873 18.3487 10.6692 17.6663 10.6667C17.4143 10.6667 17.1675 10.6562 16.9257 10.6353C16.6896 10.6152 16.4525 10.6583 16.2387 10.7603C16.0248 10.8622 15.842 11.0193 15.709 11.2153C15.1957 11.9733 13.9663 12.6667 12.333 12.6667C11.2063 12.6667 10.2397 12.33 9.58634 11.8507C8.93167 11.3707 8.66634 10.8193 8.66634 10.3333C8.66634 9.46933 9.67501 8.23 11.8037 8.02533C12.0207 8.00448 12.2293 7.93074 12.4112 7.81056C12.5931 7.69039 12.7427 7.52744 12.847 7.336C13.373 6.37 15.1397 5.33333 17.6663 5.33333C19.0417 5.33333 20.255 5.65067 21.145 6.13067C22.0543 6.62133 22.4983 7.204 22.6237 7.676C22.7003 7.96502 22.8718 8.21989 23.1108 8.39968C23.3497 8.57946 23.6421 8.67373 23.941 8.66733L23.9997 8.66667C24.4246 8.66676 24.8434 8.76842 25.2211 8.96318C25.5989 9.15793 25.9246 9.44013 26.1711 9.78627C26.4176 10.1324 26.5779 10.5325 26.6385 10.9531C26.6991 11.3737 26.6583 11.8027 26.5195 12.2044C26.3806 12.606 26.1479 12.9687 25.8405 13.2621C25.5331 13.5556 25.16 13.7713 24.7524 13.8914C24.3447 14.0114 23.9143 14.0323 23.4969 13.9523C23.0795 13.8723 22.6873 13.6937 22.353 13.4313L22.129 13.234C21.6817 12.7955 21.404 12.2129 21.345 11.5893ZM20.6117 13.4607C20.2805 12.9331 20.0771 12.3354 20.0177 11.7153C19.599 11.8213 19.1583 11.8993 18.701 11.9467C18.0734 12.012 17.441 12.0178 16.8123 11.964L16.7623 12.036C16.8343 12.1747 16.929 12.3533 17.045 12.5607C17.4254 13.247 17.8503 13.9078 18.317 14.5387V14.4413C19.0537 14.4413 19.827 14.0433 20.4683 13.5693C20.5177 13.5338 20.5655 13.4976 20.6117 13.4607ZM19.2563 15.65C19.4737 15.8727 19.6963 16.0787 19.925 16.2593C20.2539 16.5198 20.5739 16.7131 20.885 16.8393L22.631 15.0927C22.2225 14.9437 21.8411 14.7291 21.5017 14.4573C21.4248 14.5187 21.3443 14.5804 21.2603 14.6427C20.743 15.024 20.0457 15.446 19.2563 15.65Z" fill="black"/>
<path fill-rule="evenodd" clip-rule="evenodd" d="M12.001 17C12.0012 17.2188 11.9583 17.4356 11.8747 17.6379C11.7912 17.8402 11.6686 18.024 11.514 18.179C11.3594 18.3339 11.1758 18.4568 10.9737 18.5408C10.7715 18.6248 10.5548 18.6681 10.336 18.6683C10.1171 18.6685 9.90034 18.6256 9.69804 18.5421C9.49575 18.4585 9.3119 18.3359 9.15698 18.1813C9.00206 18.0267 8.87911 17.8431 8.79515 17.641C8.71119 17.4388 8.66786 17.2222 8.66764 17.0033C8.6672 16.5613 8.84237 16.1372 9.15462 15.8243C9.46687 15.5114 9.89062 15.3354 10.3326 15.335C10.7747 15.3345 11.1988 15.5097 11.5116 15.8219C11.8245 16.1342 12.0005 16.5579 12.001 17ZM10.6676 17.0013C10.6677 17.0451 10.6591 17.0884 10.6424 17.1289C10.6257 17.1693 10.6012 17.2061 10.5702 17.2371C10.5393 17.2681 10.5026 17.2927 10.4622 17.3095C10.4218 17.3263 10.3784 17.3349 10.3346 17.335C10.2909 17.335 10.2475 17.3264 10.2071 17.3097C10.1666 17.293 10.1298 17.2685 10.0988 17.2376C10.0679 17.2066 10.0433 17.1699 10.0265 17.1295C10.0097 17.0891 10.001 17.0457 10.001 17.002C10.0009 16.9136 10.0359 16.8287 10.0984 16.7662C10.1608 16.7036 10.2456 16.6684 10.334 16.6683C10.4224 16.6682 10.5072 16.7032 10.5698 16.7657C10.6324 16.8281 10.6676 16.9129 10.6676 17.0013ZM7.33431 19.6666C7.33453 19.8855 7.29164 20.1023 7.20808 20.3046C7.12453 20.5069 7.00194 20.6907 6.84733 20.8456C6.69272 21.0005 6.50912 21.1235 6.30699 21.2075C6.10486 21.2914 5.88818 21.3347 5.66931 21.335C5.45044 21.3352 5.23367 21.2923 5.03138 21.2087C4.82909 21.1252 4.64523 21.0026 4.49031 20.848C4.33539 20.6934 4.21244 20.5098 4.12848 20.3076C4.04452 20.1055 4.0012 19.8888 4.00098 19.67C4.00054 19.2279 4.17571 18.8038 4.48795 18.491C4.8002 18.1781 5.22395 18.0021 5.66598 18.0016C6.10801 18.0012 6.5321 18.1764 6.84498 18.4886C7.15785 18.8009 7.33387 19.2246 7.33431 19.6666ZM6.00098 19.668C6.00098 19.7564 5.96586 19.8412 5.90335 19.9037C5.84083 19.9662 5.75605 20.0013 5.66764 20.0013C5.57924 20.0013 5.49445 19.9662 5.43194 19.9037C5.36943 19.8412 5.33431 19.7564 5.33431 19.668C5.33431 19.5796 5.36943 19.4948 5.43194 19.4323C5.49445 19.3697 5.57924 19.3346 5.66764 19.3346C5.75605 19.3346 5.84083 19.3697 5.90335 19.4323C5.96586 19.4948 6.00098 19.5796 6.00098 19.668ZM17.0023 21.3346C17.4443 21.3343 17.8681 21.1583 18.1804 20.8455C18.4927 20.5327 18.668 20.1087 18.6676 19.6666C18.6673 19.2246 18.4914 18.8008 18.1785 18.4885C17.8657 18.1762 17.4417 18.0009 16.9996 18.0013C16.5576 18.0016 16.1338 18.1776 15.8215 18.4904C15.5092 18.8032 15.334 19.2273 15.3343 19.6693C15.3347 20.1113 15.5106 20.5351 15.8234 20.8474C16.1362 21.1597 16.5603 21.335 17.0023 21.3346ZM17.001 20.0013C17.0894 20.0013 17.1742 19.9662 17.2367 19.9037C17.2992 19.8412 17.3343 19.7564 17.3343 19.668C17.3343 19.5796 17.2992 19.4948 17.2367 19.4323C17.1742 19.3697 17.0894 19.3346 17.001 19.3346C16.9126 19.3346 16.8278 19.3697 16.7653 19.4323C16.7028 19.4948 16.6676 19.5796 16.6676 19.668C16.6676 19.7564 16.7028 19.8412 16.7653 19.9037C16.8278 19.9662 16.9126 20.0013 17.001 20.0013Z" fill="black"/>
<path d="M10 19.3333C10.3536 19.3333 10.6928 19.4737 10.9428 19.7238C11.1929 19.9738 11.3333 20.313 11.3333 20.6666V21.9999H12.6667C13.0203 21.9999 13.3594 22.1404 13.6095 22.3904C13.8595 22.6405 14 22.9796 14 23.3333C14 23.6869 13.8595 24.026 13.6095 24.2761C13.3594 24.5261 13.0203 24.6666 12.6667 24.6666H10C9.64638 24.6666 9.30724 24.5261 9.05719 24.2761C8.80714 24.026 8.66667 23.6869 8.66667 23.3333V20.6666C8.66667 20.313 8.80714 19.9738 9.05719 19.7238C9.30724 19.4737 9.64638 19.3333 10 19.3333ZM6.66667 23.3333C6.66667 22.9796 6.52619 22.6405 6.27614 22.3904C6.02609 22.1404 5.68696 21.9999 5.33333 21.9999C4.97971 21.9999 4.64057 22.1404 4.39052 22.3904C4.14048 22.6405 4 22.9796 4 23.3333V26.6666C4 27.0202 4.14048 27.3593 4.39052 27.6094C4.64057 27.8594 4.97971 27.9999 5.33333 27.9999H8C8.35362 27.9999 8.69276 27.8594 8.94281 27.6094C9.19286 27.3593 9.33333 27.0202 9.33333 26.6666C9.33333 26.313 9.19286 25.9738 8.94281 25.7238C8.69276 25.4737 8.35362 25.3333 8 25.3333H6.66667V23.3333ZM17.3333 21.9999C16.9797 21.9999 16.6406 22.1404 16.3905 22.3904C16.1405 22.6405 16 22.9796 16 23.3333V25.3333H14.6667C14.313 25.3333 13.9739 25.4737 13.7239 25.7238C13.4738 25.9738 13.3333 26.313 13.3333 26.6666C13.3333 27.0202 13.4738 27.3593 13.7239 27.6094C13.9739 27.8594 14.313 27.9999 14.6667 27.9999H17.3333C17.687 27.9999 18.0261 27.8594 18.2761 27.6094C18.5262 27.3593 18.6667 27.0202 18.6667 26.6666V23.3333C18.6667 22.9796 18.5262 22.6405 18.2761 22.3904C18.0261 22.1404 17.687 21.9999 17.3333 21.9999Z" fill="black"/>
</svg>
