<svg width="34" height="34" viewBox="0 0 34 34" fill="none" xmlns="http://www.w3.org/2000/svg">
<path d="M22.4235 4.82411C22.6247 5.02543 22.8758 5.16947 23.1511 5.24138C23.4264 5.31329 23.716 5.31046 23.9898 5.23319C24.2637 5.15591 24.512 5.00699 24.7091 4.80177C24.9062 4.59656 25.0451 4.34247 25.1113 4.06571C25.2774 3.37436 25.6247 2.73977 26.1176 2.22729C26.6104 1.71482 27.231 1.34299 27.9153 1.1501C28.5996 0.957202 29.3229 0.950214 30.0108 1.12985C30.6987 1.30949 31.3263 1.66926 31.829 2.17212C32.3316 2.67498 32.6912 3.30274 32.8706 3.99076C33.05 4.67878 33.0427 5.40219 32.8496 6.08648C32.6565 6.77078 32.2845 7.39123 31.7719 7.88394C31.2593 8.37665 30.6247 8.72382 29.9333 8.88967C29.6566 8.95591 29.4025 9.09476 29.1973 9.29191C28.9921 9.48906 28.8432 9.73737 28.7659 10.0113C28.6887 10.2851 28.6858 10.5747 28.7577 10.85C28.8296 11.1253 28.9737 11.3765 29.175 11.5776L31.8675 14.2688C32.2262 14.6275 32.5107 15.0533 32.7048 15.5219C32.8989 15.9905 32.9988 16.4928 32.9988 17C32.9988 17.5072 32.8989 18.0095 32.7048 18.4781C32.5107 18.9467 32.2262 19.3725 31.8675 19.7312L29.175 22.424C28.9739 22.6253 28.7227 22.7693 28.4474 22.8412C28.1721 22.9131 27.8826 22.9103 27.6087 22.833C27.3348 22.7558 27.0865 22.6068 26.8894 22.4016C26.6923 22.1964 26.5534 21.9423 26.4872 21.6656C26.3211 20.9742 25.9738 20.3396 25.4809 19.8271C24.9881 19.3147 24.3676 18.9428 23.6833 18.7499C22.9989 18.557 22.2756 18.5501 21.5877 18.7297C20.8998 18.9093 20.2722 19.2691 19.7695 19.772C19.2669 20.2748 18.9073 20.9026 18.7279 21.5906C18.5485 22.2786 18.5558 23.002 18.7489 23.6863C18.942 24.3706 19.314 24.9911 19.8266 25.4838C20.3392 25.9765 20.9738 26.3237 21.6652 26.4895C21.9419 26.5558 22.196 26.6946 22.4012 26.8917C22.6064 27.0889 22.7553 27.3372 22.8326 27.6111C22.9099 27.885 22.9127 28.1745 22.8408 28.4499C22.7689 28.7252 22.6249 28.9764 22.4235 29.1775L19.731 31.8687C19.3723 32.2273 18.9466 32.5119 18.478 32.706C18.0094 32.9001 17.5072 33 17 33C16.4928 33 15.9906 32.9001 15.522 32.706C15.0534 32.5119 14.6277 32.2273 14.269 31.8687L11.5765 29.1759C11.3753 28.9746 11.1242 28.8305 10.8489 28.7586C10.5736 28.6867 10.284 28.6895 10.0102 28.7668C9.73632 28.8441 9.48802 28.993 9.29089 29.1982C9.09375 29.4034 8.95491 29.6575 8.88868 29.9343C8.72261 30.6256 8.37526 31.2602 7.88242 31.7727C7.38958 32.2852 6.76905 32.657 6.08474 32.8499C5.40043 33.0428 4.67707 33.0498 3.98916 32.8701C3.30125 32.6905 2.67366 32.3307 2.17101 31.8279C1.66835 31.325 1.30882 30.6973 1.12942 30.0092C0.950023 29.3212 0.95725 28.5978 1.15036 27.9135C1.34347 27.2292 1.71547 26.6088 2.22807 26.1161C2.74067 25.6233 3.37533 25.2762 4.06669 25.1103C4.34342 25.0441 4.59749 24.9052 4.80269 24.7081C5.00789 24.5109 5.1568 24.2626 5.23407 23.9887C5.31134 23.7149 5.31417 23.4253 5.24227 23.15C5.17036 22.8747 5.02633 22.6235 4.82502 22.4224L2.13245 19.7312C1.7738 19.3725 1.4893 18.9467 1.2952 18.4781C1.1011 18.0095 1.0012 17.5072 1.0012 17C1.0012 16.4928 1.1011 15.9905 1.2952 15.5219C1.4893 15.0533 1.7738 14.6275 2.13245 14.2688L4.82502 11.576C5.02613 11.3747 5.27729 11.2307 5.55261 11.1588C5.82793 11.0869 6.11744 11.0897 6.3913 11.167C6.66516 11.2442 6.91346 11.3932 7.11059 11.5984C7.30773 11.8036 7.44657 12.0577 7.5128 12.3344C7.67887 13.0258 8.02621 13.6604 8.51906 14.1729C9.0119 14.6853 9.63243 15.0572 10.3167 15.2501C11.0011 15.443 11.7244 15.4499 12.4123 15.2703C13.1002 15.0907 13.7278 14.7309 14.2305 14.228C14.7331 13.7252 15.0927 13.0974 15.2721 12.4094C15.4515 11.7214 15.4442 10.998 15.2511 10.3137C15.058 9.62938 14.686 9.00892 14.1734 8.51621C13.6608 8.0235 13.0262 7.67634 12.3348 7.51048C12.0581 7.44425 11.804 7.3054 11.5988 7.10825C11.3936 6.9111 11.2447 6.66278 11.1674 6.3889C11.0901 6.11502 11.0873 5.82549 11.1592 5.55015C11.2311 5.27481 11.3751 5.02363 11.5765 4.82251L14.269 2.13133C14.6277 1.77266 15.0534 1.48814 15.522 1.29402C15.9906 1.09991 16.4928 1 17 1C17.5072 1 18.0094 1.09991 18.478 1.29402C18.9466 1.48814 19.3723 1.77266 19.731 2.13133L22.4235 4.82411Z" stroke="black" stroke-width="2" stroke-linecap="round" stroke-linejoin="round"/>
</svg>
