<svg width="34" height="32" viewBox="0 0 34 32" fill="none" xmlns="http://www.w3.org/2000/svg">
<path d="M1.5 29.5H12.5C13.0551 29.5 13.5 29.9449 13.5 30.5C13.5 31.0551 13.0551 31.5 12.5 31.5H1.5C0.944893 31.5 0.5 31.0551 0.5 30.5C0.5 29.9449 0.944893 29.5 1.5 29.5ZM31.5 22.5V29C31.5 30.3801 30.3801 31.5 29 31.5H21C19.6199 31.5 18.5 30.3801 18.5 29V22.5H31.5ZM3 20.5H11C12.3801 20.5 13.5 21.6199 13.5 23C13.5 24.3801 12.3801 25.5 11 25.5H9.5V26C9.5 26.8301 8.83011 27.5 8 27.5H4C3.16989 27.5 2.5 26.8301 2.5 26V21C2.5 20.7261 2.72614 20.5 3 20.5ZM9.5 24.5H11C11.8261 24.5 12.5 23.8261 12.5 23C12.5 22.1739 11.8261 21.5 11 21.5H9.5V24.5ZM25 15.5C25.5551 15.5 26 15.9449 26 16.5V17.5H32.5C33.0551 17.5 33.5 17.9449 33.5 18.5C33.5 19.0551 33.0551 19.5 32.5 19.5H17.5C16.9449 19.5 16.5 19.0551 16.5 18.5C16.5 17.9449 16.9449 17.5 17.5 17.5H24V16.5C24 15.9449 24.4449 15.5 25 15.5ZM9 0.5C13.0428 0.5 16.4313 3.32725 17.2871 7.11035L17.375 7.5H22.4854L22.6348 7.33398C23.0943 6.82229 23.761 6.5 24.5 6.5H31C32.3801 6.5 33.5 7.61989 33.5 9C33.5 10.3801 32.3801 11.5 31 11.5H24.5C23.761 11.5 23.0943 11.1777 22.6348 10.666L22.4854 10.5H17.375L17.2871 10.8896C16.4313 14.6727 13.0428 17.5 9 17.5C4.30739 17.5 0.5 13.6926 0.5 9C0.5 4.30739 4.30739 0.5 9 0.5ZM9 2.5C5.41136 2.5 2.5 5.41136 2.5 9C2.5 12.5886 5.41136 15.5 9 15.5C12.5886 15.5 15.5 12.5886 15.5 9C15.5 5.41136 12.5886 2.5 9 2.5ZM9 5.5C10.9301 5.5 12.5 7.06989 12.5 9C12.5 10.9301 10.9301 12.5 9 12.5C7.06989 12.5 5.5 10.9301 5.5 9C5.5 7.06989 7.06989 5.5 9 5.5Z" stroke="black"/>
</svg>
