<svg width="34" height="34" viewBox="0 0 34 34" fill="none" xmlns="http://www.w3.org/2000/svg">
<path d="M16.7431 32.75V19.95M16.7431 19.95V13.55M16.7431 19.95L23.1403 16.75M24.7396 8.75C24.7396 6.62827 23.8971 4.59344 22.3975 3.09315C20.8979 1.59285 18.8639 0.75 16.7431 0.75C14.6223 0.75 12.5883 1.59285 11.0887 3.09315C9.58904 4.59344 8.74655 6.62827 8.74655 8.75M11.9452 8.75H9.5462C7.2133 8.75 4.97596 9.67714 3.32635 11.3275C1.67674 12.9778 0.75 15.2161 0.75 17.55C0.75 19.8839 1.67674 22.1222 3.32635 23.7725C4.97596 25.4229 7.2133 26.35 9.5462 26.35H16.7431H23.94C26.206 26.3536 28.3859 25.4821 30.0255 23.9173C31.6651 22.3525 32.6378 20.215 32.7409 17.9504C32.844 15.6858 32.0695 13.4687 30.5789 11.7613C29.0883 10.0538 26.9966 8.98773 24.7396 8.7852" stroke="black" stroke-width="1.5" stroke-linecap="round" stroke-linejoin="round"/>
</svg>
