<svg width="32" height="34" viewBox="0 0 32 34" fill="none" xmlns="http://www.w3.org/2000/svg">
<path d="M15 0.5H22C22.2739 0.5 22.5 0.726143 22.5 1V5C22.5 5.27386 22.2739 5.5 22 5.5H16.5V10.5H29C29.8301 10.5 30.5 11.1699 30.5 12C30.5 12.8301 29.8301 13.5 29 13.5H27.5V28.25L27.7002 28.4004L30.9004 30.7998L30.9023 30.8018C31.2788 31.0806 31.5 31.5241 31.5 32C31.5 32.8301 30.8301 33.5 30 33.5H2C1.16989 33.5 0.5 32.8301 0.5 32C0.5 31.5241 0.721169 31.0806 1.09766 30.8018L1.09961 30.7998L4.2998 28.4004L4.5 28.25V13.5H3C2.16989 13.5 1.5 12.8301 1.5 12C1.5 11.1699 2.16989 10.5 3 10.5H14.5V1C14.5 0.726142 14.7261 0.5 15 0.5ZM6.5 28.5H11.5V13.5H6.5V28.5ZM13.5 28.5H18.5V13.5H13.5V28.5ZM20.5 28.5H25.5V13.5H20.5V28.5Z" stroke="black"/>
</svg>
