<svg width="33" height="33" viewBox="0 0 33 33" fill="none" xmlns="http://www.w3.org/2000/svg">
<path d="M25.2111 17.9545H23.6111C22.6681 17.9545 21.7638 17.6481 21.097 17.1025C20.4302 16.5569 20.0556 15.817 20.0556 15.0455C20.0556 15.817 19.681 16.5569 19.0142 17.1025C18.3474 17.6481 17.443 17.9545 16.5 17.9545C15.557 17.9545 14.6526 17.6481 13.9858 17.1025C13.319 16.5569 12.9444 15.817 12.9444 15.0455C12.9444 15.817 12.5698 16.5569 11.903 17.1025C11.2362 17.6481 10.3319 17.9545 9.38889 17.9545H7.78889M4.94444 4.86364H10.2778M10.6636 29.5909H22.3364C23.5425 29.5909 24.7288 29.8419 25.7837 30.3203C26.8386 30.7986 27.7274 31.4887 28.3667 32.3255L28.5 32.5H32.5V0.5H0.5V32.5H4.5L4.63333 32.3255C5.27256 31.4887 6.16141 30.7986 7.21631 30.3203C8.2712 29.8419 9.45747 29.5909 10.6636 29.5909ZM16.5 23.7727C14.1425 23.7727 11.8816 23.0065 10.2146 21.6426C8.54762 20.2787 7.61111 18.4288 7.61111 16.5C7.61111 14.5712 8.54762 12.7213 10.2146 11.3574C11.8816 9.9935 14.1425 9.22727 16.5 9.22727C18.8575 9.22727 21.1184 9.9935 22.7854 11.3574C24.4524 12.7213 25.3889 14.5712 25.3889 16.5C25.3889 18.4288 24.4524 20.2787 22.7854 21.6426C21.1184 23.0065 18.8575 23.7727 16.5 23.7727Z" stroke="black"/>
</svg>
