<svg width="32" height="26" viewBox="0 0 32 26" fill="none" xmlns="http://www.w3.org/2000/svg">
<path d="M4.78705 25.3039V10.2038L0.956131 13.0173L0 11.7727L15.9792 0L32 11.7648L31.0343 13.0173L15.9792 1.97687L6.38593 9.03983V23.7224H12.2586V25.3039H4.78705Z" fill="black"/>
<path d="M21.693 14.3785V14.6929M21.693 14.3785C21.693 13.3779 22.1284 12.4183 22.9033 11.7107C23.6782 11.0032 24.7292 10.6057 25.8251 10.6057H26.1694V14.6929C26.1694 15.7768 25.6978 16.8164 24.8583 17.5829C24.0188 18.3494 22.8802 18.78 21.693 18.78M21.693 14.3785C21.693 13.3779 21.2577 12.4183 20.4828 11.7107C19.7079 11.0032 18.6569 10.6057 17.561 10.6057H17.2166V14.6929C17.2166 15.7768 17.6882 16.8164 18.5277 17.5829C19.3672 18.3494 20.5058 18.78 21.693 18.78M21.693 18.78V24.7535M21.693 18.78V24.4391M21.693 25.0679H18.594C17.4981 25.0679 16.4471 24.6705 15.6722 23.9629C14.8973 23.2554 14.4619 22.2958 14.4619 21.2952H17.561C18.6569 21.2952 19.7079 21.6927 20.4828 22.4002C21.2577 23.1077 21.693 24.0673 21.693 25.0679ZM21.693 25.0679H24.7921C25.888 25.0679 26.939 24.6705 27.7139 23.9629C28.4888 23.2554 28.9241 22.2958 28.9241 21.2952H25.8251C24.7292 21.2952 23.6782 21.6927 22.9033 22.4002C22.1284 23.1077 21.693 24.0673 21.693 25.0679Z" stroke="black" stroke-width="1.5"/>
</svg>
