<svg width="32" height="32" viewBox="0 0 32 32" fill="none" xmlns="http://www.w3.org/2000/svg">
<path d="M23.8027 0.509766V0.510742C25.8562 0.617205 27.7907 1.5105 29.207 3.00586C30.6233 4.50127 31.4131 6.48512 31.4131 8.54785C31.413 10.6105 30.6234 12.5945 29.207 14.0898C27.8793 15.4916 26.0961 16.3633 24.1865 16.5547L23.8027 16.584L23.3838 16.5938C22.9207 16.5919 22.4711 16.5519 22.0352 16.4727L21.7764 16.4258L21.5918 16.6123L20.3301 17.8818L19.9785 18.2354L20.3311 18.5879L22.4697 20.7305L22.8242 21.085L23.1777 20.7305L25.0967 18.8057L30.2031 23.9277L30.5283 24.2881C31.2066 25.1369 31.551 26.2068 31.4941 27.2939C31.4368 28.3886 30.9768 29.4225 30.2041 30.1973C29.4313 30.9721 28.4004 31.4329 27.3096 31.4902C26.2214 31.5474 25.151 31.1988 24.3027 30.5127L23.9619 30.2031L18.8418 25.0723L20.7637 23.1465L21.1152 22.793L20.7637 22.4404L18.626 20.2979L18.2725 19.9424L17.918 20.2979L8.04297 30.2012C7.26951 30.977 6.23666 31.4378 5.14453 31.4941C4.05837 31.5502 2.99007 31.2022 2.14355 30.5176L1.78613 30.1924C0.9629 29.3622 0.500076 28.239 0.5 27.0674C0.5 25.8916 0.966176 24.7637 1.79492 23.9326L11.668 14.0264L12.0195 13.6738L11.668 13.3203L6.125 7.76367L5.77148 7.4082L5.41699 7.76367L4.44824 8.73438L3.63184 7.50879L1.35938 4.09082L0.811523 3.2627L3.34375 0.722656L4.16602 1.27246L7.5752 3.55078V3.55176L8.79785 4.37109L7.8291 5.3457L7.47754 5.69824L7.8291 6.05176L13.3721 11.6084L13.7256 11.9629L14.0791 11.6084L15.3457 10.3418L15.5283 10.1582L15.4844 9.9043C15.2875 8.74976 15.3448 7.56577 15.6514 6.43555C15.9579 5.30531 16.507 4.25575 17.2598 3.36035C18.0126 2.46499 18.951 1.74494 20.0098 1.25098C21.0667 0.757896 22.2182 0.501644 23.3838 0.5L23.8027 0.509766ZM24.7402 22.5771L22.6035 24.7197L22.252 25.0723L22.6035 25.4258L25.6611 28.4912L25.6797 28.5098L25.7002 28.5264L25.9395 28.7207L25.958 28.7354L25.9785 28.749C26.3648 29.0047 26.8273 29.1189 27.2881 29.0723C27.7491 29.0255 28.1805 28.8204 28.5078 28.4922C28.8349 28.1641 29.0384 27.7326 29.085 27.2715C29.1314 26.8103 29.0176 26.347 28.7627 25.96L28.75 25.9395L28.7344 25.9209L28.541 25.6816L28.5254 25.6611L28.5068 25.6426L25.4492 22.5771L25.0947 22.2217L24.7402 22.5771ZM23.3896 2.91895C22.5128 2.91901 21.6483 3.1253 20.8652 3.52051C20.0821 3.9158 19.402 4.48942 18.8799 5.19531C18.3578 5.90113 18.0073 6.71937 17.8574 7.58496C17.7263 8.34246 17.7519 9.118 17.9307 9.86328L18.0166 10.1807L18.2256 10.873L17.7139 11.3848V11.3857L3.49609 25.6426L3.49512 25.6436C3.11945 26.0218 2.90918 26.5341 2.90918 27.0674C2.90926 27.6007 3.11935 28.113 3.49512 28.4912L3.51465 28.5098L3.53516 28.5264L3.77344 28.7207L3.79297 28.7354L3.8125 28.749C4.59135 29.2656 5.65339 29.1804 6.34082 28.4912L20.5586 14.2344L20.5596 14.2334L21.0674 13.7217L21.7568 13.9297V13.9307C22.2808 14.0912 22.8246 14.1725 23.3867 14.1758H23.416L23.9385 14.1484L23.9512 14.1475L23.9648 14.1455C24.8593 14.0522 25.7185 13.7453 26.4697 13.25C27.2209 12.7547 27.8427 12.0858 28.2822 11.2998C28.7218 10.5137 28.9666 9.63301 28.9961 8.73242C29.0256 7.83184 28.8383 6.93734 28.4512 6.12402L28.1465 5.4834L27.6455 5.98633L24.2471 9.39844C24.0196 9.6185 23.7149 9.7402 23.3994 9.7373C23.084 9.73435 22.782 9.60697 22.5586 9.38281C22.3353 9.15868 22.2088 8.8554 22.2061 8.53809C22.2035 8.22054 22.3242 7.91347 22.5439 7.68555L25.9443 4.27344L26.4395 3.77637L25.8086 3.4707C25.2287 3.18995 24.6037 3.01346 23.9629 2.94922L23.9502 2.94727H23.9385L23.416 2.91992L23.4023 2.91895H23.3896Z" fill="black" stroke="black"/>
</svg>
