<svg width="38" height="32" viewBox="0 0 38 32" fill="none" xmlns="http://www.w3.org/2000/svg">
<path d="M30.3734 17.8824C30.2406 17.8824 30.1458 17.9012 30.013 17.9012C29.3505 15.3128 27.7839 13.0417 25.592 11.4919C23.4 9.94216 20.725 9.21433 18.043 9.43798C15.3609 9.66162 12.8459 10.8222 10.9454 12.7132C9.0449 14.6042 7.8823 17.103 7.6645 19.7647H7.60759C6.16575 19.7647 5.53969 19.4447 4.667 19.0306C3.64254 18.5224 2.37144 17.8824 0.0189715 17.8824V21.6471C1.46081 21.6471 2.08687 21.9671 2.95956 22.3812C3.98402 22.8894 5.25512 23.5294 7.60759 23.5294C9.96006 23.5294 11.2312 22.8894 12.2556 22.3812C13.1283 21.9482 13.7544 21.6471 15.1962 21.6471C16.638 21.6471 17.2641 21.9671 18.1368 22.3812C19.1613 22.8894 20.4324 23.5294 22.7848 23.5294C25.1373 23.5294 26.4084 22.8894 27.4329 22.3812C28.3055 21.9482 28.9316 21.6471 30.3924 21.6471C31.8532 21.6471 32.4793 21.9671 33.352 22.3812C34.3764 22.8894 35.6475 23.5294 38 23.5294V19.7647C36.5392 19.7647 35.9131 19.4447 35.0404 19.0306C34.016 18.5224 32.7449 17.8824 30.3924 17.8824H30.3734ZM22.7848 19.7647C21.343 19.7647 20.7169 19.4447 19.8442 19.0306C18.8198 18.5224 17.5487 17.8824 15.1962 17.8824C13.6785 17.8824 12.635 18.1459 11.8003 18.4847C12.7678 15.4165 15.6136 13.1765 19.0095 13.1765C22.4054 13.1765 25.4408 15.5482 26.3135 18.7482C26.1238 18.8424 25.9151 18.9365 25.7444 19.0118C24.8717 19.4447 24.2456 19.7459 22.7848 19.7459V19.7647ZM17.0934 0H20.8877V5.64706H17.0934V0ZM29.8233 10.7482L31.7204 8.86588L33.6176 6.98353L32.2706 5.64706L30.9236 4.31059L29.0265 6.19294L27.1293 8.07529L28.4763 9.41177L29.8233 10.7482ZM8.15776 10.7482L9.50474 9.41177L10.8517 8.07529L8.95457 6.19294L7.05741 4.31059L5.71043 5.64706L4.36345 6.98353L6.26061 8.86588L8.15776 10.7482ZM30.3734 26.3529C28.021 26.3529 26.7499 26.9929 25.7254 27.5012C24.8527 27.9341 24.2267 28.2353 22.7659 28.2353C21.305 28.2353 20.698 27.9153 19.8253 27.5012C18.8008 26.9929 17.5297 26.3529 15.1772 26.3529C12.8248 26.3529 11.5537 26.9929 10.5292 27.5012C9.65652 27.9341 9.03045 28.2353 7.58862 28.2353C6.14678 28.2353 5.52072 27.9153 4.64803 27.5012C3.62356 26.9929 2.35247 26.3529 0 26.3529V30.1176C1.44184 30.1176 2.0679 30.4376 2.94059 30.8518C3.96505 31.36 5.23615 32 7.58862 32C9.94109 32 11.2122 31.36 12.2366 30.8518C13.1093 30.4188 13.7354 30.1176 15.1772 30.1176C16.6191 30.1176 17.2451 30.4376 18.1178 30.8518C19.1423 31.36 20.4134 32 22.7659 32C25.1183 32 26.3894 31.36 27.4139 30.8518C28.2866 30.4188 28.9126 30.1176 30.3734 30.1176C31.8342 30.1176 32.4603 30.4376 33.333 30.8518C34.3575 31.36 35.6286 32 37.981 32V28.2353C36.5202 28.2353 35.8942 27.9153 35.0215 27.5012C33.997 26.9929 32.7259 26.3529 30.3734 26.3529Z" fill="black"/>
</svg>
