<svg width="32" height="33" viewBox="0 0 32 33" fill="none" xmlns="http://www.w3.org/2000/svg">
<path d="M26.1211 32V1C26.1211 0.723858 26.345 0.5 26.6211 0.5H29.5395C29.8156 0.5 30.0395 0.723858 30.0395 1V32C30.0395 32.2761 29.8156 32.5 29.5395 32.5H26.6211C26.345 32.5 26.1211 32.2761 26.1211 32Z" fill="black" stroke="black"/>
<path d="M2.61328 32V1C2.61328 0.723858 2.83714 0.5 3.11328 0.5H6.03165C6.30779 0.5 6.53165 0.723858 6.53165 1V32C6.53165 32.2761 6.30779 32.5 6.03165 32.5H3.11328C2.83714 32.5 2.61328 32.2761 2.61328 32Z" fill="black" stroke="black"/>
<path d="M8.07724 9.0101C7.91696 9.43676 7.83681 9.8801 7.83681 10.3401V11.0601C7.83681 11.5668 7.95012 12.0301 8.17672 12.4501C8.40333 12.8701 8.70731 13.1834 9.08868 13.3901C9.26001 13.8501 9.51978 14.2168 9.86798 14.4901C10.2162 14.7634 10.6003 14.9001 11.0204 14.9001C11.4017 14.9001 11.7554 14.7868 12.0815 14.5601C12.4076 14.3334 12.6674 14.0201 12.8608 13.6201H18.7305C18.9239 14.0201 19.1837 14.3334 19.5098 14.5601C19.8359 14.7868 20.1896 14.9001 20.571 14.9001C20.9524 14.9001 21.3061 14.7868 21.6322 14.5601C21.9583 14.3334 22.218 14.0201 22.4115 13.6201H23.7545C23.9038 13.6201 24.0419 13.5868 24.1691 13.5201C24.2962 13.4534 24.4067 13.3634 24.5007 13.2501C24.5946 13.1368 24.672 13.0001 24.7328 12.8401C24.7936 12.6801 24.8212 12.5134 24.8157 12.3401V9.7801C24.8157 9.24676 24.7328 8.74676 24.567 8.2801C24.4012 7.81343 24.1746 7.40676 23.8872 7.0601C23.5998 6.71343 23.2626 6.4401 22.8757 6.2401C22.4889 6.0401 22.0743 5.9401 21.6322 5.9401H21.3254L18.6061 2.6601C18.4569 2.4801 18.2856 2.34343 18.0921 2.2501C17.8987 2.15676 17.6942 2.10676 17.4786 2.1001H9.95918V3.3801H10.1996L8.07724 9.0101ZM14.2039 3.3801V5.9401H10.3986L11.2193 3.7501C11.2635 3.63676 11.3299 3.54676 11.4183 3.4801C11.5067 3.41343 11.6035 3.3801 11.7085 3.3801H14.2039ZM17.4786 3.3801C17.6223 3.3801 17.7467 3.44343 17.8517 3.5701L19.8166 5.9401H15.2651V3.3801H17.4786ZM20.571 13.6201C20.4218 13.6201 20.2836 13.5868 20.1565 13.5201C20.0293 13.4534 19.9188 13.3634 19.8248 13.2501C19.7309 13.1368 19.6535 13.0001 19.5927 12.8401C19.5319 12.6801 19.5043 12.5134 19.5098 12.3401C19.5098 12.1601 19.5374 11.9934 19.5927 11.8401C19.648 11.6868 19.7226 11.5534 19.8166 11.4401C19.9105 11.3268 20.0238 11.2334 20.1565 11.1601C20.2891 11.0868 20.4273 11.0534 20.571 11.0601C20.7202 11.0601 20.8584 11.0934 20.9855 11.1601C21.1126 11.2268 21.2232 11.3168 21.3171 11.4301C21.4111 11.5434 21.4885 11.6801 21.5493 11.8401C21.6101 12.0001 21.6377 12.1668 21.6322 12.3401C21.6322 12.5201 21.6045 12.6868 21.5493 12.8401C21.494 12.9934 21.4194 13.1268 21.3254 13.2401C21.2315 13.3534 21.1182 13.4468 20.9855 13.5201C20.8529 13.5934 20.7147 13.6268 20.571 13.6201ZM20.571 9.7801C20.2781 9.7801 20.0045 9.84676 19.7502 9.9801C19.496 10.1134 19.2694 10.2968 19.0704 10.5301C18.8714 10.7634 18.7194 11.0334 18.6144 11.3401C18.5094 11.6468 18.4542 11.9801 18.4486 12.3401H15.2651V7.2201H21.6322C21.9251 7.2201 22.1987 7.28676 22.4529 7.4201C22.7072 7.55343 22.9338 7.73676 23.1327 7.9701C23.3317 8.20343 23.4837 8.47343 23.5887 8.7801C23.6937 9.08676 23.749 9.4201 23.7545 9.7801V12.3401H22.6934C22.6934 11.9868 22.6381 11.6568 22.5275 11.3501C22.417 11.0434 22.265 10.7701 22.0716 10.5301C21.8781 10.2901 21.6543 10.1068 21.4 9.9801C21.1458 9.85343 20.8694 9.78676 20.571 9.7801ZM11.0204 13.6201C10.8711 13.6201 10.733 13.5868 10.6058 13.5201C10.4787 13.4534 10.3682 13.3634 10.2742 13.2501C10.1803 13.1368 10.1029 13.0001 10.0421 12.8401C9.98129 12.6801 9.95365 12.5134 9.95918 12.3401C9.95918 12.1601 9.98681 11.9934 10.0421 11.8401C10.0974 11.6868 10.172 11.5534 10.2659 11.4401C10.3599 11.3268 10.4732 11.2334 10.6058 11.1601C10.7385 11.0868 10.8767 11.0534 11.0204 11.0601C11.1696 11.0601 11.3078 11.0934 11.4349 11.1601C11.562 11.2268 11.6725 11.3168 11.7665 11.4301C11.8605 11.5434 11.9378 11.6801 11.9986 11.8401C12.0594 12.0001 12.0871 12.1668 12.0815 12.3401C12.0815 12.5201 12.0539 12.6868 11.9986 12.8401C11.9434 12.9934 11.8688 13.1268 11.7748 13.2401C11.6808 13.3534 11.5675 13.4468 11.4349 13.5201C11.3022 13.5934 11.1641 13.6268 11.0204 13.6201ZM8.89799 10.3401C8.89799 10.0668 8.94497 9.8001 9.03893 9.5401L9.91772 7.2201H14.2039V12.3401H13.1427C13.1427 11.9868 13.0875 11.6568 12.9769 11.3501C12.8664 11.0434 12.7144 10.7701 12.5209 10.5301C12.3275 10.2901 12.1036 10.1068 11.8494 9.9801C11.5952 9.85343 11.3188 9.78676 11.0204 9.7801C10.7882 9.7801 10.5644 9.82343 10.3488 9.9101C10.1333 9.99676 9.93707 10.1201 9.76021 10.2801C9.58334 10.4401 9.42859 10.6301 9.29594 10.8501C9.16329 11.0701 9.06104 11.3168 8.98919 11.5901C8.92839 11.4101 8.89799 11.2334 8.89799 11.0601V10.3401Z" fill="black"/>
<path d="M8.07724 26.61C7.91696 27.0366 7.83681 27.48 7.83681 27.94V28.66C7.83681 29.1666 7.95012 29.63 8.17672 30.05C8.40333 30.47 8.70731 30.7833 9.08868 30.99C9.26001 31.45 9.51978 31.8166 9.86798 32.09C10.2162 32.3633 10.6003 32.5 11.0204 32.5C11.4017 32.5 11.7554 32.3866 12.0815 32.16C12.4076 31.9333 12.6674 31.62 12.8608 31.22H18.7305C18.9239 31.62 19.1837 31.9333 19.5098 32.16C19.8359 32.3866 20.1896 32.5 20.571 32.5C20.9524 32.5 21.3061 32.3866 21.6322 32.16C21.9583 31.9333 22.218 31.62 22.4115 31.22H23.7545C23.9038 31.22 24.0419 31.1866 24.1691 31.12C24.2962 31.0533 24.4067 30.9633 24.5007 30.85C24.5946 30.7366 24.672 30.6 24.7328 30.44C24.7936 30.28 24.8212 30.1133 24.8157 29.94V27.38C24.8157 26.8466 24.7328 26.3466 24.567 25.88C24.4012 25.4133 24.1746 25.0066 23.8872 24.66C23.5998 24.3133 23.2626 24.04 22.8757 23.84C22.4889 23.64 22.0743 23.54 21.6322 23.54H21.3254L18.6061 20.26C18.4569 20.08 18.2856 19.9433 18.0921 19.85C17.8987 19.7566 17.6942 19.7066 17.4786 19.7H9.95918V20.98H10.1996L8.07724 26.61ZM14.2039 20.98V23.54H10.3986L11.2193 21.35C11.2635 21.2366 11.3299 21.1466 11.4183 21.08C11.5067 21.0133 11.6035 20.98 11.7085 20.98H14.2039ZM17.4786 20.98C17.6223 20.98 17.7467 21.0433 17.8517 21.17L19.8166 23.54H15.2651V20.98H17.4786ZM20.571 31.22C20.4218 31.22 20.2836 31.1866 20.1565 31.12C20.0293 31.0533 19.9188 30.9633 19.8248 30.85C19.7309 30.7366 19.6535 30.6 19.5927 30.44C19.5319 30.28 19.5043 30.1133 19.5098 29.94C19.5098 29.76 19.5374 29.5933 19.5927 29.44C19.648 29.2866 19.7226 29.1533 19.8166 29.04C19.9105 28.9266 20.0238 28.8333 20.1565 28.76C20.2891 28.6866 20.4273 28.6533 20.571 28.66C20.7202 28.66 20.8584 28.6933 20.9855 28.76C21.1126 28.8266 21.2232 28.9166 21.3171 29.03C21.4111 29.1433 21.4885 29.28 21.5493 29.44C21.6101 29.6 21.6377 29.7666 21.6322 29.94C21.6322 30.12 21.6045 30.2866 21.5493 30.44C21.494 30.5933 21.4194 30.7266 21.3254 30.84C21.2315 30.9533 21.1182 31.0466 20.9855 31.12C20.8529 31.1933 20.7147 31.2266 20.571 31.22ZM20.571 27.38C20.2781 27.38 20.0045 27.4466 19.7502 27.58C19.496 27.7133 19.2694 27.8966 19.0704 28.13C18.8714 28.3633 18.7194 28.6333 18.6144 28.94C18.5094 29.2466 18.4542 29.58 18.4486 29.94H15.2651V24.82H21.6322C21.9251 24.82 22.1987 24.8866 22.4529 25.02C22.7072 25.1533 22.9338 25.3366 23.1327 25.57C23.3317 25.8033 23.4837 26.0733 23.5887 26.38C23.6937 26.6866 23.749 27.02 23.7545 27.38V29.94H22.6934C22.6934 29.5866 22.6381 29.2566 22.5275 28.95C22.417 28.6433 22.265 28.37 22.0716 28.13C21.8781 27.89 21.6543 27.7066 21.4 27.58C21.1458 27.4533 20.8694 27.3866 20.571 27.38ZM11.0204 31.22C10.8711 31.22 10.733 31.1866 10.6058 31.12C10.4787 31.0533 10.3682 30.9633 10.2742 30.85C10.1803 30.7366 10.1029 30.6 10.0421 30.44C9.98129 30.28 9.95365 30.1133 9.95918 29.94C9.95918 29.76 9.98681 29.5933 10.0421 29.44C10.0974 29.2866 10.172 29.1533 10.2659 29.04C10.3599 28.9266 10.4732 28.8333 10.6058 28.76C10.7385 28.6866 10.8767 28.6533 11.0204 28.66C11.1696 28.66 11.3078 28.6933 11.4349 28.76C11.562 28.8266 11.6725 28.9166 11.7665 29.03C11.8605 29.1433 11.9378 29.28 11.9986 29.44C12.0594 29.6 12.0871 29.7666 12.0815 29.94C12.0815 30.12 12.0539 30.2866 11.9986 30.44C11.9434 30.5933 11.8688 30.7266 11.7748 30.84C11.6808 30.9533 11.5675 31.0466 11.4349 31.12C11.3022 31.1933 11.1641 31.2266 11.0204 31.22ZM8.89799 27.94C8.89799 27.6666 8.94497 27.4 9.03893 27.14L9.91772 24.82H14.2039V29.94H13.1427C13.1427 29.5866 13.0875 29.2566 12.9769 28.95C12.8664 28.6433 12.7144 28.37 12.5209 28.13C12.3275 27.89 12.1036 27.7066 11.8494 27.58C11.5952 27.4533 11.3188 27.3866 11.0204 27.38C10.7882 27.38 10.5644 27.4233 10.3488 27.51C10.1333 27.5966 9.93707 27.72 9.76021 27.88C9.58334 28.04 9.42859 28.23 9.29594 28.45C9.16329 28.67 9.06104 28.9166 8.98919 29.19C8.92839 29.01 8.89799 28.8333 8.89799 28.66V27.94Z" fill="black"/>
<path d="M6.53125 15.7H26.1231" stroke="black"/>
<path d="M30.0391 15.7H31.9982" stroke="black"/>
<path d="M0 15.7H1.95918" stroke="black"/>
</svg>
