<svg width="32" height="32" viewBox="0 0 32 32" fill="none" xmlns="http://www.w3.org/2000/svg">
<path d="M16.2852 6.32031V6.32129C17.4053 6.39247 18.3117 6.88621 18.8398 7.46875L22.5381 12.7441L22.6113 12.8477L22.7246 12.9043L27.7588 15.4121V15.4131C28.0731 15.5797 28.1645 15.8035 28.1475 15.9658V15.9688C28.1379 16.0647 28.0749 16.1929 27.915 16.3232L27.2266 16.8848L27.4746 16.9727C26.9979 16.975 26.6076 16.9853 26.3271 16.9912C26.1022 16.9959 25.8566 16.9977 25.5928 17L25.7764 16.2168L20.8242 13.7607C20.7037 13.6862 20.6281 13.6196 20.5566 13.5332L19.1836 11.5703L18.5996 10.7373L18.2969 11.708L16.6406 17.002L16.1748 18.4922L17.1074 17.7852L21.3467 21.3994L22.0293 21.9814L22.165 21.0947L22.4609 19.165H24.6777C24.7015 19.1685 24.7265 19.1719 24.7529 19.1719H28.1699V18.6914L28.2842 18.6943L28.2725 19.1719H30.3389L31.4082 26.166H24.1943L24.3574 26.792L25.2061 30.0557L25.2188 30.3223C25.1773 30.6148 24.9763 30.9142 24.5967 31.1475C24.2071 31.3867 23.667 31.5297 23.0732 31.4951H23.0713C22.1033 31.4436 21.4697 30.9276 21.2832 30.417L19.6357 24.1582L19.5938 23.9971L19.4629 23.8936L14.1797 19.7129L13.6045 19.2578L13.3906 19.959L12.1494 24.0332L12.1436 24.0508C12.1408 24.0564 12.1335 24.0722 12.1172 24.0996C12.0884 24.1478 12.048 24.2071 11.999 24.2744C11.9504 24.3412 11.8986 24.4084 11.8486 24.4736C11.8086 24.5259 11.7641 24.5837 11.7285 24.6338L10.7266 25.8555L10.5869 26.0254L10.6074 26.166H10.4717L10.3213 26.3486L6.67969 30.7812C6.28251 31.2271 5.59063 31.5346 4.74316 31.4941C4.15685 31.4619 3.66983 31.261 3.35156 30.9912C3.03455 30.7224 2.90505 30.4093 2.93652 30.1133V30.1084C2.94936 29.9755 3.04404 29.7861 3.17773 29.5879L5.32617 26.9844L6 26.166H0.582031L1.65234 19.165H3.63477V19.083C3.70354 19.1358 3.8029 19.1846 3.93652 19.1846H7.35254C7.39233 19.1846 7.42906 19.1793 7.46289 19.1719H9.37598L9.48535 18.8203L11.8896 11.1191L12.2744 9.88477L11.1592 10.5391L8.58789 12.0459L8.41895 12.1445L8.3623 12.332L7.05957 16.626L6.95117 16.9824L6.96289 16.9902L6.75879 17.1621C6.53508 17.3498 6.17007 17.4906 5.74902 17.4658H5.75C5.3733 17.4394 5.0769 17.3038 4.88672 17.1328L4.74414 17.0049H4.44727C4.42483 17.0049 4.40212 17.0055 4.37988 17.0068L4.39453 16.9912L4.52637 16.8379L4.5918 16.7617L4.62305 16.667L6.33398 11.4492C6.37452 11.3387 6.4608 11.228 6.62793 11.1279L13.9863 6.81445C14.631 6.49188 15.4264 6.27391 16.2852 6.32031ZM17.3896 0.507812C18.3087 0.55925 19.0836 0.874244 19.5996 1.31152C20.1137 1.74717 20.3502 2.27928 20.293 2.80762C20.235 3.33897 19.8758 3.85613 19.251 4.24121C18.6693 4.5996 17.8912 4.8152 17.041 4.7998L16.8643 4.79004C15.9495 4.73855 15.1745 4.42438 14.6572 3.98828C14.1418 3.55365 13.9038 3.02319 13.9609 2.49609C14.019 1.96124 14.3788 1.44446 15.0029 1.06055C15.6243 0.678406 16.4703 0.456379 17.3896 0.507812Z" stroke="black"/>
</svg>
