<svg width="32" height="29" viewBox="0 0 32 29" fill="none" xmlns="http://www.w3.org/2000/svg">
<path d="M31.1273 13.0204H16.8727V8.87755H18.3273C18.8673 8.87755 19.3853 8.65931 19.7672 8.27084C20.1491 7.88238 20.3636 7.3555 20.3636 6.80612V2.07143C20.3636 1.52205 20.1491 0.995176 19.7672 0.606708C19.3853 0.218239 18.8673 0 18.3273 0H13.6727C13.1326 0 12.6147 0.218239 12.2328 0.606708C11.8509 0.995176 11.6364 1.52205 11.6364 2.07143V6.80612C11.6364 7.3555 11.8509 7.88238 12.2328 8.27084C12.6147 8.65931 13.1326 8.87755 13.6727 8.87755H15.1273V13.0204H0.872727C0.641266 13.0204 0.419284 13.1139 0.255616 13.2804C0.0919477 13.4469 0 13.6727 0 13.9082C0 14.1436 0.0919477 14.3694 0.255616 14.5359C0.419284 14.7024 0.641266 14.7959 0.872727 14.7959H5.81818V20.1224H4.36364C3.82356 20.1224 3.3056 20.3407 2.92371 20.7292C2.54182 21.1176 2.32727 21.6445 2.32727 22.1939V26.9286C2.32727 27.4779 2.54182 28.0048 2.92371 28.3933C3.3056 28.7818 3.82356 29 4.36364 29H9.01818C9.55826 29 10.0762 28.7818 10.4581 28.3933C10.84 28.0048 11.0545 27.4779 11.0545 26.9286V22.1939C11.0545 21.6445 10.84 21.1176 10.4581 20.7292C10.0762 20.3407 9.55826 20.1224 9.01818 20.1224H7.56364V14.7959H24.4364V20.1224H22.9818C22.4417 20.1224 21.9238 20.3407 21.5419 20.7292C21.16 21.1176 20.9455 21.6445 20.9455 22.1939V26.9286C20.9455 27.4779 21.16 28.0048 21.5419 28.3933C21.9238 28.7818 22.4417 29 22.9818 29H27.6364C28.1764 29 28.6944 28.7818 29.0763 28.3933C29.4582 28.0048 29.6727 27.4779 29.6727 26.9286V22.1939C29.6727 21.6445 29.4582 21.1176 29.0763 20.7292C28.6944 20.3407 28.1764 20.1224 27.6364 20.1224H26.1818V14.7959H31.1273C31.3587 14.7959 31.5807 14.7024 31.7444 14.5359C31.9081 14.3694 32 14.1436 32 13.9082C32 13.6727 31.9081 13.4469 31.7444 13.2804C31.5807 13.1139 31.3587 13.0204 31.1273 13.0204ZM13.3818 6.80612V2.07143C13.3818 1.99295 13.4125 1.91768 13.467 1.86218C13.5216 1.80669 13.5956 1.77551 13.6727 1.77551H18.3273C18.4044 1.77551 18.4784 1.80669 18.533 1.86218C18.5875 1.91768 18.6182 1.99295 18.6182 2.07143V6.80612C18.6182 6.8846 18.5875 6.95987 18.533 7.01537C18.4784 7.07086 18.4044 7.10204 18.3273 7.10204H13.6727C13.5956 7.10204 13.5216 7.07086 13.467 7.01537C13.4125 6.95987 13.3818 6.8846 13.3818 6.80612ZM9.30909 22.1939V26.9286C9.30909 27.0071 9.27844 27.0823 9.22389 27.1378C9.16933 27.1933 9.09534 27.2245 9.01818 27.2245H4.36364C4.28648 27.2245 4.21249 27.1933 4.15793 27.1378C4.10338 27.0823 4.07273 27.0071 4.07273 26.9286V22.1939C4.07273 22.1154 4.10338 22.0401 4.15793 21.9846C4.21249 21.9291 4.28648 21.898 4.36364 21.898H9.01818C9.09534 21.898 9.16933 21.9291 9.22389 21.9846C9.27844 22.0401 9.30909 22.1154 9.30909 22.1939ZM27.9273 22.1939V26.9286C27.9273 27.0071 27.8966 27.0823 27.8421 27.1378C27.7875 27.1933 27.7135 27.2245 27.6364 27.2245H22.9818C22.9047 27.2245 22.8307 27.1933 22.7761 27.1378C22.7216 27.0823 22.6909 27.0071 22.6909 26.9286V22.1939C22.6909 22.1154 22.7216 22.0401 22.7761 21.9846C22.8307 21.9291 22.9047 21.898 22.9818 21.898H27.6364C27.7135 21.898 27.7875 21.9291 27.8421 21.9846C27.8966 22.0401 27.9273 22.1154 27.9273 22.1939Z" fill="black"/>
</svg>
