<svg width="32" height="32" viewBox="0 0 32 32" fill="none" xmlns="http://www.w3.org/2000/svg">
<path fill-rule="evenodd" clip-rule="evenodd" d="M16 17.7778C20.9111 17.7778 24.8889 13.8 24.8889 8.88889C24.8889 3.97778 20.9111 0 16 0C11.0889 0 7.11111 3.97778 7.11111 8.88889C7.11111 13.8 11.0889 17.7778 16 17.7778ZM23.1111 8.88889C23.1111 12.8178 19.9289 16 16 16C12.0711 16 8.88889 12.8178 8.88889 8.88889C8.88889 4.96 12.0711 1.77778 16 1.77778C19.9289 1.77778 23.1111 4.96 23.1111 8.88889ZM20.4756 19.4436L17.7778 27.1502V26.6667L17.2667 23.0924C17.4298 23.0581 17.58 22.9785 17.7001 22.8628C17.8202 22.7471 17.9053 22.6 17.9458 22.4382L18.3902 20.6604C18.423 20.5295 18.4256 20.3927 18.3976 20.2606C18.3697 20.1285 18.312 20.0044 18.229 19.8979C18.146 19.7914 18.0398 19.7052 17.9185 19.6459C17.7972 19.5866 17.6639 19.5557 17.5289 19.5556H14.4729C14.3379 19.5556 14.2046 19.5864 14.0833 19.6456C13.9619 19.7048 13.8557 19.7909 13.7726 19.8973C13.6895 20.0037 13.6317 20.1277 13.6036 20.2597C13.5756 20.3918 13.578 20.5285 13.6107 20.6596L14.0551 22.4373C14.0954 22.5993 14.1805 22.7466 14.3006 22.8624C14.4207 22.9783 14.5709 23.058 14.7342 23.0924L14.2347 26.5876L11.52 19.4338L11.5022 19.3956C11.371 19.1263 11.1519 18.9098 10.881 18.7819C10.6101 18.6541 10.3037 18.6225 10.0124 18.6924C9.70933 18.7662 9.37511 18.8436 9.02222 18.9271C8.18933 19.1218 7.24978 19.3413 6.35911 19.5893C5.10311 19.9396 3.80178 20.3804 2.89778 20.9742C1.23289 22.0676 0 23.5138 0 25.3333V32H32V25.3333C32 23.5138 30.768 22.0667 29.1022 20.9742C28.1991 20.3804 26.8978 19.9396 25.6418 19.5893C24.7587 19.3503 23.8708 19.1296 22.9787 18.9271C22.6482 18.8504 22.3182 18.7722 21.9884 18.6924C21.6973 18.6227 21.3911 18.6544 21.1204 18.7823C20.8497 18.9101 20.6307 19.1264 20.4996 19.3956L20.4756 19.4436ZM22.6169 20.6684L21.9831 20.5191L18.5858 30.2222H30.2222V25.3333C30.2222 24.4036 29.5964 23.4249 28.1271 22.4604C27.4747 22.0311 26.4116 21.6489 25.1653 21.3022C24.3206 21.0733 23.4704 20.862 22.6169 20.6684ZM10.0284 20.5164L13.7111 30.2222H1.77778V25.3333C1.77778 24.4036 2.40356 23.4249 3.87289 22.4604C4.52533 22.0311 5.58844 21.6489 6.83467 21.3022C7.6793 21.0731 8.52868 20.8618 9.38222 20.6684L10.0284 20.5164Z" fill="black"/>
</svg>
