<svg width="39" height="32" viewBox="0 0 39 32" fill="none" xmlns="http://www.w3.org/2000/svg">
<path d="M30.6426 0.5C30.8417 0.5 31.0355 0.566232 31.1924 0.688477C31.3493 0.810769 31.4605 0.982188 31.5088 1.1748L37.0801 23.4355C37.1129 23.5669 37.116 23.7045 37.0879 23.8369C37.0598 23.9693 37.0014 24.0935 36.918 24.2002C36.8345 24.307 36.7274 24.3937 36.6055 24.4531C36.4836 24.5124 36.3495 24.5429 36.2139 24.543H31.5361V29.7178H37.6074C37.8442 29.7178 38.071 29.8115 38.2383 29.9785C38.4056 30.1457 38.4999 30.3723 38.5 30.6084C38.5 30.8446 38.4056 31.0711 38.2383 31.2383C38.0709 31.4054 37.8443 31.4999 37.6074 31.5H1.39258C1.1557 31.4999 0.929053 31.4054 0.761719 31.2383C0.594355 31.0711 0.5 30.8446 0.5 30.6084C0.500069 30.3723 0.594397 30.1457 0.761719 29.9785C0.929031 29.8115 1.15581 29.7178 1.39258 29.7178H6.07129V25.9346H4.17871C3.9418 25.9346 3.71426 25.841 3.54688 25.6738C3.37949 25.5066 3.28613 25.2792 3.28613 25.043C3.28622 24.8069 3.37958 24.5802 3.54688 24.4131C3.71428 24.2459 3.94173 24.1523 4.17871 24.1523H6.07129V20.3691H4.17871C3.94179 20.3691 3.71427 20.2755 3.54688 20.1084C3.37949 19.9412 3.28613 19.7138 3.28613 19.4775C3.28624 19.2415 3.37958 19.0148 3.54688 18.8477C3.71427 18.6804 3.94174 18.5869 4.17871 18.5869H19.5C19.737 18.5869 19.9644 18.6804 20.1318 18.8477C20.2991 19.0148 20.3925 19.2415 20.3926 19.4775C20.3926 19.7138 20.2992 19.9412 20.1318 20.1084C19.9644 20.2756 19.737 20.3691 19.5 20.3691H17.6074V24.1523H19.5C19.737 24.1523 19.9644 24.2459 20.1318 24.4131C20.2991 24.5802 20.3925 24.8069 20.3926 25.043C20.3926 25.2792 20.2992 25.5066 20.1318 25.6738C19.9644 25.841 19.7369 25.9346 19.5 25.9346H17.6074V29.7178H29.75V24.543H25.0713C24.9356 24.5429 24.8016 24.5126 24.6797 24.4531C24.5578 24.3937 24.4516 24.3069 24.3682 24.2002C24.2848 24.0935 24.2264 23.9693 24.1982 23.8369C24.1701 23.7045 24.1722 23.5669 24.2051 23.4355L29.7764 1.1748C29.8247 0.982181 29.9369 0.810771 30.0938 0.688477C30.2505 0.566419 30.4437 0.500062 30.6426 0.5ZM7.85742 29.7178H15.8213V25.9346H7.85742V29.7178ZM7.85742 24.1523H15.8213V20.3691H7.85742V24.1523ZM26.3711 22.1396L26.2158 22.7607H35.0703L34.915 22.1396L31.1279 7.00879H30.1582L26.3711 22.1396ZM15.7363 3.61426C16.5358 3.2835 17.4159 3.19757 18.2646 3.36621C19.1133 3.53491 19.8932 3.95046 20.5049 4.56152C21.1166 5.17262 21.5334 5.95138 21.7021 6.79883C21.8709 7.64622 21.7841 8.52496 21.4531 9.32324C21.1221 10.1215 20.5611 10.804 19.8418 11.2842C19.1224 11.7643 18.2764 12.0214 17.4111 12.0215C16.2507 12.0215 15.1378 11.5606 14.3174 10.7412C13.497 9.92169 13.0361 8.81011 13.0361 7.65137C13.0362 6.7873 13.2918 5.94217 13.7725 5.22363C14.2531 4.5051 14.9369 3.94504 15.7363 3.61426ZM17.4111 5.06445C16.7246 5.06445 16.0657 5.33717 15.5801 5.82227C15.0945 6.30734 14.8213 6.96517 14.8213 7.65137C14.8213 8.16309 14.9733 8.66346 15.2578 9.08887C15.5424 9.51431 15.9469 9.84625 16.4199 10.042C16.893 10.2377 17.4139 10.2883 17.916 10.1885C18.4179 10.0887 18.8792 9.84295 19.2412 9.48145C19.6034 9.11968 19.8502 8.65819 19.9502 8.15625C20.0501 7.65433 19.9988 7.13389 19.8027 6.66113C19.6067 6.18845 19.2744 5.78416 18.8486 5.5C18.4231 5.21608 17.9228 5.06454 17.4111 5.06445Z" stroke="black"/>
</svg>
