<svg width="32" height="32" viewBox="0 0 32 32" fill="none" xmlns="http://www.w3.org/2000/svg">
<mask id="path-1-inside-1_265_160" fill="white">
<path fill-rule="evenodd" clip-rule="evenodd" d="M9.82894 13.2989C9.23383 13.0099 8.78237 12.5203 8.35893 12.029C7.8763 11.4689 7.86999 10.767 7.86999 10.3996C7.86999 9.81546 8.36446 9.3548 9.16832 9.33335C9.59413 9.32196 9.85419 9.43975 10.209 9.72657C10.4631 9.9315 11.0586 10.6024 10.793 11.151C10.7793 11.1796 10.7566 11.2142 10.7247 11.2548C10.6933 11.2954 10.6758 11.3469 10.6752 11.4004C10.6747 11.4539 10.6911 11.5059 10.7216 11.5473C10.7522 11.5887 10.7962 11.6152 10.8442 11.6211C10.8922 11.6271 10.9403 11.6121 10.9785 11.5793L11.0203 11.5434C11.5452 11.0985 11.8309 10.933 11.8309 10.2739C11.8309 9.03383 10.3562 7.84233 8.93194 7.88043C7.50929 7.91852 6.40156 9.05835 6.40156 10.3873C6.40156 11.1142 6.81908 12.1455 7.50179 12.9381C7.93822 13.4451 8.46525 13.8454 9.04914 14.1134C9.01205 14.1811 8.9739 14.2545 8.9347 14.3336C8.54796 15.1157 8.59847 15.2107 8.54915 16.1876C8.50021 17.165 8.76067 18.9122 8.66083 19.7731C8.56059 20.6335 8.0598 20.7294 7.9497 21.3495C7.87998 21.7424 7.70674 23.4473 7.42997 26.464C7.42422 26.5251 7.4301 26.5868 7.44724 26.6452C7.46438 26.7036 7.49239 26.7573 7.52945 26.8029C7.56652 26.8485 7.61181 26.8849 7.66238 26.9098C7.71296 26.9347 7.76769 26.9476 7.82302 26.9475H8.63478C8.73917 26.9472 8.83922 26.9011 8.91304 26.8192C8.98685 26.7373 9.02842 26.6263 9.02862 26.5105V26.2928C9.02862 26.1549 8.97022 26.0248 8.87077 25.9425L8.74528 25.8379C8.68623 25.7888 8.64076 25.7223 8.61405 25.646C8.58733 25.5696 8.58043 25.4865 8.59413 25.4061C8.80987 24.131 8.99955 23.3633 9.16319 23.1032C9.28395 22.9106 9.82933 22.5966 10.5326 21.9879C10.6586 21.8787 10.8848 21.6464 11.2113 21.2908C11.2376 21.262 11.2706 21.2419 11.3066 21.2329C11.3426 21.2239 11.3802 21.2263 11.4151 21.2398C11.45 21.2533 11.4807 21.2774 11.5038 21.3093C11.527 21.3412 11.5416 21.3797 11.546 21.4204C11.6054 21.9474 11.6792 22.3914 11.7674 22.7525C11.8739 23.188 12.2013 24.3232 12.7496 26.158C12.7757 26.2454 12.8259 26.3215 12.8932 26.3755C12.9606 26.4294 13.0415 26.4584 13.1245 26.4583H14.1576C14.2512 26.4582 14.3409 26.417 14.407 26.3436C14.4731 26.2702 14.5103 26.1707 14.5104 26.0669V26.0406C14.5106 25.938 14.4782 25.8386 14.419 25.7597C14.3597 25.6809 14.2774 25.6276 14.1865 25.6093L13.7433 25.5191C13.4252 24.2299 13.2864 23.2857 13.3269 22.6864C13.3554 22.2625 13.6135 21.7694 13.8735 20.9112C13.9277 20.7328 14.0037 20.3679 14.1016 19.8164C14.1068 19.7871 14.1174 19.7593 14.1326 19.7347C14.1479 19.7101 14.1675 19.6892 14.1904 19.6733C14.2132 19.6574 14.2387 19.6469 14.2653 19.6424C14.2919 19.6379 14.319 19.6394 14.3451 19.647L16.9745 20.4028C17.0035 20.411 17.0303 20.4265 17.0531 20.448C17.0758 20.4695 17.0939 20.4964 17.1059 20.5268C17.1179 20.5571 17.1236 20.5901 17.1224 20.6233C17.1213 20.6564 17.1133 20.6888 17.0992 20.718L17.0373 20.8477C16.9189 21.0938 16.8573 21.3688 16.8573 21.6477V25.7463C16.8573 25.8825 16.9145 26.0113 17.012 26.0945L17.5633 26.563C17.6324 26.6219 17.717 26.6537 17.804 26.6536H18.1999C18.2517 26.6536 18.3031 26.6423 18.351 26.6203C18.3989 26.5982 18.4424 26.5659 18.479 26.5252C18.5157 26.4845 18.5448 26.4362 18.5646 26.383C18.5844 26.3298 18.5945 26.2729 18.5945 26.2153V25.992C18.5945 25.833 18.5175 25.6863 18.3924 25.6088L18.1083 25.4328C18.0419 25.3918 17.9876 25.3304 17.9519 25.256C17.9162 25.1816 17.9006 25.0973 17.907 25.0133C17.9518 24.4216 18.0073 23.9716 18.0736 23.6633C18.1415 23.3451 18.3063 22.7779 18.568 21.9617C18.5788 21.9281 18.5968 21.8979 18.6205 21.8738C18.6441 21.8496 18.6727 21.8323 18.7038 21.8232C18.7349 21.8142 18.7675 21.8137 18.7988 21.8218C18.8301 21.8299 18.8591 21.8463 18.8834 21.8697L18.9603 21.9433C19.1533 22.1285 19.3889 22.2498 19.6407 22.2949L22.1079 22.7328C22.143 22.739 22.176 22.7557 22.2032 22.781C22.2305 22.8063 22.2511 22.8393 22.2629 22.8765C22.2747 22.9138 22.2772 22.9538 22.2701 22.9925C22.263 23.0312 22.2466 23.067 22.2227 23.0962L21.9603 23.4168C21.894 23.4973 21.8577 23.6024 21.8577 23.7115V23.9978C21.8577 24.0565 21.8683 24.1145 21.8888 24.1685C21.9094 24.2225 21.9395 24.2714 21.9774 24.3122C22.0153 24.3531 22.0603 24.385 22.1095 24.4062C22.1588 24.4275 22.2114 24.4375 22.2642 24.4357L22.5878 24.4252C22.6466 24.4233 22.7043 24.4069 22.7567 24.377C22.8091 24.3472 22.8548 24.3047 22.8904 24.2527L23.2985 23.6598C23.351 23.5834 23.3794 23.49 23.3794 23.394V22.5235C23.3794 22.3715 23.3084 22.2301 23.1919 22.1504C21.5063 20.9944 20.5924 20.355 20.45 20.2324C20.3025 20.1054 20.2409 19.8932 20.2654 19.5957C20.54 18.6906 20.98 18.3701 21.1777 17.8341C21.3755 17.2981 21.7421 15.6315 21.9236 14.9913C22.2886 13.7039 22.6091 13.023 22.6955 12.8194C22.8897 12.3622 23.2322 12.2974 23.5941 12.1398C23.9559 11.9821 24.6438 12.0058 25.0913 11.5701C25.5384 11.1339 25.4974 10.6785 25.6016 10.1829V9.57637C25.6016 9.33422 25.4244 9.13805 25.2061 9.13805H24.1343C23.9895 9.13805 23.8565 9.05047 23.787 8.90903C23.6647 8.65972 23.4692 8.42166 23.2006 8.19483C22.8431 7.89461 22.4355 7.67598 22.0013 7.55157C22.1 6.18798 22.1 5.41773 22.0013 5.24083C21.9027 5.06392 21.6282 5.34066 21.1777 6.07107C21.1136 5.21105 20.9879 4.89577 20.8009 5.12522C20.6264 5.33979 20.3255 6.11923 19.898 7.46356C19.8419 7.63871 19.761 7.80423 19.6584 7.9518C19.479 8.20928 19.3169 8.51726 19.1722 8.87575C18.8972 9.55711 18.5759 11.3367 18.0073 12.212C17.439 13.0874 17.1071 13.1592 16.2863 13.3212C15.7409 13.4289 13.8605 13.0848 12.3202 13.0182C11.134 12.9665 10.1798 13.1881 10.0077 13.2371C9.94588 13.2547 9.88629 13.2755 9.82894 13.2989Z"/>
</mask>
<path fill-rule="evenodd" clip-rule="evenodd" d="M9.82894 13.2989C9.23383 13.0099 8.78237 12.5203 8.35893 12.029C7.8763 11.4689 7.86999 10.767 7.86999 10.3996C7.86999 9.81546 8.36446 9.3548 9.16832 9.33335C9.59413 9.32196 9.85419 9.43975 10.209 9.72657C10.4631 9.9315 11.0586 10.6024 10.793 11.151C10.7793 11.1796 10.7566 11.2142 10.7247 11.2548C10.6933 11.2954 10.6758 11.3469 10.6752 11.4004C10.6747 11.4539 10.6911 11.5059 10.7216 11.5473C10.7522 11.5887 10.7962 11.6152 10.8442 11.6211C10.8922 11.6271 10.9403 11.6121 10.9785 11.5793L11.0203 11.5434C11.5452 11.0985 11.8309 10.933 11.8309 10.2739C11.8309 9.03383 10.3562 7.84233 8.93194 7.88043C7.50929 7.91852 6.40156 9.05835 6.40156 10.3873C6.40156 11.1142 6.81908 12.1455 7.50179 12.9381C7.93822 13.4451 8.46525 13.8454 9.04914 14.1134C9.01205 14.1811 8.9739 14.2545 8.9347 14.3336C8.54796 15.1157 8.59847 15.2107 8.54915 16.1876C8.50021 17.165 8.76067 18.9122 8.66083 19.7731C8.56059 20.6335 8.0598 20.7294 7.9497 21.3495C7.87998 21.7424 7.70674 23.4473 7.42997 26.464C7.42422 26.5251 7.4301 26.5868 7.44724 26.6452C7.46438 26.7036 7.49239 26.7573 7.52945 26.8029C7.56652 26.8485 7.61181 26.8849 7.66238 26.9098C7.71296 26.9347 7.76769 26.9476 7.82302 26.9475H8.63478C8.73917 26.9472 8.83922 26.9011 8.91304 26.8192C8.98685 26.7373 9.02842 26.6263 9.02862 26.5105V26.2928C9.02862 26.1549 8.97022 26.0248 8.87077 25.9425L8.74528 25.8379C8.68623 25.7888 8.64076 25.7223 8.61405 25.646C8.58733 25.5696 8.58043 25.4865 8.59413 25.4061C8.80987 24.131 8.99955 23.3633 9.16319 23.1032C9.28395 22.9106 9.82933 22.5966 10.5326 21.9879C10.6586 21.8787 10.8848 21.6464 11.2113 21.2908C11.2376 21.262 11.2706 21.2419 11.3066 21.2329C11.3426 21.2239 11.3802 21.2263 11.4151 21.2398C11.45 21.2533 11.4807 21.2774 11.5038 21.3093C11.527 21.3412 11.5416 21.3797 11.546 21.4204C11.6054 21.9474 11.6792 22.3914 11.7674 22.7525C11.8739 23.188 12.2013 24.3232 12.7496 26.158C12.7757 26.2454 12.8259 26.3215 12.8932 26.3755C12.9606 26.4294 13.0415 26.4584 13.1245 26.4583H14.1576C14.2512 26.4582 14.3409 26.417 14.407 26.3436C14.4731 26.2702 14.5103 26.1707 14.5104 26.0669V26.0406C14.5106 25.938 14.4782 25.8386 14.419 25.7597C14.3597 25.6809 14.2774 25.6276 14.1865 25.6093L13.7433 25.5191C13.4252 24.2299 13.2864 23.2857 13.3269 22.6864C13.3554 22.2625 13.6135 21.7694 13.8735 20.9112C13.9277 20.7328 14.0037 20.3679 14.1016 19.8164C14.1068 19.7871 14.1174 19.7593 14.1326 19.7347C14.1479 19.7101 14.1675 19.6892 14.1904 19.6733C14.2132 19.6574 14.2387 19.6469 14.2653 19.6424C14.2919 19.6379 14.319 19.6394 14.3451 19.647L16.9745 20.4028C17.0035 20.411 17.0303 20.4265 17.0531 20.448C17.0758 20.4695 17.0939 20.4964 17.1059 20.5268C17.1179 20.5571 17.1236 20.5901 17.1224 20.6233C17.1213 20.6564 17.1133 20.6888 17.0992 20.718L17.0373 20.8477C16.9189 21.0938 16.8573 21.3688 16.8573 21.6477V25.7463C16.8573 25.8825 16.9145 26.0113 17.012 26.0945L17.5633 26.563C17.6324 26.6219 17.717 26.6537 17.804 26.6536H18.1999C18.2517 26.6536 18.3031 26.6423 18.351 26.6203C18.3989 26.5982 18.4424 26.5659 18.479 26.5252C18.5157 26.4845 18.5448 26.4362 18.5646 26.383C18.5844 26.3298 18.5945 26.2729 18.5945 26.2153V25.992C18.5945 25.833 18.5175 25.6863 18.3924 25.6088L18.1083 25.4328C18.0419 25.3918 17.9876 25.3304 17.9519 25.256C17.9162 25.1816 17.9006 25.0973 17.907 25.0133C17.9518 24.4216 18.0073 23.9716 18.0736 23.6633C18.1415 23.3451 18.3063 22.7779 18.568 21.9617C18.5788 21.9281 18.5968 21.8979 18.6205 21.8738C18.6441 21.8496 18.6727 21.8323 18.7038 21.8232C18.7349 21.8142 18.7675 21.8137 18.7988 21.8218C18.8301 21.8299 18.8591 21.8463 18.8834 21.8697L18.9603 21.9433C19.1533 22.1285 19.3889 22.2498 19.6407 22.2949L22.1079 22.7328C22.143 22.739 22.176 22.7557 22.2032 22.781C22.2305 22.8063 22.2511 22.8393 22.2629 22.8765C22.2747 22.9138 22.2772 22.9538 22.2701 22.9925C22.263 23.0312 22.2466 23.067 22.2227 23.0962L21.9603 23.4168C21.894 23.4973 21.8577 23.6024 21.8577 23.7115V23.9978C21.8577 24.0565 21.8683 24.1145 21.8888 24.1685C21.9094 24.2225 21.9395 24.2714 21.9774 24.3122C22.0153 24.3531 22.0603 24.385 22.1095 24.4062C22.1588 24.4275 22.2114 24.4375 22.2642 24.4357L22.5878 24.4252C22.6466 24.4233 22.7043 24.4069 22.7567 24.377C22.8091 24.3472 22.8548 24.3047 22.8904 24.2527L23.2985 23.6598C23.351 23.5834 23.3794 23.49 23.3794 23.394V22.5235C23.3794 22.3715 23.3084 22.2301 23.1919 22.1504C21.5063 20.9944 20.5924 20.355 20.45 20.2324C20.3025 20.1054 20.2409 19.8932 20.2654 19.5957C20.54 18.6906 20.98 18.3701 21.1777 17.8341C21.3755 17.2981 21.7421 15.6315 21.9236 14.9913C22.2886 13.7039 22.6091 13.023 22.6955 12.8194C22.8897 12.3622 23.2322 12.2974 23.5941 12.1398C23.9559 11.9821 24.6438 12.0058 25.0913 11.5701C25.5384 11.1339 25.4974 10.6785 25.6016 10.1829V9.57637C25.6016 9.33422 25.4244 9.13805 25.2061 9.13805H24.1343C23.9895 9.13805 23.8565 9.05047 23.787 8.90903C23.6647 8.65972 23.4692 8.42166 23.2006 8.19483C22.8431 7.89461 22.4355 7.67598 22.0013 7.55157C22.1 6.18798 22.1 5.41773 22.0013 5.24083C21.9027 5.06392 21.6282 5.34066 21.1777 6.07107C21.1136 5.21105 20.9879 4.89577 20.8009 5.12522C20.6264 5.33979 20.3255 6.11923 19.898 7.46356C19.8419 7.63871 19.761 7.80423 19.6584 7.9518C19.479 8.20928 19.3169 8.51726 19.1722 8.87575C18.8972 9.55711 18.5759 11.3367 18.0073 12.212C17.439 13.0874 17.1071 13.1592 16.2863 13.3212C15.7409 13.4289 13.8605 13.0848 12.3202 13.0182C11.134 12.9665 10.1798 13.1881 10.0077 13.2371C9.94588 13.2547 9.88629 13.2755 9.82894 13.2989Z" stroke="black" stroke-width="2" mask="url(#path-1-inside-1_265_160)"/>
<rect x="0.5" y="0.5" width="31" height="31" rx="2.5" stroke="black"/>
</svg>
