<svg width="32" height="32" viewBox="0 0 32 32" fill="none" xmlns="http://www.w3.org/2000/svg">
<path d="M15.9518 13.5242L22.3998 20.3116V24.9095C22.3998 25.1453 22.4798 25.3474 22.6398 25.5158L23.7598 26.6947C23.9198 26.8631 23.9998 27.0653 23.9998 27.301V27.7895C23.9998 28.261 23.6478 28.6316 23.1998 28.6316H21.1358C20.9118 28.6316 20.7198 28.5474 20.5598 28.3789L19.4398 27.2C19.2798 27.0316 19.1998 26.8295 19.1998 26.5937V22.7368C19.1998 22.2653 18.8478 21.8947 18.3998 21.8947H18.0958C17.7918 21.8947 17.5198 22.08 17.3758 22.3663L16.1758 24.9095C16.0847 25.0803 16.0301 25.2699 16.0158 25.4653L15.9998 25.6842C15.9998 25.9368 16.1438 26.1726 16.3518 26.2905L17.1518 26.7116C17.4238 26.8631 17.5998 27.1495 17.5998 27.4695V27.7895C17.5998 28.261 17.2478 28.6316 16.7998 28.6316H9.6638C8.5918 28.6316 7.5838 28.1937 6.8318 27.4021L6.2078 26.7453C5.3118 25.8021 4.7998 24.5053 4.7998 23.1747V22.7368C4.7998 21.1537 5.5518 19.6884 6.7998 18.8126L7.1998 18.5263V21.6926C7.1998 22.8547 7.8238 23.8989 8.7998 24.421C8.8478 22.2147 9.3758 20.261 10.3998 18.5263C11.3118 17.0105 13.1518 15.3431 15.9518 13.5242ZM21.5998 5.05262C22.0478 5.05262 22.3998 5.42315 22.3998 5.89472V7.89893C22.3998 8.21893 22.5758 8.50525 22.8478 8.65683L28.0798 11.4189C28.5278 11.6379 28.7998 12.1095 28.7998 12.6316V12.7831C28.7998 13.221 28.6238 13.6589 28.3358 13.9621L27.1998 15.1579H23.9998L22.9598 17.3305L17.6318 11.7221L20.5758 5.5242C20.7198 5.23788 20.9918 5.05262 21.2958 5.05262H21.5998ZM9.6958 3.36841L17.6478 11.7389L15.9518 13.5242L6.3038 3.36841H9.6958Z" fill="black"/>
<rect x="0.5" y="0.5" width="31" height="31" rx="2.5" stroke="black"/>
</svg>
