<svg width="32" height="32" viewBox="0 0 32 32" fill="none" xmlns="http://www.w3.org/2000/svg">
<path d="M27.6364 1.77778C25.1636 1.77778 23.2727 4.08889 23.2727 7.11111V7.64444L16 0L8.72727 7.64444V7.11111C8.72727 4.08889 6.83636 1.77778 4.36364 1.77778C1.89091 1.77778 0 4.08889 0 7.11111V32H14.5455V23.1111C14.5455 22.0444 15.1273 21.3333 16 21.3333C16.8727 21.3333 17.4545 22.0444 17.4545 23.1111V32H32V7.11111C32 4.08889 30.1091 1.77778 27.6364 1.77778ZM27.6364 5.33333C28.3636 5.33333 29.0909 6.04444 29.0909 7.11111V8.88889H26.1818V7.11111C26.1818 6.04444 26.9091 5.33333 27.6364 5.33333ZM4.36364 5.33333C5.23636 5.33333 5.81818 6.04444 5.81818 7.11111V8.88889H2.90909V7.11111C2.90909 6.04444 3.63636 5.33333 4.36364 5.33333ZM2.90909 28.4444V12.4444H5.81818V28.4444H2.90909ZM23.2727 28.4444H20.3636V23.1111C20.3636 20.2667 18.3273 17.7778 16 17.7778C13.6727 17.7778 11.6364 20.2667 11.6364 23.1111V28.4444H8.72727V12.2667L16 4.62222L23.2727 12.2667V28.4444ZM26.1818 28.4444V12.4444H29.0909V28.4444H26.1818ZM16 9.77778C17.1636 9.77778 18.1818 11.0222 18.1818 12.4444C18.1818 13.8667 17.1636 15.1111 16 15.1111C14.8364 15.1111 13.8182 13.8667 13.8182 12.4444C13.8182 11.0222 14.8364 9.77778 16 9.77778Z" fill="black"/>
</svg>
