<svg width="34" height="34" viewBox="0 0 34 34" fill="none" xmlns="http://www.w3.org/2000/svg">
<path d="M4.04785 27.7112C5.09014 23.4233 10.492 20.1555 17.0002 20.1555C23.5084 20.1555 28.9103 23.4233 29.9526 27.7112M25.3812 7.31078C29.0162 7.31078 32.2383 10.2628 32.2383 14.1109M16.2383 6.04973C19.0147 3.23371 23.0917 3.89559 25.3812 7.31078C27.34 9.40598 27.4475 12.7713 25.4878 14.8665M25.3812 7.31078C26.6292 5.16647 26.3168 2.23787 24.1545 1.00024" stroke="black" stroke-width="2" stroke-linecap="round" stroke-linejoin="round"/>
<path d="M13.1905 20.1555C13.1905 13.0614 18.9893 7.31079 26.1429 7.31079C22.328 7.31079 19.2347 13.0614 19.2347 20.1555M1 33.0002C2.44 33.0002 3.88 32.5801 5.12952 31.7384C5.48644 31.5038 5.90514 31.3787 6.33333 31.3787C6.76152 31.3787 7.18023 31.5038 7.53714 31.7384C8.75493 32.5601 10.1937 32.9998 11.6667 33.0002C13.1067 33.0002 14.5467 32.5801 15.7962 31.7384C16.1531 31.5038 16.5718 31.3787 17 31.3787C17.4282 31.3787 17.8469 31.5038 18.2038 31.7384C19.4216 32.5601 20.8604 32.9998 22.3333 33.0002C23.7733 33.0002 25.2133 32.5801 26.4629 31.7384C26.8198 31.5038 27.2385 31.3787 27.6667 31.3787C28.0949 31.3787 28.5136 31.5038 28.8705 31.7384C30.0883 32.5601 31.527 32.9998 33 33.0002" stroke="black" stroke-width="2" stroke-linecap="round" stroke-linejoin="round"/>
</svg>
