<svg width="34" height="34" viewBox="0 0 34 34" fill="none" xmlns="http://www.w3.org/2000/svg">
<path d="M5.98601 0.75H10.0587C10.2902 0.75 10.5122 0.952285 10.6758 1.31236C10.8395 1.67242 10.9315 2.16078 10.9315 2.67V30.83C10.9315 31.0821 10.9089 31.3318 10.865 31.5648C10.8212 31.7977 10.7569 32.0094 10.6758 32.1876C10.5948 32.3659 10.4986 32.5074 10.3927 32.6039C10.2868 32.7003 10.1733 32.75 10.0587 32.75H5.98601C5.8714 32.75 5.75791 32.7003 5.65203 32.6039C5.54615 32.5074 5.44994 32.3659 5.3689 32.1876C5.28786 32.0094 5.22357 31.7977 5.17971 31.5648C5.13586 31.3318 5.11328 31.0821 5.11328 30.83V2.67C5.11328 2.16078 5.20523 1.67242 5.3689 1.31236C5.53257 0.952285 5.75455 0.75 5.98601 0.75Z" stroke="black" stroke-width="1.5" stroke-linecap="round" stroke-linejoin="round"/>
<path d="M23.4406 0.75H27.5133C27.7447 0.75 27.9667 0.952285 28.1304 1.31236C28.2941 1.67242 28.386 2.16078 28.386 2.67V30.83C28.386 31.0821 28.3634 31.3318 28.3196 31.5648C28.2757 31.7977 28.2114 32.0094 28.1304 32.1876C28.0494 32.3659 27.9531 32.5074 27.8473 32.6039C27.7414 32.7003 27.6279 32.75 27.5133 32.75H23.4406C23.3259 32.75 23.2125 32.7003 23.1066 32.6039C23.0007 32.5074 22.9045 32.3659 22.8234 32.1876C22.7424 32.0094 22.6781 31.7977 22.6343 31.5648C22.5904 31.3318 22.5678 31.0821 22.5678 30.83V2.67C22.5678 2.16078 22.6598 1.67242 22.8234 1.31236C22.9871 0.952285 23.2091 0.75 23.4406 0.75Z" stroke="black" stroke-width="1.5" stroke-linecap="round" stroke-linejoin="round"/>
<path d="M10.9318 16.7499H22.5682M0.75 24.4299V9.0699C0.75 8.56069 0.841948 8.07233 1.00562 7.71226C1.16928 7.35219 1.39127 7.1499 1.62273 7.1499H4.24091C4.47237 7.1499 4.69435 7.35219 4.85802 7.71226C5.02169 8.07233 5.11364 8.56069 5.11364 9.0699V24.4299C5.11364 24.9391 5.02169 25.4275 4.85802 25.7875C4.69435 26.1476 4.47237 26.3499 4.24091 26.3499H1.62273C1.39127 26.3499 1.16928 26.1476 1.00562 25.7875C0.841948 25.4275 0.75 24.9391 0.75 24.4299ZM32.75 24.4299V9.0699C32.75 8.56069 32.6581 8.07233 32.4944 7.71226C32.3307 7.35219 32.1087 7.1499 31.8773 7.1499H29.2591C29.0276 7.1499 28.8056 7.35219 28.642 7.71226C28.4783 8.07233 28.3864 8.56069 28.3864 9.0699V24.4299C28.3864 24.9391 28.4783 25.4275 28.642 25.7875C28.8056 26.1476 29.0276 26.3499 29.2591 26.3499H31.8773C32.1087 26.3499 32.3307 26.1476 32.4944 25.7875C32.6581 25.4275 32.75 24.9391 32.75 24.4299Z" stroke="black" stroke-width="1.5" stroke-linecap="round" stroke-linejoin="round"/>
</svg>
