<svg width="32" height="32" viewBox="0 0 32 32" fill="none" xmlns="http://www.w3.org/2000/svg">
<path d="M5.89977 2.52632C5.22917 2.52632 4.58604 2.79248 4.11185 3.26626C3.63767 3.74003 3.37127 4.38261 3.37127 5.05263V6.31579C3.37127 6.6508 3.23808 6.97209 3.00099 7.20898C2.76389 7.44587 2.44233 7.57895 2.10703 7.57895C1.77173 7.57895 1.45016 7.44587 1.21307 7.20898C0.975981 6.97209 0.842784 6.6508 0.842784 6.31579V5.05263C0.842784 3.71259 1.37557 2.42743 2.32394 1.47988C3.27231 0.532329 4.55857 0 5.89977 0C7.24096 0 8.52722 0.532329 9.47559 1.47988C10.424 2.42743 10.9567 3.71259 10.9567 5.05263V10.9474H23.5992V5.05263C23.5992 4.38261 23.3328 3.74003 22.8586 3.26626C22.3844 2.79248 21.7413 2.52632 21.0707 2.52632C20.4001 2.52632 19.757 2.79248 19.2828 3.26626C18.8086 3.74003 18.5422 4.38261 18.5422 5.05263V6.31579C18.5422 6.6508 18.409 6.97209 18.1719 7.20898C17.9348 7.44587 17.6133 7.57895 17.278 7.57895C16.9427 7.57895 16.6211 7.44587 16.384 7.20898C16.1469 6.97209 16.0137 6.6508 16.0137 6.31579V5.05263C16.0137 3.71259 16.5465 2.42743 17.4949 1.47988C18.4432 0.532329 19.7295 0 21.0707 0C22.4119 0 23.6982 0.532329 24.6465 1.47988C25.5949 2.42743 26.1277 3.71259 26.1277 5.05263V19.9705C25.2936 20.1252 24.4475 20.2055 23.5992 20.2105V13.4737H10.9567V16.4404C10.1244 16.25 9.27938 16.1199 8.42826 16.0514V5.05263C8.42826 4.38261 8.16186 3.74003 7.68768 3.26626C7.21349 2.79248 6.57036 2.52632 5.89977 2.52632ZM0.29073 21.4602C0.0768184 21.2022 -0.0257728 20.87 0.00552309 20.5364C0.036819 20.2029 0.199439 19.8954 0.457611 19.6817L0.459296 19.68L0.460982 19.6792L0.464353 19.6766L0.472781 19.6699L0.493852 19.6522C0.587206 19.5783 0.683656 19.5083 0.782943 19.4425C1.04035 19.2699 1.30709 19.1117 1.58195 18.9684C2.52067 18.4845 3.52359 18.1366 4.56051 17.9352C7.16485 17.4131 10.8581 17.5478 15.4524 19.8838C19.6328 22.0084 23.3278 22.1137 25.9667 21.7061C27.0296 21.5433 28.0721 21.2681 29.0768 20.8851C29.4375 20.7453 29.7131 20.6198 29.8918 20.5331C29.9817 20.4887 30.0469 20.4556 30.0873 20.4337L30.1286 20.4118L30.1303 20.4101H30.132L30.1337 20.4093C30.4234 20.2525 30.7629 20.2149 31.0799 20.3045C31.3969 20.3941 31.6664 20.6038 31.831 20.889C31.9956 21.1742 32.0422 21.5123 31.961 21.8313C31.8798 22.1503 31.6772 22.4251 31.3962 22.5971L31.3945 22.5979L31.3903 22.6004L31.3819 22.6055L31.3575 22.6189C31.2405 22.6847 31.1213 22.7465 31.0001 22.8042C30.7624 22.9196 30.4228 23.0737 29.9904 23.2413C28.8161 23.6909 27.5968 24.0131 26.3536 24.2021C23.2772 24.6787 19.0302 24.5373 14.3062 22.1356C10.1999 20.048 7.08563 20.0051 5.05778 20.4118C4.0329 20.6173 3.25918 20.9423 2.75432 21.2067C2.52147 21.3289 2.29706 21.4665 2.08259 21.6185L2.0632 21.6328C1.80472 21.8435 1.47338 21.9436 1.14138 21.9113C0.809377 21.8789 0.503618 21.7168 0.29073 21.4602ZM0.29073 29.0392C0.0768184 28.7812 -0.0257728 28.4489 0.00552309 28.1154C0.036819 27.7818 0.199439 27.4744 0.457611 27.2606L0.459296 27.2589L0.460982 27.2581L0.464353 27.2547L0.472781 27.2488L0.493852 27.2312C0.587206 27.1572 0.683656 27.0873 0.782943 27.0215C1.04035 26.8489 1.30709 26.6906 1.58195 26.5474C2.52067 26.0634 3.52359 25.7155 4.56051 25.5141C7.16485 24.992 10.8581 25.1267 15.4524 27.4627C19.6328 29.5874 23.3278 29.6926 25.9667 29.2851C27.0296 29.1223 28.0721 28.847 29.0768 28.464C29.4375 28.3242 29.7131 28.1987 29.8918 28.112C29.9817 28.0671 30.0469 28.034 30.0873 28.0126L30.1286 27.9907L30.1303 27.9891H30.132L30.1337 27.9882C30.4234 27.8314 30.7629 27.7939 31.0799 27.8835C31.3969 27.9731 31.6664 28.1828 31.831 28.468C31.9956 28.7531 32.0422 29.0912 31.961 29.4103C31.8798 29.7293 31.6772 30.004 31.3962 30.176L31.3945 30.1768L31.3937 30.1777L31.3903 30.1794L31.3819 30.1844L31.3575 30.1979C31.2405 30.2637 31.1213 30.3255 31.0001 30.3832C30.7624 30.4985 30.4228 30.6526 29.9904 30.8202C28.8161 31.2699 27.5968 31.592 26.3536 31.7811C23.2772 32.2577 19.0302 32.1162 14.3062 29.7145C10.1999 27.6269 7.08563 27.584 5.05778 27.9907C4.0329 28.1962 3.25918 28.5213 2.75432 28.7857C2.52147 28.9078 2.29706 29.0454 2.08259 29.1975L2.0632 29.2118C1.80472 29.4225 1.47338 29.5225 1.14138 29.4902C0.809377 29.4579 0.503618 29.2957 0.29073 29.0392Z" fill="black"/>
</svg>
