<svg width="38" height="35" viewBox="0 0 38 35" fill="none" xmlns="http://www.w3.org/2000/svg">
<path d="M26.085 0C32.6652 7.18256e-05 37.9999 4.85888 38 10.8525C38 15.6585 34.5691 19.7313 29.8174 21.1582C29.5387 15.3896 24.3169 10.7911 17.915 10.791C16.6109 10.791 15.3561 10.9832 14.1816 11.3359C14.1739 11.1757 14.1699 11.0145 14.1699 10.8525C14.17 4.85883 19.5046 0 26.085 0Z" fill="#204678"/>
<path d="M30 21C30 22.8385 29.612 24.659 28.8582 26.3576C28.1044 28.0561 26.9995 29.5995 25.6066 30.8995C24.2137 32.1995 22.5601 33.2307 20.7403 33.9343C18.9204 34.6379 16.9698 35 15 35L15 21H30Z" fill="#204678"/>
</svg>
