<svg width="32" height="32" viewBox="0 0 32 32" fill="none" xmlns="http://www.w3.org/2000/svg">
<path d="M20.1446 6.16723V8.1158M20.1432 3.80294C20.1198 3.80294 20.0966 3.79832 20.0751 3.78932C20.0535 3.78033 20.0339 3.76716 20.0174 3.75056C20.0009 3.73395 19.9879 3.71426 19.9791 3.6926C19.9703 3.67094 19.9658 3.64775 19.966 3.62437C19.966 3.52437 20.046 3.4458 20.1432 3.4458M20.146 3.80294C20.1932 3.80257 20.2382 3.78359 20.2714 3.75014C20.3046 3.71669 20.3232 3.67149 20.3232 3.62437C20.3234 3.60099 20.3189 3.5778 20.3101 3.55614C20.3013 3.53449 20.2883 3.51479 20.2718 3.49819C20.2553 3.48159 20.2357 3.46841 20.2142 3.45942C20.1926 3.45043 20.1694 3.4458 20.146 3.4458M7.22461 18.3772H24.3775M8.84175 9.7558C8.84175 10.1196 8.9134 10.4798 9.05261 10.8158C9.19181 11.1519 9.39585 11.4573 9.65307 11.7145C9.91028 11.9717 10.2156 12.1757 10.5517 12.3149C10.8878 12.4542 11.248 12.5258 11.6118 12.5258C11.9755 12.5258 12.3357 12.4542 12.6718 12.3149C13.0079 12.1757 13.3132 11.9717 13.5704 11.7145C13.8277 11.4573 14.0317 11.1519 14.1709 10.8158C14.3101 10.4798 14.3818 10.1196 14.3818 9.7558C14.3818 9.39204 14.3101 9.03184 14.1709 8.69577C14.0317 8.3597 13.8277 8.05433 13.5704 7.79712C13.3132 7.5399 13.0079 7.33586 12.6718 7.19665C12.3357 7.05745 11.9755 6.9858 11.6118 6.9858C11.248 6.9858 10.8878 7.05745 10.5517 7.19665C10.2156 7.33586 9.91028 7.5399 9.65307 7.79712C9.39585 8.05433 9.19181 8.3597 9.05261 8.69577C8.9134 9.03184 8.84175 9.39204 8.84175 9.7558Z" stroke="black" stroke-linecap="round" stroke-linejoin="round"/>
<path d="M7.22168 18.3787V16.9158C7.22168 15.7517 7.68412 14.6353 8.50727 13.8121C9.33042 12.989 10.4469 12.5265 11.611 12.5265C12.7751 12.5265 13.8915 12.989 14.7147 13.8121C15.5378 14.6353 16.0003 15.7517 16.0003 16.9158V18.3787M16.5631 9.5944C17.3933 10.4067 18.4768 10.9099 19.6331 11.0199C20.7893 11.1299 21.9484 10.8402 22.9168 10.199C23.8853 9.5578 24.6046 8.60394 24.9549 7.49653C25.3051 6.38911 25.265 5.19509 24.8414 4.11363C24.4177 3.03218 23.6361 2.12868 22.6268 1.55385C21.6175 0.97901 20.4417 0.767595 19.2954 0.954865C18.1491 1.14214 17.1017 1.71677 16.3279 2.58291C15.554 3.44906 15.1006 4.55434 15.0431 5.7144" stroke="black" stroke-linecap="round" stroke-linejoin="round"/>
<mask id="path-3-inside-1_269_149" fill="white">
<rect y="19.4783" width="32" height="12.5217" rx="0.5"/>
</mask>
<rect y="19.4783" width="32" height="12.5217" rx="0.5" stroke="black" stroke-width="2" mask="url(#path-3-inside-1_269_149)"/>
<rect x="5" y="24" width="22" height="4" fill="black"/>
</svg>
