<svg width="32" height="32" viewBox="0 0 32 32" fill="none" xmlns="http://www.w3.org/2000/svg">
<path d="M28 8.88889V5.33333C28 2.4 26.2 0 24 0H18.6667C17.64 0 16.7067 0.533334 16 1.38667C15.2933 0.533334 14.36 0 13.3333 0H8C5.8 0 4 2.4 4 5.33333V8.88889C1.8 8.88889 0 11.2889 0 14.2222V23.1111C0 26.0444 1.8 28.4444 4 28.4444V32H6.66667V28.4444H25.3333V32H28V28.4444C30.2 28.4444 32 26.0444 32 23.1111V14.2222C32 11.2889 30.2 8.88889 28 8.88889ZM18.6667 3.55556H24C24.7333 3.55556 25.3333 4.35556 25.3333 5.33333V10.2756C24.52 11.2533 24 12.6578 24 14.2222V17.7778H17.3333V5.33333C17.3333 4.35556 17.9333 3.55556 18.6667 3.55556ZM6.66667 5.33333C6.66667 4.35556 7.26667 3.55556 8 3.55556H13.3333C14.0667 3.55556 14.6667 4.35556 14.6667 5.33333V17.7778H8V14.2222C8 12.6578 7.48 11.2533 6.66667 10.2756V5.33333ZM29.3333 23.1111C29.3333 24.0889 28.7333 24.8889 28 24.8889H4C3.26667 24.8889 2.66667 24.0889 2.66667 23.1111V14.2222C2.66667 13.2444 3.26667 12.4444 4 12.4444C4.73333 12.4444 5.33333 13.2444 5.33333 14.2222V21.3333H26.6667V14.2222C26.6667 13.2444 27.2667 12.4444 28 12.4444C28.7333 12.4444 29.3333 13.2444 29.3333 14.2222V23.1111Z" fill="black"/>
</svg>
