<svg width="32" height="32" viewBox="0 0 32 32" fill="none" xmlns="http://www.w3.org/2000/svg">
<path d="M29.0909 0H2.90909C1.30909 0 0 1.6 0 3.55556V24.8889C0 26.8444 1.30909 28.4444 2.90909 28.4444H10.1818V32H21.8182V28.4444H29.0909C30.6909 28.4444 31.9855 26.8444 31.9855 24.8889L32 3.55556C32 1.6 30.6909 0 29.0909 0ZM29.0909 24.8889H2.90909V3.55556H29.0909V24.8889ZM4.36364 19.5556V23.1111H7.27273C7.27273 21.1378 5.97818 19.5556 4.36364 19.5556ZM4.36364 14.2222V16.7644C7.22909 16.7644 9.55636 19.6089 9.55636 23.1111H11.6364C11.6364 18.2044 8.37818 14.2222 4.36364 14.2222ZM4.36364 8.88889V11.4667C9.61455 11.4667 13.8909 16.6756 13.8909 23.1111H16C16 15.2533 10.7782 8.88889 4.36364 8.88889Z" fill="black"/>
</svg>
