<svg width="32" height="28" viewBox="0 0 32 28" fill="none" xmlns="http://www.w3.org/2000/svg">
<path d="M4.10311 20.461H6.56356C6.44978 19.8357 6.17007 19.3037 5.72444 18.865C5.27881 18.4263 4.73837 18.151 4.10311 18.039V20.461ZM10.4142 20.461H11.9662C11.9662 18.3097 11.1994 16.4821 9.66578 14.9783C8.13215 13.4733 6.27733 12.7207 4.10133 12.7207V14.2485C5.85067 14.2485 7.33985 14.854 8.56889 16.065C9.79793 17.276 10.413 18.7413 10.4142 20.461ZM15.8151 20.461H17.3671C17.3671 18.6713 17.0216 16.9797 16.3307 15.386C15.6397 13.7947 14.6933 12.4063 13.4916 11.221C12.2898 10.0357 10.8806 9.10408 9.264 8.42625C7.64741 7.74842 5.92711 7.40833 4.10311 7.406V8.93375C7.35526 8.93375 10.1203 10.0561 12.3982 12.3008C14.6761 14.5454 15.8151 17.2643 15.8151 20.461ZM10.6667 28V24.5H0V0H32V24.5H21.3333V28H10.6667ZM1.77778 22.75H30.2222V1.75H1.77778V22.75Z" fill="black"/>
</svg>
