<svg width="34" height="34" viewBox="0 0 34 34" fill="none" xmlns="http://www.w3.org/2000/svg">
<path d="M29.3077 17.0139C30.3374 17.6182 31.2157 18.5068 31.8611 19.5973C32.5066 20.6878 32.8983 21.945 33 23.2524C33 28.6275 25.8369 33 17 33C8.16308 33 1 28.6553 1 23.2802C1.09772 21.968 1.48758 20.7051 2.13323 19.6093C2.77887 18.5136 3.65927 17.6207 4.69231 17.0139" stroke="black" stroke-width="2" stroke-linecap="round" stroke-linejoin="round"/>
<path d="M9.81277 3.78503C4.88969 10.7476 14.7358 13.5326 9.81277 20.4952M17.0005 1C12.0774 7.96258 21.9235 16.3177 17.0005 23.2802M24.1882 3.78503C19.2651 10.7476 29.1112 13.5326 24.1882 20.4952" stroke="black" stroke-width="2" stroke-linecap="round" stroke-linejoin="round"/>
</svg>
