<svg width="29" height="32" viewBox="0 0 29 32" fill="none" xmlns="http://www.w3.org/2000/svg">
<path d="M25.6 0H3.2C1.44 0 0 1.44 0 3.2V28.8C0 30.56 1.44 32 3.2 32H25.6C27.36 32 28.8 30.56 28.8 28.8V3.2C28.8 1.44 27.36 0 25.6 0ZM3.2 28.8V24.8C3.808 24.8 4.032 24.96 4.512 25.296C5.168 25.76 6.048 26.4 7.68 26.4C9.312 26.4 10.208 25.76 10.848 25.296C11.328 24.96 11.552 24.8 12.16 24.8C12.768 24.8 12.992 24.96 13.472 25.296C14.128 25.76 15.008 26.4 16.64 26.4C18.272 26.4 19.168 25.76 19.808 25.296C20.288 24.944 20.512 24.8 21.12 24.8C21.728 24.8 21.952 24.96 22.432 25.296C23.088 25.76 23.968 26.4 25.6 26.4V23.2C24.992 23.2 24.768 23.04 24.288 22.704C23.632 22.24 22.752 21.6 21.12 21.6C19.488 21.6 18.592 22.24 17.952 22.704C17.472 23.056 17.248 23.2 16.64 23.2C16.032 23.2 15.808 23.04 15.328 22.704C14.672 22.24 13.792 21.6 12.16 21.6C10.528 21.6 9.632 22.24 8.992 22.704C8.512 23.04 8.288 23.2 7.68 23.2C7.072 23.2 6.848 23.04 6.368 22.704C5.712 22.24 4.832 21.6 3.2 21.6V18.4C3.808 18.4 4.032 18.56 4.512 18.896C5.168 19.36 6.048 20 7.68 20C9.312 20 10.208 19.36 10.848 18.896C11.328 18.56 11.552 18.4 12.16 18.4C12.768 18.4 12.992 18.56 13.472 18.896C14.128 19.36 15.008 20 16.64 20C18.272 20 19.168 19.36 19.808 18.896C20.288 18.544 20.512 18.4 21.12 18.4C21.728 18.4 21.952 18.56 22.432 18.896C23.088 19.36 23.968 20 25.6 20V16.8C24.992 16.8 24.768 16.64 24.288 16.304C23.632 15.84 22.752 15.2 21.12 15.2C19.488 15.2 18.592 15.84 17.952 16.304C17.472 16.656 17.248 16.8 16.64 16.8C16.032 16.8 15.808 16.64 15.328 16.304C14.672 15.84 13.792 15.2 12.16 15.2C10.528 15.2 9.632 15.84 8.992 16.304C8.512 16.656 8.288 16.8 7.68 16.8C7.072 16.8 6.848 16.64 6.368 16.304C5.712 15.84 4.832 15.2 3.2 15.2V3.2H25.6V28.8H3.2Z" fill="black"/>
<path d="M8.80039 6.3999C8.16387 6.3999 7.55342 6.65276 7.10333 7.10285C6.65325 7.55293 6.40039 8.16338 6.40039 8.7999C6.40039 9.43642 6.65325 10.0469 7.10333 10.497C7.55342 10.947 8.16387 11.1999 8.80039 11.1999C9.43691 11.1999 10.0474 10.947 10.4974 10.497C10.9475 10.0469 11.2004 9.43642 11.2004 8.7999C11.2004 8.16338 10.9475 7.55293 10.4974 7.10285C10.0474 6.65276 9.43691 6.3999 8.80039 6.3999Z" fill="black"/>
</svg>
