<svg width="32" height="32" viewBox="0 0 32 32" fill="none" xmlns="http://www.w3.org/2000/svg">
<path d="M6.00007 11C6.00007 12.5426 6.61286 14.022 7.70363 15.1128C8.79441 16.2036 10.2738 16.8163 11.8164 16.8163" stroke="#204678" stroke-linecap="round" stroke-linejoin="round"/>
<path d="M11.8977 0C8.84807 0 5.79816 1.15936 3.4788 3.47841C-1.1596 8.11713 -1.1596 15.6778 3.4788 20.3162C7.82087 24.658 14.7105 24.9133 19.3783 21.1248L20.5226 22.2695C20.4579 22.5022 20.4428 22.7261 20.4785 22.9257C20.5142 23.1253 20.5998 23.2959 20.7293 23.4256L29.0337 31.73C29.2711 31.9673 29.6408 32.0529 30.0615 31.968C30.4822 31.883 30.9193 31.6344 31.2769 31.2769C31.6344 30.9193 31.883 30.4821 31.968 30.0615C32.0529 29.6408 31.9673 29.2711 31.73 29.0336L23.426 20.7293C23.2962 20.5996 23.1255 20.514 22.9257 20.4783C22.7259 20.4426 22.5018 20.4577 22.2689 20.5226L21.1245 19.378C24.913 14.7101 24.6583 7.82049 20.3162 3.47873C17.9972 1.15904 14.9473 0 11.8977 0ZM11.8977 2.62944C14.2647 2.62944 16.6321 3.53633 18.4458 5.34977C19.3081 6.2083 19.9923 7.22869 20.4592 8.35235C20.926 9.47602 21.1664 10.6808 21.1664 11.8976C21.1664 13.1144 20.926 14.3192 20.4592 15.4429C19.9923 16.5666 19.3081 17.5869 18.4458 18.4455C17.5873 19.3077 16.5669 19.9919 15.4432 20.4588C14.3196 20.9257 13.1148 21.166 11.898 21.166C10.6812 21.166 9.47639 20.9257 8.35273 20.4588C7.22907 19.9919 6.20869 19.3077 5.35016 18.4455C4.48789 17.5869 3.80368 16.5666 3.33682 15.4429C2.86995 14.3192 2.62962 13.1144 2.62962 11.8976C2.62962 10.6808 2.86995 9.47602 3.33682 8.35235C3.80368 7.22869 4.48789 6.2083 5.35016 5.34977C7.16359 3.53633 9.53095 2.62944 11.8977 2.62944Z" fill="#083353"/>
</svg>
