<svg width="32" height="32" viewBox="0 0 32 32" fill="none" xmlns="http://www.w3.org/2000/svg">
<path d="M16 0L0 5.81818V14.5455C0 22.6182 6.82667 30.1673 16 32C25.1733 30.1673 32 22.6182 32 14.5455V5.81818L16 0ZM16 3.17091L28.4444 7.70909V14.8655C28.4444 17.3382 27.5556 19.8545 26.0444 22.0655C23.1111 20.2764 18.24 19.6364 16 19.6364C13.76 19.6364 8.88889 20.2764 5.95556 22.0655C4.44444 19.8545 3.55556 17.3382 3.55556 14.8655V7.70909L16 3.17091ZM16 7.27273C14.3498 7.27273 12.7671 7.80909 11.6002 8.76382C10.4333 9.71855 9.77778 11.0134 9.77778 12.3636C9.77778 13.7138 10.4333 15.0087 11.6002 15.9635C12.7671 16.9182 14.3498 17.4545 16 17.4545C17.6502 17.4545 19.2329 16.9182 20.3998 15.9635C21.5667 15.0087 22.2222 13.7138 22.2222 12.3636C22.2222 11.0134 21.5667 9.71855 20.3998 8.76382C19.2329 7.80909 17.6502 7.27273 16 7.27273ZM16 10.1818C16.7072 10.1818 17.3855 10.4117 17.8856 10.8209C18.3857 11.23 18.6667 11.785 18.6667 12.3636C18.6667 12.9423 18.3857 13.4972 17.8856 13.9064C17.3855 14.3156 16.7072 14.5455 16 14.5455C15.2928 14.5455 14.6145 14.3156 14.1144 13.9064C13.6143 13.4972 13.3333 12.9423 13.3333 12.3636C13.3333 11.785 13.6143 11.23 14.1144 10.8209C14.6145 10.4117 15.2928 10.1818 16 10.1818ZM16 22.5455C18.7911 22.5455 22.4711 23.4327 24.0533 24.4945C21.8489 26.7345 19.0222 28.4364 16 29.0909C12.9778 28.4364 10.1511 26.7345 7.94667 24.4945C9.54667 23.4327 13.2089 22.5455 16 22.5455Z" fill="black"/>
</svg>
