<svg width="32" height="32" viewBox="0 0 32 32" fill="none" xmlns="http://www.w3.org/2000/svg">
<path d="M16.0013 6.2347C16.3549 6.2347 16.6941 6.09429 16.9441 5.84437C17.1942 5.59444 17.3346 5.25547 17.3346 4.90202C17.3346 4.54857 17.1942 4.2096 16.9441 3.95967C16.6941 3.70974 16.3549 3.56934 16.0013 3.56934C15.6477 3.56934 15.3085 3.70974 15.0585 3.95967C14.8084 4.2096 14.668 4.54857 14.668 4.90202C14.668 5.25547 14.8084 5.59444 15.0585 5.84437C15.3085 6.09429 15.6477 6.2347 16.0013 6.2347Z" fill="black"/>
<path fill-rule="evenodd" clip-rule="evenodd" d="M15.8377 0.0302078L15.8306 0.0319846L15.8102 0.0355382L15.7364 0.0497537L15.4609 0.104838C15.2244 0.152814 14.8875 0.223891 14.4849 0.315402C13.6804 0.498423 12.6004 0.765849 11.516 1.1008C10.4422 1.43219 9.31775 1.84443 8.44575 2.32686C8.01197 2.56675 7.59597 2.84839 7.27864 3.17978C6.96308 3.50762 6.66797 3.96695 6.66797 4.54356C6.66797 6.09391 7.10352 7.22936 7.56397 7.99077C7.79064 8.36569 8.02086 8.64556 8.20219 8.83746C8.20989 8.93993 8.2256 9.05365 8.2493 9.17863C8.33908 9.64596 8.56397 10.2412 9.07952 10.8196C8.83402 11.8629 8.82775 12.9481 9.06118 13.9942C9.2946 15.0402 9.76167 16.02 10.4274 16.8601C11.0932 17.7002 11.9405 18.379 12.9058 18.8456C13.8711 19.3122 14.9295 19.5546 16.0017 19.5546C17.074 19.5546 18.1324 19.3122 19.0977 18.8456C20.063 18.379 20.9103 17.7002 21.576 16.8601C22.2418 16.02 22.7089 15.0402 22.9423 13.9942C23.1757 12.9481 23.1695 11.8629 22.924 10.8196C23.4386 10.2412 23.6635 9.64684 23.7533 9.17863C23.777 9.05424 23.7927 8.94052 23.8004 8.83746C24.0427 8.57875 24.2567 8.29491 24.4386 7.99077C24.9 7.22936 25.3346 6.09391 25.3346 4.54356C25.3346 3.96695 25.0395 3.50762 24.724 3.17978C24.4066 2.84839 23.9906 2.56675 23.5569 2.32686C22.6849 1.84443 21.5604 1.43219 20.4857 1.1008C19.5064 0.802739 18.5164 0.540764 17.5177 0.315402C17.1018 0.220675 16.6846 0.131821 16.2662 0.0488653L16.1924 0.0355382L16.172 0.0319846L16.1649 0.0302078L16.0013 0L15.8377 0.0302078ZM16.0013 11.1208C17.9631 11.1208 19.2804 10.8667 20.1613 10.5362C20.9071 10.2563 21.3417 9.92227 21.5924 9.64063C21.6831 9.53816 21.7566 9.43924 21.8129 9.34388H10.1897C10.246 9.43984 10.3192 9.53875 10.4093 9.64063C10.6617 9.92227 11.0955 10.2563 11.8404 10.5362C12.7222 10.8667 14.0395 11.1208 16.0013 11.1208ZM22.5542 7.56697H9.44841C9.312 7.41343 9.19029 7.24745 9.08486 7.07121C8.77997 6.56746 8.4493 5.75275 8.44575 4.56222C8.47614 4.50562 8.51512 4.45407 8.5613 4.4094C8.7053 4.25925 8.94886 4.0789 9.30708 3.88166C10.0182 3.48808 11.0049 3.11848 12.0413 2.79775C12.9776 2.51348 13.924 2.26366 14.8786 2.04878C15.2518 1.96389 15.626 1.88392 16.0013 1.80889L16.1862 1.84532C16.412 1.89152 16.7355 1.96082 17.124 2.04878C17.9026 2.22558 18.9346 2.48146 19.9613 2.79863C20.9977 3.11848 21.9844 3.48808 22.6955 3.88166C23.0537 4.0789 23.2973 4.25925 23.4422 4.4094C23.5222 4.49381 23.5489 4.54356 23.5569 4.56222C23.5533 5.75275 23.2226 6.56746 22.9169 7.07121C22.8117 7.24742 22.6903 7.41339 22.5542 7.56697ZM10.668 12.4535C10.668 12.2936 10.6748 12.1354 10.6884 11.979C11.8777 12.5361 13.5809 12.8977 16.0013 12.8977C18.0857 12.8977 19.636 12.6312 20.7853 12.2003C20.972 12.131 21.1483 12.0569 21.3142 11.9782C21.3278 12.1351 21.3346 12.2936 21.3346 12.4535C21.3346 13.8673 20.7727 15.2232 19.7725 16.2229C18.7723 17.2226 17.4158 17.7842 16.0013 17.7842C14.5868 17.7842 13.2303 17.2226 12.2301 16.2229C11.2299 15.2232 10.668 13.8673 10.668 12.4535Z" fill="black"/>
<path d="M24.0004 24.8923C24.5933 25.4849 25.7782 26.0766 25.7782 26.0766C25.7782 26.0766 25.1578 28.4462 24.0004 28.4462C22.8431 28.4462 22.2227 26.0766 22.2227 26.0766C22.2227 26.0766 23.4075 25.4849 24.0004 24.8923Z" fill="black"/>
<path fill-rule="evenodd" clip-rule="evenodd" d="M12.8889 22.2271C12.8889 21.7558 13.0762 21.3039 13.4096 20.9706C13.743 20.6374 14.1952 20.4502 14.6667 20.4502H17.3333C17.8048 20.4502 18.257 20.6374 18.5904 20.9706C18.9238 21.3039 19.1111 21.7558 19.1111 22.2271V23.455C19.1111 23.7443 19.0404 24.0292 18.9051 24.285C18.7699 24.5407 18.5742 24.7597 18.3351 24.9227L18.4356 25.4255L21.4862 21.7234C21.589 21.5985 21.724 21.504 21.8766 21.4502C22.0291 21.3963 22.1935 21.3851 22.352 21.4177C24.6311 21.8904 26.9627 22.6065 28.7476 23.5891C30.4738 24.5398 32 25.9195 32 27.8226V31.1117C32 31.3473 31.9064 31.5733 31.7397 31.7399C31.573 31.9065 31.3469 32.0001 31.1111 32.0001H0.888889C0.653141 32.0001 0.427049 31.9065 0.26035 31.7399C0.0936507 31.5733 0 31.3473 0 31.1117V27.8226C0 25.9302 1.55556 24.5593 3.28178 23.6166C5.07378 22.6367 7.40622 21.9153 9.65778 21.4364C9.81698 21.4026 9.9824 21.4132 10.136 21.4669C10.2896 21.5206 10.4255 21.6155 10.5289 21.7411L13.5778 25.4424L13.6738 24.9289C13.432 24.7662 13.234 24.5466 13.0971 24.2894C12.9603 24.0322 12.8887 23.7454 12.8889 23.4541V22.2271ZM16.4622 24.6224L16.9769 27.1962L16 28.3814L15.0542 27.2335L15.5404 24.6099C15.5757 24.4204 15.5482 24.2245 15.4623 24.0519C15.3763 23.8793 15.2365 23.7393 15.064 23.6531L14.6667 23.455V22.2271H17.3333V23.455L16.936 23.654C16.7616 23.741 16.6206 23.883 16.5349 24.058C16.4491 24.233 16.4233 24.4313 16.4613 24.6224M16.7849 30.2232L22.5129 23.271C24.5218 23.7206 26.448 24.3523 27.8889 25.1457C29.5147 26.0404 30.2222 26.9652 30.2222 27.8226V30.2232H16.7849ZM9.50133 23.2906L15.2142 30.2232H1.77778V27.8226C1.77778 26.9928 2.48889 26.075 4.13422 25.175C5.58578 24.3816 7.51556 23.7464 9.50311 23.2906" fill="black"/>
</svg>
