<svg width="32" height="32" viewBox="0 0 32 32" fill="none" xmlns="http://www.w3.org/2000/svg">
<path d="M8.57129 14.8536C8.91034 14.8536 9.24178 14.9541 9.5237 15.1425C9.80561 15.3309 10.0253 15.5986 10.1551 15.9118C10.2848 16.2251 10.3188 16.5698 10.2526 16.9023C10.1865 17.2348 10.0232 17.5403 9.78347 17.7801C9.54373 18.0198 9.23827 18.1831 8.90573 18.2492C8.57319 18.3154 8.22851 18.2814 7.91526 18.1517C7.60202 18.0219 7.33428 17.8022 7.14591 17.5203C6.95755 17.2384 6.85701 16.9069 6.85701 16.5679C6.85701 16.1132 7.03762 15.6772 7.35911 15.3557C7.6806 15.0342 8.11663 14.8536 8.57129 14.8536ZM8.57129 12.5679C7.78017 12.5679 7.00681 12.8025 6.34901 13.242C5.69121 13.6815 5.17852 14.3062 4.87577 15.0371C4.57302 15.768 4.49381 16.5723 4.64815 17.3482C4.80249 18.1242 5.18345 18.8369 5.74286 19.3963C6.30227 19.9557 7.01501 20.3367 7.79093 20.491C8.56685 20.6454 9.37112 20.5661 10.102 20.2634C10.8329 19.9606 11.4576 19.4479 11.8972 18.7902C12.3367 18.1324 12.5713 17.359 12.5713 16.5679C12.5713 15.507 12.1499 14.4896 11.3997 13.7394C10.6496 12.9893 9.63216 12.5679 8.57129 12.5679Z" fill="black"/>
<path d="M26.2857 13.7112H17.1429C16.5366 13.7112 15.9553 13.9521 15.5266 14.3807C15.098 14.8094 14.8571 15.3907 14.8571 15.997V22.8541H2.28571V9.82552L16 2.44267L30.32 10.1455L31.3943 8.1341L16.5371 0.134095C16.3718 0.0460494 16.1873 0 16 0C15.8127 0 15.6282 0.0460494 15.4629 0.134095L0.605714 8.1341C0.423224 8.23127 0.270511 8.37612 0.163844 8.55323C0.0571773 8.73034 0.000551669 8.93306 0 9.13981V31.997H2.28571V25.1398H29.7143V31.997H32V19.4255C32 17.91 31.398 16.4565 30.3263 15.3849C29.2547 14.3133 27.8012 13.7112 26.2857 13.7112ZM17.1429 22.8541V15.997H26.2857C27.195 15.997 28.0671 16.3582 28.7101 17.0012C29.3531 17.6441 29.7143 18.5162 29.7143 19.4255V22.8541H17.1429Z" fill="black"/>
</svg>
