<svg width="34" height="33" viewBox="0 0 34 33" fill="none" xmlns="http://www.w3.org/2000/svg">
<path d="M17 0V10.1818C17 12.592 14.6053 14.5455 11.672 14.5455H6.328C4.91444 14.5443 3.55925 14.084 2.56021 13.2658C1.56117 12.4476 0.999999 11.3384 1 10.1818V0M6.33333 8.72727V0M11.6667 8.72727V0M6.33333 14.5455V29.824C6.33333 31.0255 7.51733 32 9 32C10.472 32 11.6667 31.0109 11.6667 29.824V14.5455M22.3333 24.7273V29.8182C22.3339 30.1047 22.4035 30.3883 22.538 30.6529C22.6726 30.9174 22.8695 31.1576 23.1175 31.3599C23.3656 31.5622 23.6599 31.7225 23.9836 31.8317C24.3074 31.9409 24.6543 31.9968 25.0044 31.9964C25.3546 31.9959 25.7013 31.939 26.0246 31.8289C26.3479 31.7188 26.6416 31.5577 26.8888 31.3548C27.136 31.1518 27.3319 30.911 27.4654 30.6461C27.5989 30.3812 27.6673 30.0974 27.6667 29.8109V20.3636C27.6667 20.3636 33 20.3636 33 16V8.72727C33 4.36364 29.4444 1.45455 22.3333 1.45455V24.7273Z" stroke="black" stroke-width="2"/>
</svg>
