<svg width="32" height="32" viewBox="0 0 32 32" fill="none" xmlns="http://www.w3.org/2000/svg">
<path fill-rule="evenodd" clip-rule="evenodd" d="M23.4392 2.46154C23.0972 2.46154 22.7587 2.53582 22.4428 2.68014C22.1269 2.82446 21.8398 3.036 21.5981 3.30267C21.3563 3.56934 21.1645 3.88592 21.0337 4.23435C20.9028 4.58277 20.8355 4.9562 20.8355 5.33333C20.8355 5.71046 20.9028 6.0839 21.0337 6.43232C21.1645 6.78074 21.3563 7.09733 21.5981 7.364C21.8398 7.63067 22.1269 7.84221 22.4428 7.98653C22.7587 8.13085 23.0972 8.20513 23.4392 8.20513C24.1297 8.20513 24.792 7.90257 25.2803 7.364C25.7686 6.82543 26.0429 6.09498 26.0429 5.33333C26.0429 4.57169 25.7686 3.84123 25.2803 3.30267C24.792 2.7641 24.1297 2.46154 23.4392 2.46154ZM18.6037 5.33333C18.6037 3.91885 19.1132 2.56229 20.02 1.5621C20.9268 0.561903 22.1567 0 23.4392 0C24.7216 0 25.9515 0.561903 26.8584 1.5621C27.7652 2.56229 28.2746 3.91885 28.2746 5.33333C28.2746 6.74782 27.7652 8.10438 26.8584 9.10457C25.9515 10.1048 24.7216 10.6667 23.4392 10.6667C22.1567 10.6667 20.9268 10.1048 20.02 9.10457C19.1132 8.10438 18.6037 6.74782 18.6037 5.33333ZM10.7033 3.90564C10.5295 3.6852 10.2834 3.54994 10.0192 3.52963C9.75493 3.50932 9.4942 3.60562 9.29434 3.79733C9.09447 3.98905 8.97184 4.26049 8.95343 4.55193C8.93501 4.84337 9.02232 5.13094 9.19614 5.35139L10.6661 7.24185C10.9832 7.64976 11.2157 8.12907 11.3474 8.64632C11.4792 9.16358 11.507 9.70632 11.4289 10.2367C11.3509 10.767 11.1688 11.2722 10.8955 11.7169C10.6221 12.1616 10.2641 12.5352 9.84632 12.8115L4.67313 16.2347C4.54745 16.3198 4.40772 16.3765 4.26203 16.4017C4.11634 16.4269 3.96757 16.4199 3.82433 16.3813C3.68108 16.3427 3.54619 16.2731 3.42747 16.1766C3.30875 16.0801 3.20854 15.9587 3.13264 15.8192C3.05674 15.6798 3.00665 15.5251 2.98527 15.3642C2.9639 15.2032 2.97165 15.0392 3.00809 14.8816C3.04453 14.724 3.10893 14.5759 3.19758 14.4459C3.28622 14.316 3.39734 14.2066 3.52452 14.1243L8.69623 10.6995C8.83544 10.6074 8.95476 10.4829 9.04587 10.3348C9.13698 10.1866 9.19769 10.0183 9.22375 9.84158C9.24982 9.66487 9.24061 9.48402 9.19678 9.31163C9.15296 9.13925 9.07556 8.97948 8.96999 8.84349L7.50001 6.95139C6.95255 6.23632 6.68219 5.31237 6.74736 4.37923C6.81252 3.44609 7.20798 2.57871 7.84826 1.96455C8.48854 1.3504 9.32222 1.03879 10.1691 1.09709C11.016 1.15539 11.8081 1.5789 12.3742 2.2761L22.0451 14.3639C22.144 14.4848 22.2202 14.6261 22.2693 14.7797C22.3184 14.9333 22.3393 15.0961 22.3309 15.2586C22.3225 15.4212 22.285 15.5804 22.2204 15.7268C22.1559 15.8733 22.0656 16.0041 21.9549 16.1118C21.8441 16.2195 21.7151 16.3019 21.5753 16.3542C21.4355 16.4066 21.2876 16.4277 21.1403 16.4166C20.993 16.4054 20.8492 16.3621 20.7172 16.2892C20.5852 16.2163 20.4676 16.1152 20.3713 15.9918L10.7033 3.90564ZM4.9454 17.4211C5.96754 15.6587 8.15466 15.7161 9.24226 17.2505C10.7152 19.3296 12.7714 21.3333 16 21.3333C19.2866 21.3333 21.3116 19.7268 22.7027 17.6738C23.7739 16.0968 26.1039 15.8375 27.2257 17.7132C28.1571 19.264 29.1658 20.4816 31.1342 20.992C31.2775 21.0284 31.4129 21.0956 31.5326 21.1898C31.6522 21.2841 31.7538 21.4035 31.8315 21.5412C31.9092 21.6789 31.9615 21.8321 31.9853 21.9922C32.0091 22.1522 32.004 22.3159 31.9703 22.4737C31.9365 22.6316 31.8749 22.7805 31.7888 22.912C31.7027 23.0435 31.5939 23.1549 31.4686 23.2399C31.3434 23.3248 31.2042 23.3816 31.0589 23.407C30.9137 23.4324 30.7654 23.4259 30.6224 23.3879C27.867 22.6724 26.4461 20.8722 25.3644 19.0704C25.3243 19.0016 25.2683 18.9458 25.2021 18.9089C25.1359 18.872 25.062 18.8552 24.988 18.8603C24.8905 18.8633 24.7948 18.8909 24.7084 18.941C24.622 18.9911 24.5472 19.0622 24.4896 19.1491C22.7548 21.7108 20.1064 23.7949 16 23.7949C11.7716 23.7949 9.1396 21.1036 7.48364 18.7651C7.44197 18.7011 7.38698 18.6491 7.32329 18.6134C7.2596 18.5777 7.18907 18.5594 7.11764 18.56C7.05852 18.5607 7.00058 18.5784 6.94947 18.6112C6.89837 18.6439 6.85583 18.6908 6.82602 18.7471C5.72502 20.6441 4.30414 22.6281 1.37757 23.3879C1.23464 23.4259 1.08629 23.4324 0.941067 23.407C0.795843 23.3816 0.656604 23.3248 0.531351 23.2399C0.406099 23.1549 0.297305 23.0435 0.211221 22.912C0.125138 22.7805 0.0634628 22.6316 0.0297412 22.4737C-0.00398032 22.3159 -0.00908341 22.1522 0.0147253 21.9922C0.038534 21.8321 0.0907851 21.6789 0.168475 21.5412C0.246165 21.4035 0.347762 21.2841 0.467426 21.1898C0.58709 21.0956 0.722462 21.0284 0.86576 20.992C2.95021 20.4505 3.96045 19.1212 4.9454 17.4211ZM4.9454 25.6263C5.96754 23.8638 8.15466 23.9212 9.24226 25.4556C10.7152 27.5348 12.7714 29.5385 16 29.5385C19.2866 29.5385 21.3116 27.9319 22.7027 25.879C23.7739 24.3003 26.1039 24.0427 27.2257 25.9184C28.1571 27.4691 29.1658 28.6868 31.1342 29.1971C31.2775 29.2335 31.4129 29.3007 31.5326 29.395C31.6522 29.4892 31.7538 29.6086 31.8315 29.7463C31.9092 29.884 31.9615 30.0373 31.9853 30.1973C32.0091 30.3573 32.004 30.521 31.9703 30.6788C31.9365 30.8367 31.8749 30.9857 31.7888 31.1171C31.7027 31.2486 31.5939 31.36 31.4686 31.445C31.3434 31.5299 31.2042 31.5867 31.0589 31.6122C30.9137 31.6376 30.7654 31.6311 30.6224 31.593C27.867 30.8775 26.4461 29.0773 25.3644 27.2755C25.3243 27.2067 25.2683 27.1509 25.2021 27.114C25.1359 27.0771 25.062 27.0603 24.988 27.0654C24.8903 27.0687 24.7946 27.0965 24.7082 27.1469C24.6218 27.1972 24.547 27.2687 24.4896 27.3559C22.7548 29.9159 20.1064 32 16 32C11.7716 32 9.1396 29.3087 7.48364 26.9703C7.44197 26.9063 7.38698 26.8542 7.32329 26.8185C7.2596 26.7828 7.18907 26.7645 7.11764 26.7651C7.05852 26.7659 7.00058 26.7835 6.94947 26.8163C6.89837 26.8491 6.85583 26.8959 6.82602 26.9522C5.72502 28.8492 4.30414 30.8332 1.37757 31.593C1.23464 31.6311 1.08629 31.6376 0.941067 31.6122C0.795843 31.5867 0.656604 31.5299 0.531351 31.445C0.406099 31.36 0.297305 31.2486 0.211221 31.1171C0.125138 30.9857 0.0634628 30.8367 0.0297412 30.6788C-0.00398032 30.521 -0.00908341 30.3573 0.0147253 30.1973C0.038534 30.0373 0.0907851 29.884 0.168475 29.7463C0.246165 29.6086 0.347762 29.4892 0.467426 29.395C0.58709 29.3007 0.722462 29.2335 0.86576 29.1971C2.95021 28.6556 3.96045 27.3264 4.9454 25.6263Z" fill="black"/>
</svg>
