<svg width="34" height="33" viewBox="0 0 34 33" fill="none" xmlns="http://www.w3.org/2000/svg">
<path d="M2.98926 19.1628C9.58731 19.2614 15.0282 24.7031 15.5384 31.7154M2.98926 23.4863C7.16915 23.584 10.6407 27.1005 11.1147 31.7154M2.98926 27.8287C4.78645 27.9282 6.30428 29.5239 6.68742 31.7154M30.3363 14.3386V29.2229C30.3371 29.5131 30.2805 29.8006 30.1699 30.0689C30.0592 30.3372 29.8966 30.581 29.6914 30.7863C29.4862 30.9915 29.2425 31.1542 28.9743 31.265C28.706 31.3758 28.4185 31.4324 28.1283 31.4318H18.5681" stroke="black" stroke-width="1.5" stroke-linecap="round" stroke-linejoin="round"/>
<path d="M0.75 16.7517L16.75 0.75L23.1811 7.18285V2.37594H27.6741V11.6741L32.75 16.7517" stroke="black" stroke-width="1.5" stroke-linecap="round" stroke-linejoin="round"/>
</svg>
