<svg width="32" height="32" viewBox="0 0 32 32" fill="none" xmlns="http://www.w3.org/2000/svg">
<path d="M16 32C14.0533 31.76 12.12 31.2336 10.2 30.4208C8.28 29.608 6.56694 28.4411 5.0608 26.92C3.55467 25.3989 2.3344 23.4789 1.4 21.16C0.465602 18.8411 -0.00106484 16.0544 1.8244e-06 12.8V11.2H1.6C2.96 11.2 4.36 11.3733 5.8 11.72C7.24 12.0667 8.58667 12.5867 9.84 13.28C10.16 10.9867 10.8869 8.63307 12.0208 6.2192C13.1547 3.80533 14.4811 1.73227 16 0C17.52 1.73333 18.8469 3.80693 19.9808 6.2208C21.1147 8.63467 21.8411 10.9877 22.16 13.28C23.4133 12.5867 24.76 12.0667 26.2 11.72C27.64 11.3733 29.04 11.2 30.4 11.2H32V12.8C32 16.0533 31.5333 18.84 30.6 21.16C29.6667 23.48 28.4469 25.4 26.9408 26.92C25.4347 28.44 23.728 29.6069 21.8208 30.4208C19.9136 31.2347 17.9733 31.7611 16 32ZM15.92 28.72C15.6267 24.2933 14.3131 20.9467 11.9792 18.68C9.64534 16.4133 6.7456 15.0133 3.28 14.48C3.57334 19.04 4.92693 22.44 7.3408 24.68C9.75467 26.92 12.6144 28.2667 15.92 28.72ZM16 18.56C16.4 17.9733 16.8869 17.3669 17.4608 16.7408C18.0347 16.1147 18.5877 15.5744 19.12 15.12C19.0667 13.6 18.7669 12.0133 18.2208 10.36C17.6747 8.70667 16.9344 7.09333 16 5.52C15.0667 7.09333 14.3264 8.70667 13.7792 10.36C13.232 12.0133 12.9323 13.6 12.88 15.12C13.4133 15.5733 13.9733 16.1136 14.56 16.7408C15.1467 17.368 15.6267 17.9744 16 18.56ZM19.12 28C20.1067 27.68 21.1333 27.2133 22.2 26.6C23.2667 25.9867 24.2603 25.1536 25.1808 24.1008C26.1013 23.048 26.888 21.7344 27.5408 20.16C28.1936 18.5856 28.5867 16.6923 28.72 14.48C26.2133 14.8533 24.0133 15.6869 22.12 16.9808C20.2267 18.2747 18.7733 19.9211 17.76 21.92C18.08 22.7733 18.3536 23.7067 18.5808 24.72C18.808 25.7333 18.9877 26.8267 19.12 28Z" fill="black"/>
</svg>
