<svg width="32" height="32" viewBox="0 0 32 32" fill="none" xmlns="http://www.w3.org/2000/svg">
<path d="M27.5556 21.8182C30.0444 21.8182 32 23.4182 32 25.4545C32 27.4909 30.0444 29.0909 27.5556 29.0909C25.0667 29.0909 23.1111 27.4909 23.1111 25.4545C23.1111 23.4182 25.0667 21.8182 27.5556 21.8182ZM13.3333 0C0 0 0 3.92727 0 12.8C0 17.7455 6.04444 23.1273 10.6667 24.8727V32H16V24.8727C20.6222 23.1273 26.6667 17.7455 26.6667 12.8C26.6667 3.78182 26.6667 0 13.3333 0ZM22.0444 4.65455C22.5778 5.23636 22.7556 6.10909 22.9333 7.27273H21.3333V4.07273C21.6889 4.21818 21.8667 4.50909 22.0444 4.65455ZM23.1111 12.8V13.0909H21.3333V8.72727H23.1111V12.8ZM19.5556 18.9091H14.2222V14.5455H19.5556V18.9091ZM7.11111 18.9091V14.5455H12.4444V18.9091H7.11111ZM3.55556 12.8V8.72727H5.33333V13.0909H3.55556V12.8ZM7.11111 8.72727H12.4444V13.0909H7.11111V8.72727ZM14.2222 2.90909C16.7111 2.90909 18.4889 3.2 19.5556 3.34545V7.27273H14.2222V2.90909ZM12.4444 7.27273H7.11111V3.49091C8.17778 3.2 9.95556 2.90909 12.4444 2.90909V7.27273ZM14.2222 13.0909V8.72727H19.5556V13.0909H14.2222ZM5.33333 4.07273V7.27273H3.73333C3.91111 6.10909 4.08889 5.23636 4.62222 4.65455L5.33333 4.07273ZM3.91111 14.5455H5.33333V17.0182C4.8 16.1455 4.26667 15.4182 3.91111 14.5455ZM8.88889 20.3636H12.4444V22.2545L12.0889 22.1091C11.0222 21.8182 9.95556 21.0909 8.88889 20.3636ZM14.5778 22.2545H14.2222V20.3636H17.7778C16.7111 21.0909 15.6444 21.8182 14.5778 22.2545ZM21.3333 17.0182V14.5455H22.7556C22.4 15.2727 21.8667 16.1455 21.3333 17.0182Z" fill="black"/>
</svg>
