<svg width="32" height="32" viewBox="0 0 32 32" fill="none" xmlns="http://www.w3.org/2000/svg">
<path d="M9.03572 2.28571L2.28571 10V29.7143H29.7143V10L22.9643 2.28571H9.03572ZM8.51786 0H23.4821C23.6445 0.000294724 23.8049 0.0351646 23.9527 0.102288C24.1005 0.169412 24.2323 0.267249 24.3393 0.389286L31.7179 8.81786C31.9001 9.02654 32.0004 9.29434 32 9.57143V30.8571C32 31.1602 31.8796 31.4509 31.6653 31.6653C31.4509 31.8796 31.1602 32 30.8571 32H1.14286C0.839753 32 0.549062 31.8796 0.334735 31.6653C0.120408 31.4509 0 31.1602 0 30.8571V9.57143C0.00143776 9.29511 0.102939 9.02867 0.285714 8.82143L7.65357 0.392857C7.76067 0.269716 7.8929 0.170941 8.04137 0.103177C8.18983 0.0354131 8.35109 0.000231645 8.51429 0" fill="black"/>
<path d="M0 9.14282H32V11.4285H0V9.14282Z" fill="black"/>
<path d="M13.7144 9.425V20.5714H18.2859V9.425L16.5001 2.28571H15.5001L13.7144 9.425ZM13.7144 0H18.2859L20.5716 9.14286V21.7143C20.5716 22.0174 20.4512 22.3081 20.2368 22.5224C20.0225 22.7367 19.7318 22.8571 19.4287 22.8571H12.5716C12.2685 22.8571 11.9778 22.7367 11.7634 22.5224C11.5491 22.3081 11.4287 22.0174 11.4287 21.7143V9.14286L13.7144 0Z" fill="black"/>
</svg>
