<svg width="34" height="34" viewBox="0 0 34 34" fill="none" xmlns="http://www.w3.org/2000/svg">
<path d="M1.82812 4.29443C1.82812 5.23447 2.20155 6.136 2.86626 6.80071C3.53097 7.46542 4.43251 7.83885 5.37255 7.83885C6.31259 7.83885 7.21413 7.46542 7.87884 6.80071C8.54355 6.136 8.91698 5.23447 8.91698 4.29443C8.91698 3.35439 8.54355 2.45285 7.87884 1.78814C7.21413 1.12343 6.31259 0.75 5.37255 0.75C4.43251 0.75 3.53097 1.12343 2.86626 1.78814C2.20155 2.45285 1.82813 3.35439 1.82812 4.29443Z" stroke="black" stroke-width="1.5" stroke-miterlimit="10"/>
<path d="M26.5977 13.2321L25.6077 19.7163L20.3964 19.7567M17.2084 23.5912H32.3256M20.6966 23.5912L20.1005 32.3108M28.8375 23.5912L29.4335 32.3108M15.6902 13.4298H15.6787L9.6895 13.4645L5.29649 9.92292C5.25463 9.88829 5.20701 9.86519 5.16227 9.83489C5.09373 9.78366 5.02294 9.73551 4.95012 9.69057C4.87433 9.653 4.79624 9.62022 4.71633 9.59244C4.66293 9.578 4.61387 9.55203 4.55903 9.53182C4.45212 9.50398 4.3437 9.4823 4.23431 9.46688C4.20401 9.46688 4.17659 9.45245 4.14484 9.44956H4.00052C3.67071 9.43796 3.34271 9.50295 3.04223 9.63941C2.74176 9.77588 2.477 9.98011 2.26871 10.2361L2.24995 10.2549C2.21387 10.2981 2.18934 10.3487 2.15759 10.3992C2.12584 10.4497 2.06378 10.5291 2.02482 10.6012C1.98809 10.6791 1.95487 10.7585 1.92524 10.8393C1.90504 10.8927 1.8805 10.9404 1.86318 10.9966C1.83496 11.0984 1.81422 11.2021 1.80113 11.3069C1.80113 11.343 1.78381 11.3748 1.78092 11.4079V11.4296L0.759159 22.0326C0.710981 22.5548 0.853995 23.0767 1.16163 23.5014C1.46927 23.9261 1.92061 24.2246 2.43179 24.3416L10.1109 26.098L10.6304 30.8171C10.661 31.1006 10.7472 31.3753 10.8842 31.6254C11.0212 31.8755 11.2062 32.096 11.4287 32.2744C11.6512 32.4527 11.9067 32.5854 12.1806 32.6647C12.4545 32.744 12.7413 32.7684 13.0247 32.7366C13.3074 32.7055 13.5812 32.619 13.8305 32.482C14.0797 32.3451 14.2996 32.1604 14.4774 31.9384C14.6553 31.7165 14.7876 31.4617 14.867 31.1886C14.9463 30.9154 14.971 30.6294 14.9397 30.3467L14.2514 24.0977C14.2027 23.6502 14.0156 23.229 13.7164 22.8928C13.4171 22.5565 13.0204 22.3219 12.5816 22.2216L5.2503 20.5475L5.71356 15.8168L7.57236 17.3264C7.95769 17.6367 8.43827 17.8055 8.93183 17.8055H8.94482L15.7032 17.7666C16.2773 17.7648 16.8272 17.5351 17.232 17.1279C17.6367 16.7207 17.8632 16.1694 17.8614 15.5953C17.8597 15.0212 17.63 14.4712 17.2228 14.0665C16.8156 13.6617 16.2643 13.4353 15.6902 13.437V13.4298Z" stroke="black" stroke-width="1.5" stroke-linecap="round" stroke-linejoin="round"/>
</svg>
