<svg width="34" height="34" viewBox="0 0 34 34" fill="none" xmlns="http://www.w3.org/2000/svg">
<path d="M14.6988 6.09824L21.55 24.6358C18.0828 24.6358 17.0284 22.3171 13.4108 19.9984C10.5164 18.1442 6.47804 18.4526 5.27164 18.84L10.1212 14.4927C10.6156 14.0504 10.862 13.8293 10.9404 13.4926C11.0204 13.1558 10.9084 12.7988 10.6844 12.0867L10.006 9.92017C9.75324 9.10872 9.62524 8.70299 9.39644 8.41087C9.31631 8.30863 9.22781 8.2175 9.13244 8.13904C8.86044 7.91183 8.52124 7.83474 7.84444 7.68463L2.64444 6.51411C2.06052 6.36911 1.54387 5.94218 1.2035 5.32339C0.863127 4.7046 0.725664 3.94237 0.820116 3.19752C0.914567 2.45268 1.23355 1.78349 1.70974 1.33115C2.18594 0.878823 2.7821 0.678732 3.37244 0.773105L10.4044 2.06128C11.6716 2.29254 12.3052 2.40818 12.8332 2.79159C13.0531 2.9511 13.2571 3.14313 13.4412 3.36366C13.8844 3.89313 14.1564 4.62749 14.6988 6.09824Z" stroke="black" stroke-width="1.5" stroke-linecap="round" stroke-linejoin="round"/>
<path d="M27.9504 18.5497C30.6014 18.5497 32.7504 15.8249 32.7504 12.4638C32.7504 9.10267 30.6014 6.37793 27.9504 6.37793C25.2994 6.37793 23.1504 9.10267 23.1504 12.4638C23.1504 15.8249 25.2994 18.5497 27.9504 18.5497Z" stroke="black" stroke-width="1.5" stroke-linecap="round" stroke-linejoin="round"/>
<path d="M0.75 28.8633C2.4396 21.7002 9.9804 24.9886 15.95 28.8633C21.9212 32.74 27.95 35.2068 31.15 28.8633" stroke="black" stroke-width="1.5" stroke-linecap="round" stroke-linejoin="round"/>
</svg>
