<svg width="32" height="32" viewBox="0 0 32 32" fill="none" xmlns="http://www.w3.org/2000/svg">
<path d="M6.80717 0L4.54831 10.6175H5.80761L7.78632 1.32719H9.02386L7.62313 10.6175H8.86747L9.55424 6.04608H15.3884V10.6175H16.6123V6.04608H22.4464L23.1332 10.6175H24.3776L22.9768 1.32719H24.2144L26.1931 10.6175H27.451L25.1935 0H6.80717ZM10.2682 1.32719H21.7325L22.2493 4.71889H9.75143L10.2682 1.32719ZM3.55692 11.9447V14.1567H28.4438V11.9447H3.55692ZM3.5134 15.4839L0 32H32L28.4846 15.4839H27.2266L30.4633 30.6728H27.4034L25.1119 15.4839H23.8676L24.8331 21.8986H16.6123V15.4839H15.3884V21.8986H7.16755L8.1331 15.4839H6.88876L4.60067 30.6728H1.53809L4.77202 15.4839H3.5134ZM6.96356 23.2258H25.0371L26.1591 30.6728H5.84161L6.96356 23.2258Z" fill="black"/>
</svg>
