<svg width="34" height="32" viewBox="0 0 34 32" fill="none" xmlns="http://www.w3.org/2000/svg">
<path d="M32.75 31.1499H0.75M0.75 13.5499L13.7516 3.14999C14.6027 2.46918 15.6601 2.09827 16.75 2.09827C17.8399 2.09827 18.8973 2.46918 19.7484 3.14999L32.75 13.5499M22.35 4.74998V1.55C22.35 1.33782 22.4343 1.13434 22.5843 0.984314C22.7343 0.834285 22.9378 0.75 23.15 0.75H27.15C27.3622 0.75 27.5657 0.834285 27.7157 0.984314C27.8657 1.13434 27.95 1.33782 27.95 1.55V9.54996M3.95 31.1499V11.15M29.55 31.1499V11.15" stroke="black" stroke-width="1.5" stroke-linecap="round"/>
<path d="M21.5492 31.1501V23.1501C21.5492 20.8877 21.5492 19.7565 20.8452 19.0541C20.1444 18.3501 19.0132 18.3501 16.7492 18.3501C14.4852 18.3501 13.3556 18.3501 12.6532 19.0541C11.9492 19.7549 11.9492 20.8861 11.9492 23.1501V31.1501M19.9492 11.1502C19.9492 11.9989 19.6121 12.8128 19.012 13.4129C18.4118 14.013 17.5979 14.3502 16.7492 14.3502C15.9005 14.3502 15.0866 14.013 14.4865 13.4129C13.8864 12.8128 13.5492 11.9989 13.5492 11.1502C13.5492 10.3015 13.8864 9.48756 14.4865 8.88745C15.0866 8.28734 15.9005 7.9502 16.7492 7.9502C17.5979 7.9502 18.4118 8.28734 19.012 8.88745C19.6121 9.48756 19.9492 10.3015 19.9492 11.1502Z" stroke="black" stroke-width="1.5"/>
</svg>
