<svg width="40" height="32" viewBox="0 0 40 32" fill="none" xmlns="http://www.w3.org/2000/svg">
<path d="M7.59876 29.6497H20.0452V25.9408H7.59876V29.6497ZM7.41552 12.4733H20.2308V10.3932H7.41552V12.4733ZM7.41552 7.49996H20.2308V5.42226H7.41552V7.49996ZM27.644 14.0997V11.7494H32.4036V6.14616H27.644V3.79581H32.8605L34.7834 5.6949V7.7726H40V10.123H34.7834V12.203L32.8605 14.0997H27.644ZM18.5816 23.5928H16.2018V15.5476H25.2642V2.348H7.14184C5.83294 2.348 4.71204 2.80867 3.77915 3.73C2.84626 4.65134 2.37982 5.75757 2.37982 7.0487V10.8469C2.37982 12.1396 2.84626 13.2458 3.77915 14.1656C4.71204 15.0853 5.83214 15.546 7.13946 15.5476H11.4422V23.5928H9.06235V17.8979H7.13946C5.1769 17.8979 3.49675 17.2077 2.099 15.8272C0.701253 14.4468 0.00158655 12.7859 0 10.8445V7.05105C0 5.11279 0.699666 3.45345 2.099 2.07301C3.49833 0.692569 5.17849 0.0015669 7.13946 0H27.644V17.9003H18.5816V23.5928ZM5.21894 32V23.5904H22.425V31.9976L5.21894 32Z" fill="black"/>
</svg>
