<svg width="32" height="32" viewBox="0 0 32 32" fill="none" xmlns="http://www.w3.org/2000/svg">
<path d="M7.78418 5.55273C8.23112 5.55281 8.62905 5.67714 8.99219 5.92773C9.35292 6.17668 9.59586 6.496 9.73242 6.89746L9.73535 6.90625L13.3379 16.9297V30.3154C13.3379 30.662 13.2233 30.9321 12.9912 31.1582C12.7583 31.385 12.4755 31.5008 12.1094 31.5H10.3779C10.0101 31.4999 9.7276 31.3834 9.49609 31.1572C9.26427 30.9307 9.14928 30.6606 9.14844 30.3145V28.1318H0.5V25.7627H10.8779V16.3418H0.5V13.9736H9.70605L9.46484 13.3047L7.64844 8.25195L7.53027 7.9209H0.5V5.55273H7.78418ZM23.3516 10.6055H23.9111L25.501 13.7021L25.9463 14.5684L26.3906 13.7021L27.9805 10.6055H28.541C29.3626 10.6056 30.0517 10.8854 30.6357 11.4541C31.2193 12.0224 31.5009 12.6863 31.5 13.4727V19.9385L29.1328 21.4756L28.9277 21.6084L28.9072 21.8525L28.0811 31.5H23.8105L22.9844 21.8525L22.9639 21.6084L22.7588 21.4756L20.3916 19.9385V13.4736C20.3916 12.6855 20.6744 12.0212 21.2578 11.4541C21.769 10.9573 22.3602 10.6812 23.0498 10.6191L23.3516 10.6055ZM6.05273 19.0264C6.65023 19.0283 7.1373 19.2262 7.54395 19.6221C7.95008 20.0175 8.1475 20.4852 8.14844 21.0537C8.14931 21.6208 7.95205 22.0879 7.54395 22.4844C7.13465 22.8819 6.64762 23.0791 6.05371 23.0791H6.05078C5.4648 23.0827 4.97886 22.8869 4.56543 22.4844C4.15265 22.0823 3.95621 21.6146 3.95898 21.0547C3.96187 20.4908 4.16078 20.0215 4.56836 19.6201C4.97321 19.2215 5.4577 19.0245 6.05273 19.0264ZM28.8623 5.55273C28.7652 6.12725 28.496 6.6304 28.041 7.07422C27.4584 7.64246 26.7692 7.92187 25.9463 7.9209C25.1243 7.9209 24.4353 7.64163 23.8525 7.07422C23.3976 6.63128 23.128 6.12805 23.0303 5.55273H28.8623ZM27.6758 0.5C28.0438 0.500023 28.3276 0.616906 28.5605 0.84375C28.7924 1.0697 28.906 1.33816 28.9053 1.68262V2.86816H22.9863V1.68457C22.9863 1.33786 23.1013 1.06858 23.333 0.84375C23.5371 0.645751 23.7796 0.531894 24.083 0.505859L24.2178 0.5H27.6758Z" stroke="black"/>
</svg>
