<svg width="32" height="32" viewBox="0 0 32 32" fill="none" xmlns="http://www.w3.org/2000/svg">
<path d="M30.8571 0H1.14286C0.510714 0 0 0.65 0 1.45455V30.5455C0 31.35 0.510714 32 1.14286 32H30.8571C31.4893 32 32 31.35 32 30.5455V1.45455C32 0.65 31.4893 0 30.8571 0ZM29.4286 28.7273H2.57143V26.9136L7.51786 19.4455L12.8786 27.5364L21.2179 14.9545L29.4286 27.3455V28.7273ZM29.4286 22.8273L21.4357 10.7636C21.3214 10.5909 21.1143 10.5909 21 10.7636L12.8786 23.0182L7.73571 15.2591C7.62143 15.0864 7.41429 15.0864 7.3 15.2591L2.57143 22.3955V3.27273H29.4286V22.8273ZM8.57143 13.4545C8.98415 13.4545 9.39284 13.3511 9.77415 13.1501C10.1555 12.949 10.5019 12.6544 10.7938 12.283C11.0856 11.9115 11.3171 11.4706 11.4751 10.9853C11.633 10.5 11.7143 9.97983 11.7143 9.45455C11.7143 8.92926 11.633 8.40911 11.4751 7.92381C11.3171 7.43851 11.0856 6.99755 10.7938 6.62612C10.5019 6.25468 10.1555 5.96005 9.77415 5.75903C9.39284 5.55801 8.98415 5.45455 8.57143 5.45455C7.73789 5.45455 6.93849 5.87597 6.34909 6.62612C5.75969 7.37626 5.42857 8.39368 5.42857 9.45455C5.42857 10.5154 5.75969 11.5328 6.34909 12.283C6.93849 13.0331 7.73789 13.4545 8.57143 13.4545ZM8.57143 8.18182C9.125 8.18182 9.57143 8.75 9.57143 9.45455C9.57143 10.1591 9.125 10.7273 8.57143 10.7273C8.01786 10.7273 7.57143 10.1591 7.57143 9.45455C7.57143 8.75 8.01786 8.18182 8.57143 8.18182Z" fill="black"/>
</svg>
