<svg width="40" height="32" viewBox="0 0 40 32" fill="none" xmlns="http://www.w3.org/2000/svg">
<path d="M32.76 9.05988e-05C33.38 9.05988e-05 33.936 0.384089 34.16 0.964088C35.28 3.88808 37.378 4.99408 38.5 4.99408C38.8978 4.99408 39.2794 5.15211 39.5607 5.43341C39.842 5.71472 40 6.09625 40 6.49407C40 6.8919 39.842 7.27343 39.5607 7.55473C39.2794 7.83603 38.8978 7.99407 38.5 7.99407C36.496 7.99407 34.326 6.77207 32.754 4.62008C31.126 6.80607 28.812 7.99407 26.38 7.99407C23.946 7.99407 21.628 6.80407 20 4.61408C18.372 6.80407 16.054 7.99407 13.62 7.99407C11.19 7.99407 8.874 6.80807 7.248 4.62208C5.676 6.77607 3.506 8.00007 1.5 8.00007C1.10218 8.00007 0.720644 7.84203 0.43934 7.56073C0.158035 7.27943 0 6.8979 0 6.50007C0 6.10225 0.158035 5.72072 0.43934 5.43941C0.720644 5.15811 1.10218 5.00008 1.5 5.00008C2.62 5.00008 4.72 3.89408 5.84 0.964088C5.94849 0.680466 6.14051 0.436452 6.39067 0.264308C6.64082 0.0921647 6.93734 0 7.241 0C7.54466 0 7.84118 0.0921647 8.09133 0.264308C8.34149 0.436452 8.53351 0.680466 8.642 0.964088C9.73 3.80208 11.782 4.99408 13.622 4.99408C15.462 4.99408 17.51 3.80008 18.6 0.964088C18.7088 0.681113 18.9009 0.437766 19.1508 0.266125C19.4007 0.0944839 19.6968 0.00260734 20 0.00260734C20.3032 0.00260734 20.5993 0.0944839 20.8492 0.266125C21.0991 0.437766 21.2912 0.681113 21.4 0.964088C22.488 3.80208 24.54 4.99408 26.38 4.99408C28.22 4.99408 30.27 3.80008 31.358 0.964088C31.4664 0.680642 31.6583 0.436758 31.9083 0.264645C32.1582 0.0925316 32.4565 0.00028594 32.76 9.05988e-05ZM32.758 12.0001C33.0615 12.0003 33.3578 12.0925 33.6077 12.2646C33.8577 12.4367 34.0496 12.6806 34.158 12.9641C35.278 15.888 37.376 16.994 38.498 16.994C38.8958 16.994 39.2774 17.1521 39.5587 17.4334C39.84 17.7147 39.998 18.0962 39.998 18.494C39.998 18.8919 39.84 19.2734 39.5587 19.5547C39.2774 19.836 38.8958 19.994 38.498 19.994C36.494 19.994 34.324 18.772 32.752 16.62C31.124 18.806 28.81 19.994 26.378 19.994C23.944 19.994 21.626 18.806 19.998 16.614C18.37 18.804 16.052 19.994 13.618 19.994C11.188 19.994 8.872 18.808 7.246 16.624C5.676 18.776 3.506 20 1.5 20C1.10218 20 0.720644 19.842 0.43934 19.5607C0.158035 19.2794 0 18.8979 0 18.5C0 18.1022 0.158035 17.7207 0.43934 17.4394C0.720644 17.1581 1.10218 17 1.5 17C2.62 17 4.72 15.894 5.84 12.9641C5.94849 12.6804 6.14051 12.4364 6.39067 12.2643C6.64082 12.0921 6.93734 12 7.241 12C7.54466 12 7.84118 12.0921 8.09133 12.2643C8.34149 12.4364 8.53351 12.6804 8.642 12.9641C9.73 15.802 11.782 16.994 13.622 16.994C15.462 16.994 17.512 15.802 18.6 12.9641C18.7088 12.6811 18.9009 12.4377 19.1508 12.2661C19.4007 12.0944 19.6968 12.0026 20 12.0026C20.3032 12.0026 20.5993 12.0944 20.8492 12.2661C21.0991 12.4377 21.2912 12.6811 21.4 12.9641C22.488 15.802 24.54 16.994 26.38 16.994C28.22 16.994 30.27 15.8 31.358 12.9641C31.4664 12.6806 31.6583 12.4367 31.9083 12.2646C32.1582 12.0925 32.4545 12.0003 32.758 12.0001ZM34.158 24.964C34.0495 24.6804 33.8575 24.4364 33.6073 24.2642C33.3572 24.0921 33.0607 23.9999 32.757 23.9999C32.4533 23.9999 32.1568 24.0921 31.9067 24.2642C31.6565 24.4364 31.4645 24.6804 31.356 24.964C30.268 27.8 28.216 28.994 26.376 28.994C24.536 28.994 22.486 27.802 21.398 24.964C21.2892 24.681 21.0971 24.4377 20.8472 24.2661C20.5973 24.0944 20.3012 24.0025 19.998 24.0025C19.6948 24.0025 19.3987 24.0944 19.1488 24.2661C18.8989 24.4377 18.7068 24.681 18.598 24.964C17.51 27.802 15.458 28.994 13.618 28.994C11.778 28.994 9.728 27.802 8.64 24.964C8.53115 24.681 8.33911 24.4377 8.08918 24.2661C7.83926 24.0944 7.54319 24.0025 7.24 24.0025C6.93681 24.0025 6.64074 24.0944 6.39082 24.2661C6.14089 24.4377 5.94885 24.681 5.84 24.964C4.716 27.894 2.62 29 1.5 29C1.10218 29 0.720644 29.158 0.43934 29.4393C0.158035 29.7206 0 30.1022 0 30.5C0 30.8978 0.158035 31.2794 0.43934 31.5607C0.720644 31.842 1.10218 32 1.5 32C3.506 32 5.676 30.776 7.248 28.622C8.874 30.808 11.188 31.994 13.62 31.994C16.054 31.994 18.372 30.806 20 28.614C21.628 30.806 23.946 31.994 26.38 31.994C28.814 31.994 31.126 30.806 32.754 28.62C34.326 30.772 36.494 31.994 38.5 31.994C38.8978 31.994 39.2794 31.836 39.5607 31.5547C39.842 31.2734 40 30.8918 40 30.494C40 30.0962 39.842 29.7146 39.5607 29.4333C39.2794 29.152 38.8978 28.994 38.5 28.994C37.378 28.994 35.278 27.888 34.158 24.964Z" fill="black"/>
</svg>
