<svg width="33" height="32" viewBox="0 0 33 32" fill="none" xmlns="http://www.w3.org/2000/svg">
<path d="M25.0581 4.18043C25.2606 4.04851 25.8351 3.62243 26.2935 3.27945C26.5696 3.06936 26.7666 2.78941 26.858 2.47721C26.9494 2.16501 26.9308 1.8355 26.8047 1.53293C26.6787 1.23036 26.4512 0.969218 26.1528 0.784574C25.8544 0.599931 25.4994 0.500628 25.1355 0.5H25.0581C24.0312 0.5 23.1977 1.23872 23.1977 2.14894V2.47872M25.0581 4.18043C23.0965 5.44813 20.7761 6.21455 18.2712 6.6934L17.6163 6.81872V9.07447L17.8827 9.16945C22.4889 10.8026 27.6274 10.8026 32.2336 9.16945L32.5 9.07447V6.81872L31.8451 6.6934C29.3402 6.21455 27.0198 5.44813 25.0581 4.18043ZM9.43023 31.5V22.9255C9.43023 22.2258 9.74385 21.5548 10.3021 21.06C10.8603 20.5652 11.6175 20.2872 12.407 20.2872V9.73404C12.407 9.73404 10.1744 8.41489 6.45349 8.41489C2.73256 8.41489 0.5 9.73404 0.5 9.73404V20.2872C1.28948 20.2872 2.04663 20.5652 2.60488 21.06C3.16312 21.5548 3.47674 22.2258 3.47674 22.9255V31.5M6.23023 5.7766C6.23023 5.7766 3.84884 4.45745 3.84884 2.80851C3.84884 2.19696 4.12294 1.61045 4.61085 1.17801C5.09876 0.745578 5.7605 0.502638 6.45051 0.502638C7.14052 0.502638 7.80226 0.745578 8.29017 1.17801C8.77808 1.61045 9.05219 2.19696 9.05219 2.80851C9.05219 4.45745 6.67674 5.7766 6.67674 5.7766H6.23023Z" stroke="black"/>
</svg>
