<svg width="34" height="34" viewBox="0 0 34 34" fill="none" xmlns="http://www.w3.org/2000/svg">
<path d="M14.0656 26.2736C13.2854 26.2736 12.5951 26.2294 12.0221 26.1707C11.0888 26.0755 10.592 25.1102 10.9966 24.2637C11.9627 22.2378 12.9227 20.5593 12.9227 20.5593L9.49414 21.3212M14.8313 17.661C15.1728 17.0702 15.5436 16.4968 15.9421 15.9429C16.4907 15.1825 17.5757 15.2343 18.1059 16.0084C18.8925 17.157 19.6413 18.331 20.3513 19.5284L21.4058 16.1783M21.6808 22.5052C22.0709 23.1803 22.378 23.8012 22.6134 24.3262C22.9981 25.1818 22.41 26.0945 21.4743 26.1677C19.2374 26.3429 17.3037 26.3521 17.3037 26.3521L19.6778 28.9403" stroke="black" stroke-width="1.5" stroke-linecap="round" stroke-linejoin="round"/>
<path d="M3.15723 10.5343C5.50085 10.724 9.67456 10.932 16.7161 10.932C23.7927 10.932 27.9725 10.7217 30.3108 10.5312C29.6342 21.0593 28.9881 26.5351 28.6033 29.1423C28.409 30.4604 27.5427 31.5347 26.2475 31.8455C24.4829 32.2699 21.446 32.7499 16.7336 32.7499C12.0212 32.7499 8.98427 32.2699 7.2197 31.8463C5.92446 31.5354 5.05818 30.4612 4.86389 29.1431C4.47913 26.5366 3.83304 21.0608 3.15723 10.5351V10.5343Z" stroke="black" stroke-width="1.5" stroke-linecap="round" stroke-linejoin="round"/>
<path d="M22.0928 3.93171C24.8052 3.982 26.9187 4.06429 28.4334 4.14124C30.2543 4.23267 31.9458 5.20257 32.4547 6.95343C32.5319 7.21603 32.602 7.49464 32.665 7.78924C32.9652 9.19114 31.916 10.3957 30.4875 10.5169C28.1865 10.7111 23.9755 10.9321 16.7145 10.9321C9.45433 10.9321 5.24252 10.7111 2.94233 10.5169C1.513 10.3965 0.457758 9.18352 0.827282 7.79838C0.960616 7.29933 1.12443 6.84371 1.29662 6.43914C1.91604 4.98924 3.40709 4.24105 4.98119 4.15419C6.4349 4.07495 8.55071 3.98505 11.3713 3.93171C11.7886 2.98517 12.4722 2.18042 13.3388 1.61549C14.2054 1.05057 15.2176 0.749864 16.252 0.75H17.2136C18.2479 0.750012 19.2599 1.05079 20.1264 1.6157C20.9928 2.18062 21.6763 2.98529 22.0936 3.93171H22.0928Z" stroke="black" stroke-width="1.5" stroke-linecap="round" stroke-linejoin="round"/>
</svg>
