<svg width="24" height="23" viewBox="0 0 24 23" fill="none" xmlns="http://www.w3.org/2000/svg">
<path d="M11.8762 10.4059C14.0283 10.4059 15.702 8.6524 15.702 6.50038C15.702 4.34836 13.9485 2.67456 11.7965 2.67456C9.6445 2.67456 7.9707 4.42806 7.9707 6.50038C7.9707 8.6524 9.7242 10.4059 11.8762 10.4059ZM11.7965 4.26865C11.8762 4.26865 11.8762 4.26865 11.7965 4.26865C13.0718 4.26865 14.108 5.30481 14.108 6.58009C14.108 7.85536 13.0718 8.81181 11.7965 8.81181C10.5212 8.81181 9.56479 7.77565 9.56479 6.58009C9.56479 5.30481 10.601 4.26865 11.7965 4.26865Z" fill="black"/>
<path d="M23.6726 9.92854C22.1582 8.57357 20.1656 7.85622 18.0933 7.93593H17.4556C17.2962 8.57357 17.0571 9.1315 16.7383 9.60973C17.2165 9.53002 17.615 9.53002 18.0933 9.53002C19.6076 9.45032 21.122 9.92854 22.3176 10.8053V16.544H23.9117V10.1677L23.6726 9.92854Z" fill="black"/>
<path d="M16.2594 2.83483C16.6579 1.87837 17.7738 1.40014 18.81 1.79867C19.7664 2.19719 20.2446 3.31305 19.8461 4.34921C19.5273 5.06655 18.81 5.54478 18.0926 5.54478C17.9332 5.54478 17.6941 5.54478 17.5347 5.46508C17.6144 5.8636 17.6144 6.26212 17.6144 6.58094V7.05917C17.7738 7.05917 17.9332 7.13887 18.0926 7.13887C20.0852 7.13887 21.6793 5.54478 21.6793 3.63187C21.6793 1.63926 20.0852 0.045166 18.1723 0.045166C16.8971 0.045166 15.7812 0.682803 15.1436 1.79867C15.5421 2.03778 15.9406 2.3566 16.2594 2.83483Z" fill="black"/>
<path d="M7.17341 9.68908C6.8546 9.21085 6.61548 8.65292 6.45607 8.01529H5.81844C3.74612 7.93558 1.7535 8.65292 0.239114 9.9282L0 10.1673V16.5437H1.59409V10.8049C2.86937 9.92819 4.30405 9.44997 5.81844 9.52967C6.29666 9.52967 6.77489 9.60938 7.17341 9.68908Z" fill="black"/>
<path d="M5.81825 7.05865C5.97766 7.05865 6.13707 7.05865 6.29648 6.97895V6.50072C6.29648 6.1022 6.29648 5.70368 6.37618 5.38486C6.21678 5.46456 5.97766 5.46456 5.81825 5.46456C4.78209 5.46456 3.90534 4.58781 3.90534 3.55165C3.90534 2.51549 4.78209 1.63874 5.81825 1.63874C6.6153 1.63874 7.33264 2.11697 7.65146 2.83431C7.97028 2.43579 8.4485 2.03726 8.84703 1.71845C7.81087 0.0446498 5.65884 -0.513282 3.98505 0.522877C2.31125 1.55904 1.75332 3.71106 2.78948 5.38486C3.42712 6.42102 4.54298 7.05865 5.81825 7.05865Z" fill="black"/>
<path d="M18.4115 14.7097L18.2521 14.4706C16.658 12.7171 14.4263 11.6809 12.0352 11.7606C9.64404 11.6809 7.3326 12.7171 5.73851 14.4706L5.5791 14.7097V20.7673C5.5791 21.4846 6.13703 22.1222 6.93408 22.1222H17.1363C17.8536 22.1222 18.4912 21.4846 18.4912 20.7673V14.7097H18.4115ZM16.8174 20.5281H7.17319V15.2676C8.44847 13.9924 10.202 13.3547 12.0352 13.3547C13.7887 13.275 15.5422 13.9924 16.8174 15.2676V20.5281Z" fill="black"/>
</svg>
