<svg width="34" height="34" viewBox="0 0 34 34" fill="none" xmlns="http://www.w3.org/2000/svg">
<path d="M21.3202 22.0903L22.8456 25.3703C22.8456 25.3703 29.7025 26.8263 29.7025 30.2894C29.7025 32.7499 26.6518 32.7499 26.6518 32.7499H18.5273L14.5273 30.5277" stroke="black" stroke-width="1.5" stroke-linecap="round" stroke-linejoin="round"/>
<path d="M12.1791 22.0903L10.6555 25.3703C10.6555 25.3703 3.79688 26.8263 3.79688 30.2894C3.79688 32.7499 6.84754 32.7499 6.84754 32.7499H10.5275L14.5275 30.5277L19.4164 27.4166" stroke="black" stroke-width="1.5" stroke-linecap="round" stroke-linejoin="round"/>
<path d="M0.75 23.7296C0.75 23.7296 4.55978 22.91 6.846 22.0904C9.13044 10.6096 15.9856 11.4291 16.75 11.4291C17.5144 11.4291 24.3696 10.6096 26.654 22.0904C28.9402 22.9082 32.75 23.7296 32.75 23.7296M16.75 7.86111C17.693 7.86111 18.5974 7.48651 19.2642 6.81971C19.931 6.15292 20.3056 5.24855 20.3056 4.30556C20.3056 3.36256 19.931 2.45819 19.2642 1.7914C18.5974 1.1246 17.693 0.75 16.75 0.75C15.807 0.75 14.9026 1.1246 14.2358 1.7914C13.569 2.45819 13.1944 3.36256 13.1944 4.30556C13.1944 5.24855 13.569 6.15292 14.2358 6.81971C14.9026 7.48651 15.807 7.86111 16.75 7.86111Z" stroke="black" stroke-width="1.5" stroke-linecap="round" stroke-linejoin="round"/>
</svg>
